<svg xmlns="http://www.w3.org/2000/svg"><symbol viewBox="0 0 49.139 25.645" id="svg-sprite-01"><title>svg-sprite-01</title> <g> <path d="M0,11.568c2.217-0.064,2.441-1.221,2.441-2.185c0-0.803-0.096-1.639-0.192-2.507C2.152,6.009,2.088,5.142,2.088,4.338
		C2.088,1.317,3.984,0,6.973,0h1.125v2.731H7.52c-1.446,0-1.961,0.868-1.961,2.281c0,0.579,0.097,1.157,0.161,1.832
		C5.784,7.487,5.881,8.227,5.881,9.03c0.031,2.442-0.965,3.342-2.732,3.728v0.064c1.768,0.386,2.764,1.317,2.732,3.76
		c0,0.836-0.097,1.574-0.161,2.248c-0.064,0.645-0.161,1.254-0.161,1.801c0,1.414,0.482,2.312,1.961,2.312h0.578v2.701H6.941
		c-2.86,0-4.854-1.158-4.854-4.371c0-0.803,0.064-1.672,0.161-2.539s0.192-1.703,0.192-2.506c0-0.9-0.225-2.121-2.441-2.186V11.568z
		"/> <path d="M15.811,0.385h4.885v13.689c0,6.17-2.956,8.324-7.713,8.324c-1.124,0-2.602-0.193-3.566-0.516l0.547-3.951
		c0.674,0.225,1.542,0.385,2.506,0.385c2.057,0,3.342-0.932,3.342-4.307V0.385z"/> <path d="M24.939,17c1.316,0.674,3.342,1.35,5.431,1.35c2.249,0,3.438-0.932,3.438-2.346c0-1.35-1.028-2.121-3.631-3.054
		c-3.599-1.253-5.944-3.246-5.944-6.395c0-3.695,3.084-6.523,8.194-6.523c2.441,0,4.241,0.514,5.526,1.093l-1.092,3.953
		c-0.868-0.418-2.41-1.028-4.531-1.028s-3.149,0.964-3.149,2.089c0,1.382,1.221,1.992,4.017,3.053
		c3.824,1.414,5.624,3.406,5.624,6.46c0,3.631-2.796,6.715-8.741,6.715c-2.475,0-4.916-0.643-6.138-1.316L24.939,17z"/> <path d="M49.139,14.043c-2.185,0.064-2.442,1.285-2.442,2.186c0,0.803,0.097,1.639,0.193,2.506s0.192,1.736,0.192,2.539
		c0,3.213-1.992,4.371-4.884,4.371h-1.157v-2.701h0.578c1.479-0.031,1.961-0.898,1.961-2.312c0-0.547-0.064-1.156-0.161-1.801
		c-0.064-0.674-0.16-1.412-0.16-2.248c-0.032-2.443,0.964-3.375,2.763-3.76v-0.064c-1.799-0.386-2.795-1.285-2.763-3.728
		c0-0.803,0.096-1.542,0.16-2.185c0.097-0.675,0.161-1.253,0.161-1.832c0-1.414-0.515-2.25-1.961-2.281h-0.578V0h1.125
		c3.021,0,4.916,1.317,4.916,4.338c0,0.804-0.096,1.671-0.192,2.539c-0.097,0.868-0.193,1.704-0.193,2.507
		c0,0.964,0.258,2.121,2.442,2.185V14.043z"/> </g> </symbol><symbol viewBox="0 0 27.12 30.144" id="svg-sprite-02"><title>svg-sprite-02</title> <g> <path d="M21.874,18.345c-0.111-2.559-0.1-4.648,0.036-6.212c0.036-0.418,0.124-0.802,0.179-1.149
		c0.031-0.212-0.082-0.411,0.151-0.599l0,0c-0.468-0.464-0.69-0.92-1.049-1.367c-0.024-0.031-0.073-0.062-0.098-0.094
		c-1.456-1.793-4.1-2.006-5.874-0.526c-0.773,0.645-1.66,0.974-2.556,0.876c-1.927-0.212-2.487-2.328-2.485-5.084
		c0-1.017-0.883-1.812-1.895-1.715C6.294,2.667,4.55,3.371,3.341,4.342c-4.72,3.788-4.4,12.024,0.713,18.396
		c5.114,6.371,13.086,8.464,17.807,4.676c0.234-0.187,0.454-0.386,0.664-0.595c-0.018-0.178-0.038-0.359-0.057-0.547
		C22.245,24.028,21.997,21.128,21.874,18.345z M3.524,9.966c0-1.012,0.818-1.832,1.831-1.832c1.012,0,1.832,0.82,1.832,1.832
		s-0.82,1.832-1.832,1.832C4.343,11.798,3.524,10.978,3.524,9.966z M6.287,18.623c-1.011,0-1.831-0.819-1.831-1.831
		c0-1.013,0.82-1.833,1.831-1.833c1.013,0,1.832,0.82,1.832,1.833C8.119,17.804,7.3,18.623,6.287,18.623z M10.673,23.874
		c-1.012,0-1.831-0.821-1.831-1.832c0-1.013,0.819-1.832,1.831-1.832s1.834,0.819,1.834,1.832
		C12.507,23.053,11.685,23.874,10.673,23.874z M17.056,26.161c-1.012,0-1.832-0.82-1.832-1.832s0.82-1.831,1.832-1.831
		s1.832,0.819,1.832,1.831S18.067,26.161,17.056,26.161z M19.261,16.996c-1.211,0.456-2.693-0.503-3.312-2.142
		s-0.138-3.337,1.072-3.794c1.21-0.456,2.691,0.502,3.31,2.142C20.949,14.841,20.47,16.54,19.261,16.996z"/> <path d="M24.101,9.122c-0.438,0-0.721,1.033-0.891,2.206c-0.033,0.225,0.154,0.441,0.128,0.69
		c-0.062,0.639,0.097,1.331,0.097,2.098v0.009c0,2.121-0.15,4.642,0.016,7.047c0,0-0.107,0.004-0.107,0.008
		c0.104,1.509,0.178,2.973,0.302,4.265c0.022,0.239,0.019,0.475,0.041,0.7c0.136,1.372,0.249,2.499,0.331,3.203
		c0.053,0.454,0.434,0.796,0.89,0.796s0.835-0.298,0.89-0.75c0.426-3.508,1.992-17.271,0.153-20.271H24.101z"/> <path d="M24.908,7.524c1.222,0,2.212-0.99,2.212-2.211S25.78,3.146,26.363,0c0,0-3.665,2.168-3.665,5.313
		C22.698,6.534,23.688,7.524,24.908,7.524z"/> </g> </symbol><symbol viewBox="0 0 31 27" id="svg-sprite-03"><title>svg-sprite-03</title> <g> <path d="M28.531,0H1.937C0.593,0,0,1.249,0,2.593v18.065C0,22.002,0.593,22,1.937,22h9.52L11,26.415V26H9.566
		C9.23,26,8.96,26.164,8.96,26.5c0,0.334,0.271,0.5,0.606,0.5H20.9c0.336,0,0.607-0.166,0.607-0.5c0-0.336-0.271-0.5-0.607-0.5H20
		v0.415L19.01,22h9.521C29.873,22,31,22.002,31,20.658V2.593C31,1.249,29.873,0,28.531,0z M21,4v0.381
		c0,0.285-0.216,0.516-0.5,0.516S20,4.666,20,4.381V4h-1v0.381c0,0.285-0.717,0.516-1,0.516c-0.284,0-1-0.23-1-0.516V4.25l0,0v0.131
		c0,0.285-0.714,0.516-1,0.516c-0.283,0-1-0.23-1-0.516V3.994l0,0v0.387c0,0.285-0.715,0.516-1,0.516c-0.284,0-1-0.23-1-0.516V4h-1
		v0.381c0,0.285-0.215,0.516-0.5,0.516S11,4.666,11,4.381V4h-1v0.381c0,0.285-0.216,0.516-0.5,0.516c-0.285,0-0.5-0.23-0.5-0.516V4
		H8v0.381c0,0.285-0.215,0.516-0.5,0.516c-0.284,0-0.5-0.23-0.5-0.516V4H5v7.797C5,12.132,4.562,12,4.229,12H2.371
		C2.037,12,2,12.132,2,11.797V3.256C2,2.922,2.037,2,2.371,2h25.724C28.43,2,28,2.922,28,3.256V14.73c0,0.336,0.43,0.27,0.095,0.27
		h-5.297C22.463,15,22,15.066,22,14.73V4H21z M10.641,9.075c-0.718,0-1.303-0.583-1.303-1.301s0.585-1.302,1.303-1.302
		s1.301,0.584,1.301,1.302S11.358,9.075,10.641,9.075z M9.652,10.384c0.203-0.243,0.56-0.289,0.816-0.106l0.949,0.674l0.005,0.006
		l1.129,0.886l0.007,0.004c0.109,0.088,0.242,0.13,0.374,0.13c0.167,0,0.333-0.07,0.454-0.204c0.007-0.009,0.016-0.019,0.022-0.028
		h0.001c0.205-0.262,0.16-0.639-0.097-0.846c-0.003-0.002-0.005-0.003-0.007-0.006l-0.471-0.369l2.166-2.688
		c0.119-0.146,0.297-0.23,0.488-0.225c0.189,0.005,0.365,0.098,0.477,0.252l4.719,6.537c0.135,0.186,0.154,0.747,0.051,0.95
		C20.632,15.554,20.423,16,20.195,16H6.786c-0.236,0-0.45-0.456-0.55-0.669S6.17,14.707,6.32,14.525L9.652,10.384z M16.205,19.812
		c0,0.536-0.437,0.973-0.972,0.973c-0.536,0-0.973-0.437-0.973-0.973s0.437-0.972,0.973-0.972
		C15.769,18.84,16.205,19.275,16.205,19.812z"/> <path fill="#444444" d="M24.642,5h1.609c0.335,0,0.606-0.164,0.606-0.5c0-0.335-0.271-0.5-0.606-0.5h-1.609
		c-0.335,0-0.606,0.165-0.606,0.5C24.035,4.836,24.307,5,24.642,5z"/> <path fill="#444444" d="M24.642,7h1.609c0.335,0,0.606-0.163,0.606-0.5c0-0.333-0.271-0.5-0.606-0.5h-1.609
		c-0.335,0-0.606,0.167-0.606,0.5C24.035,6.837,24.307,7,24.642,7z"/> <path fill="#444444" d="M24.642,10h1.609c0.335,0,0.606-0.664,0.606-1c0-0.335-0.271-1-0.606-1h-1.609
		c-0.335,0-0.606,0.665-0.606,1C24.035,9.336,24.307,10,24.642,10z"/> <path fill="#444444" d="M24.642,12h1.609c0.335,0,0.606-0.164,0.606-0.5c0-0.333-0.271-0.5-0.606-0.5h-1.609
		c-0.335,0-0.606,0.167-0.606,0.5C24.035,11.836,24.307,12,24.642,12z"/> </g> </symbol><symbol viewBox="0 0 48.416 19.954" id="svg-sprite-04"><title>svg-sprite-04</title> <g> <path d="M1.291,12.23c0-0.438-0.104-0.794-0.307-1.07C0.779,10.884,0.451,10.746,0,10.746V9.208c0.451,0,0.779-0.139,0.984-0.415
		c0.203-0.275,0.307-0.633,0.307-1.07c0-0.337-0.023-0.672-0.07-1.005C1.174,6.384,1.119,6.049,1.059,5.712S0.944,5.036,0.897,4.695
		C0.852,4.354,0.828,4.009,0.828,3.657c0-0.545,0.078-1.042,0.236-1.49s0.399-0.834,0.727-1.156
		c0.326-0.322,0.738-0.571,1.236-0.748C3.525,0.088,4.112,0,4.786,0h0.57v1.183c0,0.094-0.021,0.174-0.06,0.242
		s-0.09,0.124-0.15,0.167S5.023,1.667,4.959,1.688S4.836,1.721,4.786,1.721H4.689c-0.502,0-0.886,0.158-1.15,0.474
		C3.273,2.51,3.141,2.943,3.141,3.496c0,0.394,0.021,0.772,0.064,1.135S3.293,5.344,3.34,5.685S3.432,6.36,3.475,6.69
		s0.064,0.663,0.064,1c0,0.273-0.038,0.531-0.113,0.775C3.35,8.709,3.238,8.93,3.092,9.127S2.77,9.498,2.564,9.648
		C2.361,9.799,2.129,9.91,1.871,9.982c0.258,0.079,0.49,0.191,0.693,0.339c0.205,0.146,0.381,0.32,0.527,0.521
		s0.258,0.423,0.334,0.667c0.075,0.244,0.113,0.498,0.113,0.764c0,0.337-0.021,0.671-0.064,1c-0.043,0.33-0.088,0.665-0.135,1.006
		s-0.092,0.692-0.135,1.055s-0.064,0.74-0.064,1.135c0,0.545,0.133,0.975,0.398,1.291c0.265,0.315,0.648,0.473,1.15,0.473h0.097
		c0.05,0,0.108,0.011,0.173,0.032s0.127,0.054,0.188,0.097s0.111,0.101,0.15,0.173c0.039,0.071,0.06,0.153,0.06,0.247v1.173h-0.57
		c-0.674,0-1.261-0.088-1.759-0.264s-0.91-0.424-1.236-0.742c-0.327-0.319-0.568-0.703-0.727-1.151s-0.236-0.944-0.236-1.489
		c0-0.352,0.023-0.698,0.069-1.038c0.047-0.341,0.101-0.68,0.161-1.017s0.115-0.675,0.162-1.012S1.291,12.567,1.291,12.23z"/> <path d="M10.391,0.656v15.984H7.733V0.656H10.391z"/> <path d="M17.953,5.432c0.695,0,1.335,0.111,1.92,0.334c0.584,0.222,1.088,0.547,1.511,0.974s0.753,0.95,0.989,1.57
		c0.237,0.62,0.355,1.328,0.355,2.124c0,0.201-0.009,0.368-0.027,0.5c-0.018,0.133-0.05,0.237-0.096,0.312
		c-0.047,0.075-0.109,0.129-0.189,0.161c-0.078,0.032-0.179,0.049-0.301,0.049h-6.82c0.08,1.133,0.385,1.965,0.915,2.495
		c0.53,0.531,1.233,0.796,2.108,0.796c0.43,0,0.801-0.05,1.113-0.15s0.584-0.211,0.817-0.333s0.438-0.233,0.613-0.334
		s0.346-0.15,0.511-0.15c0.107,0,0.201,0.021,0.279,0.064c0.08,0.043,0.147,0.104,0.205,0.183l0.774,0.969
		c-0.294,0.344-0.624,0.633-0.989,0.865c-0.366,0.233-0.748,0.42-1.146,0.56c-0.397,0.14-0.803,0.238-1.215,0.296
		s-0.812,0.086-1.199,0.086c-0.768,0-1.481-0.127-2.141-0.382c-0.66-0.254-1.234-0.631-1.722-1.129
		c-0.487-0.499-0.871-1.115-1.151-1.851c-0.279-0.735-0.419-1.587-0.419-2.555c0-0.753,0.122-1.461,0.366-2.125
		c0.243-0.663,0.593-1.24,1.049-1.731c0.455-0.491,1.011-0.88,1.667-1.167C16.387,5.575,17.128,5.432,17.953,5.432z M18.006,7.336
		c-0.773,0-1.38,0.219-1.817,0.656s-0.718,1.058-0.839,1.86h4.991c0-0.344-0.047-0.668-0.14-0.973
		c-0.094-0.305-0.237-0.572-0.431-0.802c-0.194-0.229-0.438-0.41-0.731-0.543C18.744,7.402,18.4,7.336,18.006,7.336z"/> <path d="M31.441,7.756c-0.072,0.114-0.147,0.195-0.227,0.241c-0.078,0.047-0.18,0.07-0.301,0.07c-0.129,0-0.268-0.036-0.414-0.107
		c-0.146-0.072-0.317-0.152-0.512-0.242c-0.193-0.09-0.414-0.17-0.661-0.242c-0.247-0.071-0.54-0.107-0.876-0.107
		c-0.523,0-0.937,0.111-1.237,0.333c-0.302,0.223-0.452,0.514-0.452,0.872c0,0.236,0.077,0.436,0.231,0.597s0.358,0.303,0.613,0.425
		s0.543,0.231,0.866,0.328c0.322,0.097,0.652,0.203,0.989,0.317c0.337,0.115,0.667,0.246,0.989,0.393
		c0.323,0.147,0.611,0.334,0.866,0.56s0.459,0.496,0.613,0.812c0.153,0.316,0.231,0.696,0.231,1.141
		c0,0.531-0.098,1.021-0.291,1.469s-0.477,0.835-0.85,1.161c-0.373,0.327-0.834,0.581-1.383,0.764
		c-0.548,0.184-1.178,0.274-1.887,0.274c-0.381,0-0.752-0.034-1.113-0.102c-0.363-0.068-0.711-0.163-1.044-0.285
		s-0.642-0.266-0.925-0.431s-0.533-0.344-0.748-0.538l0.613-1.011c0.078-0.122,0.172-0.215,0.279-0.279
		c0.107-0.065,0.244-0.098,0.409-0.098s0.321,0.047,0.468,0.141c0.146,0.093,0.317,0.193,0.512,0.301
		c0.193,0.107,0.42,0.208,0.683,0.301c0.262,0.094,0.593,0.141,0.995,0.141c0.315,0,0.586-0.038,0.812-0.113
		c0.225-0.075,0.412-0.174,0.559-0.296s0.254-0.264,0.322-0.425s0.103-0.328,0.103-0.5c0-0.259-0.077-0.47-0.231-0.635
		s-0.358-0.309-0.613-0.431c-0.254-0.122-0.545-0.231-0.871-0.328s-0.66-0.202-1-0.317c-0.341-0.114-0.674-0.249-1-0.403
		s-0.617-0.35-0.871-0.586c-0.256-0.236-0.46-0.527-0.613-0.871c-0.154-0.345-0.232-0.761-0.232-1.248
		c0-0.452,0.09-0.882,0.27-1.291c0.18-0.408,0.443-0.766,0.791-1.07s0.781-0.549,1.301-0.731s1.121-0.274,1.803-0.274
		c0.76,0,1.451,0.126,2.076,0.377c0.623,0.251,1.143,0.581,1.559,0.989L31.441,7.756z"/> <path d="M40.843,7.756c-0.071,0.114-0.146,0.195-0.226,0.241c-0.079,0.047-0.18,0.07-0.302,0.07c-0.129,0-0.267-0.036-0.414-0.107
		c-0.146-0.072-0.317-0.152-0.511-0.242s-0.414-0.17-0.661-0.242c-0.248-0.071-0.54-0.107-0.877-0.107
		c-0.523,0-0.937,0.111-1.237,0.333c-0.301,0.223-0.451,0.514-0.451,0.872c0,0.236,0.076,0.436,0.23,0.597s0.359,0.303,0.613,0.425
		c0.255,0.122,0.544,0.231,0.866,0.328s0.652,0.203,0.989,0.317c0.338,0.115,0.667,0.246,0.99,0.393
		c0.322,0.147,0.611,0.334,0.866,0.56c0.254,0.226,0.458,0.496,0.612,0.812c0.154,0.316,0.231,0.696,0.231,1.141
		c0,0.531-0.097,1.021-0.29,1.469s-0.478,0.835-0.85,1.161c-0.373,0.327-0.834,0.581-1.383,0.764
		c-0.549,0.184-1.178,0.274-1.888,0.274c-0.38,0-0.751-0.034-1.113-0.102c-0.362-0.068-0.71-0.163-1.044-0.285
		c-0.333-0.122-0.642-0.266-0.925-0.431s-0.532-0.344-0.747-0.538l0.613-1.011c0.078-0.122,0.172-0.215,0.279-0.279
		c0.107-0.065,0.244-0.098,0.408-0.098c0.166,0,0.321,0.047,0.469,0.141c0.146,0.093,0.316,0.193,0.511,0.301
		c0.193,0.107,0.421,0.208,0.683,0.301c0.262,0.094,0.594,0.141,0.995,0.141c0.316,0,0.586-0.038,0.812-0.113
		c0.226-0.075,0.412-0.174,0.56-0.296c0.146-0.122,0.254-0.264,0.322-0.425s0.103-0.328,0.103-0.5c0-0.259-0.077-0.47-0.231-0.635
		s-0.358-0.309-0.613-0.431s-0.545-0.231-0.871-0.328s-0.66-0.202-1-0.317c-0.342-0.114-0.675-0.249-1.001-0.403
		s-0.616-0.35-0.871-0.586s-0.46-0.527-0.613-0.871c-0.154-0.345-0.231-0.761-0.231-1.248c0-0.452,0.09-0.882,0.27-1.291
		c0.179-0.408,0.442-0.766,0.79-1.07s0.782-0.549,1.302-0.731s1.12-0.274,1.802-0.274c0.76,0,1.452,0.126,2.076,0.377
		s1.144,0.581,1.56,0.989L40.843,7.756z"/> <path d="M47.125,12.23c0,0.337,0.023,0.674,0.069,1.011c0.047,0.337,0.101,0.675,0.162,1.012c0.061,0.337,0.114,0.676,0.161,1.017
		c0.047,0.34,0.069,0.687,0.069,1.038c0,0.545-0.078,1.041-0.236,1.489c-0.157,0.448-0.399,0.832-0.726,1.151
		c-0.327,0.318-0.739,0.566-1.237,0.742c-0.499,0.176-1.085,0.264-1.759,0.264h-0.57v-1.173c0-0.094,0.02-0.176,0.06-0.247
		c0.039-0.072,0.089-0.13,0.15-0.173c0.061-0.043,0.124-0.075,0.188-0.097s0.121-0.032,0.172-0.032h0.097
		c0.502,0,0.886-0.157,1.151-0.473c0.265-0.316,0.397-0.746,0.397-1.291c0-0.395-0.021-0.772-0.064-1.135s-0.088-0.714-0.135-1.055
		c-0.046-0.341-0.091-0.676-0.134-1.006c-0.043-0.329-0.064-0.663-0.064-1c0-0.266,0.037-0.52,0.112-0.764s0.185-0.466,0.328-0.667
		s0.319-0.375,0.527-0.521c0.208-0.147,0.441-0.26,0.699-0.339c-0.258-0.072-0.491-0.184-0.699-0.334s-0.384-0.324-0.527-0.521
		s-0.253-0.418-0.328-0.661c-0.075-0.244-0.112-0.502-0.112-0.775c0-0.337,0.021-0.67,0.064-1s0.088-0.665,0.134-1.006
		c0.047-0.341,0.092-0.691,0.135-1.054s0.064-0.741,0.064-1.135c0-0.553-0.133-0.986-0.397-1.302
		c-0.266-0.315-0.649-0.474-1.151-0.474h-0.097c-0.051,0-0.107-0.011-0.172-0.032s-0.128-0.054-0.188-0.097
		c-0.062-0.043-0.111-0.099-0.15-0.167c-0.04-0.068-0.06-0.148-0.06-0.242V0h0.57c0.674,0,1.26,0.088,1.759,0.263
		c0.498,0.177,0.91,0.426,1.237,0.748c0.326,0.322,0.568,0.708,0.726,1.156c0.158,0.448,0.236,0.945,0.236,1.49
		c0,0.352-0.022,0.697-0.069,1.038s-0.101,0.68-0.161,1.017c-0.062,0.337-0.115,0.672-0.162,1.006
		c-0.046,0.333-0.069,0.668-0.069,1.005c0,0.438,0.102,0.795,0.307,1.07c0.204,0.276,0.532,0.415,0.984,0.415v1.538
		c-0.452,0-0.78,0.138-0.984,0.414C47.227,11.437,47.125,11.793,47.125,12.23z"/> </g> </symbol><symbol viewBox="0 0 31.451 15.885" id="svg-sprite-05"><title>svg-sprite-05</title> <g> <path d="M2.999,10.165l7.804,3.104v2.424L0,11.42V8.91l10.803-4.296v2.446L2.999,10.165z"/> <path d="M19.904,0l-5.933,15.885h-2.403L17.48,0H19.904z"/> <path d="M28.453,10.165l-7.805-3.104V4.614L31.451,8.91v2.51l-10.803,4.273V13.27L28.453,10.165z"/> </g> </symbol><symbol viewBox="0 0 27.12 30.144" id="svg-sprite_branding"><title>svg-sprite_branding</title> <g> <path d="M19.465,17.396c-0.079-1.817-0.07-3.302,0.026-4.412c0.025-0.297,0.088-0.569,0.127-0.816
		c0.021-0.15-0.059-0.292,0.107-0.425l0,0c-0.332-0.33-0.49-0.653-0.745-0.971c-0.018-0.022-0.052-0.044-0.069-0.066
		c-1.034-1.273-2.912-1.425-4.172-0.374c-0.55,0.458-1.18,0.692-1.815,0.622c-1.369-0.15-1.767-1.653-1.766-3.611
		c0-0.722-0.627-1.287-1.346-1.218C8.399,6.261,7.16,6.761,6.302,7.451c-3.353,2.69-3.126,8.541,0.506,13.067
		c3.633,4.524,9.295,6.012,12.647,3.32c0.167-0.132,0.323-0.273,0.472-0.422c-0.012-0.126-0.026-0.256-0.04-0.389
		C19.729,21.434,19.553,19.373,19.465,17.396z M6.432,11.445c0-0.719,0.581-1.301,1.301-1.301c0.719,0,1.302,0.583,1.302,1.301
		c0,0.718-0.583,1.301-1.302,1.301C7.013,12.747,6.432,12.164,6.432,11.445z M8.395,17.594c-0.718,0-1.301-0.581-1.301-1.3
		c0-0.72,0.583-1.302,1.301-1.302c0.719,0,1.301,0.583,1.301,1.302C9.695,17.013,9.113,17.594,8.395,17.594z M11.509,21.324
		c-0.718,0-1.3-0.584-1.3-1.302c0-0.719,0.582-1.301,1.3-1.301c0.719,0,1.303,0.582,1.303,1.301
		C12.812,20.74,12.228,21.324,11.509,21.324z M16.043,22.948c-0.719,0-1.302-0.583-1.302-1.301c0-0.719,0.583-1.301,1.302-1.301
		s1.301,0.582,1.301,1.301C17.344,22.365,16.762,22.948,16.043,22.948z M17.609,16.438c-0.86,0.324-1.913-0.357-2.353-1.521
		c-0.438-1.164-0.098-2.37,0.762-2.695c0.859-0.324,1.912,0.356,2.351,1.521C18.809,14.908,18.468,16.114,17.609,16.438z"/> <path d="M21.047,11.122c-0.311,0-0.512,0.596-0.633,1.429c-0.023,0.16,0.04,0.244,0.021,0.422c-0.044,0.453-0.001,0.876-0.001,1.42
		v0.006c0,1.507-0.037,3.297,0.081,5.005c0,0-0.042,0.003-0.042,0.006c0.074,1.071,0.144,2.111,0.231,3.029
		c0.016,0.17,0.022,0.337,0.038,0.497c0.097,0.975,0.182,1.775,0.24,2.275c0.037,0.322,0.31,0.565,0.634,0.565
		c0.323,0,0.594-0.073,0.633-0.396c0.303-2.49,1.416-12.26,0.109-14.26H21.047z"/> <path d="M21.62,9.711c0.868,0,1.571-0.703,1.571-1.57s-0.952-1.54-0.537-3.774c0,0-2.604,1.54-2.604,3.774
		C20.051,9.008,20.754,9.711,21.62,9.711z"/> </g> </symbol><symbol viewBox="0 0 31 27" id="svg-sprite_design"><title>svg-sprite_design</title> <g> <path d="M25.449,3H5.145C4.118,3,4,4.146,4,5.172v13.792C4,19.991,4.118,20,5.145,20h7.268L12,23.36V23h-1.03
		c-0.257,0-0.463,0.244-0.463,0.5S10.713,24,10.97,24h8.653c0.257,0,0.464-0.244,0.464-0.5S19.88,23,19.623,23H19v0.36L18.18,20
		h7.27C26.474,20,27,19.991,27,18.965V5.172C27,4.146,26.474,3,25.449,3z M20,6v0.538c0,0.218-0.283,0.394-0.5,0.394
		S19,6.755,19,6.538V6h-1v0.538c0,0.218-0.283,0.394-0.5,0.394S17,6.755,17,6.538v-0.1l0,0v0.1c0,0.218-0.781,0.394-1,0.394
		c-0.216,0-1-0.176-1-0.394V6.243l0,0v0.295c0,0.218-0.282,0.394-0.5,0.394c-0.217,0-0.5-0.176-0.5-0.394V6h-1v0.538
		c0,0.218-0.282,0.394-0.5,0.394S12,6.755,12,6.538V6h-1v0.538c0,0.218,0.217,0.394,0,0.394c-0.218,0,0-0.176,0-0.394V6h-1v0.538
		c0,0.218-0.283,0.394-0.5,0.394S9,6.755,9,6.538V6H7v6.2C7,12.456,7.149,12,6.895,12H5.477C5.222,12,5,12.456,5,12.2V5.679
		C5,5.424,5.222,5,5.477,5h19.64C25.372,5,25,5.424,25,5.679v8.761C25,14.696,25.372,15,25.116,15h-4.044
		C20.816,15,20,14.696,20,14.439V6L20,6z M11.79,10.122c-0.548,0-0.995-0.445-0.995-0.993c0-0.548,0.447-0.994,0.995-0.994
		s0.993,0.446,0.993,0.994C12.783,9.677,12.338,10.122,11.79,10.122z M11.035,11.121c0.155-0.186,0.428-0.221,0.624-0.081
		l0.725,0.515l0.003,0.004l0.862,0.676l0.005,0.003c0.084,0.067,0.186,0.099,0.286,0.099c0.127,0,0.254-0.054,0.347-0.156
		c0.005-0.007,0.012-0.014,0.017-0.021h0.001c0.156-0.2,0.122-0.488-0.073-0.646c-0.003-0.001-0.004-0.002-0.006-0.004l-0.359-0.282
		l1.654-2.052C15.211,9.064,15.347,9,15.492,9.004c0.145,0.004,0.279,0.075,0.364,0.192l3.603,4.991
		c0.103,0.142,0.118,0.366,0.039,0.521C19.418,14.864,19.259,15,19.085,15H8.847c-0.18,0-0.344-0.144-0.419-0.307
		c-0.076-0.163-0.051-0.374,0.063-0.513L11.035,11.121z M16.038,18.318c0,0.41-0.333,0.743-0.741,0.743
		c-0.41,0-0.743-0.333-0.743-0.743c0-0.409,0.333-0.741,0.743-0.741C15.705,17.577,16.038,17.909,16.038,18.318z"/> <path fill="#444444" d="M22.479,7h1.229c0.256,0,0.463-0.243,0.463-0.5c0-0.256-0.207-0.5-0.463-0.5h-1.229
		c-0.256,0-0.463,0.244-0.463,0.5C22.017,6.757,22.224,7,22.479,7z"/> <path fill="#444444" d="M22.479,9h1.229c0.256,0,0.463-0.243,0.463-0.5c0-0.254-0.207-0.5-0.463-0.5h-1.229
		c-0.256,0-0.463,0.246-0.463,0.5C22.017,8.757,22.224,9,22.479,9z"/> <path fill="#444444" d="M22.479,11h1.229c0.256,0,0.463-0.743,0.463-1c0-0.256-0.207-1-0.463-1h-1.229
		c-0.256,0-0.463,0.744-0.463,1C22.017,10.257,22.224,11,22.479,11z"/> <path fill="#444444" d="M22.479,12h1.229c0.256,0,0.463,0.256,0.463,0c0-0.254-0.207,0-0.463,0H22.479
		c-0.256,0-0.463-0.254-0.463,0C22.017,12.256,22.224,12,22.479,12z"/> </g> </symbol><symbol viewBox="0 0 31.451 15.885" id="svg-sprite_html"><title>svg-sprite_html</title> <g> <path d="M2.999,10.165l7.804,3.104v2.424L0,11.42V8.91l10.803-4.296v2.446L2.999,10.165z"/> <path d="M19.904,0l-5.933,15.885h-2.403L17.48,0H19.904z"/> <path d="M28.453,10.165l-7.805-3.104V4.614L31.451,8.91v2.51l-10.803,4.273V13.27L28.453,10.165z"/> </g> </symbol><symbol viewBox="0 0 49.139 25.645" id="svg-sprite_javaScript"><title>svg-sprite_javaScript</title> <g> <path d="M0,11.568c2.217-0.064,2.441-1.221,2.441-2.185c0-0.803-0.096-1.639-0.192-2.507C2.152,6.009,2.088,5.142,2.088,4.338
		C2.088,1.317,3.984,0,6.973,0h1.125v2.731H7.52c-1.446,0-1.961,0.868-1.961,2.281c0,0.579,0.097,1.157,0.161,1.832
		C5.784,7.487,5.881,8.227,5.881,9.03c0.031,2.442-0.965,3.342-2.732,3.728v0.064c1.768,0.386,2.764,1.317,2.732,3.76
		c0,0.836-0.097,1.574-0.161,2.248c-0.064,0.645-0.161,1.254-0.161,1.801c0,1.414,0.482,2.312,1.961,2.312h0.578v2.701H6.941
		c-2.86,0-4.854-1.158-4.854-4.371c0-0.803,0.064-1.672,0.161-2.539s0.192-1.703,0.192-2.506c0-0.9-0.225-2.121-2.441-2.186V11.568z
		"/> <path d="M15.811,0.385h4.885v13.689c0,6.17-2.956,8.324-7.713,8.324c-1.124,0-2.602-0.193-3.566-0.516l0.547-3.951
		c0.674,0.225,1.542,0.385,2.506,0.385c2.057,0,3.342-0.932,3.342-4.307V0.385z"/> <path d="M24.939,17c1.316,0.674,3.342,1.35,5.431,1.35c2.249,0,3.438-0.932,3.438-2.346c0-1.35-1.028-2.121-3.631-3.054
		c-3.599-1.253-5.944-3.246-5.944-6.395c0-3.695,3.084-6.523,8.194-6.523c2.441,0,4.241,0.514,5.526,1.093l-1.092,3.953
		c-0.868-0.418-2.41-1.028-4.531-1.028s-3.149,0.964-3.149,2.089c0,1.382,1.221,1.992,4.017,3.053
		c3.824,1.414,5.624,3.406,5.624,6.46c0,3.631-2.796,6.715-8.741,6.715c-2.475,0-4.916-0.643-6.138-1.316L24.939,17z"/> <path d="M49.139,14.043c-2.185,0.064-2.442,1.285-2.442,2.186c0,0.803,0.097,1.639,0.193,2.506s0.192,1.736,0.192,2.539
		c0,3.213-1.992,4.371-4.884,4.371h-1.157v-2.701h0.578c1.479-0.031,1.961-0.898,1.961-2.312c0-0.547-0.064-1.156-0.161-1.801
		c-0.064-0.674-0.16-1.412-0.16-2.248c-0.032-2.443,0.964-3.375,2.763-3.76v-0.064c-1.799-0.386-2.795-1.285-2.763-3.728
		c0-0.803,0.096-1.542,0.16-2.185c0.097-0.675,0.161-1.253,0.161-1.832c0-1.414-0.515-2.25-1.961-2.281h-0.578V0h1.125
		c3.021,0,4.916,1.317,4.916,4.338c0,0.804-0.096,1.671-0.192,2.539c-0.097,0.868-0.193,1.704-0.193,2.507
		c0,0.964,0.258,2.121,2.442,2.185V14.043z"/> </g> </symbol><symbol viewBox="0 0 48.416 19.954" id="svg-sprite_less"><title>svg-sprite_less</title> <g> <path d="M1.291,12.23c0-0.438-0.104-0.794-0.307-1.07C0.779,10.884,0.451,10.746,0,10.746V9.208c0.451,0,0.779-0.139,0.984-0.415
		c0.203-0.275,0.307-0.633,0.307-1.07c0-0.337-0.023-0.672-0.07-1.005C1.174,6.384,1.119,6.049,1.059,5.712S0.944,5.036,0.897,4.695
		C0.852,4.354,0.828,4.009,0.828,3.657c0-0.545,0.078-1.042,0.236-1.49s0.399-0.834,0.727-1.156
		c0.326-0.322,0.738-0.571,1.236-0.748C3.525,0.088,4.112,0,4.786,0h0.57v1.183c0,0.094-0.021,0.174-0.06,0.242
		s-0.09,0.124-0.15,0.167S5.023,1.667,4.959,1.688S4.836,1.721,4.786,1.721H4.689c-0.502,0-0.886,0.158-1.15,0.474
		C3.273,2.51,3.141,2.943,3.141,3.496c0,0.394,0.021,0.772,0.064,1.135S3.293,5.344,3.34,5.685S3.432,6.36,3.475,6.69
		s0.064,0.663,0.064,1c0,0.273-0.038,0.531-0.113,0.775C3.35,8.709,3.238,8.93,3.092,9.127S2.77,9.498,2.564,9.648
		C2.361,9.799,2.129,9.91,1.871,9.982c0.258,0.079,0.49,0.191,0.693,0.339c0.205,0.146,0.381,0.32,0.527,0.521
		s0.258,0.423,0.334,0.667c0.075,0.244,0.113,0.498,0.113,0.764c0,0.337-0.021,0.671-0.064,1c-0.043,0.33-0.088,0.665-0.135,1.006
		s-0.092,0.692-0.135,1.055s-0.064,0.74-0.064,1.135c0,0.545,0.133,0.975,0.398,1.291c0.265,0.315,0.648,0.473,1.15,0.473h0.097
		c0.05,0,0.108,0.011,0.173,0.032s0.127,0.054,0.188,0.097s0.111,0.101,0.15,0.173c0.039,0.071,0.06,0.153,0.06,0.247v1.173h-0.57
		c-0.674,0-1.261-0.088-1.759-0.264s-0.91-0.424-1.236-0.742c-0.327-0.319-0.568-0.703-0.727-1.151s-0.236-0.944-0.236-1.489
		c0-0.352,0.023-0.698,0.069-1.038c0.047-0.341,0.101-0.68,0.161-1.017s0.115-0.675,0.162-1.012S1.291,12.567,1.291,12.23z"/> <path d="M10.391,0.656v15.984H7.733V0.656H10.391z"/> <path d="M17.953,5.432c0.695,0,1.335,0.111,1.92,0.334c0.584,0.222,1.088,0.547,1.511,0.974s0.753,0.95,0.989,1.57
		c0.237,0.62,0.355,1.328,0.355,2.124c0,0.201-0.009,0.368-0.027,0.5c-0.018,0.133-0.05,0.237-0.096,0.312
		c-0.047,0.075-0.109,0.129-0.189,0.161c-0.078,0.032-0.179,0.049-0.301,0.049h-6.82c0.08,1.133,0.385,1.965,0.915,2.495
		c0.53,0.531,1.233,0.796,2.108,0.796c0.43,0,0.801-0.05,1.113-0.15s0.584-0.211,0.817-0.333s0.438-0.233,0.613-0.334
		s0.346-0.15,0.511-0.15c0.107,0,0.201,0.021,0.279,0.064c0.08,0.043,0.147,0.104,0.205,0.183l0.774,0.969
		c-0.294,0.344-0.624,0.633-0.989,0.865c-0.366,0.233-0.748,0.42-1.146,0.56c-0.397,0.14-0.803,0.238-1.215,0.296
		s-0.812,0.086-1.199,0.086c-0.768,0-1.481-0.127-2.141-0.382c-0.66-0.254-1.234-0.631-1.722-1.129
		c-0.487-0.499-0.871-1.115-1.151-1.851c-0.279-0.735-0.419-1.587-0.419-2.555c0-0.753,0.122-1.461,0.366-2.125
		c0.243-0.663,0.593-1.24,1.049-1.731c0.455-0.491,1.011-0.88,1.667-1.167C16.387,5.575,17.128,5.432,17.953,5.432z M18.006,7.336
		c-0.773,0-1.38,0.219-1.817,0.656s-0.718,1.058-0.839,1.86h4.991c0-0.344-0.047-0.668-0.14-0.973
		c-0.094-0.305-0.237-0.572-0.431-0.802c-0.194-0.229-0.438-0.41-0.731-0.543C18.744,7.402,18.4,7.336,18.006,7.336z"/> <path d="M31.441,7.756c-0.072,0.114-0.147,0.195-0.227,0.241c-0.078,0.047-0.18,0.07-0.301,0.07c-0.129,0-0.268-0.036-0.414-0.107
		c-0.146-0.072-0.317-0.152-0.512-0.242c-0.193-0.09-0.414-0.17-0.661-0.242c-0.247-0.071-0.54-0.107-0.876-0.107
		c-0.523,0-0.937,0.111-1.237,0.333c-0.302,0.223-0.452,0.514-0.452,0.872c0,0.236,0.077,0.436,0.231,0.597s0.358,0.303,0.613,0.425
		s0.543,0.231,0.866,0.328c0.322,0.097,0.652,0.203,0.989,0.317c0.337,0.115,0.667,0.246,0.989,0.393
		c0.323,0.147,0.611,0.334,0.866,0.56s0.459,0.496,0.613,0.812c0.153,0.316,0.231,0.696,0.231,1.141
		c0,0.531-0.098,1.021-0.291,1.469s-0.477,0.835-0.85,1.161c-0.373,0.327-0.834,0.581-1.383,0.764
		c-0.548,0.184-1.178,0.274-1.887,0.274c-0.381,0-0.752-0.034-1.113-0.102c-0.363-0.068-0.711-0.163-1.044-0.285
		s-0.642-0.266-0.925-0.431s-0.533-0.344-0.748-0.538l0.613-1.011c0.078-0.122,0.172-0.215,0.279-0.279
		c0.107-0.065,0.244-0.098,0.409-0.098s0.321,0.047,0.468,0.141c0.146,0.093,0.317,0.193,0.512,0.301
		c0.193,0.107,0.42,0.208,0.683,0.301c0.262,0.094,0.593,0.141,0.995,0.141c0.315,0,0.586-0.038,0.812-0.113
		c0.225-0.075,0.412-0.174,0.559-0.296s0.254-0.264,0.322-0.425s0.103-0.328,0.103-0.5c0-0.259-0.077-0.47-0.231-0.635
		s-0.358-0.309-0.613-0.431c-0.254-0.122-0.545-0.231-0.871-0.328s-0.66-0.202-1-0.317c-0.341-0.114-0.674-0.249-1-0.403
		s-0.617-0.35-0.871-0.586c-0.256-0.236-0.46-0.527-0.613-0.871c-0.154-0.345-0.232-0.761-0.232-1.248
		c0-0.452,0.09-0.882,0.27-1.291c0.18-0.408,0.443-0.766,0.791-1.07s0.781-0.549,1.301-0.731s1.121-0.274,1.803-0.274
		c0.76,0,1.451,0.126,2.076,0.377c0.623,0.251,1.143,0.581,1.559,0.989L31.441,7.756z"/> <path d="M40.843,7.756c-0.071,0.114-0.146,0.195-0.226,0.241c-0.079,0.047-0.18,0.07-0.302,0.07c-0.129,0-0.267-0.036-0.414-0.107
		c-0.146-0.072-0.317-0.152-0.511-0.242s-0.414-0.17-0.661-0.242c-0.248-0.071-0.54-0.107-0.877-0.107
		c-0.523,0-0.937,0.111-1.237,0.333c-0.301,0.223-0.451,0.514-0.451,0.872c0,0.236,0.076,0.436,0.23,0.597s0.359,0.303,0.613,0.425
		c0.255,0.122,0.544,0.231,0.866,0.328s0.652,0.203,0.989,0.317c0.338,0.115,0.667,0.246,0.99,0.393
		c0.322,0.147,0.611,0.334,0.866,0.56c0.254,0.226,0.458,0.496,0.612,0.812c0.154,0.316,0.231,0.696,0.231,1.141
		c0,0.531-0.097,1.021-0.29,1.469s-0.478,0.835-0.85,1.161c-0.373,0.327-0.834,0.581-1.383,0.764
		c-0.549,0.184-1.178,0.274-1.888,0.274c-0.38,0-0.751-0.034-1.113-0.102c-0.362-0.068-0.71-0.163-1.044-0.285
		c-0.333-0.122-0.642-0.266-0.925-0.431s-0.532-0.344-0.747-0.538l0.613-1.011c0.078-0.122,0.172-0.215,0.279-0.279
		c0.107-0.065,0.244-0.098,0.408-0.098c0.166,0,0.321,0.047,0.469,0.141c0.146,0.093,0.316,0.193,0.511,0.301
		c0.193,0.107,0.421,0.208,0.683,0.301c0.262,0.094,0.594,0.141,0.995,0.141c0.316,0,0.586-0.038,0.812-0.113
		c0.226-0.075,0.412-0.174,0.56-0.296c0.146-0.122,0.254-0.264,0.322-0.425s0.103-0.328,0.103-0.5c0-0.259-0.077-0.47-0.231-0.635
		s-0.358-0.309-0.613-0.431s-0.545-0.231-0.871-0.328s-0.66-0.202-1-0.317c-0.342-0.114-0.675-0.249-1.001-0.403
		s-0.616-0.35-0.871-0.586s-0.46-0.527-0.613-0.871c-0.154-0.345-0.231-0.761-0.231-1.248c0-0.452,0.09-0.882,0.27-1.291
		c0.179-0.408,0.442-0.766,0.79-1.07s0.782-0.549,1.302-0.731s1.12-0.274,1.802-0.274c0.76,0,1.452,0.126,2.076,0.377
		s1.144,0.581,1.56,0.989L40.843,7.756z"/> <path d="M47.125,12.23c0,0.337,0.023,0.674,0.069,1.011c0.047,0.337,0.101,0.675,0.162,1.012c0.061,0.337,0.114,0.676,0.161,1.017
		c0.047,0.34,0.069,0.687,0.069,1.038c0,0.545-0.078,1.041-0.236,1.489c-0.157,0.448-0.399,0.832-0.726,1.151
		c-0.327,0.318-0.739,0.566-1.237,0.742c-0.499,0.176-1.085,0.264-1.759,0.264h-0.57v-1.173c0-0.094,0.02-0.176,0.06-0.247
		c0.039-0.072,0.089-0.13,0.15-0.173c0.061-0.043,0.124-0.075,0.188-0.097s0.121-0.032,0.172-0.032h0.097
		c0.502,0,0.886-0.157,1.151-0.473c0.265-0.316,0.397-0.746,0.397-1.291c0-0.395-0.021-0.772-0.064-1.135s-0.088-0.714-0.135-1.055
		c-0.046-0.341-0.091-0.676-0.134-1.006c-0.043-0.329-0.064-0.663-0.064-1c0-0.266,0.037-0.52,0.112-0.764s0.185-0.466,0.328-0.667
		s0.319-0.375,0.527-0.521c0.208-0.147,0.441-0.26,0.699-0.339c-0.258-0.072-0.491-0.184-0.699-0.334s-0.384-0.324-0.527-0.521
		s-0.253-0.418-0.328-0.661c-0.075-0.244-0.112-0.502-0.112-0.775c0-0.337,0.021-0.67,0.064-1s0.088-0.665,0.134-1.006
		c0.047-0.341,0.092-0.691,0.135-1.054s0.064-0.741,0.064-1.135c0-0.553-0.133-0.986-0.397-1.302
		c-0.266-0.315-0.649-0.474-1.151-0.474h-0.097c-0.051,0-0.107-0.011-0.172-0.032s-0.128-0.054-0.188-0.097
		c-0.062-0.043-0.111-0.099-0.15-0.167c-0.04-0.068-0.06-0.148-0.06-0.242V0h0.57c0.674,0,1.26,0.088,1.759,0.263
		c0.498,0.177,0.91,0.426,1.237,0.748c0.326,0.322,0.568,0.708,0.726,1.156c0.158,0.448,0.236,0.945,0.236,1.49
		c0,0.352-0.022,0.697-0.069,1.038s-0.101,0.68-0.161,1.017c-0.062,0.337-0.115,0.672-0.162,1.006
		c-0.046,0.333-0.069,0.668-0.069,1.005c0,0.438,0.102,0.795,0.307,1.07c0.204,0.276,0.532,0.415,0.984,0.415v1.538
		c-0.452,0-0.78,0.138-0.984,0.414C47.227,11.437,47.125,11.793,47.125,12.23z"/> </g> </symbol></svg>