<svg xmlns="http://www.w3.org/2000/svg"><symbol viewBox="0 0 280.549 104.572" id="logo"><title>logo</title> <g> <g> <g> <path d="M39.925,15.699c0.799-0.928,1.588-1.853,2.414-2.769c1.989-2.203,3.935-4.346,5.935-6.349V3.727h-14v18.861
				C36.274,20.32,37.946,17.997,39.925,15.699z"/> </g> <g> <g> <path d="M48.536,51.797V23.552c-0.631,0.978-1.262,1.937-1.903,2.861c-4.584,6.695-9.226,11.813-12.717,11.438l-4.651-3.45
					c0.111-2.403,1.271-5.23,3.068-8.251c-1.037-1.101-2.227-2.063-3.603-2.866c-2.571-1.503-5.446-2.254-8.625-2.254
					c-2.944,0-5.646,0.607-8.103,1.82c-2.454,1.213-4.58,2.873-6.366,4.981c-1.794,2.111-3.182,4.609-4.164,7.496
					C0.49,38.221,0,41.312,0,44.606c0,3.409,0.535,6.542,1.603,9.399c1.069,2.86,2.556,5.362,4.464,7.499
					c1.907,2.139,4.174,3.798,6.804,4.982c2.627,1.184,5.502,1.78,8.623,1.78c3.122,0,6.054-0.695,8.795-2.082
					c2.747-1.389,4.929-3.495,6.547-6.328l0.26,2.34c0.23,1.906,1.096,3.365,2.603,4.379c1.497,1.009,3.464,1.514,5.889,1.514
					c0.809,0,1.678-0.042,2.603-0.131c0.923-0.085,2.019-0.272,3.291-0.562v-11.7c-1.096-0.116-1.861-0.448-2.296-0.997
					C48.751,54.153,48.536,53.187,48.536,51.797z M30.573,48.294C25.415,55.227,13.781,54,13.781,54
					c6.44-5.974,5.035-10.266,7.039-12.955c1.999-2.692,5.809-3.254,8.499-1.257C32.016,41.794,32.572,45.595,30.573,48.294z"/> </g> </g> </g> <g> <g enable-background="new    "> <path d="M26.64,96.758h-3.017l-0.154-1.476c-0.858,1.233-2.003,1.85-3.545,1.85c-2.18,0-3.259-1.409-3.259-3.677v-8.389h3.479
				v7.948c0,1.189,0.396,1.541,1.123,1.541s1.387-0.484,1.894-1.365v-8.124h3.479V96.758z"/> <path d="M39.495,96.758h-3.941l-2.025-4.382l-1.982,4.382h-3.787l3.765-6.144l-3.391-5.548h3.897l1.629,3.743l1.563-3.743h3.699
				l-3.193,5.438L39.495,96.758z"/> <path d="M56.334,80.42v16.338h-3.083l-0.176-1.365c-0.661,0.969-1.74,1.739-3.325,1.739c-2.972,0-4.448-2.466-4.448-6.253
				c0-3.611,1.828-6.188,4.844-6.188c1.057,0,2.004,0.419,2.708,1.102v-5.747L56.334,80.42z M52.856,93.279v-5.064
				c-0.529-0.617-1.057-0.991-1.806-0.991c-1.255,0-2.136,1.057-2.136,3.678c0,2.906,0.792,3.677,1.938,3.677
				C51.667,94.578,52.305,94.137,52.856,93.279z"/> <path d="M69.19,91.935h-7.222c0.22,2.092,1.211,2.664,2.642,2.664c0.947,0,1.784-0.33,2.796-1.034l1.431,1.938
				c-1.167,0.925-2.664,1.629-4.558,1.629c-3.897,0-5.879-2.51-5.879-6.165c0-3.501,1.916-6.275,5.46-6.275
				c3.347,0,5.395,2.202,5.395,5.989C69.256,91.054,69.234,91.583,69.19,91.935z M65.843,89.689
				c-0.022-1.585-0.506-2.686-1.894-2.686c-1.167,0-1.828,0.727-2.004,2.84h3.897V89.689z"/> <path d="M79.667,86.123l-1.277,1.96c-0.903-0.573-1.872-0.903-2.884-0.903c-0.947,0-1.409,0.353-1.409,0.881
				c0,0.616,0.308,0.881,2.4,1.497c2.312,0.661,3.611,1.63,3.611,3.722c0,2.422-2.29,3.853-5.196,3.853
				c-2.025,0-3.743-0.704-4.888-1.739l1.695-1.894c0.881,0.683,1.959,1.146,3.104,1.146c1.057,0,1.695-0.396,1.695-1.102
				c0-0.793-0.352-1.035-2.466-1.629c-2.312-0.661-3.457-1.85-3.457-3.655c0-2.004,1.828-3.567,4.778-3.567
				C77.069,84.691,78.588,85.242,79.667,86.123z"/> <path d="M85.675,80.883c0,1.123-0.859,1.981-2.07,1.981s-2.048-0.858-2.048-1.981s0.837-1.982,2.048-1.982
				S85.675,79.76,85.675,80.883z M85.367,96.758h-3.479V85.066h3.479V96.758z"/> <path d="M98.863,85.749c-0.815,0.33-1.894,0.462-3.369,0.462c1.476,0.639,2.202,1.497,2.202,3.017
				c0,2.268-1.872,3.919-4.91,3.919c-0.484,0-0.925-0.044-1.343-0.132c-0.242,0.132-0.375,0.396-0.375,0.66
				c0,0.353,0.154,0.705,1.277,0.705h1.761c2.73,0,4.47,1.431,4.47,3.391c0,2.4-2.114,3.875-6.121,3.875
				c-4.425,0-5.592-1.453-5.592-3.765h3.126c0,1.013,0.44,1.453,2.554,1.453c2.047,0,2.532-0.572,2.532-1.321
				c0-0.683-0.507-1.145-1.674-1.145h-1.695c-2.554,0-3.589-1.058-3.589-2.312c0-0.858,0.55-1.717,1.387-2.245
				c-1.498-0.793-2.092-1.828-2.092-3.348c0-2.642,2.07-4.271,5.13-4.271c2.598,0.066,4.095-0.683,5.504-1.519L98.863,85.749z
				 M90.87,88.919c0,1.277,0.705,1.982,1.761,1.982c1.145,0,1.762-0.683,1.762-2.026c0-1.299-0.595-1.894-1.762-1.894
				C91.553,86.981,90.87,87.708,90.87,88.919z"/> <path d="M110.31,88.215v8.543h-3.479v-7.948c0-1.233-0.418-1.563-1.101-1.563c-0.771,0-1.409,0.55-2.025,1.519v7.993h-3.479
				V85.066h3.039l0.242,1.387c0.991-1.145,2.114-1.762,3.567-1.762C109.099,84.691,110.31,85.991,110.31,88.215z"/> <path d="M128.381,84.647c0,1.85-1.211,3.039-2.906,4.162l2.973,2.796c0.418-0.881,0.771-1.938,1.057-3.171l2.907,0.859
				c-0.573,1.673-1.255,3.017-2.026,4.095l2.664,2.356l-2.972,1.387l-1.718-1.651c-1.387,1.123-2.972,1.651-4.822,1.651
				c-3.259,0-5.438-1.695-5.438-4.271c0-1.827,0.991-3.017,2.972-4.315c-1.519-1.476-2.114-2.355-2.114-3.766
				c0-1.894,1.52-3.654,4.712-3.654C126.642,81.125,128.381,82.643,128.381,84.647z M121.732,92.662c0,1.211,0.947,2.004,2.4,2.004
				c0.969,0,1.762-0.286,2.488-0.837l-3.567-3.413C122.15,91.077,121.732,91.781,121.732,92.662z M122.305,84.779
				c0,0.771,0.33,1.277,1.255,2.202c1.013-0.66,1.497-1.321,1.497-2.246c0-0.836-0.506-1.364-1.343-1.364
				C122.833,83.371,122.305,83.943,122.305,84.779z"/> <path d="M151.231,80.42v16.338h-3.083l-0.176-1.365c-0.661,0.969-1.739,1.739-3.325,1.739c-2.973,0-4.448-2.466-4.448-6.253
				c0-3.611,1.828-6.188,4.844-6.188c1.057,0,2.004,0.419,2.709,1.102v-5.747L151.231,80.42z M147.753,93.279v-5.064
				c-0.529-0.617-1.058-0.991-1.807-0.991c-1.254,0-2.135,1.057-2.135,3.678c0,2.906,0.792,3.677,1.938,3.677
				C146.563,94.578,147.202,94.137,147.753,93.279z"/> <path d="M164.087,91.935h-7.223c0.221,2.092,1.211,2.664,2.643,2.664c0.946,0,1.783-0.33,2.796-1.034l1.431,1.938
				c-1.166,0.925-2.664,1.629-4.557,1.629c-3.898,0-5.879-2.51-5.879-6.165c0-3.501,1.915-6.275,5.46-6.275
				c3.347,0,5.395,2.202,5.395,5.989C164.152,91.054,164.13,91.583,164.087,91.935z M160.739,89.689
				c-0.021-1.585-0.506-2.686-1.893-2.686c-1.168,0-1.828,0.727-2.004,2.84h3.896V89.689z"/> <path d="M172.317,96.758H168.2l-3.766-11.691h3.788l2.069,9.049l2.158-9.049h3.545L172.317,96.758z"/> <path d="M187.134,91.935h-7.223c0.221,2.092,1.211,2.664,2.643,2.664c0.946,0,1.783-0.33,2.796-1.034l1.431,1.938
				c-1.166,0.925-2.664,1.629-4.557,1.629c-3.898,0-5.879-2.51-5.879-6.165c0-3.501,1.915-6.275,5.46-6.275
				c3.347,0,5.395,2.202,5.395,5.989C187.199,91.054,187.177,91.583,187.134,91.935z M183.786,89.689
				c-0.021-1.585-0.506-2.686-1.893-2.686c-1.168,0-1.828,0.727-2.004,2.84h3.896V89.689z"/> <path d="M189.089,93.785V80.42l3.479-0.374v13.607c0,0.484,0.177,0.727,0.595,0.727c0.242,0,0.418-0.044,0.572-0.11l0.683,2.466
				c-0.528,0.221-1.276,0.396-2.114,0.396C190.278,97.132,189.089,95.921,189.089,93.785z"/> <path d="M206.307,90.923c0,3.743-2.157,6.209-5.726,6.209c-3.545,0-5.725-2.29-5.725-6.23c0-3.743,2.158-6.21,5.725-6.21
				C204.149,84.691,206.307,86.981,206.307,90.923z M198.468,90.901c0,2.598,0.705,3.677,2.113,3.677
				c1.41,0,2.114-1.123,2.114-3.655c0-2.598-0.704-3.677-2.114-3.677C199.173,87.246,198.468,88.369,198.468,90.901z"/> <path d="M219.338,90.879c0,3.611-1.761,6.253-4.646,6.253c-1.145,0-2.113-0.396-2.84-1.232v5.372l-3.479,0.374V85.066h3.061
				l0.177,1.299c0.969-1.211,2.223-1.674,3.303-1.674C217.995,84.691,219.338,87.092,219.338,90.879z M215.728,90.923
				c0-2.906-0.705-3.677-1.916-3.677c-0.748,0-1.453,0.506-1.959,1.365v4.932c0.484,0.705,1.057,1.035,1.783,1.035
				C214.935,94.578,215.728,93.543,215.728,90.923z"/> <path d="M237.5,88.215v8.543h-3.479v-7.948c0-1.233-0.462-1.563-0.99-1.563c-0.748,0-1.277,0.55-1.783,1.519v7.993h-3.479v-7.948
				c0-1.233-0.462-1.563-0.991-1.563c-0.727,0-1.276,0.55-1.783,1.519v7.993h-3.479V85.066h3.039l0.242,1.365
				c0.902-1.146,1.959-1.74,3.391-1.74c1.299,0,2.289,0.661,2.752,1.85c0.925-1.211,2.004-1.85,3.501-1.85
				C236.245,84.691,237.5,85.991,237.5,88.215z"/> <path d="M250.243,91.935h-7.222c0.22,2.092,1.211,2.664,2.642,2.664c0.947,0,1.784-0.33,2.797-1.034l1.432,1.938
				c-1.168,0.925-2.664,1.629-4.559,1.629c-3.896,0-5.879-2.51-5.879-6.165c0-3.501,1.916-6.275,5.461-6.275
				c3.347,0,5.395,2.202,5.395,5.989C250.31,91.054,250.288,91.583,250.243,91.935z M246.897,89.689
				c-0.022-1.585-0.507-2.686-1.895-2.686c-1.166,0-1.827,0.727-2.004,2.84h3.898V89.689z"/> <path d="M262.395,88.215v8.543h-3.479v-7.948c0-1.233-0.418-1.563-1.101-1.563c-0.771,0-1.409,0.55-2.025,1.519v7.993h-3.479
				V85.066h3.039l0.242,1.387c0.99-1.145,2.113-1.762,3.566-1.762C261.184,84.691,262.395,85.991,262.395,88.215z"/> <path d="M272.343,96.207c-0.881,0.617-2.113,0.925-3.17,0.925c-2.576-0.021-3.832-1.475-3.832-4.228v-5.416h-1.65v-2.422h1.65
				v-2.532l3.479-0.396v2.929h2.687l-0.375,2.422h-2.312v5.372c0,1.123,0.374,1.52,1.101,1.52c0.396,0,0.793-0.11,1.256-0.396
				L272.343,96.207z"/> </g> </g> <g> <g enable-background="new    "> <path d="M75.848,69.662c-3.506,0-6.653-0.571-9.442-1.713s-5.153-2.696-7.092-4.662c-1.939-1.964-3.414-4.235-4.422-6.812
				c-1.01-2.576-1.514-5.271-1.514-8.088c0-3.027,0.504-5.883,1.514-8.565c1.009-2.683,2.47-5.033,4.383-7.052
				c1.912-2.019,4.263-3.612,7.052-4.781c2.789-1.168,5.962-1.753,9.522-1.753c3.559,0,6.72,0.585,9.482,1.753
				c2.761,1.169,5.1,2.749,7.012,4.741c1.913,1.992,3.359,4.29,4.343,6.893c0.982,2.604,1.474,5.339,1.474,8.207
				c0,0.744-0.027,1.474-0.08,2.191c-0.054,0.717-0.133,1.342-0.239,1.872H66.923c0.211,2.816,1.235,4.954,3.068,6.415
				c1.833,1.461,3.917,2.191,6.255,2.191c1.859,0,3.652-0.451,5.378-1.355c1.726-0.902,2.881-2.124,3.466-3.665l10.837,3.028
				c-1.647,3.294-4.197,5.976-7.649,8.048C84.824,68.626,80.681,69.662,75.848,69.662z M84.692,44.004
				c-0.267-2.655-1.223-4.753-2.869-6.295c-1.647-1.54-3.693-2.311-6.135-2.311c-2.498,0-4.556,0.784-6.176,2.351
				c-1.621,1.567-2.563,3.653-2.829,6.255H84.692z"/> <path d="M120.469,69.662c-3.56,0-7.066-0.571-10.518-1.713c-3.454-1.142-6.375-2.802-8.765-4.98l4.542-7.809
				c2.55,1.753,5.032,3.107,7.45,4.063c2.417,0.956,4.741,1.435,6.972,1.435c1.646,0,2.921-0.292,3.825-0.877
				c0.903-0.584,1.354-1.435,1.354-2.55s-0.571-2.004-1.713-2.669c-1.143-0.664-3.147-1.367-6.016-2.112
				c-2.816-0.796-5.193-1.565-7.132-2.311c-1.939-0.743-3.52-1.566-4.741-2.47c-1.223-0.903-2.099-1.938-2.63-3.107
				c-0.531-1.168-0.797-2.55-0.797-4.144c0-2.124,0.425-4.064,1.275-5.817c0.849-1.753,2.019-3.239,3.506-4.462
				c1.486-1.222,3.253-2.178,5.299-2.869c2.044-0.689,4.263-1.035,6.653-1.035c3.134,0,6.068,0.426,8.805,1.274
				c2.735,0.851,5.378,2.391,7.928,4.622l-4.94,7.649c-2.39-1.646-4.516-2.841-6.375-3.586c-1.86-0.743-3.666-1.115-5.418-1.115
				c-1.382,0-2.55,0.278-3.506,0.837c-0.956,0.558-1.434,1.447-1.434,2.669c0,1.169,0.518,2.046,1.554,2.63
				c1.036,0.585,2.96,1.223,5.777,1.912c2.975,0.797,5.484,1.594,7.53,2.391c2.044,0.797,3.706,1.687,4.98,2.669
				c1.275,0.983,2.204,2.111,2.789,3.387c0.584,1.274,0.877,2.789,0.877,4.542c0,4.144-1.542,7.438-4.622,9.881
				C129.898,68.44,125.728,69.662,120.469,69.662z"/> <path d="M160.229,69.662c-3.559,0-7.065-0.571-10.518-1.713c-3.454-1.142-6.375-2.802-8.766-4.98l4.543-7.809
				c2.549,1.753,5.031,3.107,7.449,4.063c2.417,0.956,4.742,1.435,6.973,1.435c1.646,0,2.921-0.292,3.824-0.877
				c0.903-0.584,1.355-1.435,1.355-2.55s-0.572-2.004-1.713-2.669c-1.144-0.664-3.148-1.367-6.017-2.112
				c-2.816-0.796-5.192-1.565-7.132-2.311c-1.939-0.743-3.52-1.566-4.74-2.47c-1.223-0.903-2.1-1.938-2.631-3.107
				c-0.531-1.168-0.797-2.55-0.797-4.144c0-2.124,0.426-4.064,1.275-5.817s2.019-3.239,3.506-4.462
				c1.486-1.222,3.254-2.178,5.299-2.869c2.045-0.689,4.264-1.035,6.654-1.035c3.133,0,6.068,0.426,8.805,1.274
				c2.735,0.851,5.379,2.391,7.928,4.622l-4.939,7.649c-2.391-1.646-4.516-2.841-6.375-3.586c-1.859-0.743-3.666-1.115-5.418-1.115
				c-1.383,0-2.551,0.278-3.506,0.837c-0.957,0.558-1.435,1.447-1.435,2.669c0,1.169,0.518,2.046,1.554,2.63
				c1.035,0.585,2.961,1.223,5.777,1.912c2.975,0.797,5.484,1.594,7.529,2.391s3.705,1.687,4.98,2.669
				c1.275,0.983,2.203,2.111,2.789,3.387c0.584,1.274,0.877,2.789,0.877,4.542c0,4.144-1.542,7.438-4.622,9.881
				C169.659,68.44,165.489,69.662,160.229,69.662z"/> </g> <g enable-background="new    "> <path d="M198.078,16.235c0,0.982-0.199,1.905-0.598,2.769s-0.942,1.62-1.634,2.271c-0.69,0.651-1.494,1.17-2.41,1.555
				s-1.893,0.577-2.928,0.577c-1.01,0-1.953-0.192-2.829-0.577s-1.653-0.903-2.331-1.555c-0.678-0.65-1.209-1.407-1.594-2.271
				s-0.577-1.786-0.577-2.769c0-1.01,0.192-1.952,0.577-2.829s0.916-1.646,1.594-2.311s1.455-1.182,2.331-1.554
				s1.819-0.559,2.829-0.559c1.035,0,2.012,0.187,2.928,0.559s1.72,0.89,2.41,1.554c0.691,0.664,1.235,1.434,1.634,2.311
				S198.078,15.225,198.078,16.235z M196.644,27.55v41.315h-12.351V27.55H196.644z"/> </g> <g enable-background="new    "> <path d="M233.298,66.634c-1.754,0.745-3.76,1.435-6.017,2.072c-2.259,0.638-4.529,0.956-6.813,0.956
				c-1.593,0-3.094-0.199-4.502-0.598s-2.643-1.036-3.705-1.912c-1.062-0.877-1.899-2.032-2.51-3.467
				c-0.611-1.434-0.916-3.159-0.916-5.179V36.674h-5.339v-9.642h5.339V13.724h12.749v13.308h8.526v9.642h-8.526v17.45
				c0,1.382,0.345,2.378,1.036,2.988c0.689,0.611,1.566,0.916,2.629,0.916c0.957,0,1.939-0.159,2.949-0.478
				c1.008-0.319,1.885-0.664,2.629-1.036L233.298,66.634z"/> <path d="M250.11,69.662c-2.072,0-3.998-0.332-5.777-0.996c-1.781-0.664-3.307-1.594-4.582-2.789s-2.285-2.602-3.027-4.223
				c-0.745-1.62-1.116-3.387-1.116-5.299c0-2.072,0.438-3.957,1.315-5.658c0.876-1.699,2.111-3.159,3.705-4.382
				c1.594-1.222,3.479-2.178,5.657-2.869c2.177-0.689,4.595-1.036,7.251-1.036c1.753,0,3.453,0.147,5.1,0.438
				c1.646,0.293,3.08,0.731,4.303,1.315v-1.913c0-4.833-2.789-7.251-8.367-7.251c-2.284,0-4.461,0.386-6.533,1.155
				c-2.072,0.771-4.25,1.927-6.534,3.467l-3.745-7.969c2.762-1.805,5.631-3.16,8.605-4.063c2.975-0.902,6.136-1.354,9.482-1.354
				c6.321,0,11.208,1.487,14.662,4.462c3.452,2.976,5.18,7.331,5.18,13.068v10.757c0,1.274,0.199,2.165,0.598,2.669
				c0.397,0.506,1.102,0.811,2.111,0.917v10.757c-1.116,0.266-2.126,0.438-3.028,0.518c-0.903,0.08-1.728,0.12-2.47,0.12
				c-2.391,0-4.197-0.466-5.419-1.395c-1.223-0.929-1.992-2.244-2.311-3.944l-0.239-1.912c-1.859,2.39-4.078,4.223-6.653,5.498
				C255.7,69.024,252.979,69.662,250.11,69.662z M253.854,60.499c1.381,0,2.723-0.239,4.024-0.718
				c1.301-0.478,2.376-1.115,3.228-1.912c1.221-0.956,1.832-1.965,1.832-3.028v-3.983c-1.115-0.425-2.324-0.758-3.625-0.996
				c-1.303-0.239-2.51-0.359-3.626-0.359c-2.339,0-4.263,0.532-5.776,1.594c-1.515,1.063-2.271,2.444-2.271,4.144
				c0,1.542,0.584,2.803,1.753,3.785C250.561,60.008,252.048,60.499,253.854,60.499z"/> </g> </g> </g> </symbol><symbol viewBox="0 0 49.139 25.645" id="svg-sprite-01"><title>svg-sprite-01</title> <g> <path d="M0,11.568c2.217-0.064,2.441-1.221,2.441-2.185c0-0.803-0.096-1.639-0.192-2.507C2.152,6.009,2.088,5.142,2.088,4.338
		C2.088,1.317,3.984,0,6.973,0h1.125v2.731H7.52c-1.446,0-1.961,0.868-1.961,2.281c0,0.579,0.097,1.157,0.161,1.832
		C5.784,7.487,5.881,8.227,5.881,9.03c0.031,2.442-0.965,3.342-2.732,3.728v0.064c1.768,0.386,2.764,1.317,2.732,3.76
		c0,0.836-0.097,1.574-0.161,2.248c-0.064,0.645-0.161,1.254-0.161,1.801c0,1.414,0.482,2.312,1.961,2.312h0.578v2.701H6.941
		c-2.86,0-4.854-1.158-4.854-4.371c0-0.803,0.064-1.672,0.161-2.539s0.192-1.703,0.192-2.506c0-0.9-0.225-2.121-2.441-2.186V11.568z
		"/> <path d="M15.811,0.385h4.885v13.689c0,6.17-2.956,8.324-7.713,8.324c-1.124,0-2.602-0.193-3.566-0.516l0.547-3.951
		c0.674,0.225,1.542,0.385,2.506,0.385c2.057,0,3.342-0.932,3.342-4.307V0.385z"/> <path d="M24.939,17c1.316,0.674,3.342,1.35,5.431,1.35c2.249,0,3.438-0.932,3.438-2.346c0-1.35-1.028-2.121-3.631-3.054
		c-3.599-1.253-5.944-3.246-5.944-6.395c0-3.695,3.084-6.523,8.194-6.523c2.441,0,4.241,0.514,5.526,1.093l-1.092,3.953
		c-0.868-0.418-2.41-1.028-4.531-1.028s-3.149,0.964-3.149,2.089c0,1.382,1.221,1.992,4.017,3.053
		c3.824,1.414,5.624,3.406,5.624,6.46c0,3.631-2.796,6.715-8.741,6.715c-2.475,0-4.916-0.643-6.138-1.316L24.939,17z"/> <path d="M49.139,14.043c-2.185,0.064-2.442,1.285-2.442,2.186c0,0.803,0.097,1.639,0.193,2.506s0.192,1.736,0.192,2.539
		c0,3.213-1.992,4.371-4.884,4.371h-1.157v-2.701h0.578c1.479-0.031,1.961-0.898,1.961-2.312c0-0.547-0.064-1.156-0.161-1.801
		c-0.064-0.674-0.16-1.412-0.16-2.248c-0.032-2.443,0.964-3.375,2.763-3.76v-0.064c-1.799-0.386-2.795-1.285-2.763-3.728
		c0-0.803,0.096-1.542,0.16-2.185c0.097-0.675,0.161-1.253,0.161-1.832c0-1.414-0.515-2.25-1.961-2.281h-0.578V0h1.125
		c3.021,0,4.916,1.317,4.916,4.338c0,0.804-0.096,1.671-0.192,2.539c-0.097,0.868-0.193,1.704-0.193,2.507
		c0,0.964,0.258,2.121,2.442,2.185V14.043z"/> </g> </symbol><symbol viewBox="0 0 27.12 30.144" id="svg-sprite-02"><title>svg-sprite-02</title> <g> <path d="M21.874,18.345c-0.111-2.559-0.1-4.648,0.036-6.212c0.036-0.418,0.124-0.802,0.179-1.149
		c0.031-0.212-0.082-0.411,0.151-0.599l0,0c-0.468-0.464-0.69-0.92-1.049-1.367c-0.024-0.031-0.073-0.062-0.098-0.094
		c-1.456-1.793-4.1-2.006-5.874-0.526c-0.773,0.645-1.66,0.974-2.556,0.876c-1.927-0.212-2.487-2.328-2.485-5.084
		c0-1.017-0.883-1.812-1.895-1.715C6.294,2.667,4.55,3.371,3.341,4.342c-4.72,3.788-4.4,12.024,0.713,18.396
		c5.114,6.371,13.086,8.464,17.807,4.676c0.234-0.187,0.454-0.386,0.664-0.595c-0.018-0.178-0.038-0.359-0.057-0.547
		C22.245,24.028,21.997,21.128,21.874,18.345z M3.524,9.966c0-1.012,0.818-1.832,1.831-1.832c1.012,0,1.832,0.82,1.832,1.832
		s-0.82,1.832-1.832,1.832C4.343,11.798,3.524,10.978,3.524,9.966z M6.287,18.623c-1.011,0-1.831-0.819-1.831-1.831
		c0-1.013,0.82-1.833,1.831-1.833c1.013,0,1.832,0.82,1.832,1.833C8.119,17.804,7.3,18.623,6.287,18.623z M10.673,23.874
		c-1.012,0-1.831-0.821-1.831-1.832c0-1.013,0.819-1.832,1.831-1.832s1.834,0.819,1.834,1.832
		C12.507,23.053,11.685,23.874,10.673,23.874z M17.056,26.161c-1.012,0-1.832-0.82-1.832-1.832s0.82-1.831,1.832-1.831
		s1.832,0.819,1.832,1.831S18.067,26.161,17.056,26.161z M19.261,16.996c-1.211,0.456-2.693-0.503-3.312-2.142
		s-0.138-3.337,1.072-3.794c1.21-0.456,2.691,0.502,3.31,2.142C20.949,14.841,20.47,16.54,19.261,16.996z"/> <path d="M24.101,9.122c-0.438,0-0.721,1.033-0.891,2.206c-0.033,0.225,0.154,0.441,0.128,0.69
		c-0.062,0.639,0.097,1.331,0.097,2.098v0.009c0,2.121-0.15,4.642,0.016,7.047c0,0-0.107,0.004-0.107,0.008
		c0.104,1.509,0.178,2.973,0.302,4.265c0.022,0.239,0.019,0.475,0.041,0.7c0.136,1.372,0.249,2.499,0.331,3.203
		c0.053,0.454,0.434,0.796,0.89,0.796s0.835-0.298,0.89-0.75c0.426-3.508,1.992-17.271,0.153-20.271H24.101z"/> <path d="M24.908,7.524c1.222,0,2.212-0.99,2.212-2.211S25.78,3.146,26.363,0c0,0-3.665,2.168-3.665,5.313
		C22.698,6.534,23.688,7.524,24.908,7.524z"/> </g> </symbol><symbol viewBox="0 0 31 27" id="svg-sprite-03"><title>svg-sprite-03</title> <g> <path d="M28.531,0H1.937C0.593,0,0,1.249,0,2.593v18.065C0,22.002,0.593,22,1.937,22h9.52L11,26.415V26H9.566
		C9.23,26,8.96,26.164,8.96,26.5c0,0.334,0.271,0.5,0.606,0.5H20.9c0.336,0,0.607-0.166,0.607-0.5c0-0.336-0.271-0.5-0.607-0.5H20
		v0.415L19.01,22h9.521C29.873,22,31,22.002,31,20.658V2.593C31,1.249,29.873,0,28.531,0z M21,4v0.381
		c0,0.285-0.216,0.516-0.5,0.516S20,4.666,20,4.381V4h-1v0.381c0,0.285-0.717,0.516-1,0.516c-0.284,0-1-0.23-1-0.516V4.25l0,0v0.131
		c0,0.285-0.714,0.516-1,0.516c-0.283,0-1-0.23-1-0.516V3.994l0,0v0.387c0,0.285-0.715,0.516-1,0.516c-0.284,0-1-0.23-1-0.516V4h-1
		v0.381c0,0.285-0.215,0.516-0.5,0.516S11,4.666,11,4.381V4h-1v0.381c0,0.285-0.216,0.516-0.5,0.516c-0.285,0-0.5-0.23-0.5-0.516V4
		H8v0.381c0,0.285-0.215,0.516-0.5,0.516c-0.284,0-0.5-0.23-0.5-0.516V4H5v7.797C5,12.132,4.562,12,4.229,12H2.371
		C2.037,12,2,12.132,2,11.797V3.256C2,2.922,2.037,2,2.371,2h25.724C28.43,2,28,2.922,28,3.256V14.73c0,0.336,0.43,0.27,0.095,0.27
		h-5.297C22.463,15,22,15.066,22,14.73V4H21z M10.641,9.075c-0.718,0-1.303-0.583-1.303-1.301s0.585-1.302,1.303-1.302
		s1.301,0.584,1.301,1.302S11.358,9.075,10.641,9.075z M9.652,10.384c0.203-0.243,0.56-0.289,0.816-0.106l0.949,0.674l0.005,0.006
		l1.129,0.886l0.007,0.004c0.109,0.088,0.242,0.13,0.374,0.13c0.167,0,0.333-0.07,0.454-0.204c0.007-0.009,0.016-0.019,0.022-0.028
		h0.001c0.205-0.262,0.16-0.639-0.097-0.846c-0.003-0.002-0.005-0.003-0.007-0.006l-0.471-0.369l2.166-2.688
		c0.119-0.146,0.297-0.23,0.488-0.225c0.189,0.005,0.365,0.098,0.477,0.252l4.719,6.537c0.135,0.186,0.154,0.747,0.051,0.95
		C20.632,15.554,20.423,16,20.195,16H6.786c-0.236,0-0.45-0.456-0.55-0.669S6.17,14.707,6.32,14.525L9.652,10.384z M16.205,19.812
		c0,0.536-0.437,0.973-0.972,0.973c-0.536,0-0.973-0.437-0.973-0.973s0.437-0.972,0.973-0.972
		C15.769,18.84,16.205,19.275,16.205,19.812z"/> <path fill="#444444" d="M24.642,5h1.609c0.335,0,0.606-0.164,0.606-0.5c0-0.335-0.271-0.5-0.606-0.5h-1.609
		c-0.335,0-0.606,0.165-0.606,0.5C24.035,4.836,24.307,5,24.642,5z"/> <path fill="#444444" d="M24.642,7h1.609c0.335,0,0.606-0.163,0.606-0.5c0-0.333-0.271-0.5-0.606-0.5h-1.609
		c-0.335,0-0.606,0.167-0.606,0.5C24.035,6.837,24.307,7,24.642,7z"/> <path fill="#444444" d="M24.642,10h1.609c0.335,0,0.606-0.664,0.606-1c0-0.335-0.271-1-0.606-1h-1.609
		c-0.335,0-0.606,0.665-0.606,1C24.035,9.336,24.307,10,24.642,10z"/> <path fill="#444444" d="M24.642,12h1.609c0.335,0,0.606-0.164,0.606-0.5c0-0.333-0.271-0.5-0.606-0.5h-1.609
		c-0.335,0-0.606,0.167-0.606,0.5C24.035,11.836,24.307,12,24.642,12z"/> </g> </symbol><symbol viewBox="0 0 48.416 19.954" id="svg-sprite-04"><title>svg-sprite-04</title> <g> <path d="M1.291,12.23c0-0.438-0.104-0.794-0.307-1.07C0.779,10.884,0.451,10.746,0,10.746V9.208c0.451,0,0.779-0.139,0.984-0.415
		c0.203-0.275,0.307-0.633,0.307-1.07c0-0.337-0.023-0.672-0.07-1.005C1.174,6.384,1.119,6.049,1.059,5.712S0.944,5.036,0.897,4.695
		C0.852,4.354,0.828,4.009,0.828,3.657c0-0.545,0.078-1.042,0.236-1.49s0.399-0.834,0.727-1.156
		c0.326-0.322,0.738-0.571,1.236-0.748C3.525,0.088,4.112,0,4.786,0h0.57v1.183c0,0.094-0.021,0.174-0.06,0.242
		s-0.09,0.124-0.15,0.167S5.023,1.667,4.959,1.688S4.836,1.721,4.786,1.721H4.689c-0.502,0-0.886,0.158-1.15,0.474
		C3.273,2.51,3.141,2.943,3.141,3.496c0,0.394,0.021,0.772,0.064,1.135S3.293,5.344,3.34,5.685S3.432,6.36,3.475,6.69
		s0.064,0.663,0.064,1c0,0.273-0.038,0.531-0.113,0.775C3.35,8.709,3.238,8.93,3.092,9.127S2.77,9.498,2.564,9.648
		C2.361,9.799,2.129,9.91,1.871,9.982c0.258,0.079,0.49,0.191,0.693,0.339c0.205,0.146,0.381,0.32,0.527,0.521
		s0.258,0.423,0.334,0.667c0.075,0.244,0.113,0.498,0.113,0.764c0,0.337-0.021,0.671-0.064,1c-0.043,0.33-0.088,0.665-0.135,1.006
		s-0.092,0.692-0.135,1.055s-0.064,0.74-0.064,1.135c0,0.545,0.133,0.975,0.398,1.291c0.265,0.315,0.648,0.473,1.15,0.473h0.097
		c0.05,0,0.108,0.011,0.173,0.032s0.127,0.054,0.188,0.097s0.111,0.101,0.15,0.173c0.039,0.071,0.06,0.153,0.06,0.247v1.173h-0.57
		c-0.674,0-1.261-0.088-1.759-0.264s-0.91-0.424-1.236-0.742c-0.327-0.319-0.568-0.703-0.727-1.151s-0.236-0.944-0.236-1.489
		c0-0.352,0.023-0.698,0.069-1.038c0.047-0.341,0.101-0.68,0.161-1.017s0.115-0.675,0.162-1.012S1.291,12.567,1.291,12.23z"/> <path d="M10.391,0.656v15.984H7.733V0.656H10.391z"/> <path d="M17.953,5.432c0.695,0,1.335,0.111,1.92,0.334c0.584,0.222,1.088,0.547,1.511,0.974s0.753,0.95,0.989,1.57
		c0.237,0.62,0.355,1.328,0.355,2.124c0,0.201-0.009,0.368-0.027,0.5c-0.018,0.133-0.05,0.237-0.096,0.312
		c-0.047,0.075-0.109,0.129-0.189,0.161c-0.078,0.032-0.179,0.049-0.301,0.049h-6.82c0.08,1.133,0.385,1.965,0.915,2.495
		c0.53,0.531,1.233,0.796,2.108,0.796c0.43,0,0.801-0.05,1.113-0.15s0.584-0.211,0.817-0.333s0.438-0.233,0.613-0.334
		s0.346-0.15,0.511-0.15c0.107,0,0.201,0.021,0.279,0.064c0.08,0.043,0.147,0.104,0.205,0.183l0.774,0.969
		c-0.294,0.344-0.624,0.633-0.989,0.865c-0.366,0.233-0.748,0.42-1.146,0.56c-0.397,0.14-0.803,0.238-1.215,0.296
		s-0.812,0.086-1.199,0.086c-0.768,0-1.481-0.127-2.141-0.382c-0.66-0.254-1.234-0.631-1.722-1.129
		c-0.487-0.499-0.871-1.115-1.151-1.851c-0.279-0.735-0.419-1.587-0.419-2.555c0-0.753,0.122-1.461,0.366-2.125
		c0.243-0.663,0.593-1.24,1.049-1.731c0.455-0.491,1.011-0.88,1.667-1.167C16.387,5.575,17.128,5.432,17.953,5.432z M18.006,7.336
		c-0.773,0-1.38,0.219-1.817,0.656s-0.718,1.058-0.839,1.86h4.991c0-0.344-0.047-0.668-0.14-0.973
		c-0.094-0.305-0.237-0.572-0.431-0.802c-0.194-0.229-0.438-0.41-0.731-0.543C18.744,7.402,18.4,7.336,18.006,7.336z"/> <path d="M31.441,7.756c-0.072,0.114-0.147,0.195-0.227,0.241c-0.078,0.047-0.18,0.07-0.301,0.07c-0.129,0-0.268-0.036-0.414-0.107
		c-0.146-0.072-0.317-0.152-0.512-0.242c-0.193-0.09-0.414-0.17-0.661-0.242c-0.247-0.071-0.54-0.107-0.876-0.107
		c-0.523,0-0.937,0.111-1.237,0.333c-0.302,0.223-0.452,0.514-0.452,0.872c0,0.236,0.077,0.436,0.231,0.597s0.358,0.303,0.613,0.425
		s0.543,0.231,0.866,0.328c0.322,0.097,0.652,0.203,0.989,0.317c0.337,0.115,0.667,0.246,0.989,0.393
		c0.323,0.147,0.611,0.334,0.866,0.56s0.459,0.496,0.613,0.812c0.153,0.316,0.231,0.696,0.231,1.141
		c0,0.531-0.098,1.021-0.291,1.469s-0.477,0.835-0.85,1.161c-0.373,0.327-0.834,0.581-1.383,0.764
		c-0.548,0.184-1.178,0.274-1.887,0.274c-0.381,0-0.752-0.034-1.113-0.102c-0.363-0.068-0.711-0.163-1.044-0.285
		s-0.642-0.266-0.925-0.431s-0.533-0.344-0.748-0.538l0.613-1.011c0.078-0.122,0.172-0.215,0.279-0.279
		c0.107-0.065,0.244-0.098,0.409-0.098s0.321,0.047,0.468,0.141c0.146,0.093,0.317,0.193,0.512,0.301
		c0.193,0.107,0.42,0.208,0.683,0.301c0.262,0.094,0.593,0.141,0.995,0.141c0.315,0,0.586-0.038,0.812-0.113
		c0.225-0.075,0.412-0.174,0.559-0.296s0.254-0.264,0.322-0.425s0.103-0.328,0.103-0.5c0-0.259-0.077-0.47-0.231-0.635
		s-0.358-0.309-0.613-0.431c-0.254-0.122-0.545-0.231-0.871-0.328s-0.66-0.202-1-0.317c-0.341-0.114-0.674-0.249-1-0.403
		s-0.617-0.35-0.871-0.586c-0.256-0.236-0.46-0.527-0.613-0.871c-0.154-0.345-0.232-0.761-0.232-1.248
		c0-0.452,0.09-0.882,0.27-1.291c0.18-0.408,0.443-0.766,0.791-1.07s0.781-0.549,1.301-0.731s1.121-0.274,1.803-0.274
		c0.76,0,1.451,0.126,2.076,0.377c0.623,0.251,1.143,0.581,1.559,0.989L31.441,7.756z"/> <path d="M40.843,7.756c-0.071,0.114-0.146,0.195-0.226,0.241c-0.079,0.047-0.18,0.07-0.302,0.07c-0.129,0-0.267-0.036-0.414-0.107
		c-0.146-0.072-0.317-0.152-0.511-0.242s-0.414-0.17-0.661-0.242c-0.248-0.071-0.54-0.107-0.877-0.107
		c-0.523,0-0.937,0.111-1.237,0.333c-0.301,0.223-0.451,0.514-0.451,0.872c0,0.236,0.076,0.436,0.23,0.597s0.359,0.303,0.613,0.425
		c0.255,0.122,0.544,0.231,0.866,0.328s0.652,0.203,0.989,0.317c0.338,0.115,0.667,0.246,0.99,0.393
		c0.322,0.147,0.611,0.334,0.866,0.56c0.254,0.226,0.458,0.496,0.612,0.812c0.154,0.316,0.231,0.696,0.231,1.141
		c0,0.531-0.097,1.021-0.29,1.469s-0.478,0.835-0.85,1.161c-0.373,0.327-0.834,0.581-1.383,0.764
		c-0.549,0.184-1.178,0.274-1.888,0.274c-0.38,0-0.751-0.034-1.113-0.102c-0.362-0.068-0.71-0.163-1.044-0.285
		c-0.333-0.122-0.642-0.266-0.925-0.431s-0.532-0.344-0.747-0.538l0.613-1.011c0.078-0.122,0.172-0.215,0.279-0.279
		c0.107-0.065,0.244-0.098,0.408-0.098c0.166,0,0.321,0.047,0.469,0.141c0.146,0.093,0.316,0.193,0.511,0.301
		c0.193,0.107,0.421,0.208,0.683,0.301c0.262,0.094,0.594,0.141,0.995,0.141c0.316,0,0.586-0.038,0.812-0.113
		c0.226-0.075,0.412-0.174,0.56-0.296c0.146-0.122,0.254-0.264,0.322-0.425s0.103-0.328,0.103-0.5c0-0.259-0.077-0.47-0.231-0.635
		s-0.358-0.309-0.613-0.431s-0.545-0.231-0.871-0.328s-0.66-0.202-1-0.317c-0.342-0.114-0.675-0.249-1.001-0.403
		s-0.616-0.35-0.871-0.586s-0.46-0.527-0.613-0.871c-0.154-0.345-0.231-0.761-0.231-1.248c0-0.452,0.09-0.882,0.27-1.291
		c0.179-0.408,0.442-0.766,0.79-1.07s0.782-0.549,1.302-0.731s1.12-0.274,1.802-0.274c0.76,0,1.452,0.126,2.076,0.377
		s1.144,0.581,1.56,0.989L40.843,7.756z"/> <path d="M47.125,12.23c0,0.337,0.023,0.674,0.069,1.011c0.047,0.337,0.101,0.675,0.162,1.012c0.061,0.337,0.114,0.676,0.161,1.017
		c0.047,0.34,0.069,0.687,0.069,1.038c0,0.545-0.078,1.041-0.236,1.489c-0.157,0.448-0.399,0.832-0.726,1.151
		c-0.327,0.318-0.739,0.566-1.237,0.742c-0.499,0.176-1.085,0.264-1.759,0.264h-0.57v-1.173c0-0.094,0.02-0.176,0.06-0.247
		c0.039-0.072,0.089-0.13,0.15-0.173c0.061-0.043,0.124-0.075,0.188-0.097s0.121-0.032,0.172-0.032h0.097
		c0.502,0,0.886-0.157,1.151-0.473c0.265-0.316,0.397-0.746,0.397-1.291c0-0.395-0.021-0.772-0.064-1.135s-0.088-0.714-0.135-1.055
		c-0.046-0.341-0.091-0.676-0.134-1.006c-0.043-0.329-0.064-0.663-0.064-1c0-0.266,0.037-0.52,0.112-0.764s0.185-0.466,0.328-0.667
		s0.319-0.375,0.527-0.521c0.208-0.147,0.441-0.26,0.699-0.339c-0.258-0.072-0.491-0.184-0.699-0.334s-0.384-0.324-0.527-0.521
		s-0.253-0.418-0.328-0.661c-0.075-0.244-0.112-0.502-0.112-0.775c0-0.337,0.021-0.67,0.064-1s0.088-0.665,0.134-1.006
		c0.047-0.341,0.092-0.691,0.135-1.054s0.064-0.741,0.064-1.135c0-0.553-0.133-0.986-0.397-1.302
		c-0.266-0.315-0.649-0.474-1.151-0.474h-0.097c-0.051,0-0.107-0.011-0.172-0.032s-0.128-0.054-0.188-0.097
		c-0.062-0.043-0.111-0.099-0.15-0.167c-0.04-0.068-0.06-0.148-0.06-0.242V0h0.57c0.674,0,1.26,0.088,1.759,0.263
		c0.498,0.177,0.91,0.426,1.237,0.748c0.326,0.322,0.568,0.708,0.726,1.156c0.158,0.448,0.236,0.945,0.236,1.49
		c0,0.352-0.022,0.697-0.069,1.038s-0.101,0.68-0.161,1.017c-0.062,0.337-0.115,0.672-0.162,1.006
		c-0.046,0.333-0.069,0.668-0.069,1.005c0,0.438,0.102,0.795,0.307,1.07c0.204,0.276,0.532,0.415,0.984,0.415v1.538
		c-0.452,0-0.78,0.138-0.984,0.414C47.227,11.437,47.125,11.793,47.125,12.23z"/> </g> </symbol><symbol viewBox="0 0 31.451 15.885" id="svg-sprite-05"><title>svg-sprite-05</title> <g> <path d="M2.999,10.165l7.804,3.104v2.424L0,11.42V8.91l10.803-4.296v2.446L2.999,10.165z"/> <path d="M19.904,0l-5.933,15.885h-2.403L17.48,0H19.904z"/> <path d="M28.453,10.165l-7.805-3.104V4.614L31.451,8.91v2.51l-10.803,4.273V13.27L28.453,10.165z"/> </g> </symbol><symbol viewBox="0 0 27.12 30.144" id="svg-sprite_branding"><title>svg-sprite_branding</title> <g> <path d="M19.465,17.396c-0.079-1.817-0.07-3.302,0.026-4.412c0.025-0.297,0.088-0.569,0.127-0.816
		c0.021-0.15-0.059-0.292,0.107-0.425l0,0c-0.332-0.33-0.49-0.653-0.745-0.971c-0.018-0.022-0.052-0.044-0.069-0.066
		c-1.034-1.273-2.912-1.425-4.172-0.374c-0.55,0.458-1.18,0.692-1.815,0.622c-1.369-0.15-1.767-1.653-1.766-3.611
		c0-0.722-0.627-1.287-1.346-1.218C8.399,6.261,7.16,6.761,6.302,7.451c-3.353,2.69-3.126,8.541,0.506,13.067
		c3.633,4.524,9.295,6.012,12.647,3.32c0.167-0.132,0.323-0.273,0.472-0.422c-0.012-0.126-0.026-0.256-0.04-0.389
		C19.729,21.434,19.553,19.373,19.465,17.396z M6.432,11.445c0-0.719,0.581-1.301,1.301-1.301c0.719,0,1.302,0.583,1.302,1.301
		c0,0.718-0.583,1.301-1.302,1.301C7.013,12.747,6.432,12.164,6.432,11.445z M8.395,17.594c-0.718,0-1.301-0.581-1.301-1.3
		c0-0.72,0.583-1.302,1.301-1.302c0.719,0,1.301,0.583,1.301,1.302C9.695,17.013,9.113,17.594,8.395,17.594z M11.509,21.324
		c-0.718,0-1.3-0.584-1.3-1.302c0-0.719,0.582-1.301,1.3-1.301c0.719,0,1.303,0.582,1.303,1.301
		C12.812,20.74,12.228,21.324,11.509,21.324z M16.043,22.948c-0.719,0-1.302-0.583-1.302-1.301c0-0.719,0.583-1.301,1.302-1.301
		s1.301,0.582,1.301,1.301C17.344,22.365,16.762,22.948,16.043,22.948z M17.609,16.438c-0.86,0.324-1.913-0.357-2.353-1.521
		c-0.438-1.164-0.098-2.37,0.762-2.695c0.859-0.324,1.912,0.356,2.351,1.521C18.809,14.908,18.468,16.114,17.609,16.438z"/> <path d="M21.047,11.122c-0.311,0-0.512,0.596-0.633,1.429c-0.023,0.16,0.04,0.244,0.021,0.422c-0.044,0.453-0.001,0.876-0.001,1.42
		v0.006c0,1.507-0.037,3.297,0.081,5.005c0,0-0.042,0.003-0.042,0.006c0.074,1.071,0.144,2.111,0.231,3.029
		c0.016,0.17,0.022,0.337,0.038,0.497c0.097,0.975,0.182,1.775,0.24,2.275c0.037,0.322,0.31,0.565,0.634,0.565
		c0.323,0,0.594-0.073,0.633-0.396c0.303-2.49,1.416-12.26,0.109-14.26H21.047z"/> <path d="M21.62,9.711c0.868,0,1.571-0.703,1.571-1.57s-0.952-1.54-0.537-3.774c0,0-2.604,1.54-2.604,3.774
		C20.051,9.008,20.754,9.711,21.62,9.711z"/> </g> </symbol><symbol viewBox="0 0 31 27" id="svg-sprite_design"><title>svg-sprite_design</title> <g> <path d="M25.449,3H5.145C4.118,3,4,4.146,4,5.172v13.792C4,19.991,4.118,20,5.145,20h7.268L12,23.36V23h-1.03
		c-0.257,0-0.463,0.244-0.463,0.5S10.713,24,10.97,24h8.653c0.257,0,0.464-0.244,0.464-0.5S19.88,23,19.623,23H19v0.36L18.18,20
		h7.27C26.474,20,27,19.991,27,18.965V5.172C27,4.146,26.474,3,25.449,3z M20,6v0.538c0,0.218-0.283,0.394-0.5,0.394
		S19,6.755,19,6.538V6h-1v0.538c0,0.218-0.283,0.394-0.5,0.394S17,6.755,17,6.538v-0.1l0,0v0.1c0,0.218-0.781,0.394-1,0.394
		c-0.216,0-1-0.176-1-0.394V6.243l0,0v0.295c0,0.218-0.282,0.394-0.5,0.394c-0.217,0-0.5-0.176-0.5-0.394V6h-1v0.538
		c0,0.218-0.282,0.394-0.5,0.394S12,6.755,12,6.538V6h-1v0.538c0,0.218,0.217,0.394,0,0.394c-0.218,0,0-0.176,0-0.394V6h-1v0.538
		c0,0.218-0.283,0.394-0.5,0.394S9,6.755,9,6.538V6H7v6.2C7,12.456,7.149,12,6.895,12H5.477C5.222,12,5,12.456,5,12.2V5.679
		C5,5.424,5.222,5,5.477,5h19.64C25.372,5,25,5.424,25,5.679v8.761C25,14.696,25.372,15,25.116,15h-4.044
		C20.816,15,20,14.696,20,14.439V6L20,6z M11.79,10.122c-0.548,0-0.995-0.445-0.995-0.993c0-0.548,0.447-0.994,0.995-0.994
		s0.993,0.446,0.993,0.994C12.783,9.677,12.338,10.122,11.79,10.122z M11.035,11.121c0.155-0.186,0.428-0.221,0.624-0.081
		l0.725,0.515l0.003,0.004l0.862,0.676l0.005,0.003c0.084,0.067,0.186,0.099,0.286,0.099c0.127,0,0.254-0.054,0.347-0.156
		c0.005-0.007,0.012-0.014,0.017-0.021h0.001c0.156-0.2,0.122-0.488-0.073-0.646c-0.003-0.001-0.004-0.002-0.006-0.004l-0.359-0.282
		l1.654-2.052C15.211,9.064,15.347,9,15.492,9.004c0.145,0.004,0.279,0.075,0.364,0.192l3.603,4.991
		c0.103,0.142,0.118,0.366,0.039,0.521C19.418,14.864,19.259,15,19.085,15H8.847c-0.18,0-0.344-0.144-0.419-0.307
		c-0.076-0.163-0.051-0.374,0.063-0.513L11.035,11.121z M16.038,18.318c0,0.41-0.333,0.743-0.741,0.743
		c-0.41,0-0.743-0.333-0.743-0.743c0-0.409,0.333-0.741,0.743-0.741C15.705,17.577,16.038,17.909,16.038,18.318z"/> <path fill="#444444" d="M22.479,7h1.229c0.256,0,0.463-0.243,0.463-0.5c0-0.256-0.207-0.5-0.463-0.5h-1.229
		c-0.256,0-0.463,0.244-0.463,0.5C22.017,6.757,22.224,7,22.479,7z"/> <path fill="#444444" d="M22.479,9h1.229c0.256,0,0.463-0.243,0.463-0.5c0-0.254-0.207-0.5-0.463-0.5h-1.229
		c-0.256,0-0.463,0.246-0.463,0.5C22.017,8.757,22.224,9,22.479,9z"/> <path fill="#444444" d="M22.479,11h1.229c0.256,0,0.463-0.743,0.463-1c0-0.256-0.207-1-0.463-1h-1.229
		c-0.256,0-0.463,0.744-0.463,1C22.017,10.257,22.224,11,22.479,11z"/> <path fill="#444444" d="M22.479,12h1.229c0.256,0,0.463,0.256,0.463,0c0-0.254-0.207,0-0.463,0H22.479
		c-0.256,0-0.463-0.254-0.463,0C22.017,12.256,22.224,12,22.479,12z"/> </g> </symbol><symbol viewBox="0 0 31.451 15.885" id="svg-sprite_html"><title>svg-sprite_html</title> <g> <path d="M2.999,10.165l7.804,3.104v2.424L0,11.42V8.91l10.803-4.296v2.446L2.999,10.165z"/> <path d="M19.904,0l-5.933,15.885h-2.403L17.48,0H19.904z"/> <path d="M28.453,10.165l-7.805-3.104V4.614L31.451,8.91v2.51l-10.803,4.273V13.27L28.453,10.165z"/> </g> </symbol><symbol viewBox="0 0 49.139 25.645" id="svg-sprite_javaScript"><title>svg-sprite_javaScript</title> <g> <path d="M0,11.568c2.217-0.064,2.441-1.221,2.441-2.185c0-0.803-0.096-1.639-0.192-2.507C2.152,6.009,2.088,5.142,2.088,4.338
		C2.088,1.317,3.984,0,6.973,0h1.125v2.731H7.52c-1.446,0-1.961,0.868-1.961,2.281c0,0.579,0.097,1.157,0.161,1.832
		C5.784,7.487,5.881,8.227,5.881,9.03c0.031,2.442-0.965,3.342-2.732,3.728v0.064c1.768,0.386,2.764,1.317,2.732,3.76
		c0,0.836-0.097,1.574-0.161,2.248c-0.064,0.645-0.161,1.254-0.161,1.801c0,1.414,0.482,2.312,1.961,2.312h0.578v2.701H6.941
		c-2.86,0-4.854-1.158-4.854-4.371c0-0.803,0.064-1.672,0.161-2.539s0.192-1.703,0.192-2.506c0-0.9-0.225-2.121-2.441-2.186V11.568z
		"/> <path d="M15.811,0.385h4.885v13.689c0,6.17-2.956,8.324-7.713,8.324c-1.124,0-2.602-0.193-3.566-0.516l0.547-3.951
		c0.674,0.225,1.542,0.385,2.506,0.385c2.057,0,3.342-0.932,3.342-4.307V0.385z"/> <path d="M24.939,17c1.316,0.674,3.342,1.35,5.431,1.35c2.249,0,3.438-0.932,3.438-2.346c0-1.35-1.028-2.121-3.631-3.054
		c-3.599-1.253-5.944-3.246-5.944-6.395c0-3.695,3.084-6.523,8.194-6.523c2.441,0,4.241,0.514,5.526,1.093l-1.092,3.953
		c-0.868-0.418-2.41-1.028-4.531-1.028s-3.149,0.964-3.149,2.089c0,1.382,1.221,1.992,4.017,3.053
		c3.824,1.414,5.624,3.406,5.624,6.46c0,3.631-2.796,6.715-8.741,6.715c-2.475,0-4.916-0.643-6.138-1.316L24.939,17z"/> <path d="M49.139,14.043c-2.185,0.064-2.442,1.285-2.442,2.186c0,0.803,0.097,1.639,0.193,2.506s0.192,1.736,0.192,2.539
		c0,3.213-1.992,4.371-4.884,4.371h-1.157v-2.701h0.578c1.479-0.031,1.961-0.898,1.961-2.312c0-0.547-0.064-1.156-0.161-1.801
		c-0.064-0.674-0.16-1.412-0.16-2.248c-0.032-2.443,0.964-3.375,2.763-3.76v-0.064c-1.799-0.386-2.795-1.285-2.763-3.728
		c0-0.803,0.096-1.542,0.16-2.185c0.097-0.675,0.161-1.253,0.161-1.832c0-1.414-0.515-2.25-1.961-2.281h-0.578V0h1.125
		c3.021,0,4.916,1.317,4.916,4.338c0,0.804-0.096,1.671-0.192,2.539c-0.097,0.868-0.193,1.704-0.193,2.507
		c0,0.964,0.258,2.121,2.442,2.185V14.043z"/> </g> </symbol><symbol viewBox="0 0 48.416 19.954" id="svg-sprite_less"><title>svg-sprite_less</title> <g> <path d="M1.291,12.23c0-0.438-0.104-0.794-0.307-1.07C0.779,10.884,0.451,10.746,0,10.746V9.208c0.451,0,0.779-0.139,0.984-0.415
		c0.203-0.275,0.307-0.633,0.307-1.07c0-0.337-0.023-0.672-0.07-1.005C1.174,6.384,1.119,6.049,1.059,5.712S0.944,5.036,0.897,4.695
		C0.852,4.354,0.828,4.009,0.828,3.657c0-0.545,0.078-1.042,0.236-1.49s0.399-0.834,0.727-1.156
		c0.326-0.322,0.738-0.571,1.236-0.748C3.525,0.088,4.112,0,4.786,0h0.57v1.183c0,0.094-0.021,0.174-0.06,0.242
		s-0.09,0.124-0.15,0.167S5.023,1.667,4.959,1.688S4.836,1.721,4.786,1.721H4.689c-0.502,0-0.886,0.158-1.15,0.474
		C3.273,2.51,3.141,2.943,3.141,3.496c0,0.394,0.021,0.772,0.064,1.135S3.293,5.344,3.34,5.685S3.432,6.36,3.475,6.69
		s0.064,0.663,0.064,1c0,0.273-0.038,0.531-0.113,0.775C3.35,8.709,3.238,8.93,3.092,9.127S2.77,9.498,2.564,9.648
		C2.361,9.799,2.129,9.91,1.871,9.982c0.258,0.079,0.49,0.191,0.693,0.339c0.205,0.146,0.381,0.32,0.527,0.521
		s0.258,0.423,0.334,0.667c0.075,0.244,0.113,0.498,0.113,0.764c0,0.337-0.021,0.671-0.064,1c-0.043,0.33-0.088,0.665-0.135,1.006
		s-0.092,0.692-0.135,1.055s-0.064,0.74-0.064,1.135c0,0.545,0.133,0.975,0.398,1.291c0.265,0.315,0.648,0.473,1.15,0.473h0.097
		c0.05,0,0.108,0.011,0.173,0.032s0.127,0.054,0.188,0.097s0.111,0.101,0.15,0.173c0.039,0.071,0.06,0.153,0.06,0.247v1.173h-0.57
		c-0.674,0-1.261-0.088-1.759-0.264s-0.91-0.424-1.236-0.742c-0.327-0.319-0.568-0.703-0.727-1.151s-0.236-0.944-0.236-1.489
		c0-0.352,0.023-0.698,0.069-1.038c0.047-0.341,0.101-0.68,0.161-1.017s0.115-0.675,0.162-1.012S1.291,12.567,1.291,12.23z"/> <path d="M10.391,0.656v15.984H7.733V0.656H10.391z"/> <path d="M17.953,5.432c0.695,0,1.335,0.111,1.92,0.334c0.584,0.222,1.088,0.547,1.511,0.974s0.753,0.95,0.989,1.57
		c0.237,0.62,0.355,1.328,0.355,2.124c0,0.201-0.009,0.368-0.027,0.5c-0.018,0.133-0.05,0.237-0.096,0.312
		c-0.047,0.075-0.109,0.129-0.189,0.161c-0.078,0.032-0.179,0.049-0.301,0.049h-6.82c0.08,1.133,0.385,1.965,0.915,2.495
		c0.53,0.531,1.233,0.796,2.108,0.796c0.43,0,0.801-0.05,1.113-0.15s0.584-0.211,0.817-0.333s0.438-0.233,0.613-0.334
		s0.346-0.15,0.511-0.15c0.107,0,0.201,0.021,0.279,0.064c0.08,0.043,0.147,0.104,0.205,0.183l0.774,0.969
		c-0.294,0.344-0.624,0.633-0.989,0.865c-0.366,0.233-0.748,0.42-1.146,0.56c-0.397,0.14-0.803,0.238-1.215,0.296
		s-0.812,0.086-1.199,0.086c-0.768,0-1.481-0.127-2.141-0.382c-0.66-0.254-1.234-0.631-1.722-1.129
		c-0.487-0.499-0.871-1.115-1.151-1.851c-0.279-0.735-0.419-1.587-0.419-2.555c0-0.753,0.122-1.461,0.366-2.125
		c0.243-0.663,0.593-1.24,1.049-1.731c0.455-0.491,1.011-0.88,1.667-1.167C16.387,5.575,17.128,5.432,17.953,5.432z M18.006,7.336
		c-0.773,0-1.38,0.219-1.817,0.656s-0.718,1.058-0.839,1.86h4.991c0-0.344-0.047-0.668-0.14-0.973
		c-0.094-0.305-0.237-0.572-0.431-0.802c-0.194-0.229-0.438-0.41-0.731-0.543C18.744,7.402,18.4,7.336,18.006,7.336z"/> <path d="M31.441,7.756c-0.072,0.114-0.147,0.195-0.227,0.241c-0.078,0.047-0.18,0.07-0.301,0.07c-0.129,0-0.268-0.036-0.414-0.107
		c-0.146-0.072-0.317-0.152-0.512-0.242c-0.193-0.09-0.414-0.17-0.661-0.242c-0.247-0.071-0.54-0.107-0.876-0.107
		c-0.523,0-0.937,0.111-1.237,0.333c-0.302,0.223-0.452,0.514-0.452,0.872c0,0.236,0.077,0.436,0.231,0.597s0.358,0.303,0.613,0.425
		s0.543,0.231,0.866,0.328c0.322,0.097,0.652,0.203,0.989,0.317c0.337,0.115,0.667,0.246,0.989,0.393
		c0.323,0.147,0.611,0.334,0.866,0.56s0.459,0.496,0.613,0.812c0.153,0.316,0.231,0.696,0.231,1.141
		c0,0.531-0.098,1.021-0.291,1.469s-0.477,0.835-0.85,1.161c-0.373,0.327-0.834,0.581-1.383,0.764
		c-0.548,0.184-1.178,0.274-1.887,0.274c-0.381,0-0.752-0.034-1.113-0.102c-0.363-0.068-0.711-0.163-1.044-0.285
		s-0.642-0.266-0.925-0.431s-0.533-0.344-0.748-0.538l0.613-1.011c0.078-0.122,0.172-0.215,0.279-0.279
		c0.107-0.065,0.244-0.098,0.409-0.098s0.321,0.047,0.468,0.141c0.146,0.093,0.317,0.193,0.512,0.301
		c0.193,0.107,0.42,0.208,0.683,0.301c0.262,0.094,0.593,0.141,0.995,0.141c0.315,0,0.586-0.038,0.812-0.113
		c0.225-0.075,0.412-0.174,0.559-0.296s0.254-0.264,0.322-0.425s0.103-0.328,0.103-0.5c0-0.259-0.077-0.47-0.231-0.635
		s-0.358-0.309-0.613-0.431c-0.254-0.122-0.545-0.231-0.871-0.328s-0.66-0.202-1-0.317c-0.341-0.114-0.674-0.249-1-0.403
		s-0.617-0.35-0.871-0.586c-0.256-0.236-0.46-0.527-0.613-0.871c-0.154-0.345-0.232-0.761-0.232-1.248
		c0-0.452,0.09-0.882,0.27-1.291c0.18-0.408,0.443-0.766,0.791-1.07s0.781-0.549,1.301-0.731s1.121-0.274,1.803-0.274
		c0.76,0,1.451,0.126,2.076,0.377c0.623,0.251,1.143,0.581,1.559,0.989L31.441,7.756z"/> <path d="M40.843,7.756c-0.071,0.114-0.146,0.195-0.226,0.241c-0.079,0.047-0.18,0.07-0.302,0.07c-0.129,0-0.267-0.036-0.414-0.107
		c-0.146-0.072-0.317-0.152-0.511-0.242s-0.414-0.17-0.661-0.242c-0.248-0.071-0.54-0.107-0.877-0.107
		c-0.523,0-0.937,0.111-1.237,0.333c-0.301,0.223-0.451,0.514-0.451,0.872c0,0.236,0.076,0.436,0.23,0.597s0.359,0.303,0.613,0.425
		c0.255,0.122,0.544,0.231,0.866,0.328s0.652,0.203,0.989,0.317c0.338,0.115,0.667,0.246,0.99,0.393
		c0.322,0.147,0.611,0.334,0.866,0.56c0.254,0.226,0.458,0.496,0.612,0.812c0.154,0.316,0.231,0.696,0.231,1.141
		c0,0.531-0.097,1.021-0.29,1.469s-0.478,0.835-0.85,1.161c-0.373,0.327-0.834,0.581-1.383,0.764
		c-0.549,0.184-1.178,0.274-1.888,0.274c-0.38,0-0.751-0.034-1.113-0.102c-0.362-0.068-0.71-0.163-1.044-0.285
		c-0.333-0.122-0.642-0.266-0.925-0.431s-0.532-0.344-0.747-0.538l0.613-1.011c0.078-0.122,0.172-0.215,0.279-0.279
		c0.107-0.065,0.244-0.098,0.408-0.098c0.166,0,0.321,0.047,0.469,0.141c0.146,0.093,0.316,0.193,0.511,0.301
		c0.193,0.107,0.421,0.208,0.683,0.301c0.262,0.094,0.594,0.141,0.995,0.141c0.316,0,0.586-0.038,0.812-0.113
		c0.226-0.075,0.412-0.174,0.56-0.296c0.146-0.122,0.254-0.264,0.322-0.425s0.103-0.328,0.103-0.5c0-0.259-0.077-0.47-0.231-0.635
		s-0.358-0.309-0.613-0.431s-0.545-0.231-0.871-0.328s-0.66-0.202-1-0.317c-0.342-0.114-0.675-0.249-1.001-0.403
		s-0.616-0.35-0.871-0.586s-0.46-0.527-0.613-0.871c-0.154-0.345-0.231-0.761-0.231-1.248c0-0.452,0.09-0.882,0.27-1.291
		c0.179-0.408,0.442-0.766,0.79-1.07s0.782-0.549,1.302-0.731s1.12-0.274,1.802-0.274c0.76,0,1.452,0.126,2.076,0.377
		s1.144,0.581,1.56,0.989L40.843,7.756z"/> <path d="M47.125,12.23c0,0.337,0.023,0.674,0.069,1.011c0.047,0.337,0.101,0.675,0.162,1.012c0.061,0.337,0.114,0.676,0.161,1.017
		c0.047,0.34,0.069,0.687,0.069,1.038c0,0.545-0.078,1.041-0.236,1.489c-0.157,0.448-0.399,0.832-0.726,1.151
		c-0.327,0.318-0.739,0.566-1.237,0.742c-0.499,0.176-1.085,0.264-1.759,0.264h-0.57v-1.173c0-0.094,0.02-0.176,0.06-0.247
		c0.039-0.072,0.089-0.13,0.15-0.173c0.061-0.043,0.124-0.075,0.188-0.097s0.121-0.032,0.172-0.032h0.097
		c0.502,0,0.886-0.157,1.151-0.473c0.265-0.316,0.397-0.746,0.397-1.291c0-0.395-0.021-0.772-0.064-1.135s-0.088-0.714-0.135-1.055
		c-0.046-0.341-0.091-0.676-0.134-1.006c-0.043-0.329-0.064-0.663-0.064-1c0-0.266,0.037-0.52,0.112-0.764s0.185-0.466,0.328-0.667
		s0.319-0.375,0.527-0.521c0.208-0.147,0.441-0.26,0.699-0.339c-0.258-0.072-0.491-0.184-0.699-0.334s-0.384-0.324-0.527-0.521
		s-0.253-0.418-0.328-0.661c-0.075-0.244-0.112-0.502-0.112-0.775c0-0.337,0.021-0.67,0.064-1s0.088-0.665,0.134-1.006
		c0.047-0.341,0.092-0.691,0.135-1.054s0.064-0.741,0.064-1.135c0-0.553-0.133-0.986-0.397-1.302
		c-0.266-0.315-0.649-0.474-1.151-0.474h-0.097c-0.051,0-0.107-0.011-0.172-0.032s-0.128-0.054-0.188-0.097
		c-0.062-0.043-0.111-0.099-0.15-0.167c-0.04-0.068-0.06-0.148-0.06-0.242V0h0.57c0.674,0,1.26,0.088,1.759,0.263
		c0.498,0.177,0.91,0.426,1.237,0.748c0.326,0.322,0.568,0.708,0.726,1.156c0.158,0.448,0.236,0.945,0.236,1.49
		c0,0.352-0.022,0.697-0.069,1.038s-0.101,0.68-0.161,1.017c-0.062,0.337-0.115,0.672-0.162,1.006
		c-0.046,0.333-0.069,0.668-0.069,1.005c0,0.438,0.102,0.795,0.307,1.07c0.204,0.276,0.532,0.415,0.984,0.415v1.538
		c-0.452,0-0.78,0.138-0.984,0.414C47.227,11.437,47.125,11.793,47.125,12.23z"/> </g> </symbol></svg>