<?xml version="1.0" encoding="utf-8"?>
<!-- Generator: Adobe Illustrator 16.0.0, SVG Export Plug-In . SVG Version: 6.00 Build 0)  -->
<!DOCTYPE svg PUBLIC "-//W3C//DTD SVG 1.1//EN" "http://www.w3.org/Graphics/SVG/1.1/DTD/svg11.dtd">
<svg version="1.1" id="Layer_1" xmlns="http://www.w3.org/2000/svg" xmlns:xlink="http://www.w3.org/1999/xlink" x="0px" y="0px"
	 width="280.549px" height="104.572px" viewBox="0 0 280.549 104.572" enable-background="new 0 0 280.549 104.572"
	 xml:space="preserve">
<g>
	<g>
		<g>
			<path d="M39.925,15.699c0.799-0.928,1.588-1.853,2.414-2.769c1.989-2.203,3.935-4.346,5.935-6.349V3.727h-14v18.861
				C36.274,20.32,37.946,17.997,39.925,15.699z"/>
		</g>
		<g>
			<g>
				<path d="M48.536,51.797V23.552c-0.631,0.978-1.262,1.937-1.903,2.861c-4.584,6.695-9.226,11.813-12.717,11.438l-4.651-3.45
					c0.111-2.403,1.271-5.23,3.068-8.251c-1.037-1.101-2.227-2.063-3.603-2.866c-2.571-1.503-5.446-2.254-8.625-2.254
					c-2.944,0-5.646,0.607-8.103,1.82c-2.454,1.213-4.58,2.873-6.366,4.981c-1.794,2.111-3.182,4.609-4.164,7.496
					C0.49,38.221,0,41.312,0,44.606c0,3.409,0.535,6.542,1.603,9.399c1.069,2.86,2.556,5.362,4.464,7.499
					c1.907,2.139,4.174,3.798,6.804,4.982c2.627,1.184,5.502,1.78,8.623,1.78c3.122,0,6.054-0.695,8.795-2.082
					c2.747-1.389,4.929-3.495,6.547-6.328l0.26,2.34c0.23,1.906,1.096,3.365,2.603,4.379c1.497,1.009,3.464,1.514,5.889,1.514
					c0.809,0,1.678-0.042,2.603-0.131c0.923-0.085,2.019-0.272,3.291-0.562v-11.7c-1.096-0.116-1.861-0.448-2.296-0.997
					C48.751,54.153,48.536,53.187,48.536,51.797z M30.573,48.294C25.415,55.227,13.781,54,13.781,54
					c6.44-5.974,5.035-10.266,7.039-12.955c1.999-2.692,5.809-3.254,8.499-1.257C32.016,41.794,32.572,45.595,30.573,48.294z"/>
			</g>
		</g>
	</g>
	<g>
		<g enable-background="new    ">
			<path d="M26.64,96.758h-3.017l-0.154-1.476c-0.858,1.233-2.003,1.85-3.545,1.85c-2.18,0-3.259-1.409-3.259-3.677v-8.389h3.479
				v7.948c0,1.189,0.396,1.541,1.123,1.541s1.387-0.484,1.894-1.365v-8.124h3.479V96.758z"/>
			<path d="M39.495,96.758h-3.941l-2.025-4.382l-1.982,4.382h-3.787l3.765-6.144l-3.391-5.548h3.897l1.629,3.743l1.563-3.743h3.699
				l-3.193,5.438L39.495,96.758z"/>
			<path d="M56.334,80.42v16.338h-3.083l-0.176-1.365c-0.661,0.969-1.74,1.739-3.325,1.739c-2.972,0-4.448-2.466-4.448-6.253
				c0-3.611,1.828-6.188,4.844-6.188c1.057,0,2.004,0.419,2.708,1.102v-5.747L56.334,80.42z M52.856,93.279v-5.064
				c-0.529-0.617-1.057-0.991-1.806-0.991c-1.255,0-2.136,1.057-2.136,3.678c0,2.906,0.792,3.677,1.938,3.677
				C51.667,94.578,52.305,94.137,52.856,93.279z"/>
			<path d="M69.19,91.935h-7.222c0.22,2.092,1.211,2.664,2.642,2.664c0.947,0,1.784-0.33,2.796-1.034l1.431,1.938
				c-1.167,0.925-2.664,1.629-4.558,1.629c-3.897,0-5.879-2.51-5.879-6.165c0-3.501,1.916-6.275,5.46-6.275
				c3.347,0,5.395,2.202,5.395,5.989C69.256,91.054,69.234,91.583,69.19,91.935z M65.843,89.689
				c-0.022-1.585-0.506-2.686-1.894-2.686c-1.167,0-1.828,0.727-2.004,2.84h3.897V89.689z"/>
			<path d="M79.667,86.123l-1.277,1.96c-0.903-0.573-1.872-0.903-2.884-0.903c-0.947,0-1.409,0.353-1.409,0.881
				c0,0.616,0.308,0.881,2.4,1.497c2.312,0.661,3.611,1.63,3.611,3.722c0,2.422-2.29,3.853-5.196,3.853
				c-2.025,0-3.743-0.704-4.888-1.739l1.695-1.894c0.881,0.683,1.959,1.146,3.104,1.146c1.057,0,1.695-0.396,1.695-1.102
				c0-0.793-0.352-1.035-2.466-1.629c-2.312-0.661-3.457-1.85-3.457-3.655c0-2.004,1.828-3.567,4.778-3.567
				C77.069,84.691,78.588,85.242,79.667,86.123z"/>
			<path d="M85.675,80.883c0,1.123-0.859,1.981-2.07,1.981s-2.048-0.858-2.048-1.981s0.837-1.982,2.048-1.982
				S85.675,79.76,85.675,80.883z M85.367,96.758h-3.479V85.066h3.479V96.758z"/>
			<path d="M98.863,85.749c-0.815,0.33-1.894,0.462-3.369,0.462c1.476,0.639,2.202,1.497,2.202,3.017
				c0,2.268-1.872,3.919-4.91,3.919c-0.484,0-0.925-0.044-1.343-0.132c-0.242,0.132-0.375,0.396-0.375,0.66
				c0,0.353,0.154,0.705,1.277,0.705h1.761c2.73,0,4.47,1.431,4.47,3.391c0,2.4-2.114,3.875-6.121,3.875
				c-4.425,0-5.592-1.453-5.592-3.765h3.126c0,1.013,0.44,1.453,2.554,1.453c2.047,0,2.532-0.572,2.532-1.321
				c0-0.683-0.507-1.145-1.674-1.145h-1.695c-2.554,0-3.589-1.058-3.589-2.312c0-0.858,0.55-1.717,1.387-2.245
				c-1.498-0.793-2.092-1.828-2.092-3.348c0-2.642,2.07-4.271,5.13-4.271c2.598,0.066,4.095-0.683,5.504-1.519L98.863,85.749z
				 M90.87,88.919c0,1.277,0.705,1.982,1.761,1.982c1.145,0,1.762-0.683,1.762-2.026c0-1.299-0.595-1.894-1.762-1.894
				C91.553,86.981,90.87,87.708,90.87,88.919z"/>
			<path d="M110.31,88.215v8.543h-3.479v-7.948c0-1.233-0.418-1.563-1.101-1.563c-0.771,0-1.409,0.55-2.025,1.519v7.993h-3.479
				V85.066h3.039l0.242,1.387c0.991-1.145,2.114-1.762,3.567-1.762C109.099,84.691,110.31,85.991,110.31,88.215z"/>
			<path d="M128.381,84.647c0,1.85-1.211,3.039-2.906,4.162l2.973,2.796c0.418-0.881,0.771-1.938,1.057-3.171l2.907,0.859
				c-0.573,1.673-1.255,3.017-2.026,4.095l2.664,2.356l-2.972,1.387l-1.718-1.651c-1.387,1.123-2.972,1.651-4.822,1.651
				c-3.259,0-5.438-1.695-5.438-4.271c0-1.827,0.991-3.017,2.972-4.315c-1.519-1.476-2.114-2.355-2.114-3.766
				c0-1.894,1.52-3.654,4.712-3.654C126.642,81.125,128.381,82.643,128.381,84.647z M121.732,92.662c0,1.211,0.947,2.004,2.4,2.004
				c0.969,0,1.762-0.286,2.488-0.837l-3.567-3.413C122.15,91.077,121.732,91.781,121.732,92.662z M122.305,84.779
				c0,0.771,0.33,1.277,1.255,2.202c1.013-0.66,1.497-1.321,1.497-2.246c0-0.836-0.506-1.364-1.343-1.364
				C122.833,83.371,122.305,83.943,122.305,84.779z"/>
			<path d="M151.231,80.42v16.338h-3.083l-0.176-1.365c-0.661,0.969-1.739,1.739-3.325,1.739c-2.973,0-4.448-2.466-4.448-6.253
				c0-3.611,1.828-6.188,4.844-6.188c1.057,0,2.004,0.419,2.709,1.102v-5.747L151.231,80.42z M147.753,93.279v-5.064
				c-0.529-0.617-1.058-0.991-1.807-0.991c-1.254,0-2.135,1.057-2.135,3.678c0,2.906,0.792,3.677,1.938,3.677
				C146.563,94.578,147.202,94.137,147.753,93.279z"/>
			<path d="M164.087,91.935h-7.223c0.221,2.092,1.211,2.664,2.643,2.664c0.946,0,1.783-0.33,2.796-1.034l1.431,1.938
				c-1.166,0.925-2.664,1.629-4.557,1.629c-3.898,0-5.879-2.51-5.879-6.165c0-3.501,1.915-6.275,5.46-6.275
				c3.347,0,5.395,2.202,5.395,5.989C164.152,91.054,164.13,91.583,164.087,91.935z M160.739,89.689
				c-0.021-1.585-0.506-2.686-1.893-2.686c-1.168,0-1.828,0.727-2.004,2.84h3.896V89.689z"/>
			<path d="M172.317,96.758H168.2l-3.766-11.691h3.788l2.069,9.049l2.158-9.049h3.545L172.317,96.758z"/>
			<path d="M187.134,91.935h-7.223c0.221,2.092,1.211,2.664,2.643,2.664c0.946,0,1.783-0.33,2.796-1.034l1.431,1.938
				c-1.166,0.925-2.664,1.629-4.557,1.629c-3.898,0-5.879-2.51-5.879-6.165c0-3.501,1.915-6.275,5.46-6.275
				c3.347,0,5.395,2.202,5.395,5.989C187.199,91.054,187.177,91.583,187.134,91.935z M183.786,89.689
				c-0.021-1.585-0.506-2.686-1.893-2.686c-1.168,0-1.828,0.727-2.004,2.84h3.896V89.689z"/>
			<path d="M189.089,93.785V80.42l3.479-0.374v13.607c0,0.484,0.177,0.727,0.595,0.727c0.242,0,0.418-0.044,0.572-0.11l0.683,2.466
				c-0.528,0.221-1.276,0.396-2.114,0.396C190.278,97.132,189.089,95.921,189.089,93.785z"/>
			<path d="M206.307,90.923c0,3.743-2.157,6.209-5.726,6.209c-3.545,0-5.725-2.29-5.725-6.23c0-3.743,2.158-6.21,5.725-6.21
				C204.149,84.691,206.307,86.981,206.307,90.923z M198.468,90.901c0,2.598,0.705,3.677,2.113,3.677
				c1.41,0,2.114-1.123,2.114-3.655c0-2.598-0.704-3.677-2.114-3.677C199.173,87.246,198.468,88.369,198.468,90.901z"/>
			<path d="M219.338,90.879c0,3.611-1.761,6.253-4.646,6.253c-1.145,0-2.113-0.396-2.84-1.232v5.372l-3.479,0.374V85.066h3.061
				l0.177,1.299c0.969-1.211,2.223-1.674,3.303-1.674C217.995,84.691,219.338,87.092,219.338,90.879z M215.728,90.923
				c0-2.906-0.705-3.677-1.916-3.677c-0.748,0-1.453,0.506-1.959,1.365v4.932c0.484,0.705,1.057,1.035,1.783,1.035
				C214.935,94.578,215.728,93.543,215.728,90.923z"/>
			<path d="M237.5,88.215v8.543h-3.479v-7.948c0-1.233-0.462-1.563-0.99-1.563c-0.748,0-1.277,0.55-1.783,1.519v7.993h-3.479v-7.948
				c0-1.233-0.462-1.563-0.991-1.563c-0.727,0-1.276,0.55-1.783,1.519v7.993h-3.479V85.066h3.039l0.242,1.365
				c0.902-1.146,1.959-1.74,3.391-1.74c1.299,0,2.289,0.661,2.752,1.85c0.925-1.211,2.004-1.85,3.501-1.85
				C236.245,84.691,237.5,85.991,237.5,88.215z"/>
			<path d="M250.243,91.935h-7.222c0.22,2.092,1.211,2.664,2.642,2.664c0.947,0,1.784-0.33,2.797-1.034l1.432,1.938
				c-1.168,0.925-2.664,1.629-4.559,1.629c-3.896,0-5.879-2.51-5.879-6.165c0-3.501,1.916-6.275,5.461-6.275
				c3.347,0,5.395,2.202,5.395,5.989C250.31,91.054,250.288,91.583,250.243,91.935z M246.897,89.689
				c-0.022-1.585-0.507-2.686-1.895-2.686c-1.166,0-1.827,0.727-2.004,2.84h3.898V89.689z"/>
			<path d="M262.395,88.215v8.543h-3.479v-7.948c0-1.233-0.418-1.563-1.101-1.563c-0.771,0-1.409,0.55-2.025,1.519v7.993h-3.479
				V85.066h3.039l0.242,1.387c0.99-1.145,2.113-1.762,3.566-1.762C261.184,84.691,262.395,85.991,262.395,88.215z"/>
			<path d="M272.343,96.207c-0.881,0.617-2.113,0.925-3.17,0.925c-2.576-0.021-3.832-1.475-3.832-4.228v-5.416h-1.65v-2.422h1.65
				v-2.532l3.479-0.396v2.929h2.687l-0.375,2.422h-2.312v5.372c0,1.123,0.374,1.52,1.101,1.52c0.396,0,0.793-0.11,1.256-0.396
				L272.343,96.207z"/>
		</g>
	</g>
	<g>
		<g enable-background="new    ">
			<path d="M75.848,69.662c-3.506,0-6.653-0.571-9.442-1.713s-5.153-2.696-7.092-4.662c-1.939-1.964-3.414-4.235-4.422-6.812
				c-1.01-2.576-1.514-5.271-1.514-8.088c0-3.027,0.504-5.883,1.514-8.565c1.009-2.683,2.47-5.033,4.383-7.052
				c1.912-2.019,4.263-3.612,7.052-4.781c2.789-1.168,5.962-1.753,9.522-1.753c3.559,0,6.72,0.585,9.482,1.753
				c2.761,1.169,5.1,2.749,7.012,4.741c1.913,1.992,3.359,4.29,4.343,6.893c0.982,2.604,1.474,5.339,1.474,8.207
				c0,0.744-0.027,1.474-0.08,2.191c-0.054,0.717-0.133,1.342-0.239,1.872H66.923c0.211,2.816,1.235,4.954,3.068,6.415
				c1.833,1.461,3.917,2.191,6.255,2.191c1.859,0,3.652-0.451,5.378-1.355c1.726-0.902,2.881-2.124,3.466-3.665l10.837,3.028
				c-1.647,3.294-4.197,5.976-7.649,8.048C84.824,68.626,80.681,69.662,75.848,69.662z M84.692,44.004
				c-0.267-2.655-1.223-4.753-2.869-6.295c-1.647-1.54-3.693-2.311-6.135-2.311c-2.498,0-4.556,0.784-6.176,2.351
				c-1.621,1.567-2.563,3.653-2.829,6.255H84.692z"/>
			<path d="M120.469,69.662c-3.56,0-7.066-0.571-10.518-1.713c-3.454-1.142-6.375-2.802-8.765-4.98l4.542-7.809
				c2.55,1.753,5.032,3.107,7.45,4.063c2.417,0.956,4.741,1.435,6.972,1.435c1.646,0,2.921-0.292,3.825-0.877
				c0.903-0.584,1.354-1.435,1.354-2.55s-0.571-2.004-1.713-2.669c-1.143-0.664-3.147-1.367-6.016-2.112
				c-2.816-0.796-5.193-1.565-7.132-2.311c-1.939-0.743-3.52-1.566-4.741-2.47c-1.223-0.903-2.099-1.938-2.63-3.107
				c-0.531-1.168-0.797-2.55-0.797-4.144c0-2.124,0.425-4.064,1.275-5.817c0.849-1.753,2.019-3.239,3.506-4.462
				c1.486-1.222,3.253-2.178,5.299-2.869c2.044-0.689,4.263-1.035,6.653-1.035c3.134,0,6.068,0.426,8.805,1.274
				c2.735,0.851,5.378,2.391,7.928,4.622l-4.94,7.649c-2.39-1.646-4.516-2.841-6.375-3.586c-1.86-0.743-3.666-1.115-5.418-1.115
				c-1.382,0-2.55,0.278-3.506,0.837c-0.956,0.558-1.434,1.447-1.434,2.669c0,1.169,0.518,2.046,1.554,2.63
				c1.036,0.585,2.96,1.223,5.777,1.912c2.975,0.797,5.484,1.594,7.53,2.391c2.044,0.797,3.706,1.687,4.98,2.669
				c1.275,0.983,2.204,2.111,2.789,3.387c0.584,1.274,0.877,2.789,0.877,4.542c0,4.144-1.542,7.438-4.622,9.881
				C129.898,68.44,125.728,69.662,120.469,69.662z"/>
			<path d="M160.229,69.662c-3.559,0-7.065-0.571-10.518-1.713c-3.454-1.142-6.375-2.802-8.766-4.98l4.543-7.809
				c2.549,1.753,5.031,3.107,7.449,4.063c2.417,0.956,4.742,1.435,6.973,1.435c1.646,0,2.921-0.292,3.824-0.877
				c0.903-0.584,1.355-1.435,1.355-2.55s-0.572-2.004-1.713-2.669c-1.144-0.664-3.148-1.367-6.017-2.112
				c-2.816-0.796-5.192-1.565-7.132-2.311c-1.939-0.743-3.52-1.566-4.74-2.47c-1.223-0.903-2.1-1.938-2.631-3.107
				c-0.531-1.168-0.797-2.55-0.797-4.144c0-2.124,0.426-4.064,1.275-5.817s2.019-3.239,3.506-4.462
				c1.486-1.222,3.254-2.178,5.299-2.869c2.045-0.689,4.264-1.035,6.654-1.035c3.133,0,6.068,0.426,8.805,1.274
				c2.735,0.851,5.379,2.391,7.928,4.622l-4.939,7.649c-2.391-1.646-4.516-2.841-6.375-3.586c-1.859-0.743-3.666-1.115-5.418-1.115
				c-1.383,0-2.551,0.278-3.506,0.837c-0.957,0.558-1.435,1.447-1.435,2.669c0,1.169,0.518,2.046,1.554,2.63
				c1.035,0.585,2.961,1.223,5.777,1.912c2.975,0.797,5.484,1.594,7.529,2.391s3.705,1.687,4.98,2.669
				c1.275,0.983,2.203,2.111,2.789,3.387c0.584,1.274,0.877,2.789,0.877,4.542c0,4.144-1.542,7.438-4.622,9.881
				C169.659,68.44,165.489,69.662,160.229,69.662z"/>
		</g>
		<g enable-background="new    ">
			<path d="M198.078,16.235c0,0.982-0.199,1.905-0.598,2.769s-0.942,1.62-1.634,2.271c-0.69,0.651-1.494,1.17-2.41,1.555
				s-1.893,0.577-2.928,0.577c-1.01,0-1.953-0.192-2.829-0.577s-1.653-0.903-2.331-1.555c-0.678-0.65-1.209-1.407-1.594-2.271
				s-0.577-1.786-0.577-2.769c0-1.01,0.192-1.952,0.577-2.829s0.916-1.646,1.594-2.311s1.455-1.182,2.331-1.554
				s1.819-0.559,2.829-0.559c1.035,0,2.012,0.187,2.928,0.559s1.72,0.89,2.41,1.554c0.691,0.664,1.235,1.434,1.634,2.311
				S198.078,15.225,198.078,16.235z M196.644,27.55v41.315h-12.351V27.55H196.644z"/>
		</g>
		<g enable-background="new    ">
			<path d="M233.298,66.634c-1.754,0.745-3.76,1.435-6.017,2.072c-2.259,0.638-4.529,0.956-6.813,0.956
				c-1.593,0-3.094-0.199-4.502-0.598s-2.643-1.036-3.705-1.912c-1.062-0.877-1.899-2.032-2.51-3.467
				c-0.611-1.434-0.916-3.159-0.916-5.179V36.674h-5.339v-9.642h5.339V13.724h12.749v13.308h8.526v9.642h-8.526v17.45
				c0,1.382,0.345,2.378,1.036,2.988c0.689,0.611,1.566,0.916,2.629,0.916c0.957,0,1.939-0.159,2.949-0.478
				c1.008-0.319,1.885-0.664,2.629-1.036L233.298,66.634z"/>
			<path d="M250.11,69.662c-2.072,0-3.998-0.332-5.777-0.996c-1.781-0.664-3.307-1.594-4.582-2.789s-2.285-2.602-3.027-4.223
				c-0.745-1.62-1.116-3.387-1.116-5.299c0-2.072,0.438-3.957,1.315-5.658c0.876-1.699,2.111-3.159,3.705-4.382
				c1.594-1.222,3.479-2.178,5.657-2.869c2.177-0.689,4.595-1.036,7.251-1.036c1.753,0,3.453,0.147,5.1,0.438
				c1.646,0.293,3.08,0.731,4.303,1.315v-1.913c0-4.833-2.789-7.251-8.367-7.251c-2.284,0-4.461,0.386-6.533,1.155
				c-2.072,0.771-4.25,1.927-6.534,3.467l-3.745-7.969c2.762-1.805,5.631-3.16,8.605-4.063c2.975-0.902,6.136-1.354,9.482-1.354
				c6.321,0,11.208,1.487,14.662,4.462c3.452,2.976,5.18,7.331,5.18,13.068v10.757c0,1.274,0.199,2.165,0.598,2.669
				c0.397,0.506,1.102,0.811,2.111,0.917v10.757c-1.116,0.266-2.126,0.438-3.028,0.518c-0.903,0.08-1.728,0.12-2.47,0.12
				c-2.391,0-4.197-0.466-5.419-1.395c-1.223-0.929-1.992-2.244-2.311-3.944l-0.239-1.912c-1.859,2.39-4.078,4.223-6.653,5.498
				C255.7,69.024,252.979,69.662,250.11,69.662z M253.854,60.499c1.381,0,2.723-0.239,4.024-0.718
				c1.301-0.478,2.376-1.115,3.228-1.912c1.221-0.956,1.832-1.965,1.832-3.028v-3.983c-1.115-0.425-2.324-0.758-3.625-0.996
				c-1.303-0.239-2.51-0.359-3.626-0.359c-2.339,0-4.263,0.532-5.776,1.594c-1.515,1.063-2.271,2.444-2.271,4.144
				c0,1.542,0.584,2.803,1.753,3.785C250.561,60.008,252.048,60.499,253.854,60.499z"/>
		</g>
	</g>
</g>
</svg>
