<?xml version="1.0" encoding="utf-8"?>
<!-- Generator: Adobe Illustrator 16.0.0, SVG Export Plug-In . SVG Version: 6.00 Build 0)  -->
<!DOCTYPE svg PUBLIC "-//W3C//DTD SVG 1.1//EN" "http://www.w3.org/Graphics/SVG/1.1/DTD/svg11.dtd">
<svg version="1.1" id="Layer_1" xmlns="http://www.w3.org/2000/svg" xmlns:xlink="http://www.w3.org/1999/xlink" x="0px" y="0px"
	 width="48.416px" height="19.954px" viewBox="0 0 48.416 19.954" enable-background="new 0 0 48.416 19.954" xml:space="preserve">
<g>
	<path d="M1.291,12.23c0-0.438-0.104-0.794-0.307-1.07C0.779,10.884,0.451,10.746,0,10.746V9.208c0.451,0,0.779-0.139,0.984-0.415
		c0.203-0.275,0.307-0.633,0.307-1.07c0-0.337-0.023-0.672-0.07-1.005C1.174,6.384,1.119,6.049,1.059,5.712S0.944,5.036,0.897,4.695
		C0.852,4.354,0.828,4.009,0.828,3.657c0-0.545,0.078-1.042,0.236-1.49s0.399-0.834,0.727-1.156
		c0.326-0.322,0.738-0.571,1.236-0.748C3.525,0.088,4.112,0,4.786,0h0.57v1.183c0,0.094-0.021,0.174-0.06,0.242
		s-0.09,0.124-0.15,0.167S5.023,1.667,4.959,1.688S4.836,1.721,4.786,1.721H4.689c-0.502,0-0.886,0.158-1.15,0.474
		C3.273,2.51,3.141,2.943,3.141,3.496c0,0.394,0.021,0.772,0.064,1.135S3.293,5.344,3.34,5.685S3.432,6.36,3.475,6.69
		s0.064,0.663,0.064,1c0,0.273-0.038,0.531-0.113,0.775C3.35,8.709,3.238,8.93,3.092,9.127S2.77,9.498,2.564,9.648
		C2.361,9.799,2.129,9.91,1.871,9.982c0.258,0.079,0.49,0.191,0.693,0.339c0.205,0.146,0.381,0.32,0.527,0.521
		s0.258,0.423,0.334,0.667c0.075,0.244,0.113,0.498,0.113,0.764c0,0.337-0.021,0.671-0.064,1c-0.043,0.33-0.088,0.665-0.135,1.006
		s-0.092,0.692-0.135,1.055s-0.064,0.74-0.064,1.135c0,0.545,0.133,0.975,0.398,1.291c0.265,0.315,0.648,0.473,1.15,0.473h0.097
		c0.05,0,0.108,0.011,0.173,0.032s0.127,0.054,0.188,0.097s0.111,0.101,0.15,0.173c0.039,0.071,0.06,0.153,0.06,0.247v1.173h-0.57
		c-0.674,0-1.261-0.088-1.759-0.264s-0.91-0.424-1.236-0.742c-0.327-0.319-0.568-0.703-0.727-1.151s-0.236-0.944-0.236-1.489
		c0-0.352,0.023-0.698,0.069-1.038c0.047-0.341,0.101-0.68,0.161-1.017s0.115-0.675,0.162-1.012S1.291,12.567,1.291,12.23z"/>
	<path d="M10.391,0.656v15.984H7.733V0.656H10.391z"/>
	<path d="M17.953,5.432c0.695,0,1.335,0.111,1.92,0.334c0.584,0.222,1.088,0.547,1.511,0.974s0.753,0.95,0.989,1.57
		c0.237,0.62,0.355,1.328,0.355,2.124c0,0.201-0.009,0.368-0.027,0.5c-0.018,0.133-0.05,0.237-0.096,0.312
		c-0.047,0.075-0.109,0.129-0.189,0.161c-0.078,0.032-0.179,0.049-0.301,0.049h-6.82c0.08,1.133,0.385,1.965,0.915,2.495
		c0.53,0.531,1.233,0.796,2.108,0.796c0.43,0,0.801-0.05,1.113-0.15s0.584-0.211,0.817-0.333s0.438-0.233,0.613-0.334
		s0.346-0.15,0.511-0.15c0.107,0,0.201,0.021,0.279,0.064c0.08,0.043,0.147,0.104,0.205,0.183l0.774,0.969
		c-0.294,0.344-0.624,0.633-0.989,0.865c-0.366,0.233-0.748,0.42-1.146,0.56c-0.397,0.14-0.803,0.238-1.215,0.296
		s-0.812,0.086-1.199,0.086c-0.768,0-1.481-0.127-2.141-0.382c-0.66-0.254-1.234-0.631-1.722-1.129
		c-0.487-0.499-0.871-1.115-1.151-1.851c-0.279-0.735-0.419-1.587-0.419-2.555c0-0.753,0.122-1.461,0.366-2.125
		c0.243-0.663,0.593-1.24,1.049-1.731c0.455-0.491,1.011-0.88,1.667-1.167C16.387,5.575,17.128,5.432,17.953,5.432z M18.006,7.336
		c-0.773,0-1.38,0.219-1.817,0.656s-0.718,1.058-0.839,1.86h4.991c0-0.344-0.047-0.668-0.14-0.973
		c-0.094-0.305-0.237-0.572-0.431-0.802c-0.194-0.229-0.438-0.41-0.731-0.543C18.744,7.402,18.4,7.336,18.006,7.336z"/>
	<path d="M31.441,7.756c-0.072,0.114-0.147,0.195-0.227,0.241c-0.078,0.047-0.18,0.07-0.301,0.07c-0.129,0-0.268-0.036-0.414-0.107
		c-0.146-0.072-0.317-0.152-0.512-0.242c-0.193-0.09-0.414-0.17-0.661-0.242c-0.247-0.071-0.54-0.107-0.876-0.107
		c-0.523,0-0.937,0.111-1.237,0.333c-0.302,0.223-0.452,0.514-0.452,0.872c0,0.236,0.077,0.436,0.231,0.597s0.358,0.303,0.613,0.425
		s0.543,0.231,0.866,0.328c0.322,0.097,0.652,0.203,0.989,0.317c0.337,0.115,0.667,0.246,0.989,0.393
		c0.323,0.147,0.611,0.334,0.866,0.56s0.459,0.496,0.613,0.812c0.153,0.316,0.231,0.696,0.231,1.141
		c0,0.531-0.098,1.021-0.291,1.469s-0.477,0.835-0.85,1.161c-0.373,0.327-0.834,0.581-1.383,0.764
		c-0.548,0.184-1.178,0.274-1.887,0.274c-0.381,0-0.752-0.034-1.113-0.102c-0.363-0.068-0.711-0.163-1.044-0.285
		s-0.642-0.266-0.925-0.431s-0.533-0.344-0.748-0.538l0.613-1.011c0.078-0.122,0.172-0.215,0.279-0.279
		c0.107-0.065,0.244-0.098,0.409-0.098s0.321,0.047,0.468,0.141c0.146,0.093,0.317,0.193,0.512,0.301
		c0.193,0.107,0.42,0.208,0.683,0.301c0.262,0.094,0.593,0.141,0.995,0.141c0.315,0,0.586-0.038,0.812-0.113
		c0.225-0.075,0.412-0.174,0.559-0.296s0.254-0.264,0.322-0.425s0.103-0.328,0.103-0.5c0-0.259-0.077-0.47-0.231-0.635
		s-0.358-0.309-0.613-0.431c-0.254-0.122-0.545-0.231-0.871-0.328s-0.66-0.202-1-0.317c-0.341-0.114-0.674-0.249-1-0.403
		s-0.617-0.35-0.871-0.586c-0.256-0.236-0.46-0.527-0.613-0.871c-0.154-0.345-0.232-0.761-0.232-1.248
		c0-0.452,0.09-0.882,0.27-1.291c0.18-0.408,0.443-0.766,0.791-1.07s0.781-0.549,1.301-0.731s1.121-0.274,1.803-0.274
		c0.76,0,1.451,0.126,2.076,0.377c0.623,0.251,1.143,0.581,1.559,0.989L31.441,7.756z"/>
	<path d="M40.843,7.756c-0.071,0.114-0.146,0.195-0.226,0.241c-0.079,0.047-0.18,0.07-0.302,0.07c-0.129,0-0.267-0.036-0.414-0.107
		c-0.146-0.072-0.317-0.152-0.511-0.242s-0.414-0.17-0.661-0.242c-0.248-0.071-0.54-0.107-0.877-0.107
		c-0.523,0-0.937,0.111-1.237,0.333c-0.301,0.223-0.451,0.514-0.451,0.872c0,0.236,0.076,0.436,0.23,0.597s0.359,0.303,0.613,0.425
		c0.255,0.122,0.544,0.231,0.866,0.328s0.652,0.203,0.989,0.317c0.338,0.115,0.667,0.246,0.99,0.393
		c0.322,0.147,0.611,0.334,0.866,0.56c0.254,0.226,0.458,0.496,0.612,0.812c0.154,0.316,0.231,0.696,0.231,1.141
		c0,0.531-0.097,1.021-0.29,1.469s-0.478,0.835-0.85,1.161c-0.373,0.327-0.834,0.581-1.383,0.764
		c-0.549,0.184-1.178,0.274-1.888,0.274c-0.38,0-0.751-0.034-1.113-0.102c-0.362-0.068-0.71-0.163-1.044-0.285
		c-0.333-0.122-0.642-0.266-0.925-0.431s-0.532-0.344-0.747-0.538l0.613-1.011c0.078-0.122,0.172-0.215,0.279-0.279
		c0.107-0.065,0.244-0.098,0.408-0.098c0.166,0,0.321,0.047,0.469,0.141c0.146,0.093,0.316,0.193,0.511,0.301
		c0.193,0.107,0.421,0.208,0.683,0.301c0.262,0.094,0.594,0.141,0.995,0.141c0.316,0,0.586-0.038,0.812-0.113
		c0.226-0.075,0.412-0.174,0.56-0.296c0.146-0.122,0.254-0.264,0.322-0.425s0.103-0.328,0.103-0.5c0-0.259-0.077-0.47-0.231-0.635
		s-0.358-0.309-0.613-0.431s-0.545-0.231-0.871-0.328s-0.66-0.202-1-0.317c-0.342-0.114-0.675-0.249-1.001-0.403
		s-0.616-0.35-0.871-0.586s-0.46-0.527-0.613-0.871c-0.154-0.345-0.231-0.761-0.231-1.248c0-0.452,0.09-0.882,0.27-1.291
		c0.179-0.408,0.442-0.766,0.79-1.07s0.782-0.549,1.302-0.731s1.12-0.274,1.802-0.274c0.76,0,1.452,0.126,2.076,0.377
		s1.144,0.581,1.56,0.989L40.843,7.756z"/>
	<path d="M47.125,12.23c0,0.337,0.023,0.674,0.069,1.011c0.047,0.337,0.101,0.675,0.162,1.012c0.061,0.337,0.114,0.676,0.161,1.017
		c0.047,0.34,0.069,0.687,0.069,1.038c0,0.545-0.078,1.041-0.236,1.489c-0.157,0.448-0.399,0.832-0.726,1.151
		c-0.327,0.318-0.739,0.566-1.237,0.742c-0.499,0.176-1.085,0.264-1.759,0.264h-0.57v-1.173c0-0.094,0.02-0.176,0.06-0.247
		c0.039-0.072,0.089-0.13,0.15-0.173c0.061-0.043,0.124-0.075,0.188-0.097s0.121-0.032,0.172-0.032h0.097
		c0.502,0,0.886-0.157,1.151-0.473c0.265-0.316,0.397-0.746,0.397-1.291c0-0.395-0.021-0.772-0.064-1.135s-0.088-0.714-0.135-1.055
		c-0.046-0.341-0.091-0.676-0.134-1.006c-0.043-0.329-0.064-0.663-0.064-1c0-0.266,0.037-0.52,0.112-0.764s0.185-0.466,0.328-0.667
		s0.319-0.375,0.527-0.521c0.208-0.147,0.441-0.26,0.699-0.339c-0.258-0.072-0.491-0.184-0.699-0.334s-0.384-0.324-0.527-0.521
		s-0.253-0.418-0.328-0.661c-0.075-0.244-0.112-0.502-0.112-0.775c0-0.337,0.021-0.67,0.064-1s0.088-0.665,0.134-1.006
		c0.047-0.341,0.092-0.691,0.135-1.054s0.064-0.741,0.064-1.135c0-0.553-0.133-0.986-0.397-1.302
		c-0.266-0.315-0.649-0.474-1.151-0.474h-0.097c-0.051,0-0.107-0.011-0.172-0.032s-0.128-0.054-0.188-0.097
		c-0.062-0.043-0.111-0.099-0.15-0.167c-0.04-0.068-0.06-0.148-0.06-0.242V0h0.57c0.674,0,1.26,0.088,1.759,0.263
		c0.498,0.177,0.91,0.426,1.237,0.748c0.326,0.322,0.568,0.708,0.726,1.156c0.158,0.448,0.236,0.945,0.236,1.49
		c0,0.352-0.022,0.697-0.069,1.038s-0.101,0.68-0.161,1.017c-0.062,0.337-0.115,0.672-0.162,1.006
		c-0.046,0.333-0.069,0.668-0.069,1.005c0,0.438,0.102,0.795,0.307,1.07c0.204,0.276,0.532,0.415,0.984,0.415v1.538
		c-0.452,0-0.78,0.138-0.984,0.414C47.227,11.437,47.125,11.793,47.125,12.23z"/>
</g>
</svg>
