<?xml version="1.0" encoding="utf-8"?>
<!-- Generator: Adobe Illustrator 16.0.0, SVG Export Plug-In . SVG Version: 6.00 Build 0)  -->
<!DOCTYPE svg PUBLIC "-//W3C//DTD SVG 1.1//EN" "http://www.w3.org/Graphics/SVG/1.1/DTD/svg11.dtd">
<svg version="1.1" id="Layer_1" xmlns="http://www.w3.org/2000/svg" xmlns:xlink="http://www.w3.org/1999/xlink" x="0px" y="0px"
	 width="31px" height="27px" viewBox="0 0 31 27" enable-background="new 0 0 31 27" xml:space="preserve">
<g>
	<path d="M25.449,3H5.145C4.118,3,4,4.146,4,5.172v13.792C4,19.991,4.118,20,5.145,20h7.268L12,23.36V23h-1.03
		c-0.257,0-0.463,0.244-0.463,0.5S10.713,24,10.97,24h8.653c0.257,0,0.464-0.244,0.464-0.5S19.88,23,19.623,23H19v0.36L18.18,20
		h7.27C26.474,20,27,19.991,27,18.965V5.172C27,4.146,26.474,3,25.449,3z M20,6v0.538c0,0.218-0.283,0.394-0.5,0.394
		S19,6.755,19,6.538V6h-1v0.538c0,0.218-0.283,0.394-0.5,0.394S17,6.755,17,6.538v-0.1l0,0v0.1c0,0.218-0.781,0.394-1,0.394
		c-0.216,0-1-0.176-1-0.394V6.243l0,0v0.295c0,0.218-0.282,0.394-0.5,0.394c-0.217,0-0.5-0.176-0.5-0.394V6h-1v0.538
		c0,0.218-0.282,0.394-0.5,0.394S12,6.755,12,6.538V6h-1v0.538c0,0.218,0.217,0.394,0,0.394c-0.218,0,0-0.176,0-0.394V6h-1v0.538
		c0,0.218-0.283,0.394-0.5,0.394S9,6.755,9,6.538V6H7v6.2C7,12.456,7.149,12,6.895,12H5.477C5.222,12,5,12.456,5,12.2V5.679
		C5,5.424,5.222,5,5.477,5h19.64C25.372,5,25,5.424,25,5.679v8.761C25,14.696,25.372,15,25.116,15h-4.044
		C20.816,15,20,14.696,20,14.439V6L20,6z M11.79,10.122c-0.548,0-0.995-0.445-0.995-0.993c0-0.548,0.447-0.994,0.995-0.994
		s0.993,0.446,0.993,0.994C12.783,9.677,12.338,10.122,11.79,10.122z M11.035,11.121c0.155-0.186,0.428-0.221,0.624-0.081
		l0.725,0.515l0.003,0.004l0.862,0.676l0.005,0.003c0.084,0.067,0.186,0.099,0.286,0.099c0.127,0,0.254-0.054,0.347-0.156
		c0.005-0.007,0.012-0.014,0.017-0.021h0.001c0.156-0.2,0.122-0.488-0.073-0.646c-0.003-0.001-0.004-0.002-0.006-0.004l-0.359-0.282
		l1.654-2.052C15.211,9.064,15.347,9,15.492,9.004c0.145,0.004,0.279,0.075,0.364,0.192l3.603,4.991
		c0.103,0.142,0.118,0.366,0.039,0.521C19.418,14.864,19.259,15,19.085,15H8.847c-0.18,0-0.344-0.144-0.419-0.307
		c-0.076-0.163-0.051-0.374,0.063-0.513L11.035,11.121z M16.038,18.318c0,0.41-0.333,0.743-0.741,0.743
		c-0.41,0-0.743-0.333-0.743-0.743c0-0.409,0.333-0.741,0.743-0.741C15.705,17.577,16.038,17.909,16.038,18.318z"/>
	<path fill="#444444" d="M22.479,7h1.229c0.256,0,0.463-0.243,0.463-0.5c0-0.256-0.207-0.5-0.463-0.5h-1.229
		c-0.256,0-0.463,0.244-0.463,0.5C22.017,6.757,22.224,7,22.479,7z"/>
	<path fill="#444444" d="M22.479,9h1.229c0.256,0,0.463-0.243,0.463-0.5c0-0.254-0.207-0.5-0.463-0.5h-1.229
		c-0.256,0-0.463,0.246-0.463,0.5C22.017,8.757,22.224,9,22.479,9z"/>
	<path fill="#444444" d="M22.479,11h1.229c0.256,0,0.463-0.743,0.463-1c0-0.256-0.207-1-0.463-1h-1.229
		c-0.256,0-0.463,0.744-0.463,1C22.017,10.257,22.224,11,22.479,11z"/>
	<path fill="#444444" d="M22.479,12h1.229c0.256,0,0.463,0.256,0.463,0c0-0.254-0.207,0-0.463,0H22.479
		c-0.256,0-0.463-0.254-0.463,0C22.017,12.256,22.224,12,22.479,12z"/>
</g>
</svg>
