<?xml version="1.0" encoding="utf-8"?>
<!-- Generator: Adobe Illustrator 16.0.0, SVG Export Plug-In . SVG Version: 6.00 Build 0)  -->
<!DOCTYPE svg PUBLIC "-//W3C//DTD SVG 1.1//EN" "http://www.w3.org/Graphics/SVG/1.1/DTD/svg11.dtd">
<svg version="1.1" id="Layer_1" xmlns="http://www.w3.org/2000/svg" xmlns:xlink="http://www.w3.org/1999/xlink" x="0px" y="0px"
	 width="31px" height="27px" viewBox="0 0 31 27" enable-background="new 0 0 31 27" xml:space="preserve">
<g>
	<path d="M28.531,0H1.937C0.593,0,0,1.249,0,2.593v18.065C0,22.002,0.593,22,1.937,22h9.52L11,26.415V26H9.566
		C9.23,26,8.96,26.164,8.96,26.5c0,0.334,0.271,0.5,0.606,0.5H20.9c0.336,0,0.607-0.166,0.607-0.5c0-0.336-0.271-0.5-0.607-0.5H20
		v0.415L19.01,22h9.521C29.873,22,31,22.002,31,20.658V2.593C31,1.249,29.873,0,28.531,0z M21,4v0.381
		c0,0.285-0.216,0.516-0.5,0.516S20,4.666,20,4.381V4h-1v0.381c0,0.285-0.717,0.516-1,0.516c-0.284,0-1-0.23-1-0.516V4.25l0,0v0.131
		c0,0.285-0.714,0.516-1,0.516c-0.283,0-1-0.23-1-0.516V3.994l0,0v0.387c0,0.285-0.715,0.516-1,0.516c-0.284,0-1-0.23-1-0.516V4h-1
		v0.381c0,0.285-0.215,0.516-0.5,0.516S11,4.666,11,4.381V4h-1v0.381c0,0.285-0.216,0.516-0.5,0.516c-0.285,0-0.5-0.23-0.5-0.516V4
		H8v0.381c0,0.285-0.215,0.516-0.5,0.516c-0.284,0-0.5-0.23-0.5-0.516V4H5v7.797C5,12.132,4.562,12,4.229,12H2.371
		C2.037,12,2,12.132,2,11.797V3.256C2,2.922,2.037,2,2.371,2h25.724C28.43,2,28,2.922,28,3.256V14.73c0,0.336,0.43,0.27,0.095,0.27
		h-5.297C22.463,15,22,15.066,22,14.73V4H21z M10.641,9.075c-0.718,0-1.303-0.583-1.303-1.301s0.585-1.302,1.303-1.302
		s1.301,0.584,1.301,1.302S11.358,9.075,10.641,9.075z M9.652,10.384c0.203-0.243,0.56-0.289,0.816-0.106l0.949,0.674l0.005,0.006
		l1.129,0.886l0.007,0.004c0.109,0.088,0.242,0.13,0.374,0.13c0.167,0,0.333-0.07,0.454-0.204c0.007-0.009,0.016-0.019,0.022-0.028
		h0.001c0.205-0.262,0.16-0.639-0.097-0.846c-0.003-0.002-0.005-0.003-0.007-0.006l-0.471-0.369l2.166-2.688
		c0.119-0.146,0.297-0.23,0.488-0.225c0.189,0.005,0.365,0.098,0.477,0.252l4.719,6.537c0.135,0.186,0.154,0.747,0.051,0.95
		C20.632,15.554,20.423,16,20.195,16H6.786c-0.236,0-0.45-0.456-0.55-0.669S6.17,14.707,6.32,14.525L9.652,10.384z M16.205,19.812
		c0,0.536-0.437,0.973-0.972,0.973c-0.536,0-0.973-0.437-0.973-0.973s0.437-0.972,0.973-0.972
		C15.769,18.84,16.205,19.275,16.205,19.812z"/>
	<path fill="#444444" d="M24.642,5h1.609c0.335,0,0.606-0.164,0.606-0.5c0-0.335-0.271-0.5-0.606-0.5h-1.609
		c-0.335,0-0.606,0.165-0.606,0.5C24.035,4.836,24.307,5,24.642,5z"/>
	<path fill="#444444" d="M24.642,7h1.609c0.335,0,0.606-0.163,0.606-0.5c0-0.333-0.271-0.5-0.606-0.5h-1.609
		c-0.335,0-0.606,0.167-0.606,0.5C24.035,6.837,24.307,7,24.642,7z"/>
	<path fill="#444444" d="M24.642,10h1.609c0.335,0,0.606-0.664,0.606-1c0-0.335-0.271-1-0.606-1h-1.609
		c-0.335,0-0.606,0.665-0.606,1C24.035,9.336,24.307,10,24.642,10z"/>
	<path fill="#444444" d="M24.642,12h1.609c0.335,0,0.606-0.164,0.606-0.5c0-0.333-0.271-0.5-0.606-0.5h-1.609
		c-0.335,0-0.606,0.167-0.606,0.5C24.035,11.836,24.307,12,24.642,12z"/>
</g>
</svg>
