<?xml version="1.0" encoding="utf-8"?>
<!-- Generator: Adobe Illustrator 16.0.0, SVG Export Plug-In . SVG Version: 6.00 Build 0)  -->
<!DOCTYPE svg PUBLIC "-//W3C//DTD SVG 1.1//EN" "http://www.w3.org/Graphics/SVG/1.1/DTD/svg11.dtd">
<svg version="1.1" id="Layer_1" xmlns="http://www.w3.org/2000/svg" xmlns:xlink="http://www.w3.org/1999/xlink" x="0px" y="0px"
	 width="27.12px" height="30.144px" viewBox="0 0 27.12 30.144" enable-background="new 0 0 27.12 30.144" xml:space="preserve">
<g>
	<path d="M19.465,17.396c-0.079-1.817-0.07-3.302,0.026-4.412c0.025-0.297,0.088-0.569,0.127-0.816
		c0.021-0.15-0.059-0.292,0.107-0.425l0,0c-0.332-0.33-0.49-0.653-0.745-0.971c-0.018-0.022-0.052-0.044-0.069-0.066
		c-1.034-1.273-2.912-1.425-4.172-0.374c-0.55,0.458-1.18,0.692-1.815,0.622c-1.369-0.15-1.767-1.653-1.766-3.611
		c0-0.722-0.627-1.287-1.346-1.218C8.399,6.261,7.16,6.761,6.302,7.451c-3.353,2.69-3.126,8.541,0.506,13.067
		c3.633,4.524,9.295,6.012,12.647,3.32c0.167-0.132,0.323-0.273,0.472-0.422c-0.012-0.126-0.026-0.256-0.04-0.389
		C19.729,21.434,19.553,19.373,19.465,17.396z M6.432,11.445c0-0.719,0.581-1.301,1.301-1.301c0.719,0,1.302,0.583,1.302,1.301
		c0,0.718-0.583,1.301-1.302,1.301C7.013,12.747,6.432,12.164,6.432,11.445z M8.395,17.594c-0.718,0-1.301-0.581-1.301-1.3
		c0-0.72,0.583-1.302,1.301-1.302c0.719,0,1.301,0.583,1.301,1.302C9.695,17.013,9.113,17.594,8.395,17.594z M11.509,21.324
		c-0.718,0-1.3-0.584-1.3-1.302c0-0.719,0.582-1.301,1.3-1.301c0.719,0,1.303,0.582,1.303,1.301
		C12.812,20.74,12.228,21.324,11.509,21.324z M16.043,22.948c-0.719,0-1.302-0.583-1.302-1.301c0-0.719,0.583-1.301,1.302-1.301
		s1.301,0.582,1.301,1.301C17.344,22.365,16.762,22.948,16.043,22.948z M17.609,16.438c-0.86,0.324-1.913-0.357-2.353-1.521
		c-0.438-1.164-0.098-2.37,0.762-2.695c0.859-0.324,1.912,0.356,2.351,1.521C18.809,14.908,18.468,16.114,17.609,16.438z"/>
	<path d="M21.047,11.122c-0.311,0-0.512,0.596-0.633,1.429c-0.023,0.16,0.04,0.244,0.021,0.422c-0.044,0.453-0.001,0.876-0.001,1.42
		v0.006c0,1.507-0.037,3.297,0.081,5.005c0,0-0.042,0.003-0.042,0.006c0.074,1.071,0.144,2.111,0.231,3.029
		c0.016,0.17,0.022,0.337,0.038,0.497c0.097,0.975,0.182,1.775,0.24,2.275c0.037,0.322,0.31,0.565,0.634,0.565
		c0.323,0,0.594-0.073,0.633-0.396c0.303-2.49,1.416-12.26,0.109-14.26H21.047z"/>
	<path d="M21.62,9.711c0.868,0,1.571-0.703,1.571-1.57s-0.952-1.54-0.537-3.774c0,0-2.604,1.54-2.604,3.774
		C20.051,9.008,20.754,9.711,21.62,9.711z"/>
</g>
</svg>
