<?xml version="1.0" encoding="utf-8"?>
<!-- Generator: Adobe Illustrator 16.0.0, SVG Export Plug-In . SVG Version: 6.00 Build 0)  -->
<!DOCTYPE svg PUBLIC "-//W3C//DTD SVG 1.1//EN" "http://www.w3.org/Graphics/SVG/1.1/DTD/svg11.dtd">
<svg version="1.1" id="Layer_1" xmlns="http://www.w3.org/2000/svg" xmlns:xlink="http://www.w3.org/1999/xlink" x="0px" y="0px"
	 width="27.12px" height="30.144px" viewBox="0 0 27.12 30.144" enable-background="new 0 0 27.12 30.144" xml:space="preserve">
<g>
	<path d="M21.874,18.345c-0.111-2.559-0.1-4.648,0.036-6.212c0.036-0.418,0.124-0.802,0.179-1.149
		c0.031-0.212-0.082-0.411,0.151-0.599l0,0c-0.468-0.464-0.69-0.92-1.049-1.367c-0.024-0.031-0.073-0.062-0.098-0.094
		c-1.456-1.793-4.1-2.006-5.874-0.526c-0.773,0.645-1.66,0.974-2.556,0.876c-1.927-0.212-2.487-2.328-2.485-5.084
		c0-1.017-0.883-1.812-1.895-1.715C6.294,2.667,4.55,3.371,3.341,4.342c-4.72,3.788-4.4,12.024,0.713,18.396
		c5.114,6.371,13.086,8.464,17.807,4.676c0.234-0.187,0.454-0.386,0.664-0.595c-0.018-0.178-0.038-0.359-0.057-0.547
		C22.245,24.028,21.997,21.128,21.874,18.345z M3.524,9.966c0-1.012,0.818-1.832,1.831-1.832c1.012,0,1.832,0.82,1.832,1.832
		s-0.82,1.832-1.832,1.832C4.343,11.798,3.524,10.978,3.524,9.966z M6.287,18.623c-1.011,0-1.831-0.819-1.831-1.831
		c0-1.013,0.82-1.833,1.831-1.833c1.013,0,1.832,0.82,1.832,1.833C8.119,17.804,7.3,18.623,6.287,18.623z M10.673,23.874
		c-1.012,0-1.831-0.821-1.831-1.832c0-1.013,0.819-1.832,1.831-1.832s1.834,0.819,1.834,1.832
		C12.507,23.053,11.685,23.874,10.673,23.874z M17.056,26.161c-1.012,0-1.832-0.82-1.832-1.832s0.82-1.831,1.832-1.831
		s1.832,0.819,1.832,1.831S18.067,26.161,17.056,26.161z M19.261,16.996c-1.211,0.456-2.693-0.503-3.312-2.142
		s-0.138-3.337,1.072-3.794c1.21-0.456,2.691,0.502,3.31,2.142C20.949,14.841,20.47,16.54,19.261,16.996z"/>
	<path d="M24.101,9.122c-0.438,0-0.721,1.033-0.891,2.206c-0.033,0.225,0.154,0.441,0.128,0.69
		c-0.062,0.639,0.097,1.331,0.097,2.098v0.009c0,2.121-0.15,4.642,0.016,7.047c0,0-0.107,0.004-0.107,0.008
		c0.104,1.509,0.178,2.973,0.302,4.265c0.022,0.239,0.019,0.475,0.041,0.7c0.136,1.372,0.249,2.499,0.331,3.203
		c0.053,0.454,0.434,0.796,0.89,0.796s0.835-0.298,0.89-0.75c0.426-3.508,1.992-17.271,0.153-20.271H24.101z"/>
	<path d="M24.908,7.524c1.222,0,2.212-0.99,2.212-2.211S25.78,3.146,26.363,0c0,0-3.665,2.168-3.665,5.313
		C22.698,6.534,23.688,7.524,24.908,7.524z"/>
</g>
</svg>
