<?xml version="1.0" encoding="utf-8"?>
<!-- Generator: Adobe Illustrator 16.0.0, SVG Export Plug-In . SVG Version: 6.00 Build 0)  -->
<!DOCTYPE svg PUBLIC "-//W3C//DTD SVG 1.1//EN" "http://www.w3.org/Graphics/SVG/1.1/DTD/svg11.dtd">
<svg version="1.1" id="Layer_1" xmlns="http://www.w3.org/2000/svg" xmlns:xlink="http://www.w3.org/1999/xlink" x="0px" y="0px"
	 width="49.139px" height="25.645px" viewBox="0 0 49.139 25.645" enable-background="new 0 0 49.139 25.645" xml:space="preserve">
<g>
	<path d="M0,11.568c2.217-0.064,2.441-1.221,2.441-2.185c0-0.803-0.096-1.639-0.192-2.507C2.152,6.009,2.088,5.142,2.088,4.338
		C2.088,1.317,3.984,0,6.973,0h1.125v2.731H7.52c-1.446,0-1.961,0.868-1.961,2.281c0,0.579,0.097,1.157,0.161,1.832
		C5.784,7.487,5.881,8.227,5.881,9.03c0.031,2.442-0.965,3.342-2.732,3.728v0.064c1.768,0.386,2.764,1.317,2.732,3.76
		c0,0.836-0.097,1.574-0.161,2.248c-0.064,0.645-0.161,1.254-0.161,1.801c0,1.414,0.482,2.312,1.961,2.312h0.578v2.701H6.941
		c-2.86,0-4.854-1.158-4.854-4.371c0-0.803,0.064-1.672,0.161-2.539s0.192-1.703,0.192-2.506c0-0.9-0.225-2.121-2.441-2.186V11.568z
		"/>
	<path d="M15.811,0.385h4.885v13.689c0,6.17-2.956,8.324-7.713,8.324c-1.124,0-2.602-0.193-3.566-0.516l0.547-3.951
		c0.674,0.225,1.542,0.385,2.506,0.385c2.057,0,3.342-0.932,3.342-4.307V0.385z"/>
	<path d="M24.939,17c1.316,0.674,3.342,1.35,5.431,1.35c2.249,0,3.438-0.932,3.438-2.346c0-1.35-1.028-2.121-3.631-3.054
		c-3.599-1.253-5.944-3.246-5.944-6.395c0-3.695,3.084-6.523,8.194-6.523c2.441,0,4.241,0.514,5.526,1.093l-1.092,3.953
		c-0.868-0.418-2.41-1.028-4.531-1.028s-3.149,0.964-3.149,2.089c0,1.382,1.221,1.992,4.017,3.053
		c3.824,1.414,5.624,3.406,5.624,6.46c0,3.631-2.796,6.715-8.741,6.715c-2.475,0-4.916-0.643-6.138-1.316L24.939,17z"/>
	<path d="M49.139,14.043c-2.185,0.064-2.442,1.285-2.442,2.186c0,0.803,0.097,1.639,0.193,2.506s0.192,1.736,0.192,2.539
		c0,3.213-1.992,4.371-4.884,4.371h-1.157v-2.701h0.578c1.479-0.031,1.961-0.898,1.961-2.312c0-0.547-0.064-1.156-0.161-1.801
		c-0.064-0.674-0.16-1.412-0.16-2.248c-0.032-2.443,0.964-3.375,2.763-3.76v-0.064c-1.799-0.386-2.795-1.285-2.763-3.728
		c0-0.803,0.096-1.542,0.16-2.185c0.097-0.675,0.161-1.253,0.161-1.832c0-1.414-0.515-2.25-1.961-2.281h-0.578V0h1.125
		c3.021,0,4.916,1.317,4.916,4.338c0,0.804-0.096,1.671-0.192,2.539c-0.097,0.868-0.193,1.704-0.193,2.507
		c0,0.964,0.258,2.121,2.442,2.185V14.043z"/>
</g>
</svg>
