<svg xmlns="http://www.w3.org/2000/svg" width="91.582" height="94.751" viewBox="0 0 91.582 94.751">
  <g id="_6" data-name="6" transform="translate(1.316 1.316)">
    <path id="Path_29" data-name="Path 29" d="M478.181,319.536" transform="translate(-434.385 -238.345)" fill="none" stroke="#484751" stroke-linecap="square" stroke-miterlimit="10" stroke-width="2.632"/>
    <path id="Path_30" data-name="Path 30" d="M482.131,333.794a10.8,10.8,0,0,1-6.855,2.418,10.971,10.971,0,0,1-9.869-6.187,10.961,10.961,0,0,1-12.465-14.4,10.973,10.973,0,0,1-6.041-16.578,8.017,8.017,0,0,1,7.682-3.327" transform="translate(-442.344 -244.093)" fill="none" stroke="#484751" stroke-linecap="square" stroke-miterlimit="10" stroke-width="2.632"/>
    <path id="Path_31" data-name="Path 31" d="M486.67,265.117a10.9,10.9,0,0,0-20.732-4.848,10.961,10.961,0,0,0-12.465,14.4,10.973,10.973,0,0,0-6.041,16.578,10.964,10.964,0,0,0-3.906,12.62" transform="translate(-442.874 -254.082)" fill="none" stroke="#484751" stroke-linecap="square" stroke-miterlimit="10" stroke-width="2.632"/>
    <path id="Path_32" data-name="Path 32" d="M459.2,274.194c-2.178.385-5.082-.113-7.986-3.641" transform="translate(-440.87 -250.122)" fill="none" stroke="#484751" stroke-miterlimit="10" stroke-width="2.632"/>
    <path id="Path_33" data-name="Path 33" d="M458.425,301.139c2.741.742,6.268.346,7.938-5.438" transform="translate(-439.135 -244.076)" fill="none" stroke="#484751" stroke-miterlimit="10" stroke-width="2.632"/>
    <path id="Path_34" data-name="Path 34" d="M461.514,324.647a14.181,14.181,0,0,1,.418-6.872" transform="translate(-438.451 -238.768)" fill="none" stroke="#484751" stroke-miterlimit="10" stroke-width="2.632"/>
    <line id="Line_1" data-name="Line 1" x2="5.502" transform="translate(4.557 37.113)" fill="none" stroke="#484751" stroke-miterlimit="10" stroke-width="2.632"/>
    <line id="Line_2" data-name="Line 2" y1="3.254" x2="6.186" transform="translate(10.598 68.223)" fill="none" stroke="#484751" stroke-miterlimit="10" stroke-width="2.632"/>
    <line id="Line_3" data-name="Line 3" x2="2.055" y2="3.184" transform="translate(23.064 6.134)" fill="none" stroke="#484751" stroke-miterlimit="10" stroke-width="2.632"/>
    <path id="Path_35" data-name="Path 35" d="M522.777,289.1a10.966,10.966,0,0,1-4.24,11.519,10.973,10.973,0,0,1-6.041,16.578,10.966,10.966,0,0,1-12.465,14.4,10.975,10.975,0,0,1-20.85-4.794h0l.02-5.324" transform="translate(-434.145 -245.663)" fill="none" stroke="#484751" stroke-linecap="square" stroke-miterlimit="10" stroke-width="2.632"/>
    <path id="Path_36" data-name="Path 36" d="M482.84,256.168a10.973,10.973,0,0,1,16.312,4.1,10.961,10.961,0,0,1,12.465,14.4,10.973,10.973,0,0,1,6.041,16.578s-3.154,4.3-9.1,1.279" transform="translate(-433.265 -254.082)" fill="none" stroke="#484751" stroke-linecap="square" stroke-miterlimit="10" stroke-width="2.632"/>
    <line id="Line_4" data-name="Line 4" x1="0.118" y1="4.672" transform="translate(43.796 10.981)" fill="none" stroke="#484751" stroke-linecap="square" stroke-miterlimit="10" stroke-width="2.632"/>
    <path id="Path_37" data-name="Path 37" d="M496.858,259.07s-5.36,1.141-4.353,7.343" transform="translate(-430.972 -252.883)" fill="none" stroke="#484751" stroke-miterlimit="10" stroke-width="2.632"/>
    <line id="Line_5" data-name="Line 5" x1="7.502" y2="4.584" transform="translate(70.85 20.588)" fill="none" stroke="#484751" stroke-miterlimit="10" stroke-width="2.632"/>
    <line id="Line_6" data-name="Line 6" x1="5.112" y1="0.705" transform="translate(79.281 54.248)" fill="none" stroke="#484751" stroke-miterlimit="10" stroke-width="2.632"/>
    <path id="Path_38" data-name="Path 38" d="M507.493,312.282s-5.171.733-7.5-2.758" transform="translate(-429.141 -240.752)" fill="none" stroke="#484751" stroke-miterlimit="10" stroke-width="2.632"/>
    <line id="Line_7" data-name="Line 7" x1="2.239" y1="5.107" transform="translate(63.647 80.824)" fill="none" stroke="#484751" stroke-miterlimit="10" stroke-width="2.632"/>
    <line id="Line_8" data-name="Line 8" x2="4.564" transform="translate(51.935 67.086)" fill="none" stroke="#484751" stroke-linecap="square" stroke-miterlimit="10" stroke-width="2.632"/>
    <path id="Path_39" data-name="Path 39" d="M494.5,313.468c-5.262,1.108-8.279-6.732-3.348-9.541" transform="translate(-431.868 -242.098)" fill="none" stroke="#484751" stroke-linecap="square" stroke-miterlimit="10" stroke-width="2.632"/>
    <path id="Path_40" data-name="Path 40" d="M456.425,279.894c-2.636,2.389-2.481,11.282,5.892,10.078" transform="translate(-439.979 -247.876)" fill="none" stroke="#484751" stroke-linecap="square" stroke-miterlimit="10" stroke-width="2.632"/>
    <path id="Path_41" data-name="Path 41" d="M497.566,290.883c-.824,3.014.141,6.753,5.447,7.557" transform="translate(-429.787 -245.234)" fill="none" stroke="#484751" stroke-linecap="square" stroke-miterlimit="10" stroke-width="2.632"/>
    <path id="Path_42" data-name="Path 42" d="M468.905,314.462c.128-2.606-4.565-7.137-8.282-2.171" transform="translate(-438.607 -240.622)" fill="none" stroke="#484751" stroke-linecap="square" stroke-miterlimit="10" stroke-width="2.632"/>
    <path id="Path_43" data-name="Path 43" d="M494.816,272.895s7.126-1.728,5.772,6.384" transform="translate(-430.386 -249.596)" fill="none" stroke="#484751" stroke-linecap="square" stroke-miterlimit="10" stroke-width="2.632"/>
    <path id="Path_44" data-name="Path 44" d="M468.89,267.871s-3.909,6.167-8.255-.094" transform="translate(-438.604 -250.789)" fill="none" stroke="#484751" stroke-linecap="square" stroke-miterlimit="10" stroke-width="2.632"/>
    <path id="Path_45" data-name="Path 45" d="M489.9,276.427l1.178-3.351H474.865l-4.11,21.515H477.4l-2.581,23.483h2.458L491.7,290.585h-6.779l2.377-6.759" transform="translate(-436.17 -249.515)" fill="none" stroke="#484751" stroke-linecap="square" stroke-miterlimit="10" stroke-width="2.632"/>
  </g>
</svg>
