<svg id="Group_26" data-name="Group 26" xmlns="http://www.w3.org/2000/svg" xmlns:xlink="http://www.w3.org/1999/xlink" width="259.579" height="43.108" viewBox="0 0 259.579 43.108">
  <defs>
    <clipPath id="clip-path">
      <rect id="Rectangle_31" data-name="Rectangle 31" width="259.579" height="43.108" fill="#727272"/>
    </clipPath>
  </defs>
  <g id="Group_25" data-name="Group 25" clip-path="url(#clip-path)">
    <path id="Path_149" data-name="Path 149" d="M46.068,14.05c0-.548.028-.966.63-1.2a17.837,17.837,0,0,1,4.846-.5c2.711,0,4.711.183,6.161.991a4.065,4.065,0,0,1,2.245,3.729A4.241,4.241,0,0,1,57.1,21.014a5.857,5.857,0,0,1-.576.261c.164.027.356.078.548.129A4.622,4.622,0,0,1,60.553,26a4.893,4.893,0,0,1-3.341,4.591,15.075,15.075,0,0,1-5.257.679,29.322,29.322,0,0,1-4.983-.34c-.849-.183-.9-.573-.9-1.3Zm5.668,6.1c2.6.158,2.737-1.511,2.737-2.45a3.127,3.127,0,0,0-.383-1.54,1.7,1.7,0,0,0-1.642-.729,7.087,7.087,0,0,0-.712.052Zm0,7.722c.521.026.74.026.821.026a2.024,2.024,0,0,0,2.274-2.3c0-1.59-.63-2.894-2.63-2.894-.191,0-.356.026-.465.026Z" fill="#373a4a"/>
    <path id="Path_150" data-name="Path 150" d="M61.969,13.737c.027-.573.027-.834.575-.99a25.339,25.339,0,0,1,4.846-.392c2.136,0,6.518.026,8.077,3.312a5.433,5.433,0,0,1-2.71,7.146l4.163,7.122a1.134,1.134,0,0,1,.246.6c0,.39-.329.5-.685.5H72.1c-.711,0-.9-.105-1.178-.7l-2.9-6c-.054-.131-.137-.261-.245-.261-.138,0-.138.052-.166.417V30.3c0,.652-.3.731-.821.731H62.735c-.63,0-.766-.21-.766-.7Zm5.64,7.9c2.684.156,2.684-2.086,2.684-2.817,0-2.53-.739-3.391-2.684-3.286Z" fill="#373a4a"/>
    <path id="Path_151" data-name="Path 151" d="M84.915,31.5c-4.955,0-8.1-3.834-8.1-9.755,0-6.181,3.559-9.624,8.268-9.624,4.437,0,7.8,3.235,8.051,9.312C93.4,28.525,89.188,31.5,84.915,31.5m1.753-14.344a1.818,1.818,0,0,0-1.7-1.409c-1.039,0-2.244.679-2.244,5.763,0,3.339.492,6.078,2.327,6.078,1.288,0,1.7-1.487,1.78-1.826a15.3,15.3,0,0,0,.411-4.329,14.209,14.209,0,0,0-.575-4.277" fill="#373a4a"/>
    <path id="Path_152" data-name="Path 152" d="M103.809,22.839l-2.082,7.512c-.164.573-.3.677-.93.677H98.715c-.63,0-.849-.1-1.013-.651l-4.655-16.9a1.02,1.02,0,0,1-.082-.391c0-.47.493-.47.713-.47h4.133c.6,0,.822,0,.959.679l1.726,8.424,2.573-8.529c.137-.47.246-.574.685-.574h1.424c.493,0,.6.1.767.652l2.355,8.451,1.725-8.32c.164-.574.246-.809.821-.783h3.122c.273,0,.685,0,.685.444a1.385,1.385,0,0,1-.083.418L110.134,30.3c-.164.6-.356.732-.849.732h-2.218c-.574,0-.821-.053-1.041-.652Z" fill="#373a4a"/>
    <path id="Path_153" data-name="Path 153" d="M121.872,28.265h-4.9l-.548,2.085c-.135.5-.273.679-.9.679h-2.875c-.356,0-.657-.1-.657-.469a4.679,4.679,0,0,1,.219-.678l5.832-16.589c.219-.521.382-.678.958-.678h2.683c.657,0,.766.182.958.678l5.832,16.848a1.4,1.4,0,0,1,.083.367c0,.5-.465.521-.766.521h-4.463c-.575,0-.74-.157-.878-.626Zm-.931-2.9-1.561-5.556L117.9,25.369Z" fill="#373a4a"/>
    <path id="Path_154" data-name="Path 154" d="M129.457,13.737c.027-.573.027-.834.575-.99a25.355,25.355,0,0,1,4.846-.392c2.136,0,6.518.026,8.077,3.312a5.431,5.431,0,0,1-2.709,7.146l4.162,7.122a1.129,1.129,0,0,1,.247.6c0,.39-.328.5-.686.5h-4.38c-.712,0-.9-.105-1.178-.7l-2.9-6c-.057-.131-.138-.261-.247-.261-.137,0-.137.052-.164.417V30.3c0,.652-.3.731-.822.731h-4.052c-.63,0-.767-.21-.767-.7Zm5.641,7.9c2.683.156,2.683-2.086,2.683-2.817,0-2.53-.739-3.391-2.683-3.286Z" fill="#373a4a"/>
    <path id="Path_155" data-name="Path 155" d="M145.851,13.893c0-.651.246-.834.574-.965a19.394,19.394,0,0,1,4.929-.573c1.261,0,4.847.052,7.257,2.321,1.094,1.017,2.6,3.181,2.6,7.224a9.826,9.826,0,0,1-1.725,5.92c-2.519,3.314-6.9,3.47-8.653,3.47a17.7,17.7,0,0,1-4.3-.444c-.658-.234-.684-.574-.684-1.226Zm5.75,13.771c2.738.053,3.614-1.329,3.614-5.554,0-4.435-.713-6.626-3.614-6.391Z" fill="#373a4a"/>
    <path id="Path_156" data-name="Path 156" d="M177.816,23.414h-3.34v6.91c0,.548-.192.7-.74.7h-4.217c-.547,0-.822-.078-.822-.7v-17c0-.469.192-.678.713-.7h4.271c.438,0,.795.078.795.7v6.52h3.34V13.32c0-.444.081-.7.684-.7h4.355c.546,0,.765.105.765.678V30.324c0,.574-.219.7-.739.7h-4.353c-.657,0-.712-.209-.712-.7Z" fill="#727272"/>
    <path id="Path_157" data-name="Path 157" d="M191.97,23.414v3.834h4.9c.494,0,.794.1.794.729v2.347c0,.548-.192.7-.794.7H187.1c-.657,0-.876-.183-.876-.782V13.424c.027-.6.246-.809.9-.809h9.721c.493,0,.849.027.821.652v2.321c0,.627-.3.7-.821.7H191.97v3.52h3.971c.52,0,.9.053.9.679v2.217c0,.626-.3.7-.85.7Z" fill="#727272"/>
    <path id="Path_158" data-name="Path 158" d="M208.262,28.265h-4.9l-.548,2.085c-.135.5-.273.679-.9.679h-2.874c-.356,0-.657-.1-.657-.469a4.68,4.68,0,0,1,.22-.678l5.832-16.589c.218-.521.382-.678.959-.678h2.682c.657,0,.767.182.958.678l5.832,16.848a1.486,1.486,0,0,1,.083.367c0,.5-.466.521-.767.521h-4.463c-.575,0-.739-.157-.876-.626Zm-.932-2.9-1.561-5.556-1.478,5.556Z" fill="#727272"/>
    <path id="Path_159" data-name="Path 159" d="M221.9,27.247h4.189c.384,0,.712,0,.712.573V30.4c0,.573-.328.626-.712.626h-9.2c-.52,0-.712-.1-.739-.678V13.241c.027-.626.41-.626.711-.626h4.3c.438,0,.713.052.74.6Z" fill="#727272"/>
    <path id="Path_160" data-name="Path 160" d="M234.406,16.267V30.221c0,.547-.165.807-.74.807h-4.217c-.685,0-.849-.182-.849-.86v-13.9h-2.847c-.658,0-.8-.183-.8-.756V13.293c0-.6.329-.7.8-.7h11.528c.491,0,.767.1.767.653v2.294c0,.287,0,.731-.686.731Z" fill="#727272"/>
    <path id="Path_161" data-name="Path 161" d="M248.4,23.414h-3.34v6.91c0,.548-.192.7-.74.7H240.1c-.548,0-.821-.078-.821-.7v-17c0-.469.19-.678.711-.7h4.271c.439,0,.8.078.8.7v6.52h3.34V13.32c0-.444.081-.7.686-.7h4.353c.546,0,.767.105.767.678V30.324c0,.574-.22.7-.741.7h-4.353c-.657,0-.712-.209-.712-.7Z" fill="#727272"/>
    <path id="Path_162" data-name="Path 162" d="M257.242,14.57h.065c.344,0,.514-.147.514-.456a.384.384,0,0,0-.439-.427h-.14Zm1.28,1.156a.223.223,0,0,1,.034.106c0,.046-.034.075-.128.075h-.345c-.123,0-.164-.019-.211-.111l-.432-.841c-.034-.069-.071-.1-.111-.1-.059,0-.088.045-.088.133v.783c0,.112-.022.134-.128.134h-.346c-.1,0-.128-.03-.128-.117V13.63c0-.147,0-.188.058-.228a.338.338,0,0,1,.2-.053c.209-.012.362-.015.5-.015.7,0,1.052.244,1.052.722a.664.664,0,0,1-.5.667ZM257.5,12.77a1.864,1.864,0,1,0,1.84,1.876,1.847,1.847,0,0,0-1.84-1.876m-.008,3.943a2.079,2.079,0,1,1,2.087-2.067,2.066,2.066,0,0,1-2.087,2.067" fill="#727272"/>
    <path id="Path_163" data-name="Path 163" d="M42.851,21.553a21.3,21.3,0,1,1-21.3-21.3,21.3,21.3,0,0,1,21.3,21.3" fill="#373a4a"/>
    <path id="Path_164" data-name="Path 164" d="M42.851,21.553a21.3,21.3,0,1,1-21.3-21.3A21.3,21.3,0,0,1,42.851,21.553Z" fill="none" stroke="#fff" stroke-miterlimit="15.118" stroke-width="0.515"/>
    <path id="Path_165" data-name="Path 165" d="M27.585,38.981l-5.841-4.238-6.071,4.3v-8.66L21.732,26.3l5.853,4.107Z" fill="#fff"/>
    <path id="Path_166" data-name="Path 166" d="M26.5,4.187l2.632,6.837,7.371-.188-4.611,7.247-7.245.011-2.713-6.729Z" fill="#fff"/>
    <path id="Path_167" data-name="Path 167" d="M16.927,4.207l-2.632,6.837-7.371-.186L11.535,18.1l7.245.008,2.713-6.728Z" fill="#fff"/>
    <path id="Path_168" data-name="Path 168" d="M7.263,32.979l1.969-7.066L3.279,21.438l7.953-2.852,5.75,4.534-1.843,7.036Z" fill="#fff"/>
    <path id="Path_169" data-name="Path 169" d="M35.942,32.979l-1.969-7.066,5.953-4.475-7.953-2.852-5.75,4.534,1.842,7.036Z" fill="#fff"/>
  </g>
</svg>
