<?xml version="1.0" encoding="UTF-8" standalone="no"?>
<!-- Created with Inkscape (http://www.inkscape.org/) -->

<svg
   xmlns:dc="http://purl.org/dc/elements/1.1/"
   xmlns:cc="http://creativecommons.org/ns#"
   xmlns:rdf="http://www.w3.org/1999/02/22-rdf-syntax-ns#"
   xmlns:svg="http://www.w3.org/2000/svg"
   xmlns="http://www.w3.org/2000/svg"
   xmlns:sodipodi="http://sodipodi.sourceforge.net/DTD/sodipodi-0.dtd"
   xmlns:inkscape="http://www.inkscape.org/namespaces/inkscape"
   width="261.5787"
   height="45.108021"
   viewBox="0 0 69.209365 11.93483"
   version="1.1"
   id="svg7994"
   inkscape:version="0.92.0 r15299"
   sodipodi:docname="broward health.svg">
  <defs
     id="defs7988" />
  <sodipodi:namedview
     id="base"
     pagecolor="#ffffff"
     bordercolor="#666666"
     borderopacity="1.0"
     inkscape:pageopacity="0.0"
     inkscape:pageshadow="2"
     inkscape:zoom="3.4555878"
     inkscape:cx="129.78978"
     inkscape:cy="21.554002"
     inkscape:document-units="mm"
     inkscape:current-layer="layer1"
     showgrid="false"
     fit-margin-top="0"
     fit-margin-left="0"
     fit-margin-right="0"
     fit-margin-bottom="0"
     units="px"
     inkscape:window-width="1280"
     inkscape:window-height="744"
     inkscape:window-x="-4"
     inkscape:window-y="-4"
     inkscape:window-maximized="1" />
  <metadata
     id="metadata7991">
    <rdf:RDF>
      <cc:Work
         rdf:about="">
        <dc:format>image/svg+xml</dc:format>
        <dc:type
           rdf:resource="http://purl.org/dc/dcmitype/StillImage" />
        <dc:title></dc:title>
      </cc:Work>
    </rdf:RDF>
  </metadata>
  <g
     inkscape:label="Layer 1"
     inkscape:groupmode="layer"
     id="layer1"
     transform="translate(-44.278832,-170.57158)">
    <g
       id="g8126"
       transform="translate(0.26458388,-0.26457913)">
      <path
         d="m 56.467585,174.8181 c 0,-0.14499 0.0074,-0.25541 0.166864,-0.3175 0.173567,-0.0688 0.687917,-0.13088 1.281994,-0.13088 0.717198,0 1.246364,0.0483 1.630186,0.26211 0.362303,0.20003 0.594078,0.52458 0.594078,0.98672 0,0.49707 -0.297039,0.83503 -0.75318,1.04211 -0.0508,0.0275 -0.1016,0.0483 -0.1524,0.0691 0.04339,0.007 0.09419,0.0205 0.144991,0.0342 0.623006,0.17251 0.920045,0.69039 0.920045,1.21462 0,0.55209 -0.333375,0.99377 -0.884061,1.21461 -0.398287,0.15169 -0.876653,0.17956 -1.391003,0.17956 -0.56515,0 -1.108075,-0.0416 -1.318331,-0.0899 -0.224719,-0.0483 -0.239183,-0.1517 -0.239183,-0.34502 z m 1.499658,1.61466 c 0.68827,0.0416 0.724253,-0.40005 0.724253,-0.6484 0,-0.17251 -0.05045,-0.32456 -0.101247,-0.40746 -0.09419,-0.13794 -0.210256,-0.19297 -0.434622,-0.19297 -0.07232,0 -0.108656,0.007 -0.188384,0.0138 z m 0,2.04294 c 0.137936,0.007 0.195792,0.007 0.217311,0.007 0.442031,0 0.601487,-0.24835 0.601487,-0.60713 0,-0.42086 -0.166512,-0.76588 -0.695678,-0.76588 -0.05045,0 -0.09419,0.007 -0.12312,0.007 z"
         style="fill:#00539b;fill-opacity:1;fill-rule:nonzero;stroke:none;stroke-width:0.35277778"
         id="path6451"
         inkscape:connector-curvature="0" />
      <path
         d="m 60.674883,174.73534 c 0.0071,-0.15169 0.0071,-0.22084 0.152047,-0.26211 0.188384,-0.0554 0.789517,-0.10372 1.282347,-0.10372 0.56515,0 1.724378,0.007 2.137128,0.8763 0.1016,0.22119 0.12312,0.43497 0.12312,0.60748 0,0.82797 -0.63747,1.17299 -0.840317,1.28341 l 1.101372,1.88418 c 0.0508,0.0825 0.06526,0.11713 0.06526,0.15875 0,0.10337 -0.08714,0.13088 -0.181328,0.13088 h -1.159228 c -0.18803,0 -0.23883,-0.0275 -0.311502,-0.18626 l -0.767997,-1.58715 c -0.01411,-0.0346 -0.03598,-0.0691 -0.06491,-0.0691 -0.03634,0 -0.03634,0.0137 -0.04374,0.11042 v 1.53881 c 0,0.17251 -0.07973,0.19332 -0.217311,0.19332 H 60.87773 c -0.166864,0 -0.202847,-0.0554 -0.202847,-0.18626 z m 1.49225,2.09091 c 0.710142,0.0413 0.710142,-0.55209 0.710142,-0.74542 0,-0.66922 -0.195439,-0.89711 -0.710142,-0.86924 z"
         style="fill:#00539b;fill-opacity:1;fill-rule:nonzero;stroke:none;stroke-width:0.35277778"
         id="path6455"
         inkscape:connector-curvature="0" />
      <path
         d="m 66.746012,179.43469 c -1.311275,0 -2.144536,-1.01459 -2.144536,-2.58092 0,-1.63548 0.941917,-2.54635 2.187928,-2.54635 1.173691,0 2.064808,0.85584 2.130072,2.4638 0.07232,1.87678 -1.043164,2.66347 -2.173464,2.66347 m 0.46355,-3.79518 c -0.04339,-0.11042 -0.137583,-0.37289 -0.449086,-0.37289 -0.275167,0 -0.594078,0.17956 -0.594078,1.52506 0,0.88335 0.130528,1.60796 0.61595,1.60796 0.340431,0 0.449086,-0.39335 0.470958,-0.48295 0.101248,-0.37289 0.115712,-0.75918 0.108656,-1.14547 -0.0074,-0.37994 -0.02928,-0.76624 -0.1524,-1.13171"
         style="fill:#00539b;fill-opacity:1;fill-rule:nonzero;stroke:none;stroke-width:0.35277778"
         id="path6459"
         inkscape:connector-curvature="0" />
      <path
         d="m 71.744945,177.14368 -0.550686,1.98755 c -0.04339,0.15169 -0.07937,0.17921 -0.246239,0.17921 h -0.550686 c -0.166864,0 -0.22472,-0.0275 -0.268111,-0.17251 l -1.231547,-4.47146 c -0.01446,-0.0346 -0.02187,-0.0691 -0.02187,-0.10371 0,-0.12418 0.130528,-0.12418 0.188737,-0.12418 h 1.093611 c 0.159455,0 0.217311,0 0.253647,0.17956 l 0.456494,2.22885 0.680861,-2.25672 c 0.03634,-0.12417 0.06526,-0.15169 0.181328,-0.15169 h 0.376767 c 0.130528,0 0.159103,0.0275 0.202847,0.17251 l 0.623006,2.2359 0.456494,-2.20133 c 0.04339,-0.15169 0.06526,-0.21414 0.217311,-0.20708 h 0.825853 c 0.07232,0 0.181328,0 0.181328,0.11748 0,0.0275 -0.0074,0.0688 -0.02187,0.11041 l -1.173691,4.45065 c -0.04339,0.15875 -0.09419,0.19332 -0.22472,0.19332 H 72.60714 c -0.152047,0 -0.217311,-0.0138 -0.27552,-0.17251 z"
         style="fill:#00539b;fill-opacity:1;fill-rule:nonzero;stroke:none;stroke-width:0.35277778"
         id="path6463"
         inkscape:connector-curvature="0" />
      <path
         d="M 76.524061,178.57899 H 75.22725 l -0.144992,0.5521 c -0.03598,0.13123 -0.07232,0.17956 -0.23883,0.17956 h -0.760589 c -0.09419,0 -0.17392,-0.0279 -0.17392,-0.12418 0,-0.0208 0.05045,-0.1658 0.05786,-0.17956 l 1.54305,-4.38891 c 0.05821,-0.13793 0.101247,-0.17956 0.253647,-0.17956 h 0.709789 c 0.173919,0 0.202847,0.0483 0.253647,0.17956 l 1.54305,4.4577 c 0.0074,0.0279 0.02187,0.0624 0.02187,0.097 0,0.13089 -0.123119,0.13794 -0.202847,0.13794 h -1.180747 c -0.152047,0 -0.195792,-0.0416 -0.232128,-0.1658 z m -0.246239,-0.76588 -0.413103,-1.47003 -0.390877,1.47003 z"
         style="fill:#00539b;fill-opacity:1;fill-rule:nonzero;stroke:none;stroke-width:0.35277778"
         id="path6467"
         inkscape:connector-curvature="0" />
      <path
         d="m 78.530872,174.73534 c 0.0071,-0.15169 0.0071,-0.22084 0.152047,-0.26211 0.188384,-0.0554 0.789517,-0.10372 1.282347,-0.10372 0.56515,0 1.724378,0.007 2.137128,0.8763 0.1016,0.22119 0.123472,0.43497 0.123472,0.60748 0,0.82797 -0.637822,1.17299 -0.840316,1.28341 l 1.101019,1.88418 c 0.0508,0.0825 0.06526,0.11713 0.06526,0.15875 0,0.10337 -0.08678,0.13088 -0.181328,0.13088 H 81.21163 c -0.188383,0 -0.239183,-0.0275 -0.311855,-0.18626 L 80.13213,177.5371 c -0.01482,-0.0346 -0.03634,-0.0691 -0.06526,-0.0691 -0.03634,0 -0.03634,0.0137 -0.04339,0.11042 v 1.53881 c 0,0.17251 -0.07973,0.19332 -0.217664,0.19332 h -1.072092 c -0.166511,0 -0.202847,-0.0554 -0.202847,-0.18626 z m 1.492603,2.09091 c 0.709789,0.0413 0.709789,-0.55209 0.709789,-0.74542 0,-0.66922 -0.195439,-0.89711 -0.709789,-0.86924 z"
         style="fill:#00539b;fill-opacity:1;fill-rule:nonzero;stroke:none;stroke-width:0.35277778"
         id="path6471"
         inkscape:connector-curvature="0" />
      <path
         d="m 82.868417,174.77676 c 0,-0.17251 0.06526,-0.22084 0.152047,-0.25541 0.188384,-0.0759 0.818797,-0.1517 1.303867,-0.1517 0.333728,0 1.282347,0.0138 1.920169,0.61419 0.289631,0.26917 0.68827,0.84173 0.68827,1.91135 0,0.67628 -0.188384,1.20791 -0.456495,1.56633 -0.666397,0.87666 -1.825625,0.91793 -2.289175,0.91793 -0.355247,0 -0.884061,-0.0342 -1.137708,-0.11747 -0.173919,-0.0617 -0.180975,-0.1517 -0.180975,-0.32421 z m 1.521531,3.64349 c 0.724252,0.0138 0.956027,-0.35172 0.956027,-1.46967 0,-1.17334 -0.188383,-1.75296 -0.956027,-1.69087 z"
         style="fill:#00539b;fill-opacity:1;fill-rule:nonzero;stroke:none;stroke-width:0.35277778"
         id="path6475"
         inkscape:connector-curvature="0" />
      <path
         d="m 91.326083,177.29559 h -0.883708 v 1.82845 c 0,0.14499 -0.0508,0.18662 -0.195792,0.18662 h -1.115836 c -0.144639,0 -0.217311,-0.0208 -0.217311,-0.18662 v -4.49898 c 0,-0.12418 0.0508,-0.17956 0.188383,-0.18662 h 1.1303 c 0.115711,0 0.210256,0.0208 0.210256,0.18662 v 1.72509 h 0.883708 v -1.72509 c 0,-0.11747 0.02152,-0.18662 0.180975,-0.18662 h 1.152172 c 0.144639,0 0.202495,0.0279 0.202495,0.17957 v 4.50603 c 0,0.15204 -0.05786,0.18662 -0.195439,0.18662 h -1.15182 c -0.173919,0 -0.188383,-0.0554 -0.188383,-0.18662 z"
         style="fill:#00a4e3;fill-opacity:1;fill-rule:nonzero;stroke:none;stroke-width:0.35277778"
         id="path6479"
         inkscape:connector-curvature="0" />
      <path
         d="m 95.070892,177.29559 v 1.01459 h 1.296811 c 0.130528,0 0.209903,0.0272 0.209903,0.19297 v 0.62089 c 0,0.14499 -0.0508,0.18662 -0.209903,0.18662 h -2.586567 c -0.173919,0 -0.231775,-0.0487 -0.231775,-0.20708 v -4.451 c 0.0074,-0.15875 0.06526,-0.21414 0.239184,-0.21414 h 2.57175 c 0.130528,0 0.224719,0.007 0.217311,0.17251 v 0.61419 c 0,0.1658 -0.07937,0.18662 -0.217311,0.18662 h -1.289403 v 0.93133 h 1.050572 c 0.137584,0 0.238831,0.0138 0.238831,0.17956 v 0.58667 c 0,0.16546 -0.07973,0.18627 -0.22472,0.18627 z"
         style="fill:#00a4e3;fill-opacity:1;fill-rule:nonzero;stroke:none;stroke-width:0.35277778"
         id="path6483"
         inkscape:connector-curvature="0" />
      <path
         d="m 99.381452,178.57899 h -1.296811 l -0.144992,0.5521 c -0.03598,0.13123 -0.07232,0.17956 -0.239183,0.17956 h -0.760589 c -0.09419,0 -0.173919,-0.0279 -0.173919,-0.12418 0,-0.0208 0.0508,-0.1658 0.05821,-0.17956 l 1.54305,-4.38891 c 0.05786,-0.13793 0.101247,-0.17956 0.253647,-0.17956 h 0.709789 c 0.173919,0 0.202847,0.0483 0.253647,0.17956 l 1.543049,4.4577 c 0.007,0.0279 0.0219,0.0624 0.0219,0.097 0,0.13089 -0.12312,0.13794 -0.2032,0.13794 h -1.180744 c -0.152047,0 -0.195439,-0.0416 -0.231775,-0.1658 z m -0.246592,-0.76588 -0.41275,-1.47003 -0.39123,1.47003 z"
         style="fill:#00a4e3;fill-opacity:1;fill-rule:nonzero;stroke:none;stroke-width:0.35277778"
         id="path6487"
         inkscape:connector-curvature="0" />
      <path
         d="m 102.98916,178.30997 h 1.10843 c 0.1016,0 0.18838,0 0.18838,0.15169 v 0.68333 c 0,0.1517 -0.0868,0.16546 -0.18838,0.16546 h -2.43417 c -0.13758,0 -0.18838,-0.0275 -0.19544,-0.17921 v -4.5272 c 0.007,-0.16545 0.10831,-0.16545 0.18803,-0.16545 h 1.13736 c 0.11606,0 0.18873,0.0138 0.19579,0.15875 z"
         style="fill:#00a4e3;fill-opacity:1;fill-rule:nonzero;stroke:none;stroke-width:0.35277778"
         id="path6491"
         inkscape:connector-curvature="0" />
      <path
         d="m 106.29882,175.4047 v 3.69182 c 0,0.14499 -0.0437,0.21378 -0.19579,0.21378 h -1.11584 c -0.18097,0 -0.22436,-0.0483 -0.22436,-0.22754 v -3.67806 h -0.75354 c -0.17392,0 -0.21025,-0.0483 -0.21025,-0.20002 v -0.58667 c 0,-0.15875 0.0871,-0.18627 0.21025,-0.18627 h 3.05012 c 0.13017,0 0.20285,0.0275 0.20285,0.17251 v 0.60713 c 0,0.0759 0,0.19332 -0.18133,0.19332 z"
         style="fill:#00a4e3;fill-opacity:1;fill-rule:nonzero;stroke:none;stroke-width:0.35277778"
         id="path6495"
         inkscape:connector-curvature="0" />
      <path
         d="m 110.00069,177.29559 h -0.88371 v 1.82845 c 0,0.14499 -0.0508,0.18662 -0.19579,0.18662 h -1.11548 c -0.14499,0 -0.21731,-0.0208 -0.21731,-0.18662 v -4.49898 c 0,-0.12418 0.0504,-0.17956 0.18803,-0.18662 h 1.1303 c 0.11606,0 0.21025,0.0208 0.21025,0.18662 v 1.72509 h 0.88371 v -1.72509 c 0,-0.11747 0.0215,-0.18662 0.18133,-0.18662 h 1.15182 c 0.14464,0 0.20284,0.0279 0.20284,0.17957 v 4.50603 c 0,0.15204 -0.0582,0.18662 -0.19579,0.18662 h -1.15182 c -0.17392,0 -0.18838,-0.0554 -0.18838,-0.18662 z"
         style="fill:#00a4e3;fill-opacity:1;fill-rule:nonzero;stroke:none;stroke-width:0.35277778"
         id="path6499"
         inkscape:connector-curvature="0" />
      <path
         d="m 112.34084,174.95583 h 0.0173 c 0.091,0 0.13582,-0.0388 0.13582,-0.12065 0,-0.0741 -0.0385,-0.11289 -0.11607,-0.11289 h -0.037 z m 0.33867,0.30586 c 0.006,0.0109 0.009,0.0201 0.009,0.0279 0,0.0123 -0.009,0.0201 -0.0339,0.0201 h -0.0914 c -0.0324,0 -0.0434,-0.005 -0.0557,-0.0293 l -0.1143,-0.22261 c -0.009,-0.0183 -0.0187,-0.0261 -0.0293,-0.0261 -0.0155,0 -0.0233,0.012 -0.0233,0.0353 v 0.20709 c 0,0.0296 -0.006,0.0356 -0.0339,0.0356 h -0.0914 c -0.0261,0 -0.0339,-0.008 -0.0339,-0.0311 v -0.5715 c 0,-0.0388 0.001,-0.0497 0.0152,-0.0603 0.0109,-0.008 0.0236,-0.0124 0.0529,-0.0141 0.0554,-0.003 0.0956,-0.004 0.13124,-0.004 0.18556,0 0.27834,0.0646 0.27834,0.19121 0,0.0868 -0.0434,0.14393 -0.133,0.17639 z m -0.27058,-0.78211 c -0.272,0 -0.48825,0.21978 -0.48825,0.49318 0,0.27376 0.21767,0.49319 0.48825,0.49319 0.2674,0 0.48683,-0.21943 0.48683,-0.49001 0,-0.27834 -0.21343,-0.49636 -0.48683,-0.49636 m -0.002,1.04316 c -0.30727,0 -0.54857,-0.24553 -0.54857,-0.5528 0,-0.30762 0.24448,-0.54716 0.55034,-0.54716 0.3122,0 0.55033,0.24236 0.55033,0.55316 0,0.30762 -0.24589,0.5468 -0.5521,0.5468"
         style="fill:#00a4e3;fill-opacity:1;fill-rule:nonzero;stroke:none;stroke-width:0.35277778"
         id="path6565"
         inkscape:connector-curvature="0" />
      <path
         d="m 55.616404,176.8034 c 0,3.11221 -2.523067,5.63492 -5.634919,5.63492 -3.111853,0 -5.634567,-2.52271 -5.634567,-5.63492 0,-3.11185 2.522714,-5.63457 5.634567,-5.63457 3.111852,0 5.634919,2.52272 5.634919,5.63457"
         style="fill:#00539b;fill-opacity:1;fill-rule:nonzero;stroke:none;stroke-width:0.35277778"
         id="path6569"
         inkscape:connector-curvature="0" />
      <path
         d="m 55.616404,176.8034 c 0,3.11221 -2.523067,5.63492 -5.634919,5.63492 -3.111853,0 -5.634567,-2.52271 -5.634567,-5.63492 0,-3.11185 2.522714,-5.63457 5.634567,-5.63457 3.111852,0 5.634919,2.52272 5.634919,5.63457 z"
         style="fill:none;stroke:#ffffff;stroke-width:0.13617222;stroke-linecap:butt;stroke-linejoin:miter;stroke-miterlimit:4;stroke-dasharray:none;stroke-opacity:1"
         id="path6573"
         inkscape:connector-curvature="0" />
      <path
         d="m 51.577381,181.41466 -1.545519,-1.12148 -1.606198,1.13877 v -2.2913 l 1.603023,-1.08161 1.548694,1.08655 z"
         style="fill:#ffffff;fill-opacity:1;fill-rule:nonzero;stroke:none;stroke-width:0.35277778"
         id="path6577"
         inkscape:connector-curvature="0" />
      <path
         d="m 51.289054,172.20839 0.696383,1.80904 1.950156,-0.0497 -1.219906,1.91735 -1.916994,0.003 -0.717903,-1.78047 z"
         style="fill:#ffffff;fill-opacity:1;fill-rule:nonzero;stroke:none;stroke-width:0.35277778"
         id="path6581"
         inkscape:connector-curvature="0" />
      <path
         d="m 48.757309,172.2139 -0.696383,1.80904 -1.950156,-0.0494 1.219906,1.91734 1.916994,0.002 0.717903,-1.78011 z"
         style="fill:#ffffff;fill-opacity:1;fill-rule:nonzero;stroke:none;stroke-width:0.35277778"
         id="path6585"
         inkscape:connector-curvature="0" />
      <path
         d="m 46.200552,179.82666 0.521053,-1.86972 -1.575153,-1.18392 2.104319,-0.7546 1.521178,1.19945 -0.487539,1.86161 z"
         style="fill:#ffffff;fill-opacity:1;fill-rule:nonzero;stroke:none;stroke-width:0.35277778"
         id="path6589"
         inkscape:connector-curvature="0" />
      <path
         d="m 53.788625,179.82666 -0.521053,-1.86972 1.575153,-1.18392 -2.104319,-0.7546 -1.521178,1.19945 0.487186,1.86161 z"
         style="fill:#ffffff;fill-opacity:1;fill-rule:nonzero;stroke:none;stroke-width:0.35277778"
         id="path6593"
         inkscape:connector-curvature="0" />
    </g>
  </g>
</svg>
