<svg xmlns="http://www.w3.org/2000/svg" xmlns:xlink="http://www.w3.org/1999/xlink" width="816.092" height="1336.456" viewBox="0 0 816.092 1336.456">
  <defs>
    <filter id="Rectangle_473" x="69.637" y="67.797" width="636.668" height="1171.069" filterUnits="userSpaceOnUse">
      <feOffset dx="8" dy="8" input="SourceAlpha"/>
      <feGaussianBlur stdDeviation="8" result="blur"/>
      <feFlood flood-opacity="0.161"/>
      <feComposite operator="in" in2="blur"/>
      <feComposite in="SourceGraphic"/>
    </filter>
    <filter id="Rectangle_477" x="8.792" y="0.275" width="807.3" height="1336.181" filterUnits="userSpaceOnUse">
      <feOffset dx="20" dy="20" input="SourceAlpha"/>
      <feGaussianBlur stdDeviation="30" result="blur-2"/>
      <feFlood flood-opacity="0.161"/>
      <feComposite operator="in" in2="blur-2"/>
      <feComposite in="SourceGraphic"/>
    </filter>
    <filter id="Rectangle_474" x="0" y="0" width="799.941" height="1334.342" filterUnits="userSpaceOnUse">
      <feOffset dx="20" dy="20" input="SourceAlpha"/>
      <feGaussianBlur stdDeviation="30" result="blur-3"/>
      <feFlood flood-opacity="0.161"/>
      <feComposite operator="in" in2="blur-3"/>
      <feComposite in="SourceGraphic"/>
    </filter>
    <filter id="Path_3119" x="70.618" y="68.479" width="635.687" height="1170.387" filterUnits="userSpaceOnUse">
      <feOffset dx="8" dy="8" input="SourceAlpha"/>
      <feGaussianBlur stdDeviation="8" result="blur-4"/>
      <feFlood flood-opacity="0.161"/>
      <feComposite operator="in" in2="blur-4"/>
      <feComposite in="SourceGraphic"/>
    </filter>
    <clipPath id="clip-path">
      <g transform="matrix(1, 0, 0, 1, 0, 0)" filter="url(#Rectangle_473)">
        <rect id="Rectangle_473-2" data-name="Rectangle 473" width="588.668" height="1123.069" rx="30" fill="#fff"/>
      </g>
    </clipPath>
    <clipPath id="clip-path-2">
      <path id="Path_3123" data-name="Path 3123" d="M38.666,0h511.86a38.749,38.749,0,0,1,37.932,31.129,38.2,38.2,0,0,1,.734,7.537c0,1068.089-17.311,1085.4-38.666,1085.4H38.666A38.666,38.666,0,0,1,0,1085.4V38.666A38.666,38.666,0,0,1,38.666,0Z" transform="translate(0 -0.997)" fill="none"/>
    </clipPath>
    <filter id="Rectangle_191" x="105.23" y="457.512" width="544.122" height="152.29" filterUnits="userSpaceOnUse">
      <feOffset dx="1" dy="1" input="SourceAlpha"/>
      <feGaussianBlur stdDeviation="3" result="blur-5"/>
      <feFlood flood-opacity="0.184"/>
      <feComposite operator="in" in2="blur-5"/>
      <feComposite in="SourceGraphic"/>
    </filter>
    <filter id="Rectangle_191-2" x="105.482" y="622.209" width="544.122" height="152.29" filterUnits="userSpaceOnUse">
      <feOffset dx="1" dy="1" input="SourceAlpha"/>
      <feGaussianBlur stdDeviation="3" result="blur-6"/>
      <feFlood flood-opacity="0.184"/>
      <feComposite operator="in" in2="blur-6"/>
      <feComposite in="SourceGraphic"/>
    </filter>
    <filter id="Rectangle_191-3" x="105.23" y="785.878" width="544.122" height="152.29" filterUnits="userSpaceOnUse">
      <feOffset dx="1" dy="1" input="SourceAlpha"/>
      <feGaussianBlur stdDeviation="3" result="blur-7"/>
      <feFlood flood-opacity="0.184"/>
      <feComposite operator="in" in2="blur-7"/>
      <feComposite in="SourceGraphic"/>
    </filter>
    <filter id="Rectangle_191-4" x="105.23" y="949.601" width="544.122" height="152.29" filterUnits="userSpaceOnUse">
      <feOffset dx="1" dy="1" input="SourceAlpha"/>
      <feGaussianBlur stdDeviation="3" result="blur-8"/>
      <feFlood flood-opacity="0.184"/>
      <feComposite operator="in" in2="blur-8"/>
      <feComposite in="SourceGraphic"/>
    </filter>
  </defs>
  <g id="consumer-portal" transform="translate(70 70)">
    <g transform="matrix(1, 0, 0, 1, -70, -70)" filter="url(#Rectangle_477)">
      <rect id="Rectangle_477-2" data-name="Rectangle 477" width="627.3" height="1156.181" rx="60" transform="translate(78.79 70.27)" fill="#585858"/>
    </g>
    <g transform="matrix(1, 0, 0, 1, -70, -70)" filter="url(#Rectangle_474)">
      <rect id="Rectangle_474-2" data-name="Rectangle 474" width="619.941" height="1154.342" rx="60" transform="translate(70 70)" fill="#2e2929"/>
    </g>
    <g id="Phone_container" data-name="Phone container" transform="translate(15.595 14.479)">
      <g transform="matrix(1, 0, 0, 1, -85.6, -84.48)" filter="url(#Path_3119)">
        <path id="Path_3119-2" data-name="Path 3119" d="M38.567,0H549.12a38.587,38.587,0,0,1,38.567,38.608V1083.779a38.587,38.587,0,0,1-38.567,38.608H38.567A38.587,38.587,0,0,1,0,1083.779V38.608A38.587,38.587,0,0,1,38.567,0Z" transform="translate(86.62 84.48)" fill="#f0f0f0"/>
      </g>
    </g>
    <path id="Path_520" data-name="Path 520" d="M161.278,218.328h.011v-4.787h0Z" transform="translate(55.468 390.397)" fill="#c9b8d1" opacity="0.5" style="mix-blend-mode: multiply;isolation: isolate"/>
    <path id="Path_653" data-name="Path 653" d="M161.278,218.644h.011v-5.1h0Z" transform="translate(49.101 413.841)" fill="#c9b8d1" opacity="0.5" style="mix-blend-mode: multiply;isolation: isolate"/>
    <g id="Group_15" data-name="Group 15" transform="translate(15.636 12.877)" clip-path="url(#clip-path-2)">
      <g id="Component_33_1" data-name="Component 33 – 1" transform="translate(-5.519 -0.92)">
        <g id="Header">
          <path id="Path_652" data-name="Path 652" d="M0,0H596.7V81.862H0Z" fill="#173963"/>
          <text id="_" data-name="" transform="translate(552.598 51.113)" fill="#fff" font-size="21" font-family="FontAwesome5Pro-Regular, 'Font Awesome \35  Pro'"><tspan x="-9.188" y="0"></tspan></text>
          <g id="Component_31_1" data-name="Component 31 – 1" transform="translate(527.962 15.637)">
            <g id="Rectangle_362" data-name="Rectangle 362" transform="translate(-47.829)" fill="#fff" stroke="#707070" stroke-width="1" opacity="0">
              <rect width="123.252" height="105.776" stroke="none"/>
              <rect x="0.5" y="0.5" width="122.252" height="104.776" fill="none"/>
            </g>
          </g>
          <g id="Group_657" data-name="Group 657" transform="translate(45.99 33.321)">
            <g id="Group_657-2" data-name="Group 657" transform="translate(0 0)">
              <g id="Group_1974" data-name="Group 1974" transform="translate(0.061)">
                <ellipse id="Ellipse_1" data-name="Ellipse 1" cx="2.695" cy="2.695" rx="2.695" ry="2.695" transform="translate(47.803)" fill="#f2f2f2"/>
                <path id="Path_70" data-name="Path 70" d="M378.322,422.765a14.6,14.6,0,0,1,7.379-2.15c4.428,0,5.936,2.246,5.936,6.1v5.454c0,.737.225,1.155.738,1.155a2.6,2.6,0,0,0,1.123-.385l-.128,3.754a10.008,10.008,0,0,1-3.369.642c-2.021,0-2.791-.866-3.048-2.6a6.953,6.953,0,0,1-5.262,2.6c-2.631,0-4.492-1.572-4.492-4.331,0-2.888,2.053-4.043,5.326-4.845l2.824-.706c1.09-.289,1.475-.61,1.475-1.348,0-1.187-.738-1.7-1.925-1.7a9.633,9.633,0,0,0-5.871,2.5Zm5.486,11.133a3.981,3.981,0,0,0,2.92-1.732v-3.048a2.315,2.315,0,0,1-1.123.577l-1.508.449c-1.347.449-1.925.962-1.925,2.053A1.535,1.535,0,0,0,383.808,433.9Z" transform="translate(-359.832 -414.054)" fill="#f2f2f2"/>
                <path id="Path_71" data-name="Path 71" d="M475.58,410.227c0,1.155.385,1.925,1.508,1.925a4.393,4.393,0,0,0,2.727-1.444v4.524a8.275,8.275,0,0,1-4.235,1.123c-3.626,0-5.005-1.925-5.005-5.358v-7.7h-2.534v-3.273c3.112,0,4.427-.321,4.556-4.973h2.984v4.973h4.4V403.3h-4.4Z" transform="translate(-434.256 -393.11)" fill="#f2f2f2"/>
                <path id="Path_72" data-name="Path 72" d="M546.675,422.568h5.005v16.01h-5.005Z" transform="translate(-498.679 -415.654)" fill="#f2f2f2"/>
                <path id="Path_73" data-name="Path 73" d="M601.058,431.748l.93,3.69a10.751,10.751,0,0,1-6.417,1.861c-4.877,0-8.181-2.727-8.181-7.957,0-6.16,3.625-8.727,7.957-8.727,4.2,0,6.962,2.406,6.962,7.315a9.794,9.794,0,0,1-.192,1.925h-9.561c0,2.567,1.283,3.882,3.529,3.882A7.308,7.308,0,0,0,601.058,431.748Zm-8.663-4.62h5.775c.129-1.7-.674-3.433-2.727-3.433A3.207,3.207,0,0,0,592.395,427.128Z" transform="translate(-532.036 -414.054)" fill="#f2f2f2"/>
                <path id="Path_74" data-name="Path 74" d="M693.511,436.978V428.54c0-2.952-1.09-3.947-2.727-3.947-1.444,0-2.791.995-2.791,3.947v8.438h-5.037v-16.01h5.037v2.567a5.049,5.049,0,0,1,4.78-2.92c3.273,0,5.711,1.6,5.711,7.379v8.983Z" transform="translate(-610.331 -414.054)" fill="#f2f2f2"/>
                <path id="Path_75" data-name="Path 75" d="M784.286,410.227c0,1.155.385,1.925,1.508,1.925a4.394,4.394,0,0,0,2.727-1.444v4.524a8.276,8.276,0,0,1-4.235,1.123c-3.625,0-5-1.925-5-5.358v-7.7h-2.535v-3.273c3.112,0,4.428-.321,4.556-4.973h2.984v4.973h4.4V403.3h-4.4Z" transform="translate(-687.171 -393.11)" fill="#f2f2f2"/>
                <path id="Path_76" data-name="Path 76" d="M869.814,391.887l-2.15,4.3a6.423,6.423,0,0,0-5.133-2.92c-3.625,0-5.454,2.887-5.454,6.834,0,3.721,1.893,6.737,5.518,6.737a6.4,6.4,0,0,0,5.069-2.92l2.15,4.3a11.048,11.048,0,0,1-7.924,3.048c-6.577,0-10.235-4.973-10.235-11.165,0-6.321,3.658-11.262,10.235-11.262A10.942,10.942,0,0,1,869.814,391.887Z" transform="translate(-748.543 -388.021)" fill="#4abfb2"/>
                <path id="Path_77" data-name="Path 77" d="M968.345,407.168c0,.995.321,1.38.93,1.38a2.439,2.439,0,0,0,1.315-.481l-.032,4.075a8.511,8.511,0,0,1-3.176.577c-3.112,0-4.075-1.412-4.075-4.556v-17.55h5.037Z" transform="translate(-840.017 -389.474)" fill="#4abfb2"/>
                <path id="Path_78" data-name="Path 78" d="M1024.014,431.748l.931,3.69a10.752,10.752,0,0,1-6.417,1.861c-4.877,0-8.181-2.727-8.181-7.957,0-6.16,3.626-8.727,7.957-8.727,4.2,0,6.962,2.406,6.962,7.315a9.794,9.794,0,0,1-.193,1.925h-9.56c0,2.567,1.283,3.882,3.529,3.882A7.306,7.306,0,0,0,1024.014,431.748Zm-8.663-4.62h5.776c.128-1.7-.674-3.433-2.727-3.433A3.207,3.207,0,0,0,1015.351,427.128Z" transform="translate(-878.554 -414.054)" fill="#4abfb2"/>
                <path id="Path_79" data-name="Path 79" d="M1101.534,422.765a14.606,14.606,0,0,1,7.379-2.15c4.428,0,5.936,2.246,5.936,6.1v5.454c0,.737.224,1.155.737,1.155a2.6,2.6,0,0,0,1.123-.385l-.128,3.754a10.009,10.009,0,0,1-3.369.642c-2.021,0-2.791-.866-3.048-2.6a6.953,6.953,0,0,1-5.262,2.6c-2.631,0-4.492-1.572-4.492-4.331,0-2.888,2.054-4.043,5.326-4.845l2.823-.706c1.091-.289,1.475-.61,1.475-1.348,0-1.187-.738-1.7-1.925-1.7a9.634,9.634,0,0,0-5.871,2.5Zm5.486,11.133a3.982,3.982,0,0,0,2.92-1.732v-3.048a2.32,2.32,0,0,1-1.123.577l-1.508.449c-1.347.449-1.925.962-1.925,2.053A1.535,1.535,0,0,0,1107.02,433.9Z" transform="translate(-952.342 -414.054)" fill="#4abfb2"/>
                <path id="Path_80" data-name="Path 80" d="M1201.771,420.968h5.037v2.984c.835-2.31,2.471-3.337,5.615-3.337l-.032,4.845a7.264,7.264,0,0,0-2.342-.481c-2.406,0-3.241,1.829-3.241,4.556v7.444h-5.037Z" transform="translate(-1035.384 -414.054)" fill="#4abfb2"/>
                <path id="Path_69" data-name="Path 69" d="M281.1,390.613h9.753c4.267,0,6.93,3.144,6.93,7.187,0,4.427-2.663,7.123-6.93,7.123h-4.427V412.4H281.1Zm5.326,10.524h3.433c1.764,0,2.887-1.059,2.887-3.176a2.883,2.883,0,0,0-2.92-3.112h-3.4Z" transform="translate(-281.1 -389.474)" fill="#f2f2f2"/>
              </g>
              <text id="BY_ALL_CLEAR_DECISIONING" data-name="BY ALL CLEAR DECISIONING" transform="translate(0 34.305)" fill="#f2f2f2" font-size="6" font-family="Americane-Regular, Americane" letter-spacing="0.535em"><tspan x="0" y="0">BY ALL CLEAR DECISIONING</tspan></text>
            </g>
          </g>
        </g>
        <g id="Main-navigation-tab" transform="translate(33.113 383.554)">
          <g transform="matrix(1, 0, 0, 1, -113.23, -465.51)" filter="url(#Rectangle_191)">
            <rect id="Rectangle_191-5" data-name="Rectangle 191" width="526.122" height="134.29" rx="10" transform="translate(113.23 465.51)" fill="#fff"/>
          </g>
        </g>
        <g id="Main-navigation-tab-2" data-name="Main-navigation-tab" transform="translate(33.364 548.251)">
          <g transform="matrix(1, 0, 0, 1, -113.48, -630.21)" filter="url(#Rectangle_191-2)">
            <rect id="Rectangle_191-6" data-name="Rectangle 191" width="526.122" height="134.29" rx="10" transform="translate(113.48 630.21)" fill="#fff"/>
          </g>
        </g>
        <g id="Main-navigation-tab-3" data-name="Main-navigation-tab" transform="translate(33.113 711.92)">
          <g transform="matrix(1, 0, 0, 1, -113.23, -793.88)" filter="url(#Rectangle_191-3)">
            <rect id="Rectangle_191-7" data-name="Rectangle 191" width="526.122" height="134.29" rx="10" transform="translate(113.23 793.88)" fill="#fff"/>
          </g>
        </g>
        <g id="Main-navigation-tab-4" data-name="Main-navigation-tab" transform="translate(33.113 875.644)">
          <g transform="matrix(1, 0, 0, 1, -113.23, -957.6)" filter="url(#Rectangle_191-4)">
            <rect id="Rectangle_191-8" data-name="Rectangle 191" width="526.122" height="134.29" rx="10" transform="translate(113.23 957.6)" fill="#fff"/>
          </g>
        </g>
        <g id="Taxes" transform="translate(49.669 567.054)">
          <g id="Group_445" data-name="Group 445" transform="translate(0 0)">
            <circle id="Ellipse_36" data-name="Ellipse 36" cx="30.061" cy="30.061" r="30.061" transform="matrix(0.704, -0.711, 0.711, 0.704, 0, 42.717)" fill="#e9eaeb"/>
          </g>
          <path id="Path_546" data-name="Path 546" d="M427.177,104.147,423.957,102l-3.221,2.147L417.512,102l-3.217,2.147L410,102v42.944a4.3,4.3,0,0,0,4.294,4.294h17.177V102Z" transform="translate(-387.886 -87.401)" fill="#fff"/>
          <path id="Path_547" data-name="Path 547" d="M422.589,111a4.3,4.3,0,0,0-4.294,4.294v28.987A4.3,4.3,0,0,1,414,148.576h12.883V111Z" transform="translate(-387.592 -86.739)" fill="#e9eaeb"/>
          <path id="Path_548" data-name="Path 548" d="M427.294,127.1v-11.81A4.3,4.3,0,0,0,423,111h21.472a4.3,4.3,0,0,1,4.294,4.294V127.1Z" transform="translate(-386.93 -86.739)" fill="#fff"/>
          <path id="Path_549" data-name="Path 549" d="M431.472,108.442V102l-4.294,2.147L423.957,102l-3.221,2.147L417.512,102l-3.217,2.147L410,102v42.944a4.3,4.3,0,0,0,4.294,4.294" transform="translate(-387.886 -87.401)" fill="none" stroke="#2a5082" stroke-miterlimit="10" stroke-width="2"/>
          <path id="Path_550" data-name="Path 550" d="M414,148.576a4.3,4.3,0,0,0,4.294-4.294V115.294A4.3,4.3,0,0,1,422.589,111h1.074" transform="translate(-387.592 -86.739)" fill="none" stroke="#2a5082" stroke-miterlimit="10" stroke-width="2"/>
          <rect id="Rectangle_170" data-name="Rectangle 170" width="30.061" height="37.576" rx="2" transform="translate(36.07 37.144)" fill="#fff" stroke="#2a5082" stroke-miterlimit="10" stroke-width="2"/>
          <rect id="Rectangle_171" data-name="Rectangle 171" width="17.177" height="6.442" transform="translate(42.512 45.733)" fill="#a3d4ff" stroke="#2a5082" stroke-miterlimit="10" stroke-width="1"/>
          <g id="Group_446" data-name="Group 446" transform="translate(41.438 56.469)">
            <line id="Line_24" data-name="Line 24" x2="4.294" fill="none" stroke="#2a5082" stroke-miterlimit="10" stroke-width="2"/>
            <line id="Line_25" data-name="Line 25" x2="4.294" transform="translate(7.515)" fill="none" stroke="#2a5082" stroke-miterlimit="10" stroke-width="2"/>
            <line id="Line_26" data-name="Line 26" x2="4.294" transform="translate(15.03)" fill="none" stroke="#2a5082" stroke-miterlimit="10" stroke-width="2"/>
          </g>
          <g id="Group_447" data-name="Group 447" transform="translate(41.438 60.763)">
            <line id="Line_27" data-name="Line 27" x2="4.294" fill="none" stroke="#2a5082" stroke-miterlimit="10" stroke-width="2"/>
            <line id="Line_28" data-name="Line 28" x2="4.294" transform="translate(7.515)" fill="none" stroke="#2a5082" stroke-miterlimit="10" stroke-width="2"/>
            <line id="Line_29" data-name="Line 29" x2="4.294" transform="translate(15.03)" fill="none" stroke="#2a5082" stroke-miterlimit="10" stroke-width="2"/>
            <line id="Line_30" data-name="Line 30" x2="4.294" transform="translate(15.03 4.294)" fill="none" stroke="#2a5082" stroke-miterlimit="10" stroke-width="2"/>
          </g>
          <g id="Group_448" data-name="Group 448" transform="translate(41.438 65.057)">
            <line id="Line_31" data-name="Line 31" x1="4.294" transform="translate(7.515)" fill="none" stroke="#2a5082" stroke-miterlimit="10" stroke-width="2"/>
            <line id="Line_32" data-name="Line 32" x1="4.294" fill="none" stroke="#2a5082" stroke-miterlimit="10" stroke-width="2"/>
          </g>
          <path id="Path_551" data-name="Path 551" d="M427.294,127.1v-11.81A4.3,4.3,0,0,0,423,111h21.472a4.3,4.3,0,0,1,4.294,4.294V127.1Z" transform="translate(-386.93 -86.739)" fill="#fff" stroke="#2a5082" stroke-miterlimit="10" stroke-width="2"/>
          <line id="Line_33" data-name="Line 33" x2="7.515" transform="translate(26.408 61.837)" fill="none" stroke="#2a5082" stroke-miterlimit="10" stroke-width="2"/>
        </g>
        <g id="Assets" transform="translate(52.428 411.148)">
          <g id="Group_656" data-name="Group 656" transform="translate(0 0)">
            <circle id="Ellipse_37" data-name="Ellipse 37" cx="28.645" cy="28.645" r="28.645" transform="matrix(0.586, -0.811, 0.811, 0.586, 0, 46.438)" fill="#e9eaeb"/>
            <line id="Line_34" data-name="Line 34" x1="3.72" y2="3.72" transform="translate(20.476 44.488)" fill="none" stroke="#2a5082" stroke-miterlimit="10" stroke-width="1"/>
            <line id="Line_35" data-name="Line 35" x1="9.672" y2="9.672" transform="translate(15.268 49.696)" fill="none" stroke="#2a5082" stroke-miterlimit="10" stroke-width="1"/>
            <line id="Line_36" data-name="Line 36" x1="9.672" y2="9.672" transform="translate(31.636 6.542)" fill="none" stroke="#bcc0c4" stroke-miterlimit="10" stroke-width="1"/>
            <line id="Line_37" data-name="Line 37" x1="13.393" y2="13.393" transform="translate(53.213 42.255)" fill="none" stroke="#bcc0c4" stroke-miterlimit="10" stroke-width="1"/>
            <line id="Line_38" data-name="Line 38" y1="1.488" x2="1.488" transform="translate(17.5 49.696)" fill="none" stroke="#2a5082" stroke-miterlimit="10" stroke-width="1"/>
            <line id="Line_39" data-name="Line 39" x1="1.488" y2="1.488" transform="translate(27.916 18.446)" fill="none" stroke="#bcc0c4" stroke-miterlimit="10" stroke-width="1"/>
            <line id="Line_40" data-name="Line 40" x1="1.488" y2="1.488" transform="translate(24.94 21.423)" fill="none" stroke="#bcc0c4" stroke-miterlimit="10" stroke-width="1"/>
            <line id="Line_41" data-name="Line 41" x1="1.488" y2="1.488" transform="translate(21.964 24.399)" fill="none" stroke="#bcc0c4" stroke-miterlimit="10" stroke-width="1"/>
            <g id="Group_450" data-name="Group 450" transform="translate(20.476 5.798)">
              <path id="Path_552" data-name="Path 552" d="M93.6,459.13,80.95,446.481,114.431,413l19.345,19.345-33.481,33.481-4.464-4.464" transform="translate(-80.95 -413)" fill="#fff" stroke="#2a5082" stroke-miterlimit="10" stroke-width="2"/>
              <path id="Path_553" data-name="Path 553" d="M123.624,429.632l-7.44-7.44a3.156,3.156,0,0,1-4.465,0L90.142,443.77a3.155,3.155,0,0,1,0,4.463l7.44,7.44a3.158,3.158,0,0,1,4.465,0L123.624,434.1A3.156,3.156,0,0,1,123.624,429.632Z" transform="translate(-80.47 -412.52)" fill="#a3d4ff" stroke="#2a5082" stroke-miterlimit="10" stroke-width="2"/>
              <line id="Line_42" data-name="Line 42" y1="1.488" x2="1.488" transform="translate(17.857 33.481)" fill="none" stroke="#2a5082" stroke-miterlimit="10" stroke-width="1"/>
              <line id="Line_43" data-name="Line 43" y1="1.488" x2="1.488" transform="translate(33.481 17.857)" fill="none" stroke="#2a5082" stroke-miterlimit="10" stroke-width="1"/>
              <path id="Path_554" data-name="Path 554" d="M102.949,441.7a4.763,4.763,0,1,1,7.068.375A5.018,5.018,0,0,1,102.949,441.7Z" transform="translate(-79.887 -411.938)" fill="#fff" stroke="#2a5082" stroke-miterlimit="10" stroke-width="1"/>
            </g>
            <line id="Line_44" data-name="Line 44" x1="9.672" y2="9.672" transform="translate(25.684 49.696)" fill="none" stroke="#2a5082" stroke-miterlimit="10" stroke-width="1"/>
          </g>
        </g>
        <g id="documents" transform="translate(49.669 736.469)">
          <circle id="Ellipse_41" data-name="Ellipse 41" cx="30.061" cy="30.061" r="30.061" transform="matrix(0.704, -0.711, 0.711, 0.704, 0, 42.717)" fill="#e9eaeb"/>
          <path id="Path_617" data-name="Path 617" d="M575.16,891.6s-5.65,18.476-8.4,23.147-9.758,16-10.07,15.925,4.469-18.1,9.36-26.946S575.16,891.6,575.16,891.6Z" transform="translate(-503.354 -880.653)" fill="#a3d4ff"/>
          <path id="Path_619" data-name="Path 619" d="M546.957,829h29.108v50.661H536.034v-39.9h10.923Z" transform="translate(-514.954 -818.683)" fill="#fff"/>
          <g id="Group_473" data-name="Group 473" transform="translate(19.992 9.264)">
            <rect id="Rectangle_196" data-name="Rectangle 196" width="22.075" height="1.84" transform="translate(10.288 17.697)" fill="#2a5082"/>
            <rect id="Rectangle_197" data-name="Rectangle 197" width="22.075" height="0.92" transform="translate(10.288 24.135)" fill="#2a5082"/>
            <path id="Path_618" data-name="Path 618" d="M90.641-5.652V3.763H81.378Z" transform="translate(-79.571 7.359)" fill="#eff5fd"/>
            <path id="Path_614" data-name="Path 614" d="M100.7,33.013a1.057,1.057,0,0,0,1.257-.056,9.713,9.713,0,0,1,5.647-1.867,1.052,1.052,0,1,0,0-2.1,11.655,11.655,0,0,0-4.5.924l1.159-3.629a1.052,1.052,0,0,0-1.809-1c-3.083,3.678-6.324,6.114-7.065,5.774a1.688,1.688,0,0,1-.439-.968c1.612-1.308,2.639-3.367,2.356-4.767a1.883,1.883,0,0,0-1.414-1.5c-.431-.11-1.906-.3-2.719,1.955a9.172,9.172,0,0,0-.457,3.33c-1.457.969-3.491,2.1-3.515,2.117a1.052,1.052,0,0,0,1.023,1.839c.087-.049,1.543-.861,2.915-1.726a2.834,2.834,0,0,0,1.353,1.626c1.711.8,4.224-.913,6.353-2.9l-.561,1.757A1.052,1.052,0,0,0,100.7,33.013Z" transform="translate(-79.191 8.895)" fill="#2a5082"/>
            <path id="Path_615" data-name="Path 615" d="M119.645,43.234H81.765V5.354h9.47A1.052,1.052,0,0,0,92.288,4.3v-9.47h27.358V5.174c.69-1.374,1.4-2.729,2.1-4.031V-6.221A1.052,1.052,0,0,0,120.7-7.273H91.235a1.056,1.056,0,0,0-.744.308L79.969,3.558a1.056,1.056,0,0,0-.308.744V44.286a1.052,1.052,0,0,0,1.052,1.052H120.7a1.052,1.052,0,0,0,1.052-1.052V26.406c-.7,1.293-1.408,2.523-2.1,3.664ZM83.253,3.249l6.93-6.93v6.93Z" transform="translate(-79.661 7.274)" fill="#2a5082"/>
            <path id="Path_616" data-name="Path 616" d="M129.834-7.145a1.418,1.418,0,0,0-1.117-.031C126.11-6.226,120.125,5.5,117,12.282a148.736,148.736,0,0,0-5.9,14.533c-1.954,5.888-1.689,7.346-.57,7.872a1.341,1.341,0,0,0,.58.13,1.567,1.567,0,0,0,.537-.1c2.606-.949,8.591-12.676,11.716-19.456a148.9,148.9,0,0,0,5.9-14.533C131.217-5.16,130.953-6.617,129.834-7.145Zm-8.381,21.525c-4.15,9-7.746,15.1-9.565,17.389.562-2.876,2.864-9.584,7.024-18.607q1.237-2.685,2.4-5.013l2.4,1.133Q122.692,11.685,121.453,14.381Zm3.074-7.041L122.26,6.271a73.219,73.219,0,0,1,6.217-10.5A73.41,73.41,0,0,1,124.527,7.339Z" transform="translate(-78.094 7.274)" fill="#2a5082"/>
          </g>
        </g>
        <text id="Assets_Provide_your_bank_investment_information." data-name="Assets
Provide your bank/investment information." transform="translate(145.327 442.587)" fill="#272836" font-size="24" font-family="RobotoSlab-Regular, Roboto Slab"><tspan x="0" y="0">Assets</tspan><tspan font-size="20" font-family="GothicA1-Light, Gothic A1" font-weight="300"><tspan x="0" y="35">Provide your bank/investment information.</tspan></tspan></text>
        <text id="Taxes_Provide_your_tax_records." data-name="Taxes
Provide your  tax records." transform="translate(145.327 609.069)" fill="#272836" font-size="24" font-family="RobotoSlab-Regular, Roboto Slab"><tspan x="0" y="0">Taxes</tspan><tspan font-size="20" font-family="GothicA1-Light, Gothic A1" font-weight="300"><tspan x="0" y="35" xml:space="preserve">Provide your  tax records.</tspan></tspan></text>
        <text id="E-sign_Forms_Forms_to_review_fill_in_and_e-sign." data-name="E-sign Forms
Forms to review, fill in and e-sign." transform="translate(145.327 770.953)" fill="#272836" font-size="24" font-family="RobotoSlab-Regular, Roboto Slab"><tspan x="0" y="0">E-sign Forms</tspan><tspan font-size="20" font-family="GothicA1-Light, Gothic A1" font-weight="300"><tspan x="0" y="35">Forms to review, fill in and e-sign.</tspan></tspan></text>
        <text id="Uploads_Documents_Easily_submit_the_supporting_documents." data-name="Uploads Documents
Easily submit the supporting documents." transform="translate(145.327 934.676)" fill="#272836" font-size="24" font-family="RobotoSlab-Regular, Roboto Slab"><tspan x="0" y="0">Uploads Documents</tspan><tspan font-size="20" font-family="GothicA1-Light, Gothic A1" font-weight="300"><tspan x="0" y="35">Easily submit the supporting documents.</tspan></tspan></text>
        <text id="Welcome_Hermione_" data-name="Welcome, Hermione!" transform="translate(52.428 155.814)" fill="#464646" font-size="37" font-family="RobotoSlab-Regular, Roboto Slab"><tspan x="0" y="0">Welcome, Hermione!</tspan></text>
        <text id="To_help_expedite_your_Medicare_application_please_provide_the_information_requested_by_Broward_Health." data-name="To help expedite your Medicare application please provide the information requested by Broward Health." transform="translate(52.428 211.553)" fill="#272836" font-size="21" font-family="GothicA1-Regular, Gothic A1"><tspan x="0" y="17">To help expedite your Medicare application please </tspan><tspan x="0" y="58">provide the information requested by Broward </tspan><tspan x="0" y="99">Health.</tspan></text>
        <text id="INFORMATION_REQUESTED" data-name="INFORMATION REQUESTED" transform="translate(50.589 359.244)" fill="#464646" font-size="22" font-family="GothicA1-Light, Gothic A1" font-weight="300"><tspan x="0" y="0">INFORMATION REQUESTED</tspan></text>
        <g id="Camera" transform="translate(49.669 900.479)">
          <circle id="Ellipse_60" data-name="Ellipse 60" cx="30.061" cy="30.061" r="30.061" transform="matrix(0.704, -0.711, 0.711, 0.704, 0, 42.717)" fill="#e9eaeb"/>
          <path id="Rectangle_176" data-name="Rectangle 176" d="M5.96,13H47.844a4.76,4.76,0,0,1,4.76,4.76V39.654a4.76,4.76,0,0,1-4.76,4.76H5.96a4.76,4.76,0,0,1-4.76-4.76V17.76A4.76,4.76,0,0,1,5.96,13Z" transform="translate(16.95 11.638)" fill="#fff"/>
          <path id="Intersection_1" data-name="Intersection 1" d="M5.96,45.365a4.76,4.76,0,0,1-4.76-4.76V17.76A4.76,4.76,0,0,1,5.96,13h6.663V45.365Z" transform="translate(16.95 11.638)" fill="#eff5fd"/>
          <ellipse id="Ellipse_48" data-name="Ellipse 48" cx="10.471" cy="10.947" rx="10.471" ry="10.947" transform="translate(39.092 30.349)" fill="#a3d4ff"/>
          <g id="Group_465" data-name="Group 465" transform="translate(17.75 18.241)">
            <path id="Path_592" data-name="Path 592" d="M48.757,12.182h-10l-1.9-4.474A2.275,2.275,0,0,0,34.764,6.28H22.1a2.275,2.275,0,0,0-2.075,1.428l-1.9,4.474H13.079V10.659a1.466,1.466,0,0,0-1.428-1.428H6.4a1.466,1.466,0,0,0-1.428,1.428v1.618A4.76,4.76,0,0,0,.78,16.942V40.549a4.76,4.76,0,0,0,4.76,4.76H48.757a4.369,4.369,0,0,0,4.379-4.379V16.751a4.474,4.474,0,0,0-4.379-4.569Zm-27.7-4.093A1.171,1.171,0,0,1,22.1,7.422H34.764a1.171,1.171,0,0,1,1.047.666l1.713,4.093H19.342ZM6.111,10.659a.257.257,0,0,1,.286-.286h5.236a.257.257,0,0,1,.286.286h0v1.523H6.111Zm-4.093,29.8V16.846a3.617,3.617,0,0,1,3.617-3.617h6.378V43.976H5.635a3.427,3.427,0,0,1-3.617-3.522Zm49.976.381a3.208,3.208,0,0,1-3.237,3.237H13.06V13.324h35.7a3.208,3.208,0,0,1,3.237,3.237Z" transform="translate(-0.78 -6.28)" fill="#2a5082" stroke="#2a5082" stroke-width="1"/>
            <path id="Path_593" data-name="Path 593" d="M33.308,18.88A11.328,11.328,0,1,0,44.636,30.208h0A11.29,11.29,0,0,0,33.308,18.88Zm0,21.513A10.186,10.186,0,1,1,43.493,30.208,10.186,10.186,0,0,1,33.308,40.393Z" transform="translate(-1.799 -6.886)" fill="#2a5082"/>
            <path id="Path_594" data-name="Path 594" d="M33.51,23.08a7.273,7.273,0,1,0,5.2,2.13,7.33,7.33,0,0,0-5.2-2.13Zm0,13.517A6.187,6.187,0,1,1,39.7,30.41h0A6.178,6.178,0,0,1,33.51,36.6Z" transform="translate(-2.001 -7.088)" fill="#2a5082"/>
            <path id="Path_595" data-name="Path 595" d="M33.712,27.28a3.37,3.37,0,0,0-3.332,3.332.581.581,0,0,0,1.142.19v-.1a2.151,2.151,0,0,1,2.189-2.189.514.514,0,0,0,.476-.666C34.188,27.47,34,27.28,33.712,27.28Z" transform="translate(-2.203 -7.29)" fill="#2a5082"/>
            <path id="Path_596" data-name="Path 596" d="M49.774,28.58a2.094,2.094,0,1,0,2.094,2.094h0A2.113,2.113,0,0,0,49.774,28.58Zm0,3.046a.952.952,0,0,1-.952-.952,1.028,1.028,0,0,1,.952-.952.952.952,0,0,1,.952.952.895.895,0,0,1-.952.952Z" transform="translate(-3.035 -7.352)" fill="#2a5082"/>
            <path id="Path_597" data-name="Path 597" d="M22.843,20.312v-1.9a1.466,1.466,0,0,0-1.428-1.428H17.608a1.466,1.466,0,0,0-1.428,1.428v1.9a1.466,1.466,0,0,0,1.428,1.428h3.9a1.38,1.38,0,0,0,1.333-1.428Zm-1.142,0a.257.257,0,0,1-.286.286H17.608a.257.257,0,0,1-.286-.286v-1.9a.257.257,0,0,1,.286-.286h3.9a.257.257,0,0,1,.286.286v1.9Z" transform="translate(-1.52 -6.794)" fill="#2a5082"/>
          </g>
        </g>
      </g>
      <g id="Group_2026" data-name="Group 2026" transform="translate(98.549 463.939)">
        <g id="Component_22_11" data-name="Component 22 – 11" transform="translate(0 0)">
          <g id="Path_634" data-name="Path 634" transform="translate(-0.297 16.328)" fill="#13a86f">
            <path d="M 8.890317916870117 1.858797073364258 C 6.327258110046387 1.858797073364258 3.917977809906006 0.8610570430755615 2.106297969818115 -0.9506229758262634 C 0.2946179211139679 -2.762302875518799 -0.703122079372406 -5.17158317565918 -0.703122079372406 -7.73464298248291 C -0.703122079372406 -10.29770278930664 0.2946179211139679 -12.70698261260986 2.106297969818115 -14.51866340637207 C 3.917977809906006 -16.33034324645996 6.327258110046387 -17.32808303833008 8.890317916870117 -17.32808303833008 C 11.45337772369385 -17.32808303833008 13.86265754699707 -16.33034324645996 15.67433834075928 -14.51866340637207 C 17.48601722717285 -12.70698261260986 18.48375701904297 -10.29770278930664 18.48375701904297 -7.73464298248291 C 18.48375701904297 -5.17158317565918 17.48601722717285 -2.762302875518799 15.67433834075928 -0.9506229758262634 C 13.86265754699707 0.8610570430755615 11.45337772369385 1.858797073364258 8.890317916870117 1.858797073364258 Z" stroke="none"/>
            <path d="M 8.890317916870117 -16.32808303833008 C 4.14313793182373 -16.32808303833008 0.2968788146972656 -12.4818229675293 0.2968788146972656 -7.73464298248291 C 0.2968788146972656 -2.987462997436523 4.14313793182373 0.8587970733642578 8.890317916870117 0.8587970733642578 C 13.6374979019165 0.8587970733642578 17.48375701904297 -2.987462997436523 17.48375701904297 -7.73464298248291 C 17.48375701904297 -12.4818229675293 13.6374979019165 -16.32808303833008 8.890317916870117 -16.32808303833008 M 8.890317916870117 -18.32808303833008 C 11.72048759460449 -18.32808303833008 14.38088798522949 -17.22632217407227 16.38144874572754 -15.22577285766602 C 18.38199806213379 -13.22521305084229 19.48375701904297 -10.5648136138916 19.48375701904297 -7.73464298248291 C 19.48375701904297 -4.904473304748535 18.38199806213379 -2.244072914123535 16.38144874572754 -0.2435131072998047 C 14.38088798522949 1.757036209106445 11.72048759460449 2.858797073364258 8.890317916870117 2.858797073364258 C 6.060148239135742 2.858797073364258 3.399747848510742 1.757036209106445 1.399187088012695 -0.2435131072998047 C -0.6013622283935547 -2.244072914123535 -1.703121185302734 -4.904473304748535 -1.703121185302734 -7.73464298248291 C -1.703121185302734 -10.5648136138916 -0.6013622283935547 -13.22521305084229 1.399187088012695 -15.22577285766602 C 3.399747848510742 -17.22632217407227 6.060148239135742 -18.32808303833008 8.890317916870117 -18.32808303833008 Z" stroke="none" fill="#fff"/>
          </g>
        </g>
        <text id="check" transform="translate(5.357 11.494)" fill="#fff" font-size="8" font-family="FontAwesome5Pro-Solid, 'Font Awesome \35  Pro'"><tspan x="0" y="0">check</tspan></text>
      </g>
      <g id="Group_2027" data-name="Group 2027" transform="translate(98.55 627.754)">
        <g id="Component_22_12" data-name="Component 22 – 12" transform="translate(0 0)">
          <g id="Path_634-2" data-name="Path 634" transform="translate(-0.297 16.328)" fill="#13a86f">
            <path d="M 8.890317916870117 1.858797073364258 C 6.327258110046387 1.858797073364258 3.917977809906006 0.8610570430755615 2.106297969818115 -0.9506229758262634 C 0.2946179211139679 -2.762302875518799 -0.703122079372406 -5.17158317565918 -0.703122079372406 -7.73464298248291 C -0.703122079372406 -10.29770278930664 0.2946179211139679 -12.70698261260986 2.106297969818115 -14.51866340637207 C 3.917977809906006 -16.33034324645996 6.327258110046387 -17.32808303833008 8.890317916870117 -17.32808303833008 C 11.45337772369385 -17.32808303833008 13.86265754699707 -16.33034324645996 15.67433834075928 -14.51866340637207 C 17.48601722717285 -12.70698261260986 18.48375701904297 -10.29770278930664 18.48375701904297 -7.73464298248291 C 18.48375701904297 -5.17158317565918 17.48601722717285 -2.762302875518799 15.67433834075928 -0.9506229758262634 C 13.86265754699707 0.8610570430755615 11.45337772369385 1.858797073364258 8.890317916870117 1.858797073364258 Z" stroke="none"/>
            <path d="M 8.890317916870117 -16.32808303833008 C 4.14313793182373 -16.32808303833008 0.2968788146972656 -12.4818229675293 0.2968788146972656 -7.73464298248291 C 0.2968788146972656 -2.987462997436523 4.14313793182373 0.8587970733642578 8.890317916870117 0.8587970733642578 C 13.6374979019165 0.8587970733642578 17.48375701904297 -2.987462997436523 17.48375701904297 -7.73464298248291 C 17.48375701904297 -12.4818229675293 13.6374979019165 -16.32808303833008 8.890317916870117 -16.32808303833008 M 8.890317916870117 -18.32808303833008 C 11.72048759460449 -18.32808303833008 14.38088798522949 -17.22632217407227 16.38144874572754 -15.22577285766602 C 18.38199806213379 -13.22521305084229 19.48375701904297 -10.5648136138916 19.48375701904297 -7.73464298248291 C 19.48375701904297 -4.904473304748535 18.38199806213379 -2.244072914123535 16.38144874572754 -0.2435131072998047 C 14.38088798522949 1.757036209106445 11.72048759460449 2.858797073364258 8.890317916870117 2.858797073364258 C 6.060148239135742 2.858797073364258 3.399747848510742 1.757036209106445 1.399187088012695 -0.2435131072998047 C -0.6013622283935547 -2.244072914123535 -1.703121185302734 -4.904473304748535 -1.703121185302734 -7.73464298248291 C -1.703121185302734 -10.5648136138916 -0.6013622283935547 -13.22521305084229 1.399187088012695 -15.22577285766602 C 3.399747848510742 -17.22632217407227 6.060148239135742 -18.32808303833008 8.890317916870117 -18.32808303833008 Z" stroke="none" fill="#fff"/>
          </g>
        </g>
        <text id="check-2" data-name="check" transform="translate(5.357 11.494)" fill="#fff" font-size="8" font-family="FontAwesome5Pro-Solid, 'Font Awesome \35  Pro'"><tspan x="0" y="0">check</tspan></text>
      </g>
    </g>
    <path id="Subtraction_1" data-name="Subtraction 1" d="M262.6,37.711H32.653a32.45,32.45,0,0,1-12.71-2.566,32.545,32.545,0,0,1-10.379-7A32.55,32.55,0,0,1,0,5.059,33.025,33.025,0,0,1,.389,0H294.865a33.023,33.023,0,0,1,.389,5.059,32.688,32.688,0,0,1-19.943,30.086A32.451,32.451,0,0,1,262.6,37.711Z" transform="translate(163.724 0)" fill="#2d2828"/>
  </g>
</svg>
