<svg xmlns="http://www.w3.org/2000/svg" width="114.609" height="87.543" viewBox="0 0 114.609 87.543">
  <g id="layer1" transform="translate(-34.57 -157.495)">
    <g id="g103" transform="translate(34.57 157.495)">
      <path id="polygon17" d="M29.98,25.9,56.447,41.183,82.919,25.9,56.447,10.618Z" transform="translate(-2.086 -10.618)" fill="#373a4a"/>
      <path id="polygon19" d="M56.447,62.4V31.834L29.98,47.119Z" transform="translate(-2.086 -1.269)" fill="#373a4a"/>
      <path id="polygon21" d="M48.352,31.834V62.4L74.824,47.119Z" transform="translate(6.009 -1.269)" fill="#373a4a"/>
      <path id="polygon23" d="M29.98,21.225V51.794L56.447,36.509Z" transform="translate(-2.086 -5.944)" fill="#373a4a"/>
      <path id="path25" d="M34.306,213.223v-.042a7.738,7.738,0,0,1,7.886-7.909,7.97,7.97,0,0,1,5.988,2.4l-1.727,1.967a6.057,6.057,0,0,0-4.28-1.906,5.15,5.15,0,0,0-5.05,5.4v.046a5.158,5.158,0,0,0,5.05,5.42,5.974,5.974,0,0,0,4.391-1.967l1.727,1.746a7.891,7.891,0,0,1-6.205,2.71,7.685,7.685,0,0,1-7.78-7.863Zm15.536,1.906v-.042a6.152,6.152,0,0,1,12.3-.046v.046a6.03,6.03,0,0,1-6.183,6,5.965,5.965,0,0,1-6.118-5.965Zm9.659,0v-.042a3.568,3.568,0,0,0-3.541-3.716,3.492,3.492,0,0,0-3.476,3.671v.046A3.557,3.557,0,0,0,56,218.78a3.47,3.47,0,0,0,3.5-3.655Zm5.111-5.832h2.645v2.6a4.088,4.088,0,0,1,4.086-2.821v2.79h-.156c-2.314,0-3.93,1.525-3.93,4.574v4.391H64.612Zm8.542,5.809v-.042a5.725,5.725,0,0,1,5.637-6.007c3.671,0,5.531,2.882,5.531,6.205,0,.24-.023.48-.046.739H75.8a3.221,3.221,0,0,0,3.32,2.931,4.193,4.193,0,0,0,3.126-1.376l1.551,1.376a5.836,5.836,0,0,1-4.719,2.161,5.764,5.764,0,0,1-5.927-5.992Zm8.546-.85c-.175-1.7-1.182-3.049-2.927-3.049-1.62,0-2.756,1.246-3,3.049Z" transform="translate(-34.306 -136.826)" fill="#373a4a"/>
      <path id="path27" d="M71.086,205.611h2.687V218.46h8.043v2.447H71.086Zm11.561,9.594v-.046a6.152,6.152,0,1,1,12.3-.042v.042a6.034,6.034,0,0,1-6.186,6.011,5.965,5.965,0,0,1-6.118-5.965Zm9.659,0v-.046a3.565,3.565,0,0,0-3.541-3.713,3.485,3.485,0,0,0-3.472,3.671v.042a3.555,3.555,0,0,0,3.518,3.693,3.46,3.46,0,0,0,3.5-3.648Zm4.913,7.867.983-1.99a7.585,7.585,0,0,0,4.109,1.224c2.359,0,3.648-1.224,3.648-3.541v-.9a4.826,4.826,0,0,1-4.063,2.119,5.184,5.184,0,0,1-5.245-5.4v-.042a5.192,5.192,0,0,1,5.245-5.42,4.982,4.982,0,0,1,4.044,1.967V209.37h2.641v9.178a5.9,5.9,0,0,1-1.464,4.349,6.5,6.5,0,0,1-4.742,1.551,9.941,9.941,0,0,1-5.157-1.376Zm8.767-8.5v-.046a3.221,3.221,0,0,0-3.385-3.167,3.117,3.117,0,0,0-3.278,3.167v.046a3.145,3.145,0,0,0,3.278,3.167,3.222,3.222,0,0,0,3.381-3.167Zm5.744-9.487h2.84V207.6h-2.84Zm.107,4.284h2.649v11.538H111.84Zm5.355,5.836v-.046a5.954,5.954,0,0,1,6.007-6.03,5.824,5.824,0,0,1,4.612,1.99l-1.662,1.769a3.88,3.88,0,0,0-2.973-1.441,3.489,3.489,0,0,0-3.343,3.671v.042a3.493,3.493,0,0,0,3.453,3.693,4.039,4.039,0,0,0,3-1.422l1.593,1.574a6.049,6.049,0,0,1-10.673-3.812Z" transform="translate(-18.1 -136.906)" fill="#373a4a"/>
      <path id="path29" d="M111.405,208.42h0a1.769,1.769,0,0,1,3.537,0h0a1.769,1.769,0,0,1-3.537,0Zm3.331,0h0a1.551,1.551,0,0,0-1.563-1.574,1.57,1.57,0,0,0-1.567,1.582h0a1.567,1.567,0,1,0,3.129,0Zm-2.253-.934h.812c.381,0,.69.194.69.568a.545.545,0,0,1-.419.553l.48.678h-.415l-.427-.617h-.381v.617h-.343Zm.781.9c.232,0,.381-.122.381-.294s-.133-.3-.381-.3h-.438v.591Z" transform="translate(-0.334 -136.216)" fill="#828282"/>
    </g>
  </g>
</svg>
