<svg xmlns="http://www.w3.org/2000/svg" width="447.57" height="94.734" viewBox="0 0 447.57 94.734">
  <g id="Group_2129" data-name="Group 2129" transform="translate(-7.584 -8.752)">
    <path id="Path_3825" data-name="Path 3825" d="M7.584-66.144V0H33.7C52.8,0,63.84-14.208,63.84-32.928c0-18.816-11.04-33.216-30.144-33.216ZM22.656-13.152v-39.84H33.7c9.888,0,14.976,9.7,14.976,20.064,0,10.272-5.088,19.776-14.976,19.776Zm92.736-10.176c0-13.632-10.752-22.656-23.616-22.656s-24.1,9.12-24.1,23.712c0,13.632,9.984,23.424,24.192,23.424,7.488,0,15.168-2.976,19.584-7.776l-7.3-9.216a17,17,0,0,1-11.328,4.608c-5.376,0-9.12-2.688-10.464-7.008H115.2C115.3-20.448,115.392-22.08,115.392-23.328Zm-33.12-3.264c1.44-5.376,5.568-7.392,9.792-7.392,5.088,0,9.024,2.976,9.216,7.392ZM138.144,1.152c9.024,0,19.3-4.7,19.3-14.592,0-3.072-.96-10.176-12.192-13.248L137.472-28.8c-2.3-.576-3.84-1.536-3.84-3.264,0-1.92,2.016-3.072,4.416-3.072,2.784,0,4.8,1.44,4.8,4.32h13.44c.192-11.232-10.08-15.168-18.528-15.168-10.848,0-18.336,6.816-18.336,13.44,0,3.744.384,11.232,13.536,14.784l5.856,1.536c3.36.768,4.416,1.44,4.416,2.88,0,2.112-2.5,3.648-5.472,3.648-4.032,0-5.664-2.592-5.664-4.8h-13.44C118.656-4.32,128.16,1.152,138.144,1.152Zm42.432,0c9.024,0,19.3-4.7,19.3-14.592,0-3.072-.96-10.176-12.192-13.248L179.9-28.8c-2.3-.576-3.84-1.536-3.84-3.264,0-1.92,2.016-3.072,4.416-3.072,2.784,0,4.8,1.44,4.8,4.32h13.44c.192-11.232-10.08-15.168-18.528-15.168-10.848,0-18.336,6.816-18.336,13.44,0,3.744.384,11.232,13.536,14.784l5.856,1.536c3.36.768,4.416,1.44,4.416,2.88,0,2.112-2.5,3.648-5.472,3.648-4.032,0-5.664-2.592-5.664-4.8h-13.44C161.088-4.32,170.592,1.152,180.576,1.152Zm32.544-52.7a8.467,8.467,0,0,0,8.64-8.256,8.345,8.345,0,0,0-8.64-8.256c-4.8,0-8.832,3.552-8.832,8.256C204.288-55.3,208.32-51.552,213.12-51.552ZM220.224,0V-44.832H206.016V0ZM247.68-44.832V-60.864H233.472v16.032h-8.16V-34.08h8.16V0H247.68V-34.08h9.408V-44.832Zm45.984,5.376c-3.072-4.128-8.544-6.528-14.016-6.528-12.768,0-21.6,9.5-21.6,23.616,0,14.016,8.832,23.52,21.408,23.52a17.707,17.707,0,0,0,14.208-6.816V0h14.208V-44.832H293.664ZM282.912-12a10.261,10.261,0,0,1-10.368-10.368,10.148,10.148,0,0,1,10.272-10.464,10.346,10.346,0,0,1,10.368,10.464A10.428,10.428,0,0,1,282.912-12Z" transform="translate(0 97)" fill="#464646"/>
    <g id="Group_2162" data-name="Group 2162" transform="translate(10)">
      <path id="Path_3745" data-name="Path 3745" d="M31.88,11.195c13.712,0,25.88-9.56,25.88-24.914V-56.5H42.6v41.62c0,8.4-5.311,11.685-10.719,11.685-5.5,0-10.815-3.283-10.815-11.685V-56.5H5.9v42.779C5.9,1.635,18.168,11.195,31.88,11.195Z" transform="translate(308.096 92.29)" fill="#684c8a"/>
      <path id="Path_3746" data-name="Path 3746" d="M76.285-56.5H57.937L78.892-25.4,56.006,10.036H73.774l14.2-23.369,14.2,23.369h17.865Z" transform="translate(309.85 90.544)" fill="#684c8a"/>
      <g id="Group_2117" data-name="Group 2117" transform="matrix(-0.829, -0.559, 0.559, -0.829, 418.605, 67.313)">
        <g id="Group_2102" data-name="Group 2102" transform="translate(5.666 49.116)">
          <rect id="Rectangle_622" data-name="Rectangle 622" width="6.218" height="16.996" transform="translate(0 6.218) rotate(-89.94)" fill="#464646"/>
        </g>
        <g id="Group_2103" data-name="Group 2103" transform="translate(0 0)">
          <path id="Path_3735" data-name="Path 3735" d="M22.548,47.476,5.717,47.458.4,33.219a6.381,6.381,0,0,1,.01-4.489L11.281,0,13.6,0l-.026,25.154a2.692,2.692,0,0,0-.006,5.239v.075h1.244V30.4a2.692,2.692,0,0,0,.005-5.239L14.844,0l2.247,0L27.613,28.844a6.381,6.381,0,0,1,.018,4.323Z" fill="#464646"/>
        </g>
      </g>
    </g>
  </g>
</svg>
