<svg xmlns="http://www.w3.org/2000/svg" width="261.759" height="81.172" viewBox="0 0 261.759 81.172">
  <g id="Group_17" data-name="Group 17" transform="translate(-126 -180)">
    <path id="Path_87" data-name="Path 87" d="M306.39,285.884V265.11h12.073v3.372h-8.132v4.874h7.084l-.687,3.433h-6.4v5.722h8.157v3.372Z" transform="translate(-115.879 -54.673)" fill="#373a4a"/>
    <path id="Path_88" data-name="Path 88" d="M376.963,285.884l-9.788-14.3v14.3h-3.7V265.11h3.766l9.337,13.607V265.11h3.7v20.774Z" transform="translate(-152.546 -54.673)" fill="#373a4a"/>
    <path id="Path_89" data-name="Path 89" d="M441.34,285.639h-3.916L429.56,264.59h4.434l5.54,15.9,5.45-15.717h4.152Z" transform="translate(-195.001 -54.339)" fill="#373a4a"/>
    <path id="Path_90" data-name="Path 90" d="M570.264,285.705a15.017,15.017,0,0,1-6.534-1.43l.6-3.641a12.367,12.367,0,0,0,5.99,1.835c1.838,0,3.1-.873,3.1-2.528,0-1.534-.715-2.167-3.734-3.462-4.038-1.656-5.661-2.979-5.661-6.208,0-3.673,2.832-5.808,6.716-5.808a11.208,11.208,0,0,1,5.475,1.262l-.594,3.6a9.258,9.258,0,0,0-4.91-1.627c-1.985,0-2.861.966-2.861,2.228,0,1.327.665,1.96,3.551,3.165,4.291,1.745,5.843,3.219,5.843,6.437,0,4.066-2.979,6.172-6.984,6.172" transform="translate(-281.19 -54.255)" fill="#373a4a"/>
    <path id="Path_91" data-name="Path 91" d="M629.9,268.565v17.312h-4.005V268.565H619.72V265.1h16.529l-.78,3.465Z" transform="translate(-317.156 -54.667)" fill="#373a4a"/>
    <path id="Path_92" data-name="Path 92" d="M699.643,285.884l-9.784-14.3v14.3H686.15V265.11h3.769l9.334,13.607V265.11h3.7v20.774Z" transform="translate(-359.83 -54.673)" fill="#373a4a"/>
    <path id="Path_93" data-name="Path 93" d="M822.478,268.565v17.312h-4.005V268.565H812.3V265.1h16.325l-.78,3.465Z" transform="translate(-440.866 -54.667)" fill="#373a4a"/>
    <path id="Path_94" data-name="Path 94" d="M505.73,285.758V264.98h12.077v3.372h-8.132v4.878h7.084l-.69,3.433h-6.394v5.722h8.157v3.372Z" transform="translate(-243.931 -54.59)" fill="#373a4a"/>
    <path id="Path_95" data-name="Path 95" d="M759,285.908V265.13h12.077V268.5h-8.129v4.878h7.081l-.687,3.437h-6.394v5.722H771.1v3.372Z" transform="translate(-406.627 -54.686)" fill="#373a4a"/>
    <path id="Path_96" data-name="Path 96" d="M126,353.707V339.878l48.715-15.828v13.829Z" transform="translate(0 -92.535)" fill="#373a4a"/>
    <path id="Path_97" data-name="Path 97" d="M126,303.837V290.008l.011,0,48.7-15.825v13.829l-6.144,2Z" transform="translate(0 -60.499)" fill="#373a4a"/>
    <path id="Path_98" data-name="Path 98" d="M126,193.829V180l42.571,13.833-21.278,6.913Z" fill="#373a4a"/>
    <path id="Path_99" data-name="Path 99" d="M126,239.707V229.88l15.124,4.914Z" transform="translate(0 -32.042)" fill="#373a4a"/>
    <path id="Path_100" data-name="Path 100" d="M126,240.128l.011,0,48.7-15.825v13.829L126,253.957Z" transform="translate(0 -28.457)" fill="#373a4a"/>
  </g>
</svg>
