<svg xmlns="http://www.w3.org/2000/svg" width="50" height="50" viewBox="0 0 50 50">
  <path id="Path_3203" data-name="Path 3203" d="M42.187-12.5H39.062A1.563,1.563,0,0,0,37.5-10.937V0H6.25V-31.25H20.312a1.563,1.563,0,0,0,1.562-1.562v-3.125A1.563,1.563,0,0,0,20.312-37.5H4.687A4.689,4.689,0,0,0,0-32.812V1.562A4.689,4.689,0,0,0,4.687,6.25H39.062A4.689,4.689,0,0,0,43.75,1.562v-12.5A1.563,1.563,0,0,0,42.187-12.5Zm4.167-31.25h-15.5a2.735,2.735,0,0,0-2.734,2.734v1.827a2.752,2.752,0,0,0,2.733,2.656h.078l6.563-.186L13.189-12.589l-.006.006a2.692,2.692,0,0,0-.686,1.657,2.692,2.692,0,0,0,.686,1.657l2.338,2.329.006.006a2.693,2.693,0,0,0,1.651.681,2.691,2.691,0,0,0,1.66-.689L42.969-31.25l-.184,6.564v.076a2.735,2.735,0,0,0,2.734,2.734h1.746A2.735,2.735,0,0,0,50-24.609V-40.1A3.647,3.647,0,0,0,46.354-43.75Z" transform="translate(0 43.75)" fill="#171717"/>
</svg>
