<svg xmlns="http://www.w3.org/2000/svg" width="537" height="537" viewBox="0 0 537 537">
  <g id="Group_2085" data-name="Group 2085" transform="translate(6823 1002)">
    <rect id="Rectangle_614" data-name="Rectangle 614" width="537" height="537" transform="translate(-6823 -1002)" fill="#fff" opacity="0"/>
    <g id="Group_2084" data-name="Group 2084" transform="translate(-6765.172 -1002)">
      <path id="Path_79" data-name="Path 79" d="M80.336,102.935c6.513-7.69,12.944-15.355,19.677-22.946,16.212-18.256,32.074-36.014,48.377-52.612V3.727H34.274V160.022C50.576,141.228,64.2,121.978,80.336,102.935Z" transform="translate(245.095 -3.727)" fill="#464646"/>
      <path id="Path_80" data-name="Path 80" d="M395.62,275.986V41.929c-5.143,8.1-10.287,16.051-15.511,23.708-37.365,55.479-75.2,97.89-103.657,94.783l-37.911-28.589c.9-19.913,10.36-43.339,25.008-68.373a130.674,130.674,0,0,0-29.368-23.75q-31.435-18.682-70.3-18.678-36,0-66.048,15.082a161.113,161.113,0,0,0-51.89,41.276Q24,103.627,12,139.5-.008,175.477,0,216.4q0,42.374,13.066,77.886,13.07,35.55,36.386,62.142a163.337,163.337,0,0,0,55.46,41.284q32.119,14.717,70.287,14.75a154.51,154.51,0,0,0,71.689-17.253q33.587-17.265,53.365-52.438l2.119,19.391q2.812,23.691,21.217,36.287,18.3,12.542,48,12.546c6.594,0,13.677-.348,21.217-1.086a206.87,206.87,0,0,0,26.825-4.657V308.3q-13.4-1.442-18.715-8.262Q395.6,293.247,395.62,275.986ZM249.2,246.957C207.16,304.409,112.33,294.241,112.33,294.241c52.493-49.5,41.041-85.071,57.375-107.354a49.028,49.028,0,0,1,69.276-10.416A50.944,50.944,0,0,1,249.2,246.957Z" transform="translate(0 122.354)" fill="#464646"/>
    </g>
  </g>
</svg>
