<svg id="surface1" xmlns="http://www.w3.org/2000/svg" xmlns:xlink="http://www.w3.org/1999/xlink" width="269.039" height="49.762" viewBox="0 0 269.039 49.762">
  <defs>
    <clipPath id="clip-path">
      <path id="Path_118" data-name="Path 118" d="M0,42H66v7.762H0Zm0,0"/>
    </clipPath>
    <clipPath id="clip-path-2">
      <path id="Path_133" data-name="Path 133" d="M258,16h11.039V27H258Zm0,0"/>
    </clipPath>
  </defs>
  <path id="Path_114" data-name="Path 114" d="M60.172,7.082H0L5.316,0H65.484L60.172,7.082" fill="#343537"/>
  <path id="Path_115" data-name="Path 115" d="M60.172,21.3H0l5.316-7.074H65.484L60.172,21.3" fill="#343537"/>
  <path id="Path_116" data-name="Path 116" d="M60.172,35.535H0l5.316-7.078H65.484l-5.312,7.078" fill="#343537"/>
  <g id="Group_19" data-name="Group 19" clip-path="url(#clip-path)">
    <path id="Path_117" data-name="Path 117" d="M60.172,49.762H0l5.316-7.074H65.484l-5.312,7.074" fill="#343537"/>
  </g>
  <path id="Path_119" data-name="Path 119" d="M86.563,18.035H78.09v2.2h5.895v1.758H78.09v4.34H76.129V16.277H86.563v1.758" fill="#343537"/>
  <path id="Path_120" data-name="Path 120" d="M99.5,26.332H88.684V16.277H99.121v1.758H90.648v2.2h5.891v1.758H90.648v2.582H99.5v1.758" fill="#343537"/>
  <path id="Path_121" data-name="Path 121" d="M108.98,24.574a3.226,3.226,0,0,0,2.355-.906,3.087,3.087,0,0,0,.922-2.309,3.144,3.144,0,0,0-.977-2.41,3.671,3.671,0,0,0-2.609-.914h-4.68v6.539Zm-.457-8.3a6.227,6.227,0,0,1,4.246,1.391,4.506,4.506,0,0,1,1.6,3.563,5.55,5.55,0,0,1-1.684,3.793,3.7,3.7,0,0,1-1.5.9,6.794,6.794,0,0,1-2.336.41h-6.824V16.277h6.5" fill="#343537"/>
  <path id="Path_122" data-name="Path 122" d="M127.863,26.332H117.051V16.277h10.438v1.758h-8.473v2.2h5.891v1.758h-5.891v2.582h8.848v1.758" fill="#343537"/>
  <path id="Path_123" data-name="Path 123" d="M138.2,20.879q1.775,0,1.777-1.379,0-1.465-1.891-1.465h-5.73v2.844Zm4.016,5.453h-2.27l-2.629-3.7h-4.961v3.7h-1.965V16.277h8.113a3.622,3.622,0,0,1,2.547.867,2.99,2.99,0,0,1,.949,2.32,2.858,2.858,0,0,1-2.5,3.059l2.711,3.809" fill="#343537"/>
  <path id="Path_124" data-name="Path 124" d="M152.6,22.4l-2.4-4.469L147.8,22.4Zm4.273,3.93h-2.133l-1.184-2.168h-6.707l-1.18,2.168H143.5l5.469-10.055H151.4l5.469,10.055" fill="#343537"/>
  <path id="Path_125" data-name="Path 125" d="M168.508,26.332h-9.715V16.277h1.965v8.3h7.75v1.758" fill="#343537"/>
  <path id="Path_126" data-name="Path 126" d="M183.34,20.879c1.188,0,1.777-.461,1.777-1.379q0-1.465-1.891-1.465H177.5v2.844Zm4.016,5.453h-2.27l-2.633-3.7H177.5v3.7h-1.965V16.277h8.113a3.622,3.622,0,0,1,2.547.867,2.99,2.99,0,0,1,.949,2.32,2.858,2.858,0,0,1-2.5,3.059l2.711,3.809" fill="#343537"/>
  <path id="Path_127" data-name="Path 127" d="M200.941,26.332H190.129V16.277h10.438v1.758h-8.473v2.2h5.891v1.758h-5.891v2.582h8.848v1.758" fill="#343537"/>
  <path id="Path_128" data-name="Path 128" d="M212.582,18.77a9.075,9.075,0,0,0-4.266-1.027q-3.346,0-3.348,1.191c0,.469.418.773,1.254.918,1.145.1,2.285.2,3.43.309a8.836,8.836,0,0,1,3.508.883,2.336,2.336,0,0,1,1.16,2.141,2.784,2.784,0,0,1-1.445,2.5,8.139,8.139,0,0,1-4.187.883A9.959,9.959,0,0,1,202.5,24.8l1.063-1.391a8.627,8.627,0,0,0,5.086,1.457,6.366,6.366,0,0,0,2.625-.434c.621-.289.93-.672.93-1.148,0-.535-.379-.91-1.141-1.129a9.836,9.836,0,0,0-1.973-.242c-1.391-.066-2.246-.113-2.559-.145a5.815,5.815,0,0,1-2.738-.8,2.07,2.07,0,0,1-.883-1.812,2.551,2.551,0,0,1,1.414-2.273,7.8,7.8,0,0,1,3.961-.84,9.466,9.466,0,0,1,5.5,1.461l-1.207,1.266" fill="#343537"/>
  <path id="Path_129" data-name="Path 129" d="M227.574,26.332H216.766V16.277H227.2v1.758H218.73v2.2h5.891v1.758H218.73v2.582h8.844v1.758" fill="#343537"/>
  <path id="Path_130" data-name="Path 130" d="M237.918,20.879q1.775,0,1.773-1.379,0-1.465-1.887-1.465H232.07v2.844Zm4.012,5.453h-2.266l-2.633-3.7H232.07v3.7h-1.965V16.277h8.117a3.628,3.628,0,0,1,2.547.867,2.987,2.987,0,0,1,.945,2.32,2.858,2.858,0,0,1-2.5,3.059l2.711,3.809" fill="#343537"/>
  <path id="Path_131" data-name="Path 131" d="M256.453,16.277,250.9,26.332h-2.254l-5.551-10.055h2.176l4.5,8.336,4.5-8.336h2.176" fill="#343537"/>
  <g id="Group_20" data-name="Group 20" clip-path="url(#clip-path-2)">
    <path id="Path_132" data-name="Path 132" d="M269.039,26.332H258.227V16.277h10.438v1.758h-8.473v2.2h5.891v1.758h-5.891v2.582h8.848v1.758" fill="#343537"/>
  </g>
  <path id="Path_134" data-name="Path 134" d="M84.309,44.34a2.806,2.806,0,0,0,1.445-.312.958.958,0,0,0,.516-.848q0-1.271-1.8-1.273H78.09V44.34Zm.121-4.191a1.693,1.693,0,0,0,1.09-.324,1.073,1.073,0,0,0,.4-.875q0-1.148-1.422-1.148H78.09v2.348Zm2.2.75a2.646,2.646,0,0,1,1.605,2.484q0,2.713-3.937,2.715H76.129V36.043h8.266a3.824,3.824,0,0,1,2.516.766,2.53,2.53,0,0,1,.914,2.031,2.374,2.374,0,0,1-1.2,2.059" fill="#343537"/>
  <path id="Path_135" data-name="Path 135" d="M98.691,42.168l-2.4-4.469L93.9,42.168Zm4.277,3.93h-2.137L99.648,43.93H92.941L91.762,46.1H89.59l5.473-10.055H97.5L102.969,46.1" fill="#343537"/>
  <path id="Path_136" data-name="Path 136" d="M116.582,46.1h-2.91l-6.824-8.375V46.1h-1.961V36.043h2.9l6.828,8.387V36.043h1.965V46.1" fill="#343537"/>
  <path id="Path_137" data-name="Path 137" d="M132.156,46.1h-2.527L124.852,41l-2.863,2.063V46.1h-1.965V36.043h1.965v4.926l6.836-4.926h2.91l-5.371,3.871,5.793,6.184" fill="#343537"/>
  <path id="Path_138" data-name="Path 138" d="M149.4,41.047a3.13,3.13,0,0,0-1.277-2.562,5.155,5.155,0,0,0-3.293-1,5.208,5.208,0,0,0-3.32,1.012,3.238,3.238,0,0,0-.023,5.148,5.265,5.265,0,0,0,3.344.992,5.2,5.2,0,0,0,3.316-.992A3.146,3.146,0,0,0,149.4,41.047Zm2.023.008a4.773,4.773,0,0,1-2.109,4.016,7.386,7.386,0,0,1-4.492,1.32,7.479,7.479,0,0,1-4.512-1.32,4.833,4.833,0,0,1,.016-8,8.1,8.1,0,0,1,8.973,0,4.729,4.729,0,0,1,2.125,3.98" fill="#343537"/>
  <path id="Path_139" data-name="Path 139" d="M164.656,37.8h-8.473V40h5.891v1.758h-5.891V46.1h-1.961V36.043h10.434V37.8" fill="#343537"/>
  <path id="Path_140" data-name="Path 140" d="M179.855,44.34a2.822,2.822,0,0,0,1.449-.312.958.958,0,0,0,.516-.848c0-.848-.6-1.273-1.8-1.273h-6.383V44.34Zm.125-4.191a1.674,1.674,0,0,0,1.086-.324,1.065,1.065,0,0,0,.4-.875q0-1.148-1.422-1.148h-6.406v2.348Zm2.2.75a2.646,2.646,0,0,1,1.605,2.484q0,2.713-3.937,2.715H171.68V36.043h8.262a3.809,3.809,0,0,1,2.516.766,2.521,2.521,0,0,1,.918,2.031,2.374,2.374,0,0,1-1.2,2.059" fill="#343537"/>
  <path id="Path_141" data-name="Path 141" d="M197.25,41.047a3.133,3.133,0,0,0-1.281-2.562,5.922,5.922,0,0,0-6.609.008,3.238,3.238,0,0,0-.023,5.148,5.254,5.254,0,0,0,3.34.992,5.192,5.192,0,0,0,3.316-.992A3.149,3.149,0,0,0,197.25,41.047Zm2.02.008a4.773,4.773,0,0,1-2.109,4.016,7.386,7.386,0,0,1-4.492,1.32,7.479,7.479,0,0,1-4.512-1.32,4.838,4.838,0,0,1,.016-8,8.1,8.1,0,0,1,8.973,0,4.729,4.729,0,0,1,2.125,3.98" fill="#343537"/>
  <path id="Path_142" data-name="Path 142" d="M211.176,38.535a9.075,9.075,0,0,0-4.266-1.027q-3.346,0-3.348,1.191c0,.473.418.773,1.258.918,1.141.1,2.285.2,3.426.309a8.864,8.864,0,0,1,3.508.883,2.336,2.336,0,0,1,1.16,2.141,2.776,2.776,0,0,1-1.445,2.5,8.074,8.074,0,0,1-4.184.883,9.972,9.972,0,0,1-6.187-1.766l1.063-1.391a8.64,8.64,0,0,0,5.09,1.457,6.379,6.379,0,0,0,2.625-.434c.617-.289.93-.672.93-1.148,0-.531-.383-.91-1.141-1.125a9.5,9.5,0,0,0-1.973-.246q-2.086-.1-2.562-.145a5.815,5.815,0,0,1-2.738-.8,2.077,2.077,0,0,1-.879-1.812,2.547,2.547,0,0,1,1.41-2.273,7.8,7.8,0,0,1,3.961-.84,9.479,9.479,0,0,1,5.5,1.461l-1.211,1.266" fill="#343537"/>
  <path id="Path_143" data-name="Path 143" d="M225.633,37.8h-4.789v8.3h-1.965V37.8H214.07V36.043h11.563V37.8" fill="#343537"/>
  <path id="Path_144" data-name="Path 144" d="M238.352,41.047a3.13,3.13,0,0,0-1.277-2.562,5.928,5.928,0,0,0-6.613.008,3.238,3.238,0,0,0-.023,5.148,6.084,6.084,0,0,0,6.66,0A3.146,3.146,0,0,0,238.352,41.047Zm2.023.008a4.773,4.773,0,0,1-2.109,4.016,8.335,8.335,0,0,1-9,0,4.833,4.833,0,0,1,.016-8,8.1,8.1,0,0,1,8.973,0,4.738,4.738,0,0,1,2.125,3.98" fill="#343537"/>
  <path id="Path_145" data-name="Path 145" d="M254.867,46.1h-2.91l-6.824-8.375V46.1h-1.961V36.043h2.9L252.9,44.43V36.043h1.965V46.1" fill="#343537"/>
  <path id="Path_146" data-name="Path 146" d="M258.863,34.676h-1.23V34.23h3v.445h-1.238v3.6h-.531v-3.6" fill="#343537"/>
  <path id="Path_147" data-name="Path 147" d="M264.488,36.5c-.027-.566-.062-1.246-.062-1.746h-.012c-.145.465-.309.98-.512,1.535l-.715,1.965h-.395l-.66-1.926c-.191-.582-.348-1.094-.465-1.574h-.012c-.008.5-.039,1.176-.074,1.789l-.113,1.734h-.5l.281-4.047h.668l.691,1.957c.164.5.3.941.406,1.363h.012c.109-.406.254-.855.434-1.363l.723-1.957h.664l.25,4.047h-.516l-.1-1.777" fill="#343537"/>
</svg>
