<?xml version="1.0" encoding="utf-8"?>
<!-- Generator: Adobe Illustrator 24.2.0, SVG Export Plug-In . SVG Version: 6.00 Build 0)  -->
<svg version="1.1" id="Layer_1" xmlns="http://www.w3.org/2000/svg" xmlns:xlink="http://www.w3.org/1999/xlink" x="0px" y="0px"
	 viewBox="0 0 278.4 65.9" style="enable-background:new 0 0 278.4 65.9;" xml:space="preserve">
<style type="text/css">
	.st0{fill:#FFFFFF;}
	.st1{enable-background:new    ;}
</style>
<g>
	<g>
		<path class="st0" d="M39.9,12c0.8-0.9,1.6-1.9,2.4-2.8c2-2.2,3.9-4.3,5.9-6.3V0h-14v18.9C36.3,16.6,37.9,14.3,39.9,12z"/>
	</g>
	<g>
		<g>
			<path class="st0" d="M48.5,48.1V19.8c-0.6,1-1.3,1.9-1.9,2.9c-4.6,6.7-9.2,11.8-12.7,11.4l-4.7-3.4c0.1-2.4,1.3-5.2,3.1-8.3
				c-1-1.1-2.2-2.1-3.6-2.9c-2.6-1.5-5.4-2.3-8.6-2.3c-2.9,0-5.6,0.6-8.1,1.8c-2.5,1.2-4.6,2.9-6.4,5c-1.8,2.1-3.2,4.6-4.2,7.5
				c-1,2.9-1.5,6-1.5,9.3c0,3.4,0.5,6.5,1.6,9.4c1.1,2.9,2.6,5.4,4.5,7.5c1.9,2.1,4.2,3.8,6.8,5c2.6,1.2,5.5,1.8,8.6,1.8
				c3.1,0,6.1-0.7,8.8-2.1c2.7-1.4,4.9-3.5,6.5-6.3l0.3,2.3c0.2,1.9,1.1,3.4,2.6,4.4c1.5,1,3.5,1.5,5.9,1.5c0.8,0,1.7,0,2.6-0.1
				c0.9-0.1,2-0.3,3.3-0.6V52c-1.1-0.1-1.9-0.4-2.3-1C48.8,50.4,48.5,49.5,48.5,48.1z M30.6,44.6c-5.2,6.9-16.8,5.7-16.8,5.7
				c6.4-6,5-10.3,7-13c2-2.7,5.8-3.3,8.5-1.3C32,38.1,32.6,41.9,30.6,44.6z"/>
		</g>
	</g>
</g>
<g>
	<g class="st1">
		<path class="st0" d="M75.8,65.9c-3.5,0-6.7-0.6-9.4-1.7c-2.8-1.1-5.2-2.7-7.1-4.7c-1.9-2-3.4-4.2-4.4-6.8c-1-2.6-1.5-5.3-1.5-8.1
			c0-3,0.5-5.9,1.5-8.6c1-2.7,2.5-5,4.4-7.1c1.9-2,4.3-3.6,7.1-4.8c2.8-1.2,6-1.8,9.5-1.8c3.6,0,6.7,0.6,9.5,1.8
			c2.8,1.2,5.1,2.7,7,4.7c1.9,2,3.4,4.3,4.3,6.9c1,2.6,1.5,5.3,1.5,8.2c0,0.7,0,1.5-0.1,2.2c-0.1,0.7-0.1,1.3-0.2,1.9H66.9
			c0.2,2.8,1.2,5,3.1,6.4c1.8,1.5,3.9,2.2,6.3,2.2c1.9,0,3.7-0.5,5.4-1.4c1.7-0.9,2.9-2.1,3.5-3.7l10.8,3c-1.6,3.3-4.2,6-7.6,8
			C84.8,64.9,80.7,65.9,75.8,65.9z M84.7,40.3c-0.3-2.7-1.2-4.8-2.9-6.3c-1.6-1.5-3.7-2.3-6.1-2.3c-2.5,0-4.6,0.8-6.2,2.4
			c-1.6,1.6-2.6,3.7-2.8,6.3H84.7z"/>
		<path class="st0" d="M120.5,65.9c-3.6,0-7.1-0.6-10.5-1.7c-3.5-1.1-6.4-2.8-8.8-5l4.5-7.8c2.6,1.8,5,3.1,7.4,4.1
			c2.4,1,4.7,1.4,7,1.4c1.6,0,2.9-0.3,3.8-0.9c0.9-0.6,1.4-1.4,1.4-2.5s-0.6-2-1.7-2.7c-1.1-0.7-3.1-1.4-6-2.1
			c-2.8-0.8-5.2-1.6-7.1-2.3c-1.9-0.7-3.5-1.6-4.7-2.5c-1.2-0.9-2.1-1.9-2.6-3.1c-0.5-1.2-0.8-2.5-0.8-4.1c0-2.1,0.4-4.1,1.3-5.8
			c0.8-1.8,2-3.2,3.5-4.5c1.5-1.2,3.3-2.2,5.3-2.9c2-0.7,4.3-1,6.7-1c3.1,0,6.1,0.4,8.8,1.3c2.7,0.9,5.4,2.4,7.9,4.6l-4.9,7.6
			c-2.4-1.6-4.5-2.8-6.4-3.6c-1.9-0.7-3.7-1.1-5.4-1.1c-1.4,0-2.6,0.3-3.5,0.8c-1,0.6-1.4,1.4-1.4,2.7c0,1.2,0.5,2,1.6,2.6
			c1,0.6,3,1.2,5.8,1.9c3,0.8,5.5,1.6,7.5,2.4c2,0.8,3.7,1.7,5,2.7c1.3,1,2.2,2.1,2.8,3.4c0.6,1.3,0.9,2.8,0.9,4.5
			c0,4.1-1.5,7.4-4.6,9.9C129.9,64.7,125.7,65.9,120.5,65.9z"/>
		<path class="st0" d="M160.2,65.9c-3.6,0-7.1-0.6-10.5-1.7c-3.5-1.1-6.4-2.8-8.8-5l4.5-7.8c2.5,1.8,5,3.1,7.4,4.1
			c2.4,1,4.7,1.4,7,1.4c1.6,0,2.9-0.3,3.8-0.9c0.9-0.6,1.4-1.4,1.4-2.5s-0.6-2-1.7-2.7c-1.1-0.7-3.1-1.4-6-2.1
			c-2.8-0.8-5.2-1.6-7.1-2.3c-1.9-0.7-3.5-1.6-4.7-2.5c-1.2-0.9-2.1-1.9-2.6-3.1c-0.5-1.2-0.8-2.5-0.8-4.1c0-2.1,0.4-4.1,1.3-5.8
			c0.8-1.8,2-3.2,3.5-4.5c1.5-1.2,3.3-2.2,5.3-2.9c2-0.7,4.3-1,6.7-1c3.1,0,6.1,0.4,8.8,1.3c2.7,0.9,5.4,2.4,7.9,4.6l-4.9,7.6
			c-2.4-1.6-4.5-2.8-6.4-3.6c-1.9-0.7-3.7-1.1-5.4-1.1c-1.4,0-2.6,0.3-3.5,0.8c-1,0.6-1.4,1.4-1.4,2.7c0,1.2,0.5,2,1.6,2.6
			c1,0.6,3,1.2,5.8,1.9c3,0.8,5.5,1.6,7.5,2.4s3.7,1.7,5,2.7c1.3,1,2.2,2.1,2.8,3.4c0.6,1.3,0.9,2.8,0.9,4.5c0,4.1-1.5,7.4-4.6,9.9
			C169.7,64.7,165.5,65.9,160.2,65.9z"/>
	</g>
	<g class="st1">
		<path class="st0" d="M198.1,12.5c0,1-0.2,1.9-0.6,2.8c-0.4,0.9-0.9,1.6-1.6,2.3c-0.7,0.7-1.5,1.2-2.4,1.6s-1.9,0.6-2.9,0.6
			c-1,0-2-0.2-2.8-0.6s-1.7-0.9-2.3-1.6c-0.7-0.6-1.2-1.4-1.6-2.3c-0.4-0.9-0.6-1.8-0.6-2.8c0-1,0.2-2,0.6-2.8s0.9-1.6,1.6-2.3
			s1.5-1.2,2.3-1.6s1.8-0.6,2.8-0.6c1,0,2,0.2,2.9,0.6s1.7,0.9,2.4,1.6c0.7,0.7,1.2,1.4,1.6,2.3S198.1,11.5,198.1,12.5z M196.6,23.8
			v41.3h-12.4V23.8H196.6z"/>
	</g>
	<g class="st1">
		<path class="st0" d="M233.3,62.9c-1.8,0.7-3.8,1.4-6,2.1c-2.3,0.6-4.5,1-6.8,1c-1.6,0-3.1-0.2-4.5-0.6s-2.6-1-3.7-1.9
			c-1.1-0.9-1.9-2-2.5-3.5c-0.6-1.4-0.9-3.2-0.9-5.2V32.9h-5.3v-9.6h5.3V10h12.7v13.3h8.5v9.6h-8.5v17.5c0,1.4,0.3,2.4,1,3
			c0.7,0.6,1.6,0.9,2.6,0.9c1,0,1.9-0.2,2.9-0.5c1-0.3,1.9-0.7,2.6-1L233.3,62.9z"/>
		<path class="st0" d="M250.1,65.9c-2.1,0-4-0.3-5.8-1c-1.8-0.7-3.3-1.6-4.6-2.8s-2.3-2.6-3-4.2c-0.7-1.6-1.1-3.4-1.1-5.3
			c0-2.1,0.4-4,1.3-5.7c0.9-1.7,2.1-3.2,3.7-4.4c1.6-1.2,3.5-2.2,5.7-2.9c2.2-0.7,4.6-1,7.3-1c1.8,0,3.5,0.1,5.1,0.4
			c1.6,0.3,3.1,0.7,4.3,1.3v-1.9c0-4.8-2.8-7.3-8.4-7.3c-2.3,0-4.5,0.4-6.5,1.2c-2.1,0.8-4.2,1.9-6.5,3.5l-3.7-8
			c2.8-1.8,5.6-3.2,8.6-4.1c3-0.9,6.1-1.4,9.5-1.4c6.3,0,11.2,1.5,14.7,4.5c3.5,3,5.2,7.3,5.2,13.1v10.8c0,1.3,0.2,2.2,0.6,2.7
			c0.4,0.5,1.1,0.8,2.1,0.9v10.8c-1.1,0.3-2.1,0.4-3,0.5c-0.9,0.1-1.7,0.1-2.5,0.1c-2.4,0-4.2-0.5-5.4-1.4c-1.2-0.9-2-2.2-2.3-3.9
			l-0.2-1.9c-1.9,2.4-4.1,4.2-6.7,5.5C255.7,65.3,253,65.9,250.1,65.9z M253.9,56.8c1.4,0,2.7-0.2,4-0.7c1.3-0.5,2.4-1.1,3.2-1.9
			c1.2-1,1.8-2,1.8-3v-4c-1.1-0.4-2.3-0.8-3.6-1c-1.3-0.2-2.5-0.4-3.6-0.4c-2.3,0-4.3,0.5-5.8,1.6c-1.5,1.1-2.3,2.4-2.3,4.1
			c0,1.5,0.6,2.8,1.8,3.8C250.6,56.3,252,56.8,253.9,56.8z"/>
	</g>
</g>
</svg>
