<svg xmlns="http://www.w3.org/2000/svg" width="274.742" height="66.911" viewBox="0 0 274.742 66.911">
  <g id="logo" transform="translate(0.5 0.5)">
    <path id="Union_4" data-name="Union 4" d="M240.247,64.915a13.077,13.077,0,0,1-7.481-7.009,12.7,12.7,0,0,1-1.1-5.3,12.313,12.313,0,0,1,1.293-5.656,12.926,12.926,0,0,1,3.642-4.38,17.9,17.9,0,0,1,5.563-2.868,23.216,23.216,0,0,1,7.13-1.036,28.258,28.258,0,0,1,5.014.438,16.305,16.305,0,0,1,4.231,1.314V38.509q0-7.247-8.226-7.248a18.05,18.05,0,0,0-6.424,1.154,30.791,30.791,0,0,0-6.425,3.466l-3.682-7.966a32.676,32.676,0,0,1,8.461-4.062,31.488,31.488,0,0,1,9.323-1.353q9.324,0,14.418,4.461t5.093,13.063V50.776a4.485,4.485,0,0,0,.589,2.668,2.883,2.883,0,0,0,2.075.917V65.114a20.721,20.721,0,0,1-2.977.517q-1.333.12-2.429.12a8.606,8.606,0,0,1-5.328-1.394,6.186,6.186,0,0,1-2.273-3.942L260.5,58.5a18.881,18.881,0,0,1-6.542,5.5,17.66,17.66,0,0,1-8.032,1.911A15.881,15.881,0,0,1,240.247,64.915Zm5.485-17.562A4.877,4.877,0,0,0,243.5,51.5a4.746,4.746,0,0,0,1.723,3.783,6.515,6.515,0,0,0,4.387,1.473,11.2,11.2,0,0,0,3.957-.718,9.217,9.217,0,0,0,3.174-1.911,3.97,3.97,0,0,0,1.8-3.027V47.114a20.01,20.01,0,0,0-3.564-1,19.57,19.57,0,0,0-3.565-.359A9.54,9.54,0,0,0,245.732,47.352ZM212.354,65.313a9.831,9.831,0,0,1-3.642-1.912,8.93,8.93,0,0,1-2.468-3.466,13.362,13.362,0,0,1-.9-5.177V32.935h-5.249V23.3h5.249V9.994h12.535V23.3h8.384v9.639h-8.384V50.379a3.839,3.839,0,0,0,1.019,2.987,3.713,3.713,0,0,0,2.585.915,9.436,9.436,0,0,0,2.9-.478,17.564,17.564,0,0,0,2.585-1.036l2.43,10.117a49.445,49.445,0,0,1-5.917,2.071,24.155,24.155,0,0,1-6.7.955A15.935,15.935,0,0,1,212.354,65.313ZM147.208,64.2a23.507,23.507,0,0,1-8.619-4.979l4.466-7.806a36.9,36.9,0,0,0,7.325,4.061,18.362,18.362,0,0,0,6.857,1.435,6.814,6.814,0,0,0,3.76-.877,2.863,2.863,0,0,0,1.332-2.549,3.008,3.008,0,0,0-1.684-2.668,25.74,25.74,0,0,0-5.917-2.111q-4.154-1.194-7.012-2.31a19.565,19.565,0,0,1-4.661-2.47,7.97,7.97,0,0,1-2.587-3.106,10.083,10.083,0,0,1-.784-4.142,13.359,13.359,0,0,1,1.254-5.815,13.061,13.061,0,0,1,3.448-4.46,16.273,16.273,0,0,1,5.21-2.868,20.065,20.065,0,0,1,6.543-1.035,28.668,28.668,0,0,1,8.657,1.273,21.586,21.586,0,0,1,7.8,4.621l-4.857,7.646a33.127,33.127,0,0,0-6.268-3.585,14.125,14.125,0,0,0-5.327-1.114,6.623,6.623,0,0,0-3.448.837,3.122,3.122,0,0,0,.117,5.3,24.973,24.973,0,0,0,5.68,1.912,71.324,71.324,0,0,1,7.4,2.39,19.745,19.745,0,0,1,4.9,2.668,9.025,9.025,0,0,1,2.742,3.385,10.98,10.98,0,0,1,.863,4.541,12.03,12.03,0,0,1-4.545,9.877q-4.54,3.663-12.3,3.663A32.245,32.245,0,0,1,147.208,64.2Zm-39.1,0a23.5,23.5,0,0,1-8.618-4.979l4.466-7.806a36.922,36.922,0,0,0,7.325,4.061,18.357,18.357,0,0,0,6.856,1.435,6.817,6.817,0,0,0,3.761-.877,2.862,2.862,0,0,0,1.331-2.549,3.006,3.006,0,0,0-1.684-2.668,25.719,25.719,0,0,0-5.915-2.111q-4.153-1.194-7.013-2.31a19.607,19.607,0,0,1-4.662-2.47,7.975,7.975,0,0,1-2.586-3.106,10.083,10.083,0,0,1-.783-4.142,13.346,13.346,0,0,1,1.253-5.815,13.082,13.082,0,0,1,3.448-4.46,16.258,16.258,0,0,1,5.211-2.868,20.046,20.046,0,0,1,6.542-1.035,28.664,28.664,0,0,1,8.657,1.273,21.593,21.593,0,0,1,7.8,4.621l-4.857,7.646a33.073,33.073,0,0,0-6.268-3.585,14.125,14.125,0,0,0-5.327-1.114,6.629,6.629,0,0,0-3.448.837,3.123,3.123,0,0,0,.119,5.3,24.973,24.973,0,0,0,5.68,1.912,71.463,71.463,0,0,1,7.4,2.39,19.768,19.768,0,0,1,4.9,2.668,9.022,9.022,0,0,1,2.742,3.385,10.98,10.98,0,0,1,.863,4.541,12.028,12.028,0,0,1-4.545,9.877q-4.542,3.663-12.3,3.663A32.238,32.238,0,0,1,108.112,64.2ZM65.3,64.2a20.63,20.63,0,0,1-6.973-4.66,19.969,19.969,0,0,1-4.348-6.81,22.275,22.275,0,0,1-1.488-8.085,24.455,24.455,0,0,1,1.488-8.561,20.8,20.8,0,0,1,4.31-7.05,20.108,20.108,0,0,1,6.934-4.779A23.694,23.694,0,0,1,74.581,22.5,23.409,23.409,0,0,1,83.9,24.253,20.469,20.469,0,0,1,90.8,28.993a20.138,20.138,0,0,1,4.271,6.89,23.4,23.4,0,0,1,1.45,8.2q0,1.116-.079,2.191a15.921,15.921,0,0,1-.235,1.871H65.8a8.641,8.641,0,0,0,3.017,6.413,9.5,9.5,0,0,0,6.15,2.19A11.1,11.1,0,0,0,80.259,55.4a6.864,6.864,0,0,0,3.408-3.663L94.323,54.76A19.367,19.367,0,0,1,86.8,62.8,23.039,23.039,0,0,1,74.58,65.911,23.958,23.958,0,0,1,65.3,64.2ZM68.35,34.009a9.82,9.82,0,0,0-2.782,6.253H83.275a9.657,9.657,0,0,0-2.821-6.292,8.418,8.418,0,0,0-6.032-2.31A8.3,8.3,0,0,0,68.35,34.009ZM181.211,65.114v-41.3h12.144v41.3ZM12.656,62.736a19.706,19.706,0,0,1-6.69-4.98,23.558,23.558,0,0,1-4.389-7.5A27.023,27.023,0,0,1,0,40.864a29.083,29.083,0,0,1,1.448-9.276,22.85,22.85,0,0,1,4.094-7.493,19.444,19.444,0,0,1,6.26-4.979A17.508,17.508,0,0,1,19.769,17.3a16.28,16.28,0,0,1,8.48,2.253,15.781,15.781,0,0,1,3.543,2.865c-1.767,3.02-2.908,5.846-3.017,8.248l4.573,3.449c3.433.374,8-4.741,12.5-11.434.631-.924,1.251-1.883,1.872-2.86V48.052a4.865,4.865,0,0,0,.639,2.9,3.159,3.159,0,0,0,2.257,1v11.7a24.931,24.931,0,0,1-3.235.562c-.91.089-1.765.13-2.56.13a10.063,10.063,0,0,1-5.79-1.513,5.873,5.873,0,0,1-2.559-4.377l-.256-2.339a15.36,15.36,0,0,1-6.438,6.326,18.637,18.637,0,0,1-8.648,2.081A20.107,20.107,0,0,1,12.656,62.736ZM20.472,37.3c-1.97,2.688-.588,6.979-6.921,12.951,0,0,11.44,1.226,16.511-5.7a6.146,6.146,0,0,0-1.233-8.5A5.912,5.912,0,0,0,20.472,37.3ZM184.54,19.1a7.829,7.829,0,0,1-2.292-1.555,7.149,7.149,0,0,1-1.567-2.271,6.809,6.809,0,0,1-.567-2.767,7.054,7.054,0,0,1,.567-2.829,7.382,7.382,0,0,1,3.859-3.863,6.95,6.95,0,0,1,2.782-.559,7.478,7.478,0,0,1,2.879.559,7.376,7.376,0,0,1,2.37,1.554,7.453,7.453,0,0,1,1.606,2.309,6.835,6.835,0,0,1,.589,2.829,6.6,6.6,0,0,1-.589,2.767,7.267,7.267,0,0,1-1.606,2.271A7.853,7.853,0,0,1,190.2,19.1a7.264,7.264,0,0,1-2.879.577A6.754,6.754,0,0,1,184.54,19.1ZM33.7,0H47.467V2.853C45.5,4.856,43.586,7,41.631,9.2c-.812.915-1.588,1.84-2.373,2.767-1.946,2.3-3.59,4.62-5.557,6.887Z" fill="#464646" stroke="rgba(0,0,0,0)" stroke-miterlimit="10" stroke-width="1"/>
  </g>
</svg>
