<svg xmlns="http://www.w3.org/2000/svg" width="274.742" height="66.911" viewBox="0 0 274.742 66.911">
  <g id="logo" transform="translate(0.5 0.5)">
    <g id="logo-color">
      <path id="Union_4" data-name="Union 4" d="M240.247,64.915a13.087,13.087,0,0,1-7.482-7.009,12.7,12.7,0,0,1-1.1-5.3,12.32,12.32,0,0,1,1.292-5.656,12.933,12.933,0,0,1,3.643-4.38,17.854,17.854,0,0,1,5.563-2.868,23.2,23.2,0,0,1,7.129-1.036,28.324,28.324,0,0,1,5.015.438,16.337,16.337,0,0,1,4.231,1.314V38.509q0-7.247-8.227-7.249a18.045,18.045,0,0,0-6.423,1.155,30.717,30.717,0,0,0-6.425,3.466l-3.682-7.967a32.69,32.69,0,0,1,8.461-4.061,31.479,31.479,0,0,1,9.323-1.354q9.323,0,14.417,4.46t5.093,13.063V50.776a4.5,4.5,0,0,0,.588,2.669,2.892,2.892,0,0,0,2.076.916V65.114a20.719,20.719,0,0,1-2.977.517q-1.332.12-2.429.121a8.608,8.608,0,0,1-5.328-1.4,6.184,6.184,0,0,1-2.272-3.942L260.5,58.5a18.875,18.875,0,0,1-6.542,5.5,17.638,17.638,0,0,1-8.032,1.912A15.89,15.89,0,0,1,240.247,64.915Zm5.485-17.563A4.877,4.877,0,0,0,243.5,51.5a4.749,4.749,0,0,0,1.723,3.784,6.517,6.517,0,0,0,4.387,1.472,11.2,11.2,0,0,0,3.956-.718,9.213,9.213,0,0,0,3.174-1.911,3.968,3.968,0,0,0,1.8-3.028V47.114a19.923,19.923,0,0,0-3.564-1,19.557,19.557,0,0,0-3.566-.358A9.536,9.536,0,0,0,245.732,47.353Zm-33.377,17.96a9.834,9.834,0,0,1-3.643-1.912,8.935,8.935,0,0,1-2.468-3.466,13.353,13.353,0,0,1-.9-5.177V32.935h-5.25V23.3h5.25V9.994h12.536V23.3h8.383v9.638h-8.383V50.378a3.839,3.839,0,0,0,1.019,2.987,3.718,3.718,0,0,0,2.585.915,9.432,9.432,0,0,0,2.9-.478,17.707,17.707,0,0,0,2.585-1.035l2.43,10.116a49.314,49.314,0,0,1-5.917,2.071,24.147,24.147,0,0,1-6.7.956A15.927,15.927,0,0,1,212.354,65.313ZM147.208,64.2a23.516,23.516,0,0,1-8.619-4.979l4.467-7.806a36.915,36.915,0,0,0,7.324,4.062,18.37,18.37,0,0,0,6.856,1.434,6.809,6.809,0,0,0,3.76-.877,2.861,2.861,0,0,0,1.332-2.549,3.006,3.006,0,0,0-1.684-2.668,25.688,25.688,0,0,0-5.917-2.111q-4.153-1.193-7.013-2.31a19.534,19.534,0,0,1-4.66-2.47,7.971,7.971,0,0,1-2.588-3.1,10.091,10.091,0,0,1-.783-4.143,13.345,13.345,0,0,1,1.254-5.815,13.052,13.052,0,0,1,3.447-4.46,16.285,16.285,0,0,1,5.21-2.868,20.078,20.078,0,0,1,6.543-1.034,28.665,28.665,0,0,1,8.658,1.274,21.577,21.577,0,0,1,7.795,4.62l-4.856,7.646a33.125,33.125,0,0,0-6.268-3.585,14.115,14.115,0,0,0-5.327-1.114,6.635,6.635,0,0,0-3.447.836,3.123,3.123,0,0,0,.117,5.3,24.967,24.967,0,0,0,5.68,1.912,71.374,71.374,0,0,1,7.4,2.39,19.757,19.757,0,0,1,4.9,2.668,9.035,9.035,0,0,1,2.742,3.386,10.981,10.981,0,0,1,.862,4.541,12.027,12.027,0,0,1-4.545,9.877q-4.54,3.664-12.3,3.664A32.257,32.257,0,0,1,147.208,64.2Zm-39.1,0a23.5,23.5,0,0,1-8.618-4.979l4.466-7.806a36.971,36.971,0,0,0,7.325,4.062,18.365,18.365,0,0,0,6.855,1.434,6.814,6.814,0,0,0,3.761-.877,2.861,2.861,0,0,0,1.332-2.549,3.005,3.005,0,0,0-1.685-2.668,25.66,25.66,0,0,0-5.916-2.111q-4.153-1.193-7.012-2.31a19.549,19.549,0,0,1-4.662-2.47,7.976,7.976,0,0,1-2.587-3.1,10.091,10.091,0,0,1-.783-4.143,13.333,13.333,0,0,1,1.254-5.815,13.063,13.063,0,0,1,3.447-4.46,16.285,16.285,0,0,1,5.21-2.868,20.073,20.073,0,0,1,6.542-1.034,28.661,28.661,0,0,1,8.658,1.274,21.585,21.585,0,0,1,7.795,4.62l-4.857,7.646a33.1,33.1,0,0,0-6.269-3.585,14.119,14.119,0,0,0-5.327-1.114,6.64,6.64,0,0,0-3.447.836,3.123,3.123,0,0,0,.118,5.3,24.984,24.984,0,0,0,5.68,1.912,71.4,71.4,0,0,1,7.4,2.39,19.758,19.758,0,0,1,4.9,2.668,9.018,9.018,0,0,1,2.742,3.386,10.981,10.981,0,0,1,.862,4.541,12.027,12.027,0,0,1-4.545,9.877q-4.543,3.664-12.3,3.664A32.249,32.249,0,0,1,108.113,64.2Zm-42.818,0a20.62,20.62,0,0,1-6.973-4.661,19.954,19.954,0,0,1-4.348-6.809,22.276,22.276,0,0,1-1.489-8.085,24.462,24.462,0,0,1,1.489-8.562,20.808,20.808,0,0,1,4.31-7.05,20.1,20.1,0,0,1,6.934-4.779A23.7,23.7,0,0,1,74.58,22.5,23.42,23.42,0,0,1,83.9,24.253,20.473,20.473,0,0,1,90.8,28.993a20.148,20.148,0,0,1,4.271,6.89,23.392,23.392,0,0,1,1.45,8.2q0,1.116-.079,2.191a15.928,15.928,0,0,1-.235,1.871H65.8a8.644,8.644,0,0,0,3.017,6.412,9.5,9.5,0,0,0,6.151,2.191A11.112,11.112,0,0,0,80.259,55.4a6.866,6.866,0,0,0,3.407-3.664L94.323,54.76A19.357,19.357,0,0,1,86.8,62.8a23.039,23.039,0,0,1-12.222,3.106A23.97,23.97,0,0,1,65.295,64.2Zm3.055-30.19a9.826,9.826,0,0,0-2.782,6.253H83.275a9.66,9.66,0,0,0-2.821-6.293,8.417,8.417,0,0,0-6.033-2.31A8.3,8.3,0,0,0,68.35,34.009Zm112.861,31.1v-41.3h12.145v41.3ZM12.656,62.736a19.723,19.723,0,0,1-6.691-4.981,23.568,23.568,0,0,1-4.389-7.5A27.051,27.051,0,0,1,0,40.864a29.1,29.1,0,0,1,1.447-9.275,22.856,22.856,0,0,1,4.094-7.493,19.436,19.436,0,0,1,6.26-4.979,17.513,17.513,0,0,1,7.967-1.82,16.287,16.287,0,0,1,8.481,2.254,15.753,15.753,0,0,1,3.543,2.865c-1.768,3.02-2.908,5.846-3.017,8.248l4.573,3.449c3.433.374,8-4.741,12.5-11.434.63-.923,1.251-1.882,1.871-2.859V48.052a4.866,4.866,0,0,0,.639,2.9,3.163,3.163,0,0,0,2.258,1v11.7a25.1,25.1,0,0,1-3.236.562q-1.365.132-2.56.131a10.064,10.064,0,0,1-5.791-1.514,5.874,5.874,0,0,1-2.56-4.377l-.256-2.339a15.354,15.354,0,0,1-6.437,6.325,18.636,18.636,0,0,1-8.648,2.082A20.115,20.115,0,0,1,12.656,62.736ZM20.471,37.3c-1.97,2.688-.589,6.979-6.921,12.95,0,0,11.44,1.227,16.511-5.7a6.146,6.146,0,0,0-1.233-8.5A5.912,5.912,0,0,0,20.471,37.3ZM33.7,0H47.467V2.853C45.5,4.856,43.587,7,41.631,9.2c-.813.915-1.589,1.84-2.374,2.767-1.946,2.3-3.59,4.62-5.557,6.887Z" fill="#464646" stroke="rgba(0,0,0,0)" stroke-miterlimit="10" stroke-width="1"/>
      <circle id="Ellipse_132" data-name="Ellipse 132" cx="8" cy="8" r="8" transform="translate(179.201 4.238)" fill="#03a3c9" stroke="rgba(0,0,0,0)" stroke-miterlimit="10" stroke-width="1"/>
    </g>
  </g>
</svg>
