<svg id="Group_18" data-name="Group 18" xmlns="http://www.w3.org/2000/svg" width="264.856" height="39.134" viewBox="0 0 264.856 39.134">
  <path id="Path_101" data-name="Path 101" d="M154.637,21.715l-.058.359-.065-.359L148.677,4.953h-3.338l7.612,21.633v.174c-.456,2.072-1.754,4.612-2.935,5.41a5.219,5.219,0,0,1-3.037.8,10.12,10.12,0,0,1-1.676-.236v2.607a12.045,12.045,0,0,0,2.276.325,6.765,6.765,0,0,0,4.122-1.24c1.376-1,2.918-3.6,3.65-5.829l7.59-23.641h-3.333Z" transform="translate(101.915 3.473)" fill="#373a4a"/>
  <path id="Path_102" data-name="Path 102" d="M151.544,16.651V14.594c0-3.576-.929-6.21-2.69-7.833-1.5-1.382-3.622-2.05-6.414-2.05a9.522,9.522,0,0,0-3.917.776,7.849,7.849,0,0,0-2.94,2.244,13.208,13.208,0,0,0-2.4,8.277c0,3.867,1.094,6.823,3.11,8.786a9.52,9.52,0,0,0,6.729,2.513c4.881,0,7.273-2.671,8.276-5.087l-2.738-1.312a5.8,5.8,0,0,1-5.538,3.7,5.674,5.674,0,0,1-4.679-2.232,9.324,9.324,0,0,1-1.666-5.723Zm-3.323-2.7h-11.45c.3-4.463,2.123-6.544,5.754-6.544C146.423,7.411,148.209,9.489,148.221,13.955Z" transform="translate(93.416 3.304)" fill="#373a4a"/>
  <path id="Path_103" data-name="Path 103" d="M34.117,8a8.533,8.533,0,0,0-6.971-3.3A8.555,8.555,0,0,0,20.171,8a12.988,12.988,0,0,0-2.44,8,12.986,12.986,0,0,0,2.44,8,8.537,8.537,0,0,0,6.976,3.3,8.529,8.529,0,0,0,6.972-3.3,12.992,12.992,0,0,0,2.445-8A12.982,12.982,0,0,0,34.117,8ZM27.147,24.6c-3.658,0-5.844-3.217-5.844-8.6s2.185-8.6,5.844-8.6,5.837,3.216,5.837,8.6S30.8,24.6,27.147,24.6Z" transform="translate(12.436 3.297)" fill="#373a4a"/>
  <path id="Path_104" data-name="Path 104" d="M34.676,14.566c.839-4.478,3.185-6.595,7.241-6.595V4.788c-3.452,0-5.475,1.349-7.243,4.516l-.031.039.032-.277V5.123H31.268V26.887h3.408Z" transform="translate(21.931 3.358)" fill="#373a4a"/>
  <path id="Path_105" data-name="Path 105" d="M84.055,7.637a4.285,4.285,0,0,1,1.4-3.367,5.9,5.9,0,0,1,3.959-1.2A7.245,7.245,0,0,1,94,4.554a6.747,6.747,0,0,1,2.3,3.653l3.175-.39C98.092,3.072,94.681.178,89.495.178a9.837,9.837,0,0,0-6.532,2.248,7.21,7.21,0,0,0-2.484,5.46,6.531,6.531,0,0,0,2.909,5.574A24.454,24.454,0,0,0,89.583,16.3c3.821,1.359,7.435,2.639,7.435,6.108a4.893,4.893,0,0,1-1.513,3.738,6.89,6.89,0,0,1-4.772,1.5c-3.638,0-6.28-2.037-7.767-5.955l-3.239.871A16.207,16.207,0,0,0,83.348,28a10.321,10.321,0,0,0,7.221,2.53c3.508,0,6.166-.919,7.906-2.729a8.5,8.5,0,0,0,2.186-5.969A6.727,6.727,0,0,0,97.6,16.057a25.169,25.169,0,0,0-6.416-2.87C87.5,11.926,84.018,10.737,84.055,7.637Z" transform="translate(55.92 0.125)" fill="#373a4a"/>
  <path id="Path_106" data-name="Path 106" d="M96.547,10.578h-3.27v-2.7h3.27V.759h3.408V7.881h3.661v2.7H99.955V25.451c0,.994.233,1.911,2.518,1.911.378,0,.766-.014,1.143-.036v2.4a10.942,10.942,0,0,1-2.261.339,6.3,6.3,0,0,1-3.473-.767,2.977,2.977,0,0,1-1.336-2.625Z" transform="translate(65.424 0.532)" fill="#373a4a"/>
  <path id="Path_107" data-name="Path 107" d="M131.119,25.984c0,.994.316,1.911,2.6,1.911.378,0,.761-.014,1.145-.036v2.4a10.968,10.968,0,0,1-2.263.339,6.283,6.283,0,0,1-3.471-.767,3.023,3.023,0,0,1-1.417-2.625V0h3.41Z" transform="translate(89.577)" fill="#373a4a"/>
  <path id="Path_108" data-name="Path 108" d="M68.075,10.764c1.16-1.239,3.736-3.326,6.1-3.326s3.42,1.167,3.42,3.775V26.928H81V11.13c0-4.709-3.359-6.387-6.537-6.387a8.747,8.747,0,0,0-6.392,3.33h0V5.162H64.667V26.928h3.408Z" transform="translate(45.357 3.327)" fill="#373a4a"/>
  <path id="Path_109" data-name="Path 109" d="M64.913,24.228a2.606,2.606,0,0,0,1.468,2.4,5.011,5.011,0,0,0,3,.214V24.531a1.169,1.169,0,0,1-1.257-1.325V12.689L68.108,11.3a5.924,5.924,0,0,0-2.5-5.077,9.089,9.089,0,0,0-5.22-1.477,8.765,8.765,0,0,0-8.111,4.664l2.748,1.433a5.381,5.381,0,0,1,5.4-3.4c2.9,0,4.361,1.29,4.361,3.828l0,.783a.635.635,0,0,1-.06.311c-.107.136-.391.24-1.13.316-4.06.453-6.755,1.138-8.738,2.413a6.857,6.857,0,0,0-3.507,5.968,6.4,6.4,0,0,0,6.464,6.282C61.408,27.456,63.77,25.981,64.913,24.228Zm-.02-3.641c-.158,1.9-3.7,4.219-6.608,4.056a3.617,3.617,0,0,1-3.342-3.474c-.265-3.536,2.43-5.031,8.362-5.683a4.764,4.764,0,0,0,1.587-.412Z" transform="translate(36.026 3.331)" fill="#373a4a"/>
  <path id="Path_110" data-name="Path 110" d="M114.851,24.228a2.608,2.608,0,0,0,1.47,2.4,5.006,5.006,0,0,0,2.994.214V24.531a1.168,1.168,0,0,1-1.256-1.325V12.689l-.015-1.387a5.921,5.921,0,0,0-2.493-5.077,9.1,9.1,0,0,0-5.22-1.477,8.77,8.77,0,0,0-8.112,4.664l2.749,1.433a5.379,5.379,0,0,1,5.4-3.4c2.9,0,4.361,1.29,4.361,3.828l0,.783a.635.635,0,0,1-.06.311c-.107.136-.391.24-1.13.316-4.06.453-6.753,1.138-8.738,2.413a6.855,6.855,0,0,0-3.5,5.968,6.4,6.4,0,0,0,6.462,6.282C111.344,27.456,113.709,25.981,114.851,24.228Zm-.02-3.641c-.157,1.9-3.7,4.219-6.608,4.056a3.616,3.616,0,0,1-3.34-3.474c-.267-3.536,2.43-5.031,8.362-5.683a4.745,4.745,0,0,0,1.586-.412Z" transform="translate(71.054 3.331)" fill="#373a4a"/>
  <path id="Path_111" data-name="Path 111" d="M12.881,24.135,5.664.416H0V29.954H3.408V2.939l.073.1,8.1,26.914h2.647l8.1-26.914.075-.1V29.954H25.8V.416H20.129L12.92,24.135l-.02.124Z" transform="translate(0 0.292)" fill="#373a4a"/>
  <path id="Path_112" data-name="Path 112" d="M118.012,10.764c1.159-1.239,3.736-3.326,6.1-3.326s3.418,1.167,3.418,3.775V26.928h3.408V11.13c0-4.709-3.357-6.387-6.538-6.387a8.747,8.747,0,0,0-6.392,3.33h0l0-2.911h-3.406V26.928h3.406Z" transform="translate(80.384 3.327)" fill="#373a4a"/>
  <path id="Path_113" data-name="Path 113" d="M53.769,5.147l-.726,2.3a6.422,6.422,0,0,0-5.47-2.712C43.732,4.732,38.3,7.32,38.3,16c0,8.43,5.434,11.268,9.109,11.268a7.021,7.021,0,0,0,5.427-2.884L53,24.3v4.136c0,2.9-2.494,4.674-5.179,4.674a16.1,16.1,0,0,1-6.807-1.376v2.947a18.083,18.083,0,0,0,6.39,1.12c6.037,0,8.912-3.333,8.912-8.148V5.147ZM53,20.6a6.016,6.016,0,0,1-5.179,3.971c-3.507,0-5.953-2.186-5.953-8.738,0-5.509,2.2-8.4,5.953-8.4A6.432,6.432,0,0,1,53,10.241Z" transform="translate(26.862 3.319)" fill="#373a4a"/>
</svg>
