<svg xmlns="http://www.w3.org/2000/svg" width="84.806" height="67.553" viewBox="0 0 84.806 67.553">
  <g id="Group_2025" data-name="Group 2025" transform="translate(-2522.798 -967.438)">
    <g id="Group_2023" data-name="Group 2023" transform="translate(2522.798 967.438)">
      <path id="Path_3192" data-name="Path 3192" d="M2552.491,1034.991h-23.653a6.048,6.048,0,0,1-6.041-6.041V973.479a6.048,6.048,0,0,1,6.041-6.041h23.653a6.047,6.047,0,0,1,6.041,6.041V1010.7a1.311,1.311,0,1,1-2.622,0V973.479a3.423,3.423,0,0,0-3.419-3.419h-23.653a3.423,3.423,0,0,0-3.419,3.419v55.471a3.423,3.423,0,0,0,3.419,3.419h23.653a3.423,3.423,0,0,0,3.419-3.419V1016.5a1.311,1.311,0,1,1,2.622,0v12.448A6.047,6.047,0,0,1,2552.491,1034.991Z" transform="translate(-2522.798 -967.438)" fill="#474747"/>
      <path id="Path_3193" data-name="Path 3193" d="M2557.221,1288.672h-33.112a1.311,1.311,0,0,1,0-2.622h33.112a1.311,1.311,0,1,1,0,2.622Z" transform="translate(-2522.798 -1230.357)" fill="#474747"/>
      <path id="Path_3194" data-name="Path 3194" d="M2612.669,1315.23h-3.309a1.311,1.311,0,0,1,0-2.622h3.309a1.311,1.311,0,1,1,0,2.622Z" transform="translate(-2593.147 -1252.273)" fill="#474747"/>
    </g>
    <g id="Group_2024" data-name="Group 2024" transform="translate(2571.869 967.438)">
      <path id="Path_3195" data-name="Path 3195" d="M2833.222,1034.991H2809.57a6.048,6.048,0,0,1-6.041-6.041V993.76a1.311,1.311,0,0,1,2.622,0v35.19a3.423,3.423,0,0,0,3.419,3.419h23.652a3.423,3.423,0,0,0,3.419-3.419V973.479a3.423,3.423,0,0,0-3.419-3.419H2809.57a3.423,3.423,0,0,0-3.419,3.419v14.55a1.311,1.311,0,0,1-2.622,0v-14.55a6.048,6.048,0,0,1,6.041-6.041h23.652a6.048,6.048,0,0,1,6.041,6.041v55.471A6.048,6.048,0,0,1,2833.222,1034.991Z" transform="translate(-2803.529 -967.438)" fill="#474747"/>
      <path id="Path_3196" data-name="Path 3196" d="M2837.952,1288.672H2804.84a1.311,1.311,0,1,1,0-2.622h33.112a1.311,1.311,0,1,1,0,2.622Z" transform="translate(-2803.529 -1230.357)" fill="#474747"/>
      <path id="Path_3197" data-name="Path 3197" d="M2893.4,1315.23h-3.309a1.311,1.311,0,1,1,0-2.622h3.309a1.311,1.311,0,0,1,0,2.622Z" transform="translate(-2873.878 -1252.273)" fill="#474747"/>
    </g>
    <path id="Path_3198" data-name="Path 3198" d="M2635.922,1199.661a5.47,5.47,0,1,1,5.47-5.47A5.476,5.476,0,0,1,2635.922,1199.661Zm0-8.319a2.848,2.848,0,1,0,2.848,2.849A2.852,2.852,0,0,0,2635.922,1191.342Z" transform="translate(-88.836 -182.602)" fill="#474747"/>
    <path id="Path_3199" data-name="Path 3199" d="M2681.265,1101.807h-1.91a1.311,1.311,0,1,1,0-2.622h1.91a10.7,10.7,0,0,0,10.692-10.692,13.329,13.329,0,0,1,13.314-13.314h8.246a1.311,1.311,0,1,1,0,2.622h-8.246a10.7,10.7,0,0,0-10.692,10.692A13.329,13.329,0,0,1,2681.265,1101.807Z" transform="translate(-128.109 -88.908)" fill="#474747"/>
    <path id="Path_3200" data-name="Path 3200" d="M2856.2,1064.04a1.311,1.311,0,0,1-.833-2.324l2.724-2.239-2.781-2.571a1.311,1.311,0,0,1,1.78-1.926l3.886,3.591a1.311,1.311,0,0,1-.058,1.976l-3.886,3.193A1.3,1.3,0,0,1,2856.2,1064.04Z" transform="translate(-274.038 -71.954)" fill="#474747"/>
  </g>
</svg>
