<svg xmlns="http://www.w3.org/2000/svg" width="89.417" height="89.429" viewBox="0 0 89.417 89.429">
  <g id="_8" data-name="8" transform="translate(1.861 1.862)">
    <g id="Group_7" data-name="Group 7" transform="translate(6.259 6.926)">
      <path id="Path_46" data-name="Path 46" d="M725.169,332.372l-3.048.777,3.967-15.563,52.805-52.805" transform="translate(-722.121 -261.043)" fill="none" stroke="#484751" stroke-linecap="square" stroke-miterlimit="10" stroke-width="2.632"/>
      <path id="Path_47" data-name="Path 47" d="M788.881,274.3l-52.805,52.805-6.567,1.674" transform="translate(-720.512 -258.969)" fill="none" stroke="#484751" stroke-linecap="square" stroke-miterlimit="10" stroke-width="2.632"/>
      <line id="Line_9" data-name="Line 9" x2="7.67" y2="7.67" transform="translate(60.698 7.664)" fill="none" stroke="#484751" stroke-linecap="square" stroke-miterlimit="10" stroke-width="2.632"/>
      <path id="Path_48" data-name="Path 48" d="M780.337,277.045l2.371-2.371a4.665,4.665,0,0,0,0-6.6l-5-5a4.665,4.665,0,0,0-6.6,0l-2.371,2.371" transform="translate(-711.969 -261.711)" fill="none" stroke="#484751" stroke-linecap="square" stroke-miterlimit="10" stroke-width="2.632"/>
      <line id="Line_10" data-name="Line 10" x1="47.365" y2="47.365" transform="translate(15.205 9.536)" fill="none" stroke="#484751" stroke-linecap="square" stroke-miterlimit="10" stroke-width="2.632"/>
      <line id="Line_11" data-name="Line 11" x2="5.368" y2="5.368" transform="translate(5.521 57.718)" fill="none" stroke="#484751" stroke-linecap="square" stroke-miterlimit="10" stroke-width="2.632"/>
    </g>
    <line id="Line_12" data-name="Line 12" x1="22.687" y1="22.687" transform="translate(40.325 57.035)" fill="none" stroke="#484751" stroke-linecap="square" stroke-miterlimit="10" stroke-width="2.632"/>
    <path id="Path_49" data-name="Path 49" d="M767.495,292.825l24.181,24.193-16.7,16.7" transform="translate(-705.982 -248.01)" fill="none" stroke="#484751" stroke-linecap="square" stroke-miterlimit="10" stroke-width="2.632"/>
    <path id="Path_50" data-name="Path 50" d="M740.017,295.771l-23.036-23.036,16.7-16.71,28.085,28.1" transform="translate(-716.981 -256.024)" fill="none" stroke="#484751" stroke-linecap="square" stroke-miterlimit="10" stroke-width="2.632"/>
    <line id="Line_13" data-name="Line 13" x1="3.06" y2="3.06" transform="translate(74.916 61.816)" fill="none" stroke="#484751" stroke-linecap="square" stroke-miterlimit="10" stroke-width="2.632"/>
    <line id="Line_14" data-name="Line 14" x1="3.06" y2="3.06" transform="translate(68.155 55.055)" fill="none" stroke="#484751" stroke-linecap="square" stroke-miterlimit="10" stroke-width="2.632"/>
    <line id="Line_15" data-name="Line 15" x1="3.06" y2="3.06" transform="translate(61.394 48.294)" fill="none" stroke="#484751" stroke-linecap="square" stroke-miterlimit="10" stroke-width="2.632"/>
    <line id="Line_16" data-name="Line 16" x1="3.06" y2="3.06" transform="translate(34.35 21.251)" fill="none" stroke="#484751" stroke-linecap="square" stroke-miterlimit="10" stroke-width="2.632"/>
    <line id="Line_17" data-name="Line 17" x1="4.943" y2="4.943" transform="translate(25.706 14.49)" fill="none" stroke="#484751" stroke-linecap="square" stroke-miterlimit="10" stroke-width="2.632"/>
    <line id="Line_18" data-name="Line 18" x1="3.06" y2="3.06" transform="translate(20.828 7.729)" fill="none" stroke="#484751" stroke-linecap="square" stroke-miterlimit="10" stroke-width="2.632"/>
    <line id="Line_19" data-name="Line 19" x1="4.943" y2="4.943" transform="translate(66.271 55.055)" fill="none" stroke="#484751" stroke-linecap="square" stroke-miterlimit="10" stroke-width="2.632"/>
  </g>
</svg>
