<?xml version="1.0" encoding="utf-8"?>
<!-- Generator: Adobe Illustrator 16.0.0, SVG Export Plug-In . SVG Version: 6.00 Build 0)  -->
<!DOCTYPE svg PUBLIC "-//W3C//DTD SVG 1.1//EN" "http://www.w3.org/Graphics/SVG/1.1/DTD/svg11.dtd">
<svg version="1.1" id="Layer_1" xmlns="http://www.w3.org/2000/svg" xmlns:xlink="http://www.w3.org/1999/xlink" x="0px" y="0px"
	 width="31px" height="27px" viewBox="0 0 31 27" enable-background="new 0 0 31 27" xml:space="preserve">
<g>
	<path fill="#444444" d="M-84.561,2440.223c-0.111-2.559-0.1-4.648,0.036-6.212c0.036-0.418,0.124-0.802,0.179-1.149
		c0.031-0.212-0.082-0.411,0.151-0.599l0,0c-0.468-0.464-0.69-0.92-1.049-1.367c-0.024-0.031-0.073-0.062-0.098-0.094
		c-1.456-1.793-4.1-2.006-5.874-0.526c-0.773,0.645-1.66,0.974-2.556,0.876c-1.927-0.212-2.487-2.328-2.485-5.084
		c0-1.017-0.883-1.812-1.895-1.715c-1.99,0.192-3.734,0.896-4.943,1.867c-4.72,3.788-4.4,12.024,0.713,18.396
		c5.114,6.371,13.086,8.464,17.807,4.676c0.234-0.187,0.454-0.386,0.664-0.595c-0.018-0.178-0.038-0.359-0.057-0.547
		C-84.189,2445.906-84.438,2443.006-84.561,2440.223z M-102.91,2431.844c0-1.012,0.818-1.832,1.831-1.832
		c1.012,0,1.832,0.82,1.832,1.832s-0.82,1.832-1.832,1.832C-102.092,2433.676-102.91,2432.855-102.91,2431.844z M-100.147,2440.501
		c-1.011,0-1.831-0.819-1.831-1.831c0-1.013,0.82-1.833,1.831-1.833c1.013,0,1.832,0.82,1.832,1.833
		C-98.315,2439.682-99.135,2440.501-100.147,2440.501z M-95.762,2445.752c-1.012,0-1.831-0.821-1.831-1.832
		c0-1.013,0.819-1.832,1.831-1.832s1.834,0.819,1.834,1.832C-93.928,2444.931-94.75,2445.752-95.762,2445.752z M-89.379,2448.039
		c-1.012,0-1.832-0.82-1.832-1.832s0.82-1.831,1.832-1.831s1.832,0.819,1.832,1.831S-88.367,2448.039-89.379,2448.039z
		 M-87.174,2438.874c-1.211,0.456-2.693-0.503-3.312-2.142s-0.138-3.337,1.072-3.794c1.21-0.456,2.691,0.502,3.31,2.142
		C-85.485,2436.719-85.965,2438.418-87.174,2438.874z"/>
	<path fill="#444444" d="M-82.334,2431c-0.438,0-0.721,1.033-0.891,2.206c-0.033,0.225,0.154,0.441,0.128,0.69
		c-0.062,0.639,0.097,1.331,0.097,2.098v0.009c0,2.121-0.15,4.642,0.016,7.047c0,0-0.107,0.004-0.107,0.008
		c0.104,1.509,0.178,2.973,0.302,4.265c0.022,0.239,0.019,0.475,0.041,0.7c0.136,1.372,0.249,2.499,0.331,3.203
		c0.053,0.454,0.434,0.796,0.89,0.796s0.835-0.298,0.89-0.75c0.426-3.508,1.992-17.271,0.153-20.271H-82.334z"/>
	<path fill="#444444" d="M-81.526,2429.402c1.222,0,2.212-0.99,2.212-2.211s-1.34-2.168-0.757-5.313c0,0-3.665,2.168-3.665,5.313
		C-83.736,2428.412-82.746,2429.402-81.526,2429.402z"/>
</g>
<g>
	<path fill="#444444" d="M72.531,2428H45.937c-1.344,0-1.937,0.999-1.937,2.343v18.065c0,1.344,0.593,1.592,1.937,1.592h9.52
		L55,2454.165V2454h-1.434c-0.336,0-0.606,0.164-0.606,0.5c0,0.334,0.271,0.5,0.606,0.5H64.9c0.336,0,0.607-0.166,0.607-0.5
		c0-0.336-0.271-0.5-0.607-0.5H64v0.165L63.01,2450h9.521c1.342,0,2.469-0.248,2.469-1.592v-18.065
		C75,2428.999,73.873,2428,72.531,2428z M65,2432v0.131c0,0.285-0.216,0.516-0.5,0.516s-0.5-0.23-0.5-0.516V2432h-1v0.131
		c0,0.285-0.717,0.516-1,0.516c-0.284,0-1-0.23-1-0.516V2432l0,0v0.131c0,0.285-0.714,0.516-1,0.516c-0.283,0-1-0.23-1-0.516v-0.387
		l0,0v0.387c0,0.285-0.715,0.516-1,0.516c-0.284,0-1-0.23-1-0.516V2432h-1v0.131c0,0.285-0.215,0.516-0.5,0.516s-0.5-0.23-0.5-0.516
		V2432h-1v0.131c0,0.285-0.216,0.516-0.5,0.516c-0.285,0-0.5-0.23-0.5-0.516V2432h-1v0.131c0,0.285-0.215,0.516-0.5,0.516
		c-0.284,0-0.5-0.23-0.5-0.516V2432h-2v7.547c0,0.335-0.438,0.453-0.771,0.453h-1.857c-0.334,0-0.371-0.118-0.371-0.453v-8.541
		c0-0.334,0.037-1.006,0.371-1.006h25.724c0.335,0-0.095,0.672-0.095,1.006v11.475c0,0.336,0.43,0.52,0.095,0.52h-5.297
		c-0.335,0-0.798-0.184-0.798-0.52V2432H65z M54.641,2436.825c-0.718,0-1.303-0.583-1.303-1.301s0.585-1.302,1.303-1.302
		s1.301,0.584,1.301,1.302S55.358,2436.825,54.641,2436.825z M53.652,2438.134c0.203-0.243,0.56-0.289,0.816-0.106l0.949,0.674
		l0.005,0.006l1.129,0.886l0.007,0.004c0.109,0.088,0.242,0.13,0.374,0.13c0.167,0,0.333-0.07,0.454-0.204
		c0.007-0.009,0.016-0.019,0.022-0.028h0.001c0.205-0.262,0.16-0.639-0.097-0.846c-0.003-0.002-0.005-0.003-0.007-0.006
		l-0.471-0.369l2.166-2.688c0.119-0.146,0.297-0.23,0.488-0.225c0.189,0.005,0.365,0.098,0.477,0.252l4.719,6.537
		c0.135,0.186,0.154,0.872,0.051,1.075c-0.104,0.203-0.313,0.774-0.541,0.774H50.786c-0.236,0-0.45-0.581-0.55-0.794
		s-0.066-0.687,0.084-0.868L53.652,2438.134z M72.531,2450H45.937c-0.674,0-1.937-0.916-1.937-1.592V2446h30v2.408
		C74,2449.084,73.205,2450,72.531,2450z"/>
	<circle fill="#444444" cx="59.233" cy="2447.562" r="0.972"/>
	<path fill="#444444" d="M68.642,2433h1.609c0.335,0,0.606-0.164,0.606-0.5c0-0.335-0.271-0.5-0.606-0.5h-1.609
		c-0.335,0-0.606,0.165-0.606,0.5C68.035,2432.836,68.307,2433,68.642,2433z"/>
	<path fill="#444444" d="M68.642,2435h1.609c0.335,0,0.606-0.163,0.606-0.5c0-0.333-0.271-0.5-0.606-0.5h-1.609
		c-0.335,0-0.606,0.167-0.606,0.5C68.035,2434.837,68.307,2435,68.642,2435z"/>
	<path fill="#444444" d="M68.642,2438h1.609c0.335,0,0.606-0.664,0.606-1c0-0.335-0.271-1-0.606-1h-1.609
		c-0.335,0-0.606,0.665-0.606,1C68.035,2437.336,68.307,2438,68.642,2438z"/>
	<path fill="#444444" d="M68.642,2440h1.609c0.335,0,0.606-0.164,0.606-0.5c0-0.333-0.271-0.5-0.606-0.5h-1.609
		c-0.335,0-0.606,0.167-0.606,0.5C68.035,2439.836,68.307,2440,68.642,2440z"/>
</g>
<g>
	<path d="M-104.139,11.924c2.217-0.064,2.441-1.221,2.441-2.185c0-0.803-0.096-1.639-0.192-2.507
		c-0.097-0.867-0.161-1.735-0.161-2.539c0-3.021,1.896-4.338,4.885-4.338h1.125v2.731h-0.578c-1.446,0-1.961,0.868-1.961,2.281
		c0,0.579,0.097,1.157,0.161,1.832c0.064,0.643,0.161,1.382,0.161,2.185c0.031,2.442-0.965,3.342-2.732,3.728v0.064
		c1.768,0.386,2.764,1.317,2.732,3.76c0,0.836-0.097,1.574-0.161,2.248c-0.064,0.645-0.161,1.254-0.161,1.801
		c0,1.414,0.482,2.312,1.961,2.312h0.578V26h-1.156c-2.86,0-4.854-1.158-4.854-4.371c0-0.803,0.064-1.672,0.161-2.539
		s0.192-1.703,0.192-2.506c0-0.9-0.225-2.121-2.441-2.186V11.924z"/>
	<path d="M-88.328,0.741h4.885V14.43c0,6.17-2.956,8.324-7.713,8.324c-1.124,0-2.602-0.193-3.566-0.516l0.547-3.951
		c0.674,0.225,1.542,0.385,2.506,0.385c2.057,0,3.342-0.932,3.342-4.307V0.741z"/>
	<path d="M-79.199,17.355c1.316,0.674,3.342,1.35,5.431,1.35c2.249,0,3.438-0.932,3.438-2.346c0-1.35-1.028-2.121-3.631-3.054
		c-3.599-1.253-5.944-3.246-5.944-6.395c0-3.695,3.084-6.523,8.194-6.523c2.441,0,4.241,0.514,5.526,1.093l-1.092,3.953
		c-0.868-0.418-2.41-1.028-4.531-1.028s-3.149,0.964-3.149,2.089c0,1.382,1.221,1.992,4.017,3.053
		c3.824,1.414,5.624,3.406,5.624,6.46c0,3.631-2.796,6.715-8.741,6.715c-2.475,0-4.916-0.643-6.138-1.316L-79.199,17.355z"/>
	<path d="M-55,14.398c-2.185,0.064-2.442,1.285-2.442,2.186c0,0.803,0.097,1.639,0.193,2.506s0.192,1.736,0.192,2.539
		c0,3.213-1.992,4.371-4.884,4.371h-1.157v-2.701h0.578c1.479-0.031,1.961-0.898,1.961-2.312c0-0.547-0.064-1.156-0.161-1.801
		c-0.064-0.674-0.16-1.412-0.16-2.248c-0.032-2.443,0.964-3.375,2.763-3.76v-0.064c-1.799-0.386-2.795-1.285-2.763-3.728
		c0-0.803,0.096-1.542,0.16-2.185c0.097-0.675,0.161-1.253,0.161-1.832c0-1.414-0.515-2.25-1.961-2.281h-0.578V0.355h1.125
		c3.021,0,4.916,1.317,4.916,4.338c0,0.804-0.096,1.671-0.192,2.539c-0.097,0.868-0.193,1.704-0.193,2.507
		c0,0.964,0.258,2.121,2.442,2.185V14.398z"/>
</g>
<g>
	<path d="M-22.561,18.223c-0.111-2.559-0.1-4.648,0.036-6.212c0.036-0.418,0.124-0.802,0.179-1.149
		c0.031-0.212-0.082-0.411,0.151-0.599l0,0c-0.468-0.464-0.69-0.92-1.049-1.367c-0.024-0.031-0.073-0.062-0.098-0.094
		c-1.456-1.793-4.1-2.006-5.874-0.526c-0.773,0.645-1.66,0.974-2.556,0.876c-1.927-0.212-2.487-2.328-2.485-5.084
		c0-1.017-0.883-1.812-1.895-1.715c-1.99,0.192-3.734,0.896-4.943,1.867c-4.72,3.788-4.4,12.024,0.713,18.396
		c5.114,6.371,13.086,8.464,17.807,4.676c0.234-0.187,0.454-0.386,0.664-0.595c-0.018-0.178-0.038-0.359-0.057-0.547
		C-22.189,23.906-22.438,21.006-22.561,18.223z M-40.91,9.844c0-1.012,0.818-1.832,1.831-1.832c1.012,0,1.832,0.82,1.832,1.832
		s-0.82,1.832-1.832,1.832C-40.092,11.676-40.91,10.855-40.91,9.844z M-38.147,18.501c-1.011,0-1.831-0.819-1.831-1.831
		c0-1.013,0.82-1.833,1.831-1.833c1.013,0,1.832,0.82,1.832,1.833C-36.315,17.682-37.135,18.501-38.147,18.501z M-33.762,23.752
		c-1.012,0-1.831-0.821-1.831-1.832c0-1.013,0.819-1.832,1.831-1.832s1.834,0.819,1.834,1.832
		C-31.928,22.931-32.75,23.752-33.762,23.752z M-27.379,26.039c-1.012,0-1.832-0.82-1.832-1.832s0.82-1.831,1.832-1.831
		s1.832,0.819,1.832,1.831S-26.367,26.039-27.379,26.039z M-25.174,16.874c-1.211,0.456-2.693-0.503-3.312-2.142
		s-0.138-3.337,1.072-3.794c1.21-0.456,2.691,0.502,3.31,2.142C-23.485,14.719-23.965,16.418-25.174,16.874z"/>
	<path d="M-20.334,9c-0.438,0-0.721,1.033-0.891,2.206c-0.033,0.225,0.154,0.441,0.128,0.69C-21.159,12.535-21,13.228-21,13.994
		v0.009c0,2.121-0.15,4.642,0.016,7.047c0,0-0.107,0.004-0.107,0.008c0.104,1.509,0.178,2.973,0.302,4.265
		c0.022,0.239,0.019,0.475,0.041,0.7c0.136,1.372,0.249,2.499,0.331,3.203c0.053,0.454,0.434,0.796,0.89,0.796
		s0.835-0.298,0.89-0.75C-18.213,25.764-16.646,12-18.485,9H-20.334z"/>
	<path d="M-19.526,7.402c1.222,0,2.212-0.99,2.212-2.211s-1.34-2.168-0.757-5.313c0,0-3.665,2.168-3.665,5.313
		C-21.736,6.412-20.746,7.402-19.526,7.402z"/>
</g>
<g>
	<path d="M28.531,0H1.937C0.593,0,0,1.249,0,2.593v18.065C0,22.002,0.593,22,1.937,22h9.52L11,26.415V26H9.566
		C9.23,26,8.96,26.164,8.96,26.5c0,0.334,0.271,0.5,0.606,0.5H20.9c0.336,0,0.607-0.166,0.607-0.5c0-0.336-0.271-0.5-0.607-0.5H20
		v0.415L19.01,22h9.521C29.873,22,31,22.002,31,20.658V2.593C31,1.249,29.873,0,28.531,0z M21,4v0.381
		c0,0.285-0.216,0.516-0.5,0.516S20,4.666,20,4.381V4h-1v0.381c0,0.285-0.717,0.516-1,0.516c-0.284,0-1-0.23-1-0.516V4.25l0,0v0.131
		c0,0.285-0.714,0.516-1,0.516c-0.283,0-1-0.23-1-0.516V3.994l0,0v0.387c0,0.285-0.715,0.516-1,0.516c-0.284,0-1-0.23-1-0.516V4h-1
		v0.381c0,0.285-0.215,0.516-0.5,0.516S11,4.666,11,4.381V4h-1v0.381c0,0.285-0.216,0.516-0.5,0.516c-0.285,0-0.5-0.23-0.5-0.516V4
		H8v0.381c0,0.285-0.215,0.516-0.5,0.516c-0.284,0-0.5-0.23-0.5-0.516V4H5v7.797C5,12.132,4.562,12,4.229,12H2.371
		C2.037,12,2,12.132,2,11.797V3.256C2,2.922,2.037,2,2.371,2h25.724C28.43,2,28,2.922,28,3.256V14.73c0,0.336,0.43,0.27,0.095,0.27
		h-5.297C22.463,15,22,15.066,22,14.73V4H21z M10.641,9.075c-0.718,0-1.303-0.583-1.303-1.301s0.585-1.302,1.303-1.302
		s1.301,0.584,1.301,1.302S11.358,9.075,10.641,9.075z M9.652,10.384c0.203-0.243,0.56-0.289,0.816-0.106l0.949,0.674l0.005,0.006
		l1.129,0.886l0.007,0.004c0.109,0.088,0.242,0.13,0.374,0.13c0.167,0,0.333-0.07,0.454-0.204c0.007-0.009,0.016-0.019,0.022-0.028
		h0.001c0.205-0.262,0.16-0.639-0.097-0.846c-0.003-0.002-0.005-0.003-0.007-0.006l-0.471-0.369l2.166-2.688
		c0.119-0.146,0.297-0.23,0.488-0.225c0.189,0.005,0.365,0.098,0.477,0.252l4.719,6.537c0.135,0.186,0.154,0.747,0.051,0.95
		C20.632,15.554,20.423,16,20.195,16H6.786c-0.236,0-0.45-0.456-0.55-0.669S6.17,14.707,6.32,14.525L9.652,10.384z M16.205,19.812
		c0,0.536-0.437,0.973-0.972,0.973c-0.536,0-0.973-0.437-0.973-0.973s0.437-0.972,0.973-0.972
		C15.769,18.84,16.205,19.275,16.205,19.812z"/>
	<path fill="#444444" d="M24.642,5h1.609c0.335,0,0.606-0.164,0.606-0.5c0-0.335-0.271-0.5-0.606-0.5h-1.609
		c-0.335,0-0.606,0.165-0.606,0.5C24.035,4.836,24.307,5,24.642,5z"/>
	<path fill="#444444" d="M24.642,7h1.609c0.335,0,0.606-0.163,0.606-0.5c0-0.333-0.271-0.5-0.606-0.5h-1.609
		c-0.335,0-0.606,0.167-0.606,0.5C24.035,6.837,24.307,7,24.642,7z"/>
	<path fill="#444444" d="M24.642,10h1.609c0.335,0,0.606-0.664,0.606-1c0-0.335-0.271-1-0.606-1h-1.609
		c-0.335,0-0.606,0.665-0.606,1C24.035,9.336,24.307,10,24.642,10z"/>
	<path fill="#444444" d="M24.642,12h1.609c0.335,0,0.606-0.164,0.606-0.5c0-0.333-0.271-0.5-0.606-0.5h-1.609
		c-0.335,0-0.606,0.167-0.606,0.5C24.035,11.836,24.307,12,24.642,12z"/>
</g>
<g>
	<path d="M-79.107,56.96c0-0.438-0.104-0.794-0.307-1.07c-0.205-0.276-0.533-0.414-0.984-0.414v-1.538
		c0.451,0,0.779-0.139,0.984-0.415c0.203-0.275,0.307-0.633,0.307-1.07c0-0.337-0.023-0.672-0.07-1.005
		c-0.047-0.334-0.102-0.669-0.162-1.006s-0.114-0.676-0.161-1.017c-0.046-0.341-0.069-0.687-0.069-1.038
		c0-0.545,0.078-1.042,0.236-1.49s0.399-0.834,0.727-1.156c0.326-0.322,0.738-0.571,1.236-0.748
		c0.498-0.175,1.085-0.263,1.759-0.263h0.57v1.183c0,0.094-0.021,0.174-0.06,0.242s-0.09,0.124-0.15,0.167s-0.123,0.075-0.188,0.097
		s-0.123,0.032-0.173,0.032h-0.097c-0.502,0-0.886,0.158-1.15,0.474c-0.266,0.315-0.398,0.749-0.398,1.302
		c0,0.394,0.021,0.772,0.064,1.135s0.088,0.713,0.135,1.054s0.092,0.676,0.135,1.006s0.064,0.663,0.064,1
		c0,0.273-0.038,0.531-0.113,0.775c-0.076,0.243-0.188,0.464-0.334,0.661s-0.322,0.371-0.527,0.521
		c-0.203,0.15-0.436,0.262-0.693,0.334c0.258,0.079,0.49,0.191,0.693,0.339c0.205,0.146,0.381,0.32,0.527,0.521
		s0.258,0.423,0.334,0.667c0.075,0.244,0.113,0.498,0.113,0.764c0,0.337-0.021,0.671-0.064,1c-0.043,0.33-0.088,0.665-0.135,1.006
		s-0.092,0.692-0.135,1.055s-0.064,0.74-0.064,1.135c0,0.545,0.133,0.975,0.398,1.291c0.265,0.315,0.648,0.473,1.15,0.473h0.097
		c0.05,0,0.108,0.011,0.173,0.032s0.127,0.054,0.188,0.097s0.111,0.101,0.15,0.173c0.039,0.071,0.06,0.153,0.06,0.247v1.173h-0.57
		c-0.674,0-1.261-0.088-1.759-0.264s-0.91-0.424-1.236-0.742c-0.327-0.319-0.568-0.703-0.727-1.151s-0.236-0.944-0.236-1.489
		c0-0.352,0.023-0.698,0.069-1.038c0.047-0.341,0.101-0.68,0.161-1.017s0.115-0.675,0.162-1.012S-79.107,57.297-79.107,56.96z"/>
	<path d="M-70.008,45.386V61.37h-2.657V45.386H-70.008z"/>
	<path d="M-62.445,50.161c0.695,0,1.335,0.111,1.92,0.334c0.584,0.222,1.088,0.547,1.511,0.974s0.753,0.95,0.989,1.57
		c0.237,0.62,0.355,1.328,0.355,2.124c0,0.201-0.009,0.368-0.027,0.5c-0.018,0.133-0.05,0.237-0.096,0.312
		c-0.047,0.075-0.109,0.129-0.189,0.161c-0.078,0.032-0.179,0.049-0.301,0.049h-6.82c0.08,1.133,0.385,1.965,0.915,2.495
		c0.53,0.531,1.233,0.796,2.108,0.796c0.43,0,0.801-0.05,1.113-0.15s0.584-0.211,0.817-0.333s0.438-0.233,0.613-0.334
		s0.346-0.15,0.511-0.15c0.107,0,0.201,0.021,0.279,0.064c0.08,0.043,0.147,0.104,0.205,0.183l0.774,0.969
		c-0.294,0.344-0.624,0.633-0.989,0.865c-0.366,0.233-0.748,0.42-1.146,0.56c-0.397,0.14-0.803,0.238-1.215,0.296
		s-0.812,0.086-1.199,0.086c-0.768,0-1.481-0.127-2.141-0.382c-0.66-0.254-1.234-0.631-1.722-1.129
		c-0.487-0.499-0.871-1.115-1.151-1.851c-0.279-0.735-0.419-1.587-0.419-2.555c0-0.753,0.122-1.461,0.366-2.125
		c0.243-0.663,0.593-1.24,1.049-1.731c0.455-0.491,1.011-0.88,1.667-1.167C-64.012,50.305-63.271,50.161-62.445,50.161z
		 M-62.393,52.065c-0.773,0-1.38,0.219-1.817,0.656s-0.718,1.058-0.839,1.86h4.991c0-0.344-0.047-0.668-0.14-0.973
		c-0.094-0.305-0.237-0.572-0.431-0.802c-0.194-0.229-0.438-0.41-0.731-0.543C-61.654,52.132-61.998,52.065-62.393,52.065z"/>
	<path d="M-48.957,52.485c-0.072,0.114-0.147,0.195-0.227,0.241c-0.078,0.047-0.18,0.07-0.301,0.07
		c-0.129,0-0.268-0.036-0.414-0.107c-0.146-0.072-0.317-0.152-0.512-0.242c-0.193-0.09-0.414-0.17-0.661-0.242
		c-0.247-0.071-0.54-0.107-0.876-0.107c-0.523,0-0.937,0.111-1.237,0.333c-0.302,0.223-0.452,0.514-0.452,0.872
		c0,0.236,0.077,0.436,0.231,0.597s0.358,0.303,0.613,0.425s0.543,0.231,0.866,0.328c0.322,0.097,0.652,0.203,0.989,0.317
		c0.337,0.115,0.667,0.246,0.989,0.393c0.323,0.147,0.611,0.334,0.866,0.56s0.459,0.496,0.613,0.812
		c0.153,0.316,0.231,0.696,0.231,1.141c0,0.531-0.098,1.021-0.291,1.469s-0.477,0.835-0.85,1.161
		c-0.373,0.327-0.834,0.581-1.383,0.764c-0.548,0.184-1.178,0.274-1.887,0.274c-0.381,0-0.752-0.034-1.113-0.102
		c-0.363-0.068-0.711-0.163-1.044-0.285s-0.642-0.266-0.925-0.431s-0.533-0.344-0.748-0.538l0.613-1.011
		c0.078-0.122,0.172-0.215,0.279-0.279c0.107-0.065,0.244-0.098,0.409-0.098s0.321,0.047,0.468,0.141
		c0.146,0.093,0.317,0.193,0.512,0.301c0.193,0.107,0.42,0.208,0.683,0.301c0.262,0.094,0.593,0.141,0.995,0.141
		c0.315,0,0.586-0.038,0.812-0.113c0.225-0.075,0.412-0.174,0.559-0.296s0.254-0.264,0.322-0.425s0.103-0.328,0.103-0.5
		c0-0.259-0.077-0.47-0.231-0.635s-0.358-0.309-0.613-0.431c-0.254-0.122-0.545-0.231-0.871-0.328s-0.66-0.202-1-0.317
		c-0.341-0.114-0.674-0.249-1-0.403s-0.617-0.35-0.871-0.586c-0.256-0.236-0.46-0.527-0.613-0.871
		c-0.154-0.345-0.232-0.761-0.232-1.248c0-0.452,0.09-0.882,0.27-1.291c0.18-0.408,0.443-0.766,0.791-1.07s0.781-0.549,1.301-0.731
		s1.121-0.274,1.803-0.274c0.76,0,1.451,0.126,2.076,0.377c0.623,0.251,1.143,0.581,1.559,0.989L-48.957,52.485z"/>
	<path d="M-39.556,52.485c-0.071,0.114-0.146,0.195-0.226,0.241c-0.079,0.047-0.18,0.07-0.302,0.07
		c-0.129,0-0.267-0.036-0.414-0.107c-0.146-0.072-0.317-0.152-0.511-0.242s-0.414-0.17-0.661-0.242
		c-0.248-0.071-0.54-0.107-0.877-0.107c-0.523,0-0.937,0.111-1.237,0.333c-0.301,0.223-0.451,0.514-0.451,0.872
		c0,0.236,0.076,0.436,0.23,0.597s0.359,0.303,0.613,0.425c0.255,0.122,0.544,0.231,0.866,0.328s0.652,0.203,0.989,0.317
		c0.338,0.115,0.667,0.246,0.99,0.393c0.322,0.147,0.611,0.334,0.866,0.56c0.254,0.226,0.458,0.496,0.612,0.812
		c0.154,0.316,0.231,0.696,0.231,1.141c0,0.531-0.097,1.021-0.29,1.469s-0.478,0.835-0.85,1.161
		c-0.373,0.327-0.834,0.581-1.383,0.764c-0.549,0.184-1.178,0.274-1.888,0.274c-0.38,0-0.751-0.034-1.113-0.102
		c-0.362-0.068-0.71-0.163-1.044-0.285c-0.333-0.122-0.642-0.266-0.925-0.431s-0.532-0.344-0.747-0.538l0.613-1.011
		c0.078-0.122,0.172-0.215,0.279-0.279c0.107-0.065,0.244-0.098,0.408-0.098c0.166,0,0.321,0.047,0.469,0.141
		c0.146,0.093,0.316,0.193,0.511,0.301c0.193,0.107,0.421,0.208,0.683,0.301c0.262,0.094,0.594,0.141,0.995,0.141
		c0.316,0,0.586-0.038,0.812-0.113c0.226-0.075,0.412-0.174,0.56-0.296c0.146-0.122,0.254-0.264,0.322-0.425s0.103-0.328,0.103-0.5
		c0-0.259-0.077-0.47-0.231-0.635s-0.358-0.309-0.613-0.431s-0.545-0.231-0.871-0.328s-0.66-0.202-1-0.317
		c-0.342-0.114-0.675-0.249-1.001-0.403s-0.616-0.35-0.871-0.586s-0.46-0.527-0.613-0.871c-0.154-0.345-0.231-0.761-0.231-1.248
		c0-0.452,0.09-0.882,0.27-1.291c0.179-0.408,0.442-0.766,0.79-1.07s0.782-0.549,1.302-0.731s1.12-0.274,1.802-0.274
		c0.76,0,1.452,0.126,2.076,0.377s1.144,0.581,1.56,0.989L-39.556,52.485z"/>
	<path d="M-33.273,56.96c0,0.337,0.023,0.674,0.069,1.011c0.047,0.337,0.101,0.675,0.162,1.012c0.061,0.337,0.114,0.676,0.161,1.017
		c0.047,0.34,0.069,0.687,0.069,1.038c0,0.545-0.078,1.041-0.236,1.489c-0.157,0.448-0.399,0.832-0.726,1.151
		c-0.327,0.318-0.739,0.566-1.237,0.742c-0.499,0.176-1.085,0.264-1.759,0.264h-0.57v-1.173c0-0.094,0.02-0.176,0.06-0.247
		c0.039-0.072,0.089-0.13,0.15-0.173c0.061-0.043,0.124-0.075,0.188-0.097s0.121-0.032,0.172-0.032h0.097
		c0.502,0,0.886-0.157,1.151-0.473c0.265-0.316,0.397-0.746,0.397-1.291c0-0.395-0.021-0.772-0.064-1.135s-0.088-0.714-0.135-1.055
		c-0.046-0.341-0.091-0.676-0.134-1.006c-0.043-0.329-0.064-0.663-0.064-1c0-0.266,0.037-0.52,0.112-0.764s0.185-0.466,0.328-0.667
		s0.319-0.375,0.527-0.521c0.208-0.147,0.441-0.26,0.699-0.339c-0.258-0.072-0.491-0.184-0.699-0.334s-0.384-0.324-0.527-0.521
		s-0.253-0.418-0.328-0.661c-0.075-0.244-0.112-0.502-0.112-0.775c0-0.337,0.021-0.67,0.064-1s0.088-0.665,0.134-1.006
		c0.047-0.341,0.092-0.691,0.135-1.054s0.064-0.741,0.064-1.135c0-0.553-0.133-0.986-0.397-1.302
		c-0.266-0.315-0.649-0.474-1.151-0.474h-0.097c-0.051,0-0.107-0.011-0.172-0.032s-0.128-0.054-0.188-0.097
		c-0.062-0.043-0.111-0.099-0.15-0.167c-0.04-0.068-0.06-0.148-0.06-0.242v-1.183h0.57c0.674,0,1.26,0.088,1.759,0.263
		c0.498,0.177,0.91,0.426,1.237,0.748c0.326,0.322,0.568,0.708,0.726,1.156c0.158,0.448,0.236,0.945,0.236,1.49
		c0,0.352-0.022,0.697-0.069,1.038s-0.101,0.68-0.161,1.017c-0.062,0.337-0.115,0.672-0.162,1.006
		c-0.046,0.333-0.069,0.668-0.069,1.005c0,0.438,0.102,0.795,0.307,1.07c0.204,0.276,0.532,0.415,0.984,0.415v1.538
		c-0.452,0-0.78,0.138-0.984,0.414C-33.172,56.166-33.273,56.522-33.273,56.96z"/>
</g>
<g>
	<path d="M-13.497,54.865l7.804,3.104v2.424l-10.803-4.273v-2.51l10.803-4.296v2.446L-13.497,54.865z"/>
	<path d="M3.408,44.7l-5.933,15.885h-2.403L0.984,44.7H3.408z"/>
	<path d="M11.957,54.865l-7.805-3.104v-2.446l10.803,4.296v2.51L4.152,60.394V57.97L11.957,54.865z"/>
</g>
<g>
</g>
<g>
</g>
<g>
</g>
<g>
</g>
<g>
</g>
<g>
</g>
<g>
</g>
<g>
</g>
<g>
</g>
<g>
</g>
<g>
</g>
<g>
</g>
<g>
</g>
<g>
</g>
<g>
</g>
</svg>
