<?xml version="1.0" encoding="utf-8"?>
<!-- Generator: Adobe Illustrator 16.0.0, SVG Export Plug-In . SVG Version: 6.00 Build 0)  -->
<!DOCTYPE svg PUBLIC "-//W3C//DTD SVG 1.1//EN" "http://www.w3.org/Graphics/SVG/1.1/DTD/svg11.dtd">
<svg version="1.1" id="Layer_1" xmlns="http://www.w3.org/2000/svg" xmlns:xlink="http://www.w3.org/1999/xlink" x="0px" y="0px"
	 width="280.549px" height="104.572px" viewBox="0 0 280.549 104.572" enable-background="new 0 0 280.549 104.572"
	 xml:space="preserve">
<g>
	<g>
		<g>
			<path fill="#212304" d="M39.925,15.699c0.799-0.928,1.588-1.853,2.414-2.769c1.989-2.203,3.935-4.345,5.935-6.348V3.727h-14
				v18.862C36.274,20.32,37.946,17.997,39.925,15.699z"/>
		</g>
		<g>
			<g>
				<path fill="#212304" d="M48.536,51.797V23.552c-0.631,0.977-1.262,1.936-1.903,2.861c-4.584,6.695-9.226,11.813-12.717,11.438
					l-4.651-3.45c0.111-2.403,1.271-5.23,3.068-8.251c-1.037-1.1-2.227-2.063-3.603-2.866c-2.571-1.503-5.446-2.254-8.625-2.254
					c-2.944,0-5.646,0.607-8.103,1.82c-2.454,1.213-4.58,2.873-6.366,4.982c-1.794,2.111-3.182,4.609-4.164,7.496
					C0.49,38.221,0,41.312,0,44.606c0,3.409,0.535,6.542,1.603,9.4c1.069,2.86,2.556,5.362,4.464,7.499
					c1.907,2.138,4.174,3.798,6.804,4.982c2.627,1.184,5.502,1.78,8.623,1.78c3.122,0,6.054-0.695,8.795-2.082
					c2.747-1.388,4.929-3.495,6.547-6.328l0.26,2.34c0.23,1.906,1.096,3.365,2.603,4.379c1.497,1.009,3.464,1.514,5.889,1.514
					c0.809,0,1.678-0.042,2.603-0.131c0.923-0.085,2.019-0.273,3.291-0.562v-11.7c-1.096-0.116-1.861-0.448-2.296-0.997
					C48.751,54.153,48.536,53.187,48.536,51.797z M30.573,48.294C25.415,55.227,13.781,54,13.781,54
					c6.44-5.974,5.035-10.266,7.039-12.955c1.999-2.693,5.809-3.254,8.499-1.257C32.016,41.794,32.572,45.595,30.573,48.294z"/>
			</g>
		</g>
	</g>
	<g>
		<text transform="matrix(1 0 0 1 15.4102 96.7578)" fill="#212304" font-family="'FiraSans-Bold'" font-size="22.0129">ux design &amp; development</text>
	</g>
	<g>
		<text transform="matrix(1 0 0 1 51.4648 68.8652)"><tspan x="0" y="0" fill="#212304" font-family="'Raleway-ExtraBold'" font-size="79.6825">ess</tspan><tspan x="127.649" y="0" fill="#212304" font-family="'Lato-Black'" font-size="79.6825">i</tspan><tspan x="150.358" y="0" fill="#212304" font-family="'Raleway-ExtraBold'" font-size="79.6825">ta</tspan></text>
	</g>
</g>
</svg>
