<?xml version="1.0" encoding="utf-8"?>
<!-- Generator: Adobe Illustrator 16.0.0, SVG Export Plug-In . SVG Version: 6.00 Build 0)  -->
<!DOCTYPE svg PUBLIC "-//W3C//DTD SVG 1.1//EN" "http://www.w3.org/Graphics/SVG/1.1/DTD/svg11.dtd">
<svg version="1.1" id="Layer_1" xmlns="http://www.w3.org/2000/svg" xmlns:xlink="http://www.w3.org/1999/xlink" x="0px" y="0px"
	 width="49.139px" height="25.645px" viewBox="0 0 49.139 25.645" enable-background="new 0 0 49.139 25.645" xml:space="preserve">
<g>
	<path fill="#444444" d="M19.578,2439.867c-0.111-2.559-0.1-4.648,0.036-6.212c0.036-0.418,0.124-0.802,0.179-1.149
		c0.031-0.212-0.082-0.411,0.151-0.599l0,0c-0.468-0.464-0.69-0.92-1.049-1.367c-0.024-0.031-0.073-0.062-0.098-0.094
		c-1.456-1.793-4.1-2.006-5.874-0.526c-0.773,0.645-1.66,0.974-2.556,0.876c-1.927-0.212-2.487-2.328-2.485-5.084
		c0-1.017-0.883-1.812-1.895-1.715c-1.99,0.192-3.734,0.896-4.943,1.867c-4.72,3.788-4.4,12.024,0.713,18.396
		c5.114,6.371,13.086,8.464,17.807,4.676c0.234-0.187,0.454-0.386,0.664-0.595c-0.018-0.178-0.038-0.359-0.057-0.547
		C19.949,2445.551,19.701,2442.65,19.578,2439.867z M1.229,2431.488c0-1.012,0.818-1.832,1.831-1.832
		c1.012,0,1.832,0.82,1.832,1.832s-0.82,1.832-1.832,1.832C2.047,2433.32,1.229,2432.5,1.229,2431.488z M3.991,2440.146
		c-1.011,0-1.831-0.819-1.831-1.831c0-1.013,0.82-1.833,1.831-1.833c1.013,0,1.832,0.82,1.832,1.833
		C5.823,2439.326,5.004,2440.146,3.991,2440.146z M8.377,2445.396c-1.012,0-1.831-0.821-1.831-1.832
		c0-1.013,0.819-1.832,1.831-1.832s1.834,0.819,1.834,1.832C10.211,2444.575,9.389,2445.396,8.377,2445.396z M14.76,2447.684
		c-1.012,0-1.832-0.82-1.832-1.832s0.82-1.831,1.832-1.831s1.832,0.819,1.832,1.831S15.771,2447.684,14.76,2447.684z
		 M16.965,2438.519c-1.211,0.456-2.693-0.503-3.312-2.142s-0.138-3.337,1.072-3.794c1.21-0.456,2.691,0.502,3.31,2.142
		C18.653,2436.363,18.174,2438.062,16.965,2438.519z"/>
	<path fill="#444444" d="M21.805,2430.645c-0.438,0-0.721,1.033-0.891,2.206c-0.033,0.225,0.154,0.441,0.128,0.69
		c-0.062,0.639,0.097,1.331,0.097,2.098v0.009c0,2.121-0.15,4.642,0.016,7.047c0,0-0.107,0.004-0.107,0.008
		c0.104,1.509,0.178,2.973,0.302,4.265c0.022,0.239,0.019,0.475,0.041,0.7c0.136,1.372,0.249,2.499,0.331,3.203
		c0.053,0.454,0.434,0.796,0.89,0.796s0.835-0.298,0.89-0.75c0.426-3.508,1.992-17.271,0.153-20.271H21.805z"/>
	<path fill="#444444" d="M22.612,2429.047c1.222,0,2.212-0.99,2.212-2.211s-1.34-2.168-0.757-5.313c0,0-3.665,2.168-3.665,5.313
		C20.402,2428.057,21.393,2429.047,22.612,2429.047z"/>
</g>
<g>
	<path fill="#444444" d="M176.67,2427.645h-26.595c-1.344,0-1.937,0.999-1.937,2.343v18.065c0,1.344,0.593,1.592,1.937,1.592h9.52
		l-0.456,4.165v-0.165h-1.434c-0.336,0-0.606,0.164-0.606,0.5c0,0.334,0.271,0.5,0.606,0.5h11.334c0.336,0,0.607-0.166,0.607-0.5
		c0-0.336-0.271-0.5-0.607-0.5h-0.9v0.165l-0.99-4.165h9.521c1.342,0,2.469-0.248,2.469-1.592v-18.065
		C179.139,2428.644,178.012,2427.645,176.67,2427.645z M169.139,2431.645v0.131c0,0.285-0.216,0.516-0.5,0.516s-0.5-0.23-0.5-0.516
		v-0.131h-1v0.131c0,0.285-0.717,0.516-1,0.516c-0.284,0-1-0.23-1-0.516v-0.131l0,0v0.131c0,0.285-0.714,0.516-1,0.516
		c-0.283,0-1-0.23-1-0.516v-0.387l0,0v0.387c0,0.285-0.715,0.516-1,0.516c-0.284,0-1-0.23-1-0.516v-0.131h-1v0.131
		c0,0.285-0.215,0.516-0.5,0.516s-0.5-0.23-0.5-0.516v-0.131h-1v0.131c0,0.285-0.216,0.516-0.5,0.516c-0.285,0-0.5-0.23-0.5-0.516
		v-0.131h-1v0.131c0,0.285-0.215,0.516-0.5,0.516c-0.284,0-0.5-0.23-0.5-0.516v-0.131h-2v7.547c0,0.335-0.438,0.453-0.771,0.453
		h-1.857c-0.334,0-0.371-0.118-0.371-0.453v-8.541c0-0.334,0.037-1.006,0.371-1.006h25.724c0.335,0-0.095,0.672-0.095,1.006v11.475
		c0,0.336,0.43,0.52,0.095,0.52h-5.297c-0.335,0-0.798-0.184-0.798-0.52v-10.48H169.139z M158.779,2436.47
		c-0.718,0-1.303-0.583-1.303-1.301s0.585-1.302,1.303-1.302s1.301,0.584,1.301,1.302S159.497,2436.47,158.779,2436.47z
		 M157.791,2437.778c0.203-0.243,0.56-0.289,0.816-0.106l0.949,0.674l0.005,0.006l1.129,0.886l0.007,0.004
		c0.109,0.088,0.242,0.13,0.374,0.13c0.167,0,0.333-0.07,0.454-0.204c0.007-0.009,0.016-0.019,0.022-0.028h0.001
		c0.205-0.262,0.16-0.639-0.097-0.846c-0.003-0.002-0.005-0.003-0.007-0.006l-0.471-0.369l2.166-2.688
		c0.119-0.146,0.297-0.23,0.488-0.225c0.189,0.005,0.365,0.098,0.477,0.252l4.719,6.537c0.135,0.186,0.154,0.872,0.051,1.075
		c-0.104,0.203-0.313,0.774-0.541,0.774h-13.409c-0.236,0-0.45-0.581-0.55-0.794s-0.066-0.687,0.084-0.868L157.791,2437.778z
		 M176.67,2449.645h-26.595c-0.674,0-1.937-0.916-1.937-1.592v-2.408h30v2.408C178.139,2448.729,177.344,2449.645,176.67,2449.645z"
		/>
	<circle fill="#444444" cx="163.372" cy="2447.207" r="0.972"/>
	<path fill="#444444" d="M172.78,2432.645h1.609c0.335,0,0.606-0.164,0.606-0.5c0-0.335-0.271-0.5-0.606-0.5h-1.609
		c-0.335,0-0.606,0.165-0.606,0.5C172.174,2432.48,172.445,2432.645,172.78,2432.645z"/>
	<path fill="#444444" d="M172.78,2434.645h1.609c0.335,0,0.606-0.163,0.606-0.5c0-0.333-0.271-0.5-0.606-0.5h-1.609
		c-0.335,0-0.606,0.167-0.606,0.5C172.174,2434.481,172.445,2434.645,172.78,2434.645z"/>
	<path fill="#444444" d="M172.78,2437.645h1.609c0.335,0,0.606-0.664,0.606-1c0-0.335-0.271-1-0.606-1h-1.609
		c-0.335,0-0.606,0.665-0.606,1C172.174,2436.98,172.445,2437.645,172.78,2437.645z"/>
	<path fill="#444444" d="M172.78,2439.645h1.609c0.335,0,0.606-0.164,0.606-0.5c0-0.333-0.271-0.5-0.606-0.5h-1.609
		c-0.335,0-0.606,0.167-0.606,0.5C172.174,2439.48,172.445,2439.645,172.78,2439.645z"/>
</g>
<g>
	<path d="M0,11.568c2.217-0.064,2.441-1.221,2.441-2.185c0-0.803-0.096-1.639-0.192-2.507C2.152,6.009,2.088,5.142,2.088,4.338
		C2.088,1.317,3.984,0,6.973,0h1.125v2.731H7.52c-1.446,0-1.961,0.868-1.961,2.281c0,0.579,0.097,1.157,0.161,1.832
		C5.784,7.487,5.881,8.227,5.881,9.03c0.031,2.442-0.965,3.342-2.732,3.728v0.064c1.768,0.386,2.764,1.317,2.732,3.76
		c0,0.836-0.097,1.574-0.161,2.248c-0.064,0.645-0.161,1.254-0.161,1.801c0,1.414,0.482,2.312,1.961,2.312h0.578v2.701H6.941
		c-2.86,0-4.854-1.158-4.854-4.371c0-0.803,0.064-1.672,0.161-2.539s0.192-1.703,0.192-2.506c0-0.9-0.225-2.121-2.441-2.186V11.568z
		"/>
	<path d="M15.811,0.385h4.885v13.689c0,6.17-2.956,8.324-7.713,8.324c-1.124,0-2.602-0.193-3.566-0.516l0.547-3.951
		c0.674,0.225,1.542,0.385,2.506,0.385c2.057,0,3.342-0.932,3.342-4.307V0.385z"/>
	<path d="M24.939,17c1.316,0.674,3.342,1.35,5.431,1.35c2.249,0,3.438-0.932,3.438-2.346c0-1.35-1.028-2.121-3.631-3.054
		c-3.599-1.253-5.944-3.246-5.944-6.395c0-3.695,3.084-6.523,8.194-6.523c2.441,0,4.241,0.514,5.526,1.093l-1.092,3.953
		c-0.868-0.418-2.41-1.028-4.531-1.028s-3.149,0.964-3.149,2.089c0,1.382,1.221,1.992,4.017,3.053
		c3.824,1.414,5.624,3.406,5.624,6.46c0,3.631-2.796,6.715-8.741,6.715c-2.475,0-4.916-0.643-6.138-1.316L24.939,17z"/>
	<path d="M49.139,14.043c-2.185,0.064-2.442,1.285-2.442,2.186c0,0.803,0.097,1.639,0.193,2.506s0.192,1.736,0.192,2.539
		c0,3.213-1.992,4.371-4.884,4.371h-1.157v-2.701h0.578c1.479-0.031,1.961-0.898,1.961-2.312c0-0.547-0.064-1.156-0.161-1.801
		c-0.064-0.674-0.16-1.412-0.16-2.248c-0.032-2.443,0.964-3.375,2.763-3.76v-0.064c-1.799-0.386-2.795-1.285-2.763-3.728
		c0-0.803,0.096-1.542,0.16-2.185c0.097-0.675,0.161-1.253,0.161-1.832c0-1.414-0.515-2.25-1.961-2.281h-0.578V0h1.125
		c3.021,0,4.916,1.317,4.916,4.338c0,0.804-0.096,1.671-0.192,2.539c-0.097,0.868-0.193,1.704-0.193,2.507
		c0,0.964,0.258,2.121,2.442,2.185V14.043z"/>
</g>
<g>
	<path d="M81.578,17.867c-0.111-2.559-0.1-4.648,0.036-6.212c0.036-0.418,0.124-0.802,0.179-1.149
		c0.031-0.212-0.082-0.411,0.151-0.599l0,0c-0.468-0.464-0.69-0.92-1.049-1.367c-0.024-0.031-0.073-0.062-0.098-0.094
		c-1.456-1.793-4.1-2.006-5.874-0.526c-0.773,0.645-1.66,0.974-2.556,0.876c-1.927-0.212-2.487-2.328-2.485-5.084
		c0-1.017-0.883-1.812-1.895-1.715c-1.99,0.192-3.734,0.896-4.943,1.867c-4.72,3.788-4.4,12.024,0.713,18.396
		c5.114,6.371,13.086,8.464,17.807,4.676c0.234-0.187,0.454-0.386,0.664-0.595c-0.018-0.178-0.038-0.359-0.057-0.547
		C81.949,23.551,81.701,20.65,81.578,17.867z M63.229,9.488c0-1.012,0.818-1.832,1.831-1.832c1.012,0,1.832,0.82,1.832,1.832
		s-0.82,1.832-1.832,1.832C64.047,11.32,63.229,10.5,63.229,9.488z M65.991,18.146c-1.011,0-1.831-0.819-1.831-1.831
		c0-1.013,0.82-1.833,1.831-1.833c1.013,0,1.832,0.82,1.832,1.833C67.823,17.326,67.004,18.146,65.991,18.146z M70.377,23.396
		c-1.012,0-1.831-0.821-1.831-1.832c0-1.013,0.819-1.832,1.831-1.832s1.834,0.819,1.834,1.832
		C72.211,22.575,71.389,23.396,70.377,23.396z M76.76,25.684c-1.012,0-1.832-0.82-1.832-1.832s0.82-1.831,1.832-1.831
		s1.832,0.819,1.832,1.831S77.771,25.684,76.76,25.684z M78.965,16.519c-1.211,0.456-2.693-0.503-3.312-2.142
		s-0.138-3.337,1.072-3.794c1.21-0.456,2.691,0.502,3.31,2.142C80.653,14.363,80.174,16.062,78.965,16.519z"/>
	<path d="M83.805,8.645c-0.438,0-0.721,1.033-0.891,2.206c-0.033,0.225,0.154,0.441,0.128,0.69
		c-0.062,0.639,0.097,1.331,0.097,2.098v0.009c0,2.121-0.15,4.642,0.016,7.047c0,0-0.107,0.004-0.107,0.008
		c0.104,1.509,0.178,2.973,0.302,4.265c0.022,0.239,0.019,0.475,0.041,0.7c0.136,1.372,0.249,2.499,0.331,3.203
		c0.053,0.454,0.434,0.796,0.89,0.796s0.835-0.298,0.89-0.75c0.426-3.508,1.992-17.271,0.153-20.271H83.805z"/>
	<path d="M84.612,7.047c1.222,0,2.212-0.99,2.212-2.211s-1.34-2.168-0.757-5.313c0,0-3.665,2.168-3.665,5.313
		C82.402,6.057,83.393,7.047,84.612,7.047z"/>
</g>
<g>
	<path d="M132.67-0.355h-26.595c-1.344,0-1.937,1.249-1.937,2.593v18.065c0,1.344,0.593,1.342,1.937,1.342h9.52l-0.456,4.415v-0.415
		h-1.434c-0.336,0-0.606,0.164-0.606,0.5c0,0.334,0.271,0.5,0.606,0.5h11.334c0.336,0,0.607-0.166,0.607-0.5
		c0-0.336-0.271-0.5-0.607-0.5h-0.9v0.415l-0.99-4.415h9.521c1.342,0,2.469,0.002,2.469-1.342V2.237
		C135.139,0.894,134.012-0.355,132.67-0.355z M125.139,3.645v0.381c0,0.285-0.216,0.516-0.5,0.516s-0.5-0.23-0.5-0.516V3.645h-1
		v0.381c0,0.285-0.717,0.516-1,0.516c-0.284,0-1-0.23-1-0.516V3.895l0,0v0.131c0,0.285-0.714,0.516-1,0.516c-0.283,0-1-0.23-1-0.516
		V3.639l0,0v0.387c0,0.285-0.715,0.516-1,0.516c-0.284,0-1-0.23-1-0.516V3.645h-1v0.381c0,0.285-0.215,0.516-0.5,0.516
		s-0.5-0.23-0.5-0.516V3.645h-1v0.381c0,0.285-0.216,0.516-0.5,0.516c-0.285,0-0.5-0.23-0.5-0.516V3.645h-1v0.381
		c0,0.285-0.215,0.516-0.5,0.516c-0.284,0-0.5-0.23-0.5-0.516V3.645h-2v7.797c0,0.335-0.438,0.203-0.771,0.203h-1.857
		c-0.334,0-0.371,0.132-0.371-0.203V2.9c0-0.334,0.037-1.256,0.371-1.256h25.724c0.335,0-0.095,0.922-0.095,1.256v11.475
		c0,0.336,0.43,0.27,0.095,0.27h-5.297c-0.335,0-0.798,0.066-0.798-0.27V3.645H125.139z M114.779,8.72
		c-0.718,0-1.303-0.583-1.303-1.301s0.585-1.302,1.303-1.302s1.301,0.584,1.301,1.302S115.497,8.72,114.779,8.72z M113.791,10.028
		c0.203-0.243,0.56-0.289,0.816-0.106l0.949,0.674l0.005,0.006l1.129,0.886l0.007,0.004c0.109,0.088,0.242,0.13,0.374,0.13
		c0.167,0,0.333-0.07,0.454-0.204c0.007-0.009,0.016-0.019,0.022-0.028h0.001c0.205-0.262,0.16-0.639-0.097-0.846
		c-0.003-0.002-0.005-0.003-0.007-0.006l-0.471-0.369l2.166-2.688c0.119-0.146,0.297-0.23,0.488-0.225
		c0.189,0.005,0.365,0.098,0.477,0.252l4.719,6.537c0.135,0.186,0.154,0.747,0.051,0.95c-0.104,0.203-0.313,0.649-0.541,0.649
		h-13.409c-0.236,0-0.45-0.456-0.55-0.669s-0.066-0.624,0.084-0.806L113.791,10.028z M120.344,19.456
		c0,0.536-0.437,0.973-0.972,0.973c-0.536,0-0.973-0.437-0.973-0.973s0.437-0.972,0.973-0.972
		C119.907,18.484,120.344,18.92,120.344,19.456z"/>
	<path fill="#444444" d="M128.78,4.645h1.609c0.335,0,0.606-0.164,0.606-0.5c0-0.335-0.271-0.5-0.606-0.5h-1.609
		c-0.335,0-0.606,0.165-0.606,0.5C128.174,4.48,128.445,4.645,128.78,4.645z"/>
	<path fill="#444444" d="M128.78,6.645h1.609c0.335,0,0.606-0.163,0.606-0.5c0-0.333-0.271-0.5-0.606-0.5h-1.609
		c-0.335,0-0.606,0.167-0.606,0.5C128.174,6.481,128.445,6.645,128.78,6.645z"/>
	<path fill="#444444" d="M128.78,9.645h1.609c0.335,0,0.606-0.664,0.606-1c0-0.335-0.271-1-0.606-1h-1.609
		c-0.335,0-0.606,0.665-0.606,1C128.174,8.98,128.445,9.645,128.78,9.645z"/>
	<path fill="#444444" d="M128.78,11.645h1.609c0.335,0,0.606-0.164,0.606-0.5c0-0.333-0.271-0.5-0.606-0.5h-1.609
		c-0.335,0-0.606,0.167-0.606,0.5C128.174,11.48,128.445,11.645,128.78,11.645z"/>
</g>
<g>
</g>
<g>
</g>
<g>
</g>
<g>
</g>
<g>
</g>
<g>
</g>
<g>
</g>
<g>
</g>
<g>
</g>
<g>
</g>
<g>
</g>
<g>
</g>
<g>
</g>
<g>
</g>
<g>
</g>
</svg>
