<?xml version="1.0" encoding="utf-8"?>
<!-- Generator: Adobe Illustrator 16.0.0, SVG Export Plug-In . SVG Version: 6.00 Build 0)  -->
<!DOCTYPE svg PUBLIC "-//W3C//DTD SVG 1.1 Tiny//EN" "http://www.w3.org/Graphics/SVG/1.1/DTD/svg11-tiny.dtd">
<svg version="1.1" baseProfile="tiny" id="Layer_1" xmlns="http://www.w3.org/2000/svg" xmlns:xlink="http://www.w3.org/1999/xlink"
	 x="0px" y="0px" width="50px" height="50px" viewBox="0 0 50 50" xml:space="preserve">
<path fill="#444444" d="M-155.363-40.07c-0.155-3.593-0.138-6.529,0.052-8.725c0.049-0.587,0.175-1.125,0.249-1.615
	c0.045-0.297-0.114-0.575,0.214-0.839l0,0c-0.656-0.651-0.969-1.292-1.474-1.921c-0.036-0.043-0.102-0.086-0.136-0.131
	c-2.047-2.518-5.757-2.817-8.25-0.737c-1.086,0.903-2.329,1.366-3.589,1.228c-2.705-0.297-3.492-3.268-3.49-7.139
	c0-1.427-1.239-2.544-2.659-2.408c-2.798,0.27-5.245,1.259-6.943,2.622c-6.626,5.318-6.179,16.886,1.002,25.835
	c7.182,8.945,18.378,11.887,25.007,6.566c0.327-0.262,0.638-0.542,0.93-0.836c-0.024-0.248-0.052-0.506-0.076-0.769
	C-154.842-32.091-155.19-36.161-155.363-40.07z M-181.134-51.838c0-1.419,1.149-2.572,2.573-2.572c1.422,0,2.574,1.152,2.574,2.572
	c0,1.422-1.152,2.574-2.574,2.574C-179.984-49.265-181.134-50.417-181.134-51.838z M-177.251-39.68c-1.42,0-2.573-1.152-2.573-2.572
	c0-1.421,1.153-2.574,2.573-2.574c1.421,0,2.573,1.152,2.573,2.574C-174.678-40.832-175.83-39.68-177.251-39.68z M-171.092-32.307
	c-1.42,0-2.574-1.153-2.574-2.571c0-1.424,1.154-2.574,2.574-2.574s2.574,1.15,2.574,2.574
	C-168.518-33.46-169.672-32.307-171.092-32.307z M-162.131-29.094c-1.42,0-2.571-1.153-2.571-2.571c0-1.422,1.151-2.574,2.571-2.574
	c1.424,0,2.574,1.152,2.574,2.574C-159.557-30.247-160.707-29.094-162.131-29.094z M-159.033-41.965
	c-1.7,0.641-3.781-0.707-4.648-3.007c-0.869-2.303-0.195-4.686,1.504-5.327c1.698-0.641,3.781,0.705,4.648,3.005
	C-156.662-44.991-157.336-42.606-159.033-41.965z M-149.639-52c2.58,3,0.382,23.031-0.216,27.954
	c-0.076,0.636-0.608,0.544-1.249,0.544c-0.639,0-1.17-0.479-1.244-1.118c-0.116-0.988-0.27-2.57-0.461-4.498
	c-0.029-0.317-0.014-0.646-0.049-0.982C-153.029-31.914-153-45.948-153-45.997v-0.012c0-1.076-0.532-3.089-0.487-3.403
	c0.238-1.647,0.638-2.588,1.25-2.588H-149.639z M-154.206-58.371c0-4.417,5.147-7.462,5.147-7.462
	c-0.818,4.417,1.062,5.749,1.062,7.462c0,1.715-1.391,3.104-3.106,3.104C-152.815-55.267-154.206-56.656-154.206-58.371z"/>
<text transform="matrix(1 0 0 1 -12.2783 -36.4854)" fill="#444444" font-family="'Lato-Bold'" font-size="21.5139">   {less} </text>
<text transform="matrix(1 0 0 1 -54.791 -36.4629)" fill="#444444" font-family="'Lato-Bold'" font-size="21.5139">{JS}</text>
<text transform="matrix(1 0 0 1 -20.9395 -36.4629)" fill="#444444" font-family="'Lato-Light'" font-size="21.5139"> </text>
<g>
	<path fill="#444444" d="M-86.532-59h-31.251c-1.579,0-3.217,1.229-3.217,2.809v21.229c0,1.58,1.638,1.963,3.217,1.963h11.186
		L-108-28.198V-28h-0.819c-0.393,0-0.711,0.106-0.711,0.5s0.318,0.5,0.711,0.5h13.32c0.394,0,0.713-0.106,0.713-0.5
		s-0.319-0.5-0.713-0.5H-97v-0.198L-97.722-33h11.189C-84.954-33-84-33.383-84-34.963v-21.229C-84-57.771-84.954-59-86.532-59z
		 M-96-55v0.91c0,0.334-0.166,0.605-0.5,0.605S-97-53.756-97-54.09v-0.75l0,0v0.75c0,0.334-1.166,0.605-1.5,0.605
		s-1.5-0.271-1.5-0.605v-0.75l0,0v0.75c0,0.334-1.164,0.605-1.5,0.605c-0.334,0-1.5-0.271-1.5-0.605v-0.455l0,0v0.455
		c0,0.334-0.664,0.605-1,0.605c-0.334,0-1-0.271-1-0.605V-55h-1v0.91c0,0.334-0.664,0.605-1,0.605s-1-0.271-1-0.605V-55h-1v0.91
		c0,0.334,0,0.605,0,0.605s0-0.271,0-0.605V-55h-2v0.91c0,0.334-0.165,0.605-0.5,0.605c-0.334,0-0.5-0.271-0.5-0.605V-55h-3v9.625
		c0,0.392,0.303,1.375-0.09,1.375h-2.182c-0.393,0-0.729-0.983-0.729-1.375v-10.038c0-0.394,0.336-0.588,0.729-0.588h30.227
		C-86.65-56-87-55.806-87-55.412v13.484C-87-41.534-86.65-42-87.045-42h-6.226C-93.663-42-94-41.534-94-41.928V-55H-96z
		 M-107.556-48.573c-0.843,0-1.529-0.687-1.529-1.529c0-0.844,0.687-1.529,1.529-1.529c0.844,0,1.529,0.685,1.529,1.529
		C-106.026-49.26-106.712-48.573-107.556-48.573z M-108.718-47.037c0.24-0.285,0.659-0.338,0.96-0.125l1.115,0.792l0.006,0.006
		l1.327,1.042l0.009,0.004c0.128,0.103,0.283,0.152,0.439,0.152c0.196,0,0.393-0.083,0.531-0.24c0.011-0.01,0.021-0.021,0.027-0.032
		l0.002-0.001c0.24-0.306,0.188-0.75-0.113-0.994c-0.002-0.001-0.005-0.003-0.008-0.006l-0.554-0.434l2.547-3.158
		c0.139-0.172,0.348-0.272,0.573-0.265c0.222,0.006,0.428,0.116,0.56,0.296l5.546,7.682c0.157,0.219,0.179,1.098,0.058,1.334
		C-95.814-40.742-96.06-40-96.328-40h-15.757c-0.278,0-0.529-0.754-0.645-1.006c-0.119-0.248-0.08-0.841,0.098-1.054
		L-108.718-47.037z M-86.532-34h-31.251c-0.792,0-2.217-0.169-2.217-0.963V-37h36v2.037C-84-34.169-85.74-34-86.532-34z"/>
	<circle fill="#444444" cx="-102.159" cy="-35.958" r="1.143"/>
	<path fill="#444444" d="M-91.103-52h1.891c0.394,0,0.714-1.105,0.714-1.5c0-0.393-0.32-1.5-0.714-1.5h-1.891
		c-0.393,0-0.714,1.107-0.714,1.5C-91.816-53.105-91.495-52-91.103-52z"/>
	<path fill="#444444" d="M-91.103-50h1.891c0.394,0,0.714-0.604,0.714-1c0-0.392-0.32-1-0.714-1h-1.891
		c-0.393,0-0.714,0.608-0.714,1C-91.816-50.604-91.495-50-91.103-50z"/>
	<path fill="#444444" d="M-91.103-47h1.891c0.394,0,0.714-0.605,0.714-1c0-0.394-0.32-1-0.714-1h-1.891
		c-0.393,0-0.714,0.606-0.714,1C-91.816-47.605-91.495-47-91.103-47z"/>
	<path fill="#444444" d="M-91.103-44h1.891c0.394,0,0.714-0.604,0.714-1c0-0.391-0.32-1-0.714-1h-1.891
		c-0.393,0-0.714,0.609-0.714,1C-91.816-44.604-91.495-44-91.103-44z"/>
</g>
<text transform="matrix(1 0 0 1 7.665 31.6396)" fill="#444444" font-family="'HelveticaNeue-Bold'" font-size="21.2652">&lt;/&gt;</text>
</svg>
