<?xml version="1.0" encoding="utf-8"?>
<!-- Generator: Adobe Illustrator 16.0.0, SVG Export Plug-In . SVG Version: 6.00 Build 0)  -->
<!DOCTYPE svg PUBLIC "-//W3C//DTD SVG 1.1 Tiny//EN" "http://www.w3.org/Graphics/SVG/1.1/DTD/svg11-tiny.dtd">
<svg version="1.1" baseProfile="tiny" id="Layer_1" xmlns="http://www.w3.org/2000/svg" xmlns:xlink="http://www.w3.org/1999/xlink"
	 x="0px" y="0px" width="50px" height="50px" viewBox="0 0 50 50" xml:space="preserve">
<g>
	<path fill="#444444" d="M42.468,10H11.217C9.638,10,8,11.229,8,12.809v21.229C8,35.617,9.638,36,11.217,36h11.186L21,40.802V41
		h-0.819c-0.393,0-0.711,0.106-0.711,0.5s0.318,0.5,0.711,0.5h13.32c0.394,0,0.713-0.106,0.713-0.5S33.895,41,33.501,41H32v-0.198
		L31.278,36h11.189C44.046,36,45,35.617,45,34.037V12.809C45,11.229,44.046,10,42.468,10z M33,14v0.91
		c0,0.334-0.166,0.605-0.5,0.605S32,15.244,32,14.91v-0.75l0,0v0.75c0,0.334-1.166,0.605-1.5,0.605S29,15.244,29,14.91v-0.75l0,0
		v0.75c0,0.334-1.164,0.605-1.5,0.605c-0.334,0-1.5-0.271-1.5-0.605v-0.455l0,0v0.455c0,0.334-0.664,0.605-1,0.605
		c-0.334,0-1-0.271-1-0.605V14h-1v0.91c0,0.334-0.664,0.605-1,0.605s-1-0.271-1-0.605V14h-1v0.91c0,0.334,0,0.605,0,0.605
		s0-0.271,0-0.605V14h-2v0.91c0,0.334-0.165,0.605-0.5,0.605c-0.334,0-0.5-0.271-0.5-0.605V14h-3v9.625
		C14,24.017,14.303,25,13.91,25h-2.182C11.336,25,11,24.017,11,23.625V13.588C11,13.194,11.336,13,11.729,13h30.227
		C42.35,13,42,13.194,42,13.588v13.484C42,27.466,42.35,27,41.955,27h-6.226C35.337,27,35,27.466,35,27.072V14H33z M21.444,20.427
		c-0.843,0-1.529-0.687-1.529-1.529c0-0.844,0.687-1.529,1.529-1.529c0.844,0,1.529,0.685,1.529,1.529
		C22.974,19.74,22.288,20.427,21.444,20.427z M20.282,21.963c0.24-0.285,0.659-0.338,0.96-0.125l1.115,0.792l0.006,0.006
		l1.327,1.042l0.009,0.004c0.128,0.103,0.283,0.152,0.439,0.152c0.196,0,0.393-0.083,0.531-0.24c0.011-0.01,0.021-0.021,0.027-0.032
		l0.002-0.001c0.24-0.306,0.188-0.75-0.113-0.994c-0.002-0.001-0.005-0.003-0.008-0.006l-0.554-0.434l2.547-3.158
		c0.139-0.172,0.348-0.272,0.573-0.265c0.222,0.006,0.428,0.116,0.56,0.296l5.546,7.682c0.157,0.219,0.179,1.098,0.058,1.334
		C33.186,28.258,32.94,29,32.672,29H16.915c-0.278,0-0.529-0.754-0.645-1.006c-0.119-0.248-0.08-0.841,0.098-1.054L20.282,21.963z
		 M42.468,35H11.217C10.425,35,9,34.831,9,34.037V32h36v2.037C45,34.831,43.26,35,42.468,35z"/>
	<circle fill="#444444" cx="26.841" cy="33.042" r="1.143"/>
	<path fill="#444444" d="M37.897,17h1.891c0.394,0,0.714-1.105,0.714-1.5c0-0.393-0.32-1.5-0.714-1.5h-1.891
		c-0.393,0-0.714,1.107-0.714,1.5C37.184,15.895,37.505,17,37.897,17z"/>
	<path fill="#444444" d="M37.897,19h1.891c0.394,0,0.714-0.604,0.714-1c0-0.392-0.32-1-0.714-1h-1.891c-0.393,0-0.714,0.608-0.714,1
		C37.184,18.396,37.505,19,37.897,19z"/>
	<path fill="#444444" d="M37.897,22h1.891c0.394,0,0.714-0.605,0.714-1c0-0.394-0.32-1-0.714-1h-1.891c-0.393,0-0.714,0.606-0.714,1
		C37.184,21.395,37.505,22,37.897,22z"/>
	<path fill="#444444" d="M37.897,25h1.891c0.394,0,0.714-0.604,0.714-1c0-0.391-0.32-1-0.714-1h-1.891c-0.393,0-0.714,0.609-0.714,1
		C37.184,24.396,37.505,25,37.897,25z"/>
</g>
</svg>
