<?xml version="1.0" encoding="utf-8"?>
<!-- Generator: Adobe Illustrator 16.0.0, SVG Export Plug-In . SVG Version: 6.00 Build 0)  -->
<!DOCTYPE svg PUBLIC "-//W3C//DTD SVG 1.1 Tiny//EN" "http://www.w3.org/Graphics/SVG/1.1/DTD/svg11-tiny.dtd">
<svg version="1.1" baseProfile="tiny" id="Layer_1" xmlns="http://www.w3.org/2000/svg" xmlns:xlink="http://www.w3.org/1999/xlink"
	 x="0px" y="0px" width="50px" height="50px" viewBox="0 0 50 50" xml:space="preserve">
<path fill="#444444" d="M38.391,29.575c-0.179-4.121-0.158-7.489,0.06-10.006c0.055-0.673,0.2-1.29,0.285-1.852
	c0.052-0.341-0.132-0.66,0.245-0.963l0,0c-0.752-0.747-1.111-1.481-1.689-2.203c-0.042-0.049-0.116-0.099-0.156-0.151
	c-2.348-2.888-6.603-3.231-9.462-0.846c-1.246,1.036-2.672,1.567-4.116,1.408c-3.103-0.341-4.005-3.748-4.003-8.187
	c0-1.636-1.422-2.918-3.05-2.762c-3.209,0.309-6.016,1.445-7.964,3.007c-7.599,6.1-7.086,19.367,1.149,29.63
	c8.236,10.26,21.078,13.634,28.681,7.531c0.376-0.301,0.731-0.622,1.066-0.959c-0.027-0.284-0.06-0.58-0.088-0.882
	C38.988,38.727,38.589,34.058,38.391,29.575z M8.834,16.079c0-1.628,1.318-2.95,2.951-2.95c1.631,0,2.952,1.321,2.952,2.95
	c0,1.63-1.321,2.951-2.952,2.951C10.152,19.03,8.834,17.709,8.834,16.079z M13.287,30.023c-1.629,0-2.951-1.321-2.951-2.95
	c0-1.631,1.322-2.952,2.951-2.952c1.63,0,2.951,1.321,2.951,2.952C16.238,28.702,14.917,30.023,13.287,30.023z M20.352,38.479
	c-1.629,0-2.953-1.322-2.953-2.948c0-1.633,1.324-2.952,2.953-2.952c1.628,0,2.952,1.319,2.952,2.952
	C23.304,37.156,21.979,38.479,20.352,38.479z M30.628,42.164c-1.627,0-2.948-1.323-2.948-2.949c0-1.63,1.321-2.952,2.948-2.952
	c1.634,0,2.953,1.322,2.953,2.952C33.581,40.841,32.262,42.164,30.628,42.164z M34.182,27.402c-1.95,0.735-4.337-0.811-5.331-3.449
	c-0.998-2.641-0.225-5.375,1.724-6.11c1.948-0.734,4.338,0.808,5.332,3.447C36.901,23.931,36.128,26.667,34.182,27.402z M44.956,16
	c2.959,3,0.438,26.36-0.247,32.007c-0.088,0.729-0.698,0.598-1.434,0.598c-0.732,0-1.341-0.562-1.427-1.296
	c-0.133-1.134-0.309-2.955-0.528-5.166c-0.034-0.365-0.066-0.743-0.107-1.13C41.016,38.934,41,22.834,41,22.778v-0.014
	c0-1.234-0.561-3.489-0.51-3.85C40.764,17.025,41.273,16,41.976,16H44.956z M39.718,8.586c0-5.065,5.904-8.558,5.904-8.558
	c-0.939,5.065,1.218,6.593,1.218,8.558c0,1.967-1.595,3.56-3.562,3.56C41.312,12.146,39.718,10.553,39.718,8.586z"/>
</svg>
