<?xml version="1.0" encoding="utf-8"?>
<!-- Generator: Adobe Illustrator 16.0.0, SVG Export Plug-In . SVG Version: 6.00 Build 0)  -->
<!DOCTYPE svg PUBLIC "-//W3C//DTD SVG 1.1 Tiny//EN" "http://www.w3.org/Graphics/SVG/1.1/DTD/svg11-tiny.dtd">
<svg version="1.1" baseProfile="tiny" id="Layer_1" xmlns="http://www.w3.org/2000/svg" xmlns:xlink="http://www.w3.org/1999/xlink"
	 x="0px" y="0px" width="50px" height="50px" viewBox="0 0 50 50" xml:space="preserve">
<g>
	<path fill="#444444" d="M8.812,28.127c0-0.438-0.102-0.794-0.307-1.07c-0.204-0.276-0.532-0.414-0.984-0.414v-1.539
		c0.452,0,0.78-0.138,0.984-0.414c0.205-0.276,0.307-0.633,0.307-1.07c0-0.337-0.023-0.672-0.069-1.006
		c-0.047-0.333-0.101-0.668-0.162-1.006c-0.061-0.337-0.114-0.676-0.161-1.017c-0.047-0.34-0.069-0.687-0.069-1.038
		c0-0.544,0.078-1.042,0.236-1.49c0.157-0.448,0.399-0.833,0.726-1.156c0.327-0.323,0.739-0.572,1.237-0.748
		c0.499-0.176,1.085-0.264,1.759-0.264h0.57v1.184c0,0.093-0.02,0.174-0.06,0.242c-0.039,0.068-0.09,0.124-0.15,0.167
		s-0.123,0.075-0.188,0.097c-0.064,0.021-0.122,0.032-0.172,0.032h-0.097c-0.502,0-0.886,0.158-1.151,0.473
		c-0.265,0.316-0.397,0.75-0.397,1.302c0,0.395,0.021,0.773,0.064,1.135c0.043,0.362,0.088,0.714,0.135,1.054
		c0.046,0.341,0.091,0.676,0.134,1.006c0.043,0.33,0.064,0.664,0.064,1c0,0.272-0.037,0.531-0.112,0.774s-0.187,0.464-0.334,0.662
		c-0.146,0.197-0.322,0.371-0.526,0.521c-0.205,0.151-0.437,0.262-0.694,0.333c0.258,0.079,0.489,0.192,0.694,0.338
		c0.204,0.147,0.38,0.321,0.526,0.522c0.147,0.201,0.259,0.423,0.334,0.667s0.112,0.498,0.112,0.764c0,0.337-0.021,0.671-0.064,1
		c-0.043,0.33-0.088,0.665-0.134,1.006c-0.047,0.341-0.092,0.692-0.135,1.055s-0.064,0.74-0.064,1.135
		c0,0.545,0.133,0.975,0.397,1.291c0.266,0.315,0.649,0.473,1.151,0.473h0.097c0.05,0,0.107,0.011,0.172,0.032
		c0.065,0.021,0.128,0.054,0.188,0.097s0.111,0.101,0.15,0.173c0.04,0.071,0.06,0.153,0.06,0.247v1.173h-0.57
		c-0.674,0-1.26-0.088-1.759-0.264c-0.498-0.176-0.91-0.424-1.237-0.742c-0.326-0.319-0.568-0.703-0.726-1.151
		c-0.158-0.448-0.236-0.944-0.236-1.489c0-0.352,0.022-0.698,0.069-1.038c0.047-0.341,0.101-0.68,0.161-1.017
		c0.062-0.337,0.115-0.675,0.162-1.012C8.788,28.801,8.812,28.464,8.812,28.127z"/>
	<path fill="#444444" d="M21.494,27.008c0,0.875-0.107,1.664-0.322,2.367c-0.216,0.702-0.536,1.301-0.963,1.796
		s-0.96,0.875-1.598,1.141c-0.639,0.265-1.381,0.397-2.227,0.397c-0.388,0-0.768-0.023-1.141-0.069
		c-0.373-0.047-0.764-0.12-1.172-0.221l0.15-1.722c0.014-0.157,0.073-0.284,0.178-0.382c0.104-0.097,0.256-0.145,0.457-0.145
		c0.121,0,0.281,0.024,0.479,0.075c0.197,0.05,0.446,0.075,0.747,0.075c0.409,0,0.771-0.06,1.087-0.178s0.579-0.307,0.791-0.564
		c0.211-0.259,0.371-0.594,0.479-1.006s0.161-0.912,0.161-1.501v-10.09h2.894V27.008z"/>
	<path fill="#444444" d="M32.972,19.812c-0.079,0.158-0.171,0.269-0.274,0.333s-0.228,0.097-0.371,0.097s-0.305-0.055-0.484-0.167
		c-0.179-0.111-0.391-0.235-0.635-0.371c-0.243-0.136-0.528-0.26-0.854-0.371s-0.712-0.167-1.156-0.167
		c-0.402,0-0.752,0.049-1.049,0.146c-0.298,0.097-0.549,0.231-0.753,0.403c-0.205,0.172-0.357,0.378-0.458,0.619
		c-0.1,0.24-0.15,0.504-0.15,0.791c0,0.366,0.103,0.67,0.307,0.914c0.204,0.244,0.476,0.452,0.812,0.624
		c0.337,0.172,0.721,0.327,1.15,0.463c0.431,0.136,0.87,0.281,1.318,0.436s0.888,0.333,1.317,0.538
		c0.431,0.205,0.813,0.463,1.151,0.774c0.337,0.312,0.607,0.694,0.812,1.146c0.205,0.452,0.307,1,0.307,1.646
		c0,0.703-0.12,1.361-0.36,1.974c-0.24,0.613-0.592,1.147-1.054,1.604c-0.463,0.455-1.027,0.813-1.694,1.075
		s-1.431,0.393-2.291,0.393c-0.495,0-0.982-0.048-1.463-0.145c-0.48-0.098-0.941-0.235-1.383-0.415
		c-0.44-0.179-0.854-0.394-1.237-0.645c-0.383-0.251-0.726-0.531-1.026-0.84l0.839-1.388c0.078-0.1,0.174-0.185,0.285-0.252
		c0.11-0.068,0.234-0.103,0.371-0.103c0.179,0,0.372,0.073,0.58,0.221c0.208,0.146,0.454,0.31,0.737,0.489s0.616,0.343,1,0.489
		c0.384,0.147,0.845,0.221,1.383,0.221c0.824,0,1.463-0.195,1.915-0.586c0.451-0.392,0.677-0.952,0.677-1.684
		c0-0.409-0.102-0.742-0.306-1.001c-0.205-0.258-0.476-0.475-0.812-0.65s-0.721-0.324-1.151-0.446
		c-0.43-0.122-0.867-0.255-1.312-0.398c-0.444-0.143-0.882-0.315-1.312-0.516c-0.431-0.201-0.814-0.462-1.151-0.785
		s-0.607-0.726-0.812-1.21c-0.204-0.484-0.307-1.081-0.307-1.791c0-0.566,0.113-1.119,0.339-1.656
		c0.227-0.538,0.556-1.015,0.99-1.431c0.434-0.416,0.966-0.75,1.598-1c0.631-0.251,1.352-0.376,2.162-0.376
		c0.917,0,1.764,0.144,2.538,0.43c0.774,0.287,1.435,0.688,1.979,1.205L32.972,19.812z"/>
	<path fill="#444444" d="M39.458,28.127c0,0.337,0.023,0.674,0.069,1.011c0.047,0.337,0.101,0.675,0.162,1.012
		c0.061,0.337,0.114,0.676,0.161,1.017c0.047,0.34,0.069,0.687,0.069,1.038c0,0.545-0.078,1.041-0.236,1.489
		c-0.157,0.448-0.399,0.832-0.726,1.151c-0.327,0.318-0.739,0.566-1.237,0.742c-0.499,0.176-1.085,0.264-1.759,0.264h-0.57v-1.173
		c0-0.094,0.02-0.176,0.06-0.247c0.039-0.072,0.089-0.13,0.15-0.173c0.061-0.043,0.124-0.075,0.188-0.097s0.121-0.032,0.172-0.032
		h0.097c0.502,0,0.886-0.157,1.151-0.473c0.265-0.316,0.397-0.746,0.397-1.291c0-0.395-0.021-0.772-0.064-1.135
		s-0.088-0.714-0.135-1.055c-0.046-0.341-0.091-0.676-0.134-1.006c-0.043-0.329-0.064-0.663-0.064-1c0-0.266,0.037-0.52,0.112-0.764
		s0.185-0.466,0.328-0.667s0.319-0.375,0.527-0.522c0.208-0.146,0.441-0.259,0.699-0.338c-0.258-0.071-0.491-0.183-0.699-0.333
		c-0.208-0.15-0.384-0.324-0.527-0.521s-0.253-0.418-0.328-0.662s-0.112-0.502-0.112-0.774c0-0.337,0.021-0.67,0.064-1
		c0.043-0.33,0.088-0.665,0.134-1.006c0.047-0.34,0.092-0.692,0.135-1.054c0.043-0.362,0.064-0.74,0.064-1.135
		c0-0.552-0.133-0.986-0.397-1.302c-0.266-0.315-0.649-0.473-1.151-0.473h-0.097c-0.051,0-0.107-0.011-0.172-0.032
		s-0.128-0.054-0.188-0.097c-0.062-0.043-0.111-0.099-0.15-0.167c-0.04-0.068-0.06-0.148-0.06-0.242v-1.184h0.57
		c0.674,0,1.26,0.088,1.759,0.264c0.498,0.176,0.91,0.425,1.237,0.748c0.326,0.323,0.568,0.708,0.726,1.156
		c0.158,0.448,0.236,0.945,0.236,1.49c0,0.352-0.022,0.698-0.069,1.038c-0.047,0.341-0.101,0.68-0.161,1.017
		c-0.062,0.337-0.115,0.672-0.162,1.006c-0.046,0.333-0.069,0.669-0.069,1.006c0,0.438,0.102,0.794,0.307,1.07
		c0.204,0.276,0.532,0.414,0.984,0.414v1.539c-0.452,0-0.78,0.138-0.984,0.414C39.56,27.333,39.458,27.689,39.458,28.127z"/>
</g>
</svg>
