<?xml version="1.0" encoding="utf-8"?>
<!-- Generator: Adobe Illustrator 16.0.0, SVG Export Plug-In . SVG Version: 6.00 Build 0)  -->
<!DOCTYPE svg PUBLIC "-//W3C//DTD SVG 1.1 Tiny//EN" "http://www.w3.org/Graphics/SVG/1.1/DTD/svg11-tiny.dtd">
<svg version="1.1" baseProfile="tiny" id="Layer_1" xmlns="http://www.w3.org/2000/svg" xmlns:xlink="http://www.w3.org/1999/xlink"
	 x="0px" y="0px" width="50px" height="50px" viewBox="0 0 50 50" xml:space="preserve">
<g>
	<path fill="#444444" d="M45.981,3H4.267C2.159,3,0,4.654,0,6.763v28.336C0,37.208,2.159,37,4.267,37h14.931L18,44.129V45h-1.769
		c-0.523,0-0.949-0.025-0.949,0.5s0.426,0.5,0.949,0.5h17.78c0.525,0,0.952,0.025,0.952-0.5S34.537,45,34.012,45H32v-0.871
		L31.045,37h14.937C48.088,37,49,37.208,49,35.099V6.763C49,4.654,48.088,3,45.981,3z M34,8v1.567c0,0.446-0.555,0.809-1,0.809
		s-1-0.362-1-0.809V8.566l0,0v1.001c0,0.446-1.555,0.809-2,0.809s-2-0.362-2-0.809V8.566l0,0v1.001c0,0.446-1.552,0.809-2,0.809
		c-0.445,0-2-0.362-2-0.809V8.96l0,0v0.607c0,0.446-1.051,0.809-1.5,0.809c-0.445,0-1.5-0.362-1.5-0.809V8h-1v1.567
		c0,0.446-0.553,0.809-1,0.809s-1-0.362-1-0.809V8h-3v1.567c0,0.446,0,0.809,0,0.809s0-0.362,0-0.809V8h-2v1.567
		c0,0.446-0.053,0.809-0.5,0.809c-0.445,0-0.5-0.362-0.5-0.809V8H8v13.201C8,21.724,8.386,23,7.862,23H4.949
		C4.426,23,4,21.724,4,21.201V7.803C4,7.277,4.426,7,4.949,7h40.348C45.823,7,46,7.277,46,7.803v17.999
		C46,26.328,45.823,25,45.297,25h-8.311C36.463,25,36,26.328,36,25.802V8H34z M17.918,16.931c-1.124,0-2.041-0.916-2.041-2.04
		c0-1.127,0.917-2.042,2.041-2.042c1.127,0,2.042,0.915,2.042,2.042C19.96,16.015,19.045,16.931,17.918,16.931z M16.367,18.982
		c0.321-0.38,0.881-0.452,1.282-0.166l1.487,1.057l0.009,0.007l1.771,1.391l0.012,0.006c0.171,0.137,0.378,0.203,0.587,0.203
		c0.262,0,0.523-0.11,0.709-0.32c0.015-0.014,0.027-0.027,0.036-0.043l0.003-0.002c0.32-0.409,0.25-1.001-0.151-1.327
		c-0.003-0.002-0.007-0.003-0.011-0.008l-0.739-0.579l3.399-4.215c0.186-0.229,0.465-0.363,0.766-0.353
		c0.296,0.008,0.57,0.155,0.747,0.396l7.402,10.254c0.21,0.292,0.238,1.777,0.077,2.094C33.591,27.697,33.264,29,32.906,29H11.873
		c-0.372,0-0.706-1.318-0.86-1.656c-0.16-0.33-0.107-1.277,0.13-1.562L16.367,18.982z M45.981,36H4.267C3.21,36,1,36.159,1,35.099
		V32h48v3.099C49,36.159,47.039,36,45.981,36z"/>
	<path fill="#444444" d="M25.122,32.245c-0.841,0-1.523,0.686-1.523,1.527c0,0.838,0.683,1.522,1.523,1.522
		c0.842,0,1.526-0.685,1.526-1.522C26.648,32.931,25.964,32.245,25.122,32.245z"/>
	<path fill="#444444" d="M39.881,12h2.523c0.525,0,0.953-1.473,0.953-2c0-0.525-0.428-2-0.953-2h-2.523
		c-0.524,0-0.953,1.475-0.953,2C38.928,10.527,39.356,12,39.881,12z"/>
	<path fill="#444444" d="M39.881,15h2.523c0.525,0,0.953-0.973,0.953-1.5c0-0.523-0.428-1.5-0.953-1.5h-2.523
		c-0.524,0-0.953,0.977-0.953,1.5C38.928,14.027,39.356,15,39.881,15z"/>
	<path fill="#444444" d="M39.881,19h2.523c0.525,0,0.953-0.474,0.953-1c0-0.525-0.428-1-0.953-1h-2.523
		c-0.524,0-0.953,0.475-0.953,1C38.928,18.526,39.356,19,39.881,19z"/>
	<path fill="#444444" d="M39.881,23h2.523c0.525,0,0.953-0.972,0.953-1.5c0-0.521-0.428-1.5-0.953-1.5h-2.523
		c-0.524,0-0.953,0.979-0.953,1.5C38.928,22.028,39.356,23,39.881,23z"/>
</g>
</svg>
