<?xml version="1.0" encoding="utf-8"?>
<!-- Generator: Adobe Illustrator 16.0.0, SVG Export Plug-In . SVG Version: 6.00 Build 0)  -->
<!DOCTYPE svg PUBLIC "-//W3C//DTD SVG 1.1 Tiny//EN" "http://www.w3.org/Graphics/SVG/1.1/DTD/svg11-tiny.dtd">
<svg version="1.1" baseProfile="tiny" id="Layer_1" xmlns="http://www.w3.org/2000/svg" xmlns:xlink="http://www.w3.org/1999/xlink"
	 x="0px" y="0px" width="50px" height="50px" viewBox="0 0 50 50" xml:space="preserve">
<path fill="#444444" d="M36.637,28.93c-0.155-3.593-0.138-6.529,0.052-8.725c0.049-0.587,0.175-1.125,0.249-1.615
	c0.045-0.297-0.114-0.575,0.214-0.839l0,0c-0.656-0.651-0.969-1.292-1.474-1.921c-0.036-0.043-0.102-0.086-0.136-0.131
	c-2.047-2.518-5.757-2.817-8.25-0.737c-1.086,0.903-2.329,1.366-3.589,1.228c-2.705-0.297-3.492-3.268-3.49-7.139
	c0-1.427-1.239-2.544-2.659-2.408c-2.798,0.27-5.245,1.259-6.943,2.622C3.984,14.583,4.432,26.15,11.612,35.1
	c7.182,8.945,18.378,11.887,25.007,6.566c0.327-0.262,0.638-0.542,0.93-0.836c-0.024-0.248-0.052-0.506-0.076-0.769
	C37.158,36.909,36.81,32.839,36.637,28.93z M10.866,17.162c0-1.419,1.149-2.572,2.573-2.572c1.422,0,2.574,1.152,2.574,2.572
	c0,1.422-1.152,2.574-2.574,2.574C12.016,19.735,10.866,18.583,10.866,17.162z M14.749,29.32c-1.42,0-2.573-1.152-2.573-2.572
	c0-1.421,1.153-2.574,2.573-2.574c1.421,0,2.573,1.152,2.573,2.574C17.322,28.168,16.17,29.32,14.749,29.32z M20.908,36.693
	c-1.42,0-2.574-1.153-2.574-2.571c0-1.424,1.154-2.574,2.574-2.574s2.574,1.15,2.574,2.574
	C23.482,35.54,22.328,36.693,20.908,36.693z M29.869,39.906c-1.42,0-2.571-1.153-2.571-2.571c0-1.422,1.151-2.574,2.571-2.574
	c1.424,0,2.574,1.152,2.574,2.574C32.443,38.753,31.293,39.906,29.869,39.906z M32.967,27.035c-1.7,0.641-3.781-0.707-4.648-3.007
	c-0.869-2.303-0.195-4.686,1.504-5.327c1.698-0.641,3.781,0.705,4.648,3.005C35.338,24.009,34.664,26.394,32.967,27.035z M42.361,17
	c2.58,3,0.382,23.031-0.216,27.954c-0.076,0.636-0.608,0.544-1.249,0.544c-0.639,0-1.17-0.479-1.244-1.118
	c-0.116-0.988-0.27-2.57-0.461-4.498c-0.029-0.317-0.014-0.646-0.049-0.982C38.971,37.086,39,23.052,39,23.003v-0.012
	c0-1.076-0.532-3.089-0.487-3.403C38.751,17.94,39.15,17,39.763,17H42.361z M37.794,10.629c0-4.417,5.147-7.462,5.147-7.462
	c-0.818,4.417,1.062,5.749,1.062,7.462c0,1.715-1.391,3.104-3.106,3.104C39.185,13.733,37.794,12.344,37.794,10.629z"/>
</svg>
